M48
; DRILL file KiCad 10.0.6 date 2026-10-06T17:14:16
; FORMAT={-:-/ absolute / metric / decimal}
; #@! TF.CreationDate,2026-10-06T17:14:16-04:00
; #@! TF.GenerationSoftware,Kicad,Pcbnew,10.0.6
; #@! TF.FileFunction,Plated,1,4,PTH
FMAT,2
METRIC
; #@! TA.AperFunction,Plated,PTH,ViaDrill
T1C0.300
; #@! TA.AperFunction,Plated,PTH,ViaDrill
T2C0.500
; #@! TA.AperFunction,Plated,PTH,ComponentDrill
T3C0.750
; #@! TA.AperFunction,Plated,PTH,ComponentDrill
T4C1.000
; #@! TA.AperFunction,Plated,PTH,ComponentDrill
T5C1.200
%
G90
G05
T1
X20.8Y-35.5
X21.0Y-26.1
X21.91Y-43.77
X22.73Y-41.63
X23.5Y-21.0
X23.67Y-46.24
X24.5Y-33.5
X25.092Y-29.039
X25.2Y-42.8
X25.3Y-22.137
X25.3Y-26.58
X25.3Y-39.0
X25.505Y-23.315
X25.7Y-46.5
X25.75Y-34.386
X25.95Y-41.5
X26.173Y-31.057
X26.6Y-22.2
X26.6Y-29.0
X26.6Y-45.3
X26.881Y-33.256
X27.64Y-26.14
X29.75Y-23.25
X30.987Y-31.635
X31.75Y-32.5
X35.894Y-46.287
X36.25Y-48.75
X45.0Y-25.25
X45.0Y-40.5
X47.5Y-56.1
T2
X33.0Y-43.0
X35.0Y-43.175
X44.3Y-51.9
X44.32Y-54.62
T3
X42.5Y-23.0
X42.5Y-25.0
X42.5Y-27.0
X42.5Y-29.0
X42.5Y-31.0
X42.5Y-33.0
X42.55Y-38.5
X42.55Y-40.5
X42.55Y-42.5
X42.55Y-44.5
X42.55Y-46.5
X42.55Y-48.5
T4
X22.27Y-22.27
X22.27Y-24.81
X22.27Y-27.35
X22.27Y-29.89
X22.27Y-32.43
X22.27Y-34.97
X22.27Y-37.51
X22.27Y-40.05
X34.97Y-24.81
X34.97Y-27.35
X34.97Y-29.89
X34.97Y-32.43
X34.97Y-34.97
X34.97Y-37.51
X40.38Y-58.0
X42.92Y-58.0
X45.46Y-58.0
X48.0Y-58.0
T5
X28.0Y-53.5
X28.0Y-57.0
X33.0Y-53.5
X33.0Y-57.0
M30
