%TF.GenerationSoftware,KiCad,Pcbnew,10.0.6*%
%TF.CreationDate,2026-10-06T17:14:13-04:00*%
%TF.ProjectId,motor_controller_encoder_counter,6d6f746f-725f-4636-9f6e-74726f6c6c65,rev?*%
%TF.SameCoordinates,Original*%
%TF.FileFunction,Legend,Bot*%
%TF.FilePolarity,Positive*%
%FSLAX46Y46*%
G04 Gerber Fmt 4.6, Leading zero omitted, Abs format (unit mm)*
G04 Created by KiCad (PCBNEW 10.0.6) date 2026-10-06 17:14:13*
%MOMM*%
%LPD*%
G01*
G04 APERTURE LIST*
%ADD10C,0.200000*%
%ADD11C,0.150000*%
%ADD12C,0.120000*%
%ADD13C,0.000000*%
G04 APERTURE END LIST*
D10*
X39775434Y-21048244D02*
X38025434Y-21048244D01*
X38025434Y-21048244D02*
X39275434Y-21631578D01*
X39275434Y-21631578D02*
X38025434Y-22214911D01*
X38025434Y-22214911D02*
X39775434Y-22214911D01*
X38025434Y-23381578D02*
X38025434Y-23714911D01*
X38025434Y-23714911D02*
X38108767Y-23881578D01*
X38108767Y-23881578D02*
X38275434Y-24048244D01*
X38275434Y-24048244D02*
X38608767Y-24131578D01*
X38608767Y-24131578D02*
X39192101Y-24131578D01*
X39192101Y-24131578D02*
X39525434Y-24048244D01*
X39525434Y-24048244D02*
X39692101Y-23881578D01*
X39692101Y-23881578D02*
X39775434Y-23714911D01*
X39775434Y-23714911D02*
X39775434Y-23381578D01*
X39775434Y-23381578D02*
X39692101Y-23214911D01*
X39692101Y-23214911D02*
X39525434Y-23048244D01*
X39525434Y-23048244D02*
X39192101Y-22964911D01*
X39192101Y-22964911D02*
X38608767Y-22964911D01*
X38608767Y-22964911D02*
X38275434Y-23048244D01*
X38275434Y-23048244D02*
X38108767Y-23214911D01*
X38108767Y-23214911D02*
X38025434Y-23381578D01*
X38025434Y-24631577D02*
X38025434Y-25631577D01*
X39775434Y-25131577D02*
X38025434Y-25131577D01*
X38025434Y-26548244D02*
X38025434Y-26881577D01*
X38025434Y-26881577D02*
X38108767Y-27048244D01*
X38108767Y-27048244D02*
X38275434Y-27214910D01*
X38275434Y-27214910D02*
X38608767Y-27298244D01*
X38608767Y-27298244D02*
X39192101Y-27298244D01*
X39192101Y-27298244D02*
X39525434Y-27214910D01*
X39525434Y-27214910D02*
X39692101Y-27048244D01*
X39692101Y-27048244D02*
X39775434Y-26881577D01*
X39775434Y-26881577D02*
X39775434Y-26548244D01*
X39775434Y-26548244D02*
X39692101Y-26381577D01*
X39692101Y-26381577D02*
X39525434Y-26214910D01*
X39525434Y-26214910D02*
X39192101Y-26131577D01*
X39192101Y-26131577D02*
X38608767Y-26131577D01*
X38608767Y-26131577D02*
X38275434Y-26214910D01*
X38275434Y-26214910D02*
X38108767Y-26381577D01*
X38108767Y-26381577D02*
X38025434Y-26548244D01*
X39775434Y-29048243D02*
X38942101Y-28464910D01*
X39775434Y-28048243D02*
X38025434Y-28048243D01*
X38025434Y-28048243D02*
X38025434Y-28714910D01*
X38025434Y-28714910D02*
X38108767Y-28881577D01*
X38108767Y-28881577D02*
X38192101Y-28964910D01*
X38192101Y-28964910D02*
X38358767Y-29048243D01*
X38358767Y-29048243D02*
X38608767Y-29048243D01*
X38608767Y-29048243D02*
X38775434Y-28964910D01*
X38775434Y-28964910D02*
X38858767Y-28881577D01*
X38858767Y-28881577D02*
X38942101Y-28714910D01*
X38942101Y-28714910D02*
X38942101Y-28048243D01*
X38858767Y-31131576D02*
X38858767Y-31714910D01*
X39775434Y-31964910D02*
X39775434Y-31131576D01*
X39775434Y-31131576D02*
X38025434Y-31131576D01*
X38025434Y-31131576D02*
X38025434Y-31964910D01*
X39775434Y-32714909D02*
X38025434Y-32714909D01*
X38025434Y-32714909D02*
X39775434Y-33714909D01*
X39775434Y-33714909D02*
X38025434Y-33714909D01*
X39608767Y-35548242D02*
X39692101Y-35464909D01*
X39692101Y-35464909D02*
X39775434Y-35214909D01*
X39775434Y-35214909D02*
X39775434Y-35048242D01*
X39775434Y-35048242D02*
X39692101Y-34798242D01*
X39692101Y-34798242D02*
X39525434Y-34631576D01*
X39525434Y-34631576D02*
X39358767Y-34548242D01*
X39358767Y-34548242D02*
X39025434Y-34464909D01*
X39025434Y-34464909D02*
X38775434Y-34464909D01*
X38775434Y-34464909D02*
X38442101Y-34548242D01*
X38442101Y-34548242D02*
X38275434Y-34631576D01*
X38275434Y-34631576D02*
X38108767Y-34798242D01*
X38108767Y-34798242D02*
X38025434Y-35048242D01*
X38025434Y-35048242D02*
X38025434Y-35214909D01*
X38025434Y-35214909D02*
X38108767Y-35464909D01*
X38108767Y-35464909D02*
X38192101Y-35548242D01*
X38025434Y-36631576D02*
X38025434Y-36964909D01*
X38025434Y-36964909D02*
X38108767Y-37131576D01*
X38108767Y-37131576D02*
X38275434Y-37298242D01*
X38275434Y-37298242D02*
X38608767Y-37381576D01*
X38608767Y-37381576D02*
X39192101Y-37381576D01*
X39192101Y-37381576D02*
X39525434Y-37298242D01*
X39525434Y-37298242D02*
X39692101Y-37131576D01*
X39692101Y-37131576D02*
X39775434Y-36964909D01*
X39775434Y-36964909D02*
X39775434Y-36631576D01*
X39775434Y-36631576D02*
X39692101Y-36464909D01*
X39692101Y-36464909D02*
X39525434Y-36298242D01*
X39525434Y-36298242D02*
X39192101Y-36214909D01*
X39192101Y-36214909D02*
X38608767Y-36214909D01*
X38608767Y-36214909D02*
X38275434Y-36298242D01*
X38275434Y-36298242D02*
X38108767Y-36464909D01*
X38108767Y-36464909D02*
X38025434Y-36631576D01*
X39775434Y-38131575D02*
X38025434Y-38131575D01*
X38025434Y-38131575D02*
X38025434Y-38548242D01*
X38025434Y-38548242D02*
X38108767Y-38798242D01*
X38108767Y-38798242D02*
X38275434Y-38964909D01*
X38275434Y-38964909D02*
X38442101Y-39048242D01*
X38442101Y-39048242D02*
X38775434Y-39131575D01*
X38775434Y-39131575D02*
X39025434Y-39131575D01*
X39025434Y-39131575D02*
X39358767Y-39048242D01*
X39358767Y-39048242D02*
X39525434Y-38964909D01*
X39525434Y-38964909D02*
X39692101Y-38798242D01*
X39692101Y-38798242D02*
X39775434Y-38548242D01*
X39775434Y-38548242D02*
X39775434Y-38131575D01*
X38858767Y-39881575D02*
X38858767Y-40464909D01*
X39775434Y-40714909D02*
X39775434Y-39881575D01*
X39775434Y-39881575D02*
X38025434Y-39881575D01*
X38025434Y-39881575D02*
X38025434Y-40714909D01*
X39775434Y-42464908D02*
X38942101Y-41881575D01*
X39775434Y-41464908D02*
X38025434Y-41464908D01*
X38025434Y-41464908D02*
X38025434Y-42131575D01*
X38025434Y-42131575D02*
X38108767Y-42298242D01*
X38108767Y-42298242D02*
X38192101Y-42381575D01*
X38192101Y-42381575D02*
X38358767Y-42464908D01*
X38358767Y-42464908D02*
X38608767Y-42464908D01*
X38608767Y-42464908D02*
X38775434Y-42381575D01*
X38775434Y-42381575D02*
X38858767Y-42298242D01*
X38858767Y-42298242D02*
X38942101Y-42131575D01*
X38942101Y-42131575D02*
X38942101Y-41464908D01*
X39775434Y-44548241D02*
X38025434Y-44548241D01*
X38025434Y-44548241D02*
X38025434Y-44964908D01*
X38025434Y-44964908D02*
X38108767Y-45214908D01*
X38108767Y-45214908D02*
X38275434Y-45381575D01*
X38275434Y-45381575D02*
X38442101Y-45464908D01*
X38442101Y-45464908D02*
X38775434Y-45548241D01*
X38775434Y-45548241D02*
X39025434Y-45548241D01*
X39025434Y-45548241D02*
X39358767Y-45464908D01*
X39358767Y-45464908D02*
X39525434Y-45381575D01*
X39525434Y-45381575D02*
X39692101Y-45214908D01*
X39692101Y-45214908D02*
X39775434Y-44964908D01*
X39775434Y-44964908D02*
X39775434Y-44548241D01*
X38858767Y-46298241D02*
X38858767Y-46881575D01*
X39775434Y-47131575D02*
X39775434Y-46298241D01*
X39775434Y-46298241D02*
X38025434Y-46298241D01*
X38025434Y-46298241D02*
X38025434Y-47131575D01*
X39608767Y-48881574D02*
X39692101Y-48798241D01*
X39692101Y-48798241D02*
X39775434Y-48548241D01*
X39775434Y-48548241D02*
X39775434Y-48381574D01*
X39775434Y-48381574D02*
X39692101Y-48131574D01*
X39692101Y-48131574D02*
X39525434Y-47964908D01*
X39525434Y-47964908D02*
X39358767Y-47881574D01*
X39358767Y-47881574D02*
X39025434Y-47798241D01*
X39025434Y-47798241D02*
X38775434Y-47798241D01*
X38775434Y-47798241D02*
X38442101Y-47881574D01*
X38442101Y-47881574D02*
X38275434Y-47964908D01*
X38275434Y-47964908D02*
X38108767Y-48131574D01*
X38108767Y-48131574D02*
X38025434Y-48381574D01*
X38025434Y-48381574D02*
X38025434Y-48548241D01*
X38025434Y-48548241D02*
X38108767Y-48798241D01*
X38108767Y-48798241D02*
X38192101Y-48881574D01*
X38025434Y-49964908D02*
X38025434Y-50298241D01*
X38025434Y-50298241D02*
X38108767Y-50464908D01*
X38108767Y-50464908D02*
X38275434Y-50631574D01*
X38275434Y-50631574D02*
X38608767Y-50714908D01*
X38608767Y-50714908D02*
X39192101Y-50714908D01*
X39192101Y-50714908D02*
X39525434Y-50631574D01*
X39525434Y-50631574D02*
X39692101Y-50464908D01*
X39692101Y-50464908D02*
X39775434Y-50298241D01*
X39775434Y-50298241D02*
X39775434Y-49964908D01*
X39775434Y-49964908D02*
X39692101Y-49798241D01*
X39692101Y-49798241D02*
X39525434Y-49631574D01*
X39525434Y-49631574D02*
X39192101Y-49548241D01*
X39192101Y-49548241D02*
X38608767Y-49548241D01*
X38608767Y-49548241D02*
X38275434Y-49631574D01*
X38275434Y-49631574D02*
X38108767Y-49798241D01*
X38108767Y-49798241D02*
X38025434Y-49964908D01*
X39775434Y-51464907D02*
X38025434Y-51464907D01*
X38025434Y-51464907D02*
X38025434Y-51881574D01*
X38025434Y-51881574D02*
X38108767Y-52131574D01*
X38108767Y-52131574D02*
X38275434Y-52298241D01*
X38275434Y-52298241D02*
X38442101Y-52381574D01*
X38442101Y-52381574D02*
X38775434Y-52464907D01*
X38775434Y-52464907D02*
X39025434Y-52464907D01*
X39025434Y-52464907D02*
X39358767Y-52381574D01*
X39358767Y-52381574D02*
X39525434Y-52298241D01*
X39525434Y-52298241D02*
X39692101Y-52131574D01*
X39692101Y-52131574D02*
X39775434Y-51881574D01*
X39775434Y-51881574D02*
X39775434Y-51464907D01*
X38858767Y-53214907D02*
X38858767Y-53798241D01*
X39775434Y-54048241D02*
X39775434Y-53214907D01*
X39775434Y-53214907D02*
X38025434Y-53214907D01*
X38025434Y-53214907D02*
X38025434Y-54048241D01*
X39775434Y-55798240D02*
X38942101Y-55214907D01*
X39775434Y-54798240D02*
X38025434Y-54798240D01*
X38025434Y-54798240D02*
X38025434Y-55464907D01*
X38025434Y-55464907D02*
X38108767Y-55631574D01*
X38108767Y-55631574D02*
X38192101Y-55714907D01*
X38192101Y-55714907D02*
X38358767Y-55798240D01*
X38358767Y-55798240D02*
X38608767Y-55798240D01*
X38608767Y-55798240D02*
X38775434Y-55714907D01*
X38775434Y-55714907D02*
X38858767Y-55631574D01*
X38858767Y-55631574D02*
X38942101Y-55464907D01*
X38942101Y-55464907D02*
X38942101Y-54798240D01*
D11*
X46769580Y-42083333D02*
X46817200Y-42035714D01*
X46817200Y-42035714D02*
X46864819Y-41892857D01*
X46864819Y-41892857D02*
X46864819Y-41797619D01*
X46864819Y-41797619D02*
X46817200Y-41654762D01*
X46817200Y-41654762D02*
X46721961Y-41559524D01*
X46721961Y-41559524D02*
X46626723Y-41511905D01*
X46626723Y-41511905D02*
X46436247Y-41464286D01*
X46436247Y-41464286D02*
X46293390Y-41464286D01*
X46293390Y-41464286D02*
X46102914Y-41511905D01*
X46102914Y-41511905D02*
X46007676Y-41559524D01*
X46007676Y-41559524D02*
X45912438Y-41654762D01*
X45912438Y-41654762D02*
X45864819Y-41797619D01*
X45864819Y-41797619D02*
X45864819Y-41892857D01*
X45864819Y-41892857D02*
X45912438Y-42035714D01*
X45912438Y-42035714D02*
X45960057Y-42083333D01*
X45864819Y-42416667D02*
X45864819Y-43035714D01*
X45864819Y-43035714D02*
X46245771Y-42702381D01*
X46245771Y-42702381D02*
X46245771Y-42845238D01*
X46245771Y-42845238D02*
X46293390Y-42940476D01*
X46293390Y-42940476D02*
X46341009Y-42988095D01*
X46341009Y-42988095D02*
X46436247Y-43035714D01*
X46436247Y-43035714D02*
X46674342Y-43035714D01*
X46674342Y-43035714D02*
X46769580Y-42988095D01*
X46769580Y-42988095D02*
X46817200Y-42940476D01*
X46817200Y-42940476D02*
X46864819Y-42845238D01*
X46864819Y-42845238D02*
X46864819Y-42559524D01*
X46864819Y-42559524D02*
X46817200Y-42464286D01*
X46817200Y-42464286D02*
X46769580Y-42416667D01*
X47519580Y-54083333D02*
X47567200Y-54035714D01*
X47567200Y-54035714D02*
X47614819Y-53892857D01*
X47614819Y-53892857D02*
X47614819Y-53797619D01*
X47614819Y-53797619D02*
X47567200Y-53654762D01*
X47567200Y-53654762D02*
X47471961Y-53559524D01*
X47471961Y-53559524D02*
X47376723Y-53511905D01*
X47376723Y-53511905D02*
X47186247Y-53464286D01*
X47186247Y-53464286D02*
X47043390Y-53464286D01*
X47043390Y-53464286D02*
X46852914Y-53511905D01*
X46852914Y-53511905D02*
X46757676Y-53559524D01*
X46757676Y-53559524D02*
X46662438Y-53654762D01*
X46662438Y-53654762D02*
X46614819Y-53797619D01*
X46614819Y-53797619D02*
X46614819Y-53892857D01*
X46614819Y-53892857D02*
X46662438Y-54035714D01*
X46662438Y-54035714D02*
X46710057Y-54083333D01*
X46710057Y-54464286D02*
X46662438Y-54511905D01*
X46662438Y-54511905D02*
X46614819Y-54607143D01*
X46614819Y-54607143D02*
X46614819Y-54845238D01*
X46614819Y-54845238D02*
X46662438Y-54940476D01*
X46662438Y-54940476D02*
X46710057Y-54988095D01*
X46710057Y-54988095D02*
X46805295Y-55035714D01*
X46805295Y-55035714D02*
X46900533Y-55035714D01*
X46900533Y-55035714D02*
X47043390Y-54988095D01*
X47043390Y-54988095D02*
X47614819Y-54416667D01*
X47614819Y-54416667D02*
X47614819Y-55035714D01*
X31959580Y-31413333D02*
X32007200Y-31365714D01*
X32007200Y-31365714D02*
X32054819Y-31222857D01*
X32054819Y-31222857D02*
X32054819Y-31127619D01*
X32054819Y-31127619D02*
X32007200Y-30984762D01*
X32007200Y-30984762D02*
X31911961Y-30889524D01*
X31911961Y-30889524D02*
X31816723Y-30841905D01*
X31816723Y-30841905D02*
X31626247Y-30794286D01*
X31626247Y-30794286D02*
X31483390Y-30794286D01*
X31483390Y-30794286D02*
X31292914Y-30841905D01*
X31292914Y-30841905D02*
X31197676Y-30889524D01*
X31197676Y-30889524D02*
X31102438Y-30984762D01*
X31102438Y-30984762D02*
X31054819Y-31127619D01*
X31054819Y-31127619D02*
X31054819Y-31222857D01*
X31054819Y-31222857D02*
X31102438Y-31365714D01*
X31102438Y-31365714D02*
X31150057Y-31413333D01*
X31054819Y-32318095D02*
X31054819Y-31841905D01*
X31054819Y-31841905D02*
X31531009Y-31794286D01*
X31531009Y-31794286D02*
X31483390Y-31841905D01*
X31483390Y-31841905D02*
X31435771Y-31937143D01*
X31435771Y-31937143D02*
X31435771Y-32175238D01*
X31435771Y-32175238D02*
X31483390Y-32270476D01*
X31483390Y-32270476D02*
X31531009Y-32318095D01*
X31531009Y-32318095D02*
X31626247Y-32365714D01*
X31626247Y-32365714D02*
X31864342Y-32365714D01*
X31864342Y-32365714D02*
X31959580Y-32318095D01*
X31959580Y-32318095D02*
X32007200Y-32270476D01*
X32007200Y-32270476D02*
X32054819Y-32175238D01*
X32054819Y-32175238D02*
X32054819Y-31937143D01*
X32054819Y-31937143D02*
X32007200Y-31841905D01*
X32007200Y-31841905D02*
X31959580Y-31794286D01*
X30154819Y-24238095D02*
X30964342Y-24238095D01*
X30964342Y-24238095D02*
X31059580Y-24285714D01*
X31059580Y-24285714D02*
X31107200Y-24333333D01*
X31107200Y-24333333D02*
X31154819Y-24428571D01*
X31154819Y-24428571D02*
X31154819Y-24619047D01*
X31154819Y-24619047D02*
X31107200Y-24714285D01*
X31107200Y-24714285D02*
X31059580Y-24761904D01*
X31059580Y-24761904D02*
X30964342Y-24809523D01*
X30964342Y-24809523D02*
X30154819Y-24809523D01*
X31154819Y-25809523D02*
X31154819Y-25238095D01*
X31154819Y-25523809D02*
X30154819Y-25523809D01*
X30154819Y-25523809D02*
X30297676Y-25428571D01*
X30297676Y-25428571D02*
X30392914Y-25333333D01*
X30392914Y-25333333D02*
X30440533Y-25238095D01*
X30154819Y-34238095D02*
X30964342Y-34238095D01*
X30964342Y-34238095D02*
X31059580Y-34285714D01*
X31059580Y-34285714D02*
X31107200Y-34333333D01*
X31107200Y-34333333D02*
X31154819Y-34428571D01*
X31154819Y-34428571D02*
X31154819Y-34619047D01*
X31154819Y-34619047D02*
X31107200Y-34714285D01*
X31107200Y-34714285D02*
X31059580Y-34761904D01*
X31059580Y-34761904D02*
X30964342Y-34809523D01*
X30964342Y-34809523D02*
X30154819Y-34809523D01*
X30250057Y-35238095D02*
X30202438Y-35285714D01*
X30202438Y-35285714D02*
X30154819Y-35380952D01*
X30154819Y-35380952D02*
X30154819Y-35619047D01*
X30154819Y-35619047D02*
X30202438Y-35714285D01*
X30202438Y-35714285D02*
X30250057Y-35761904D01*
X30250057Y-35761904D02*
X30345295Y-35809523D01*
X30345295Y-35809523D02*
X30440533Y-35809523D01*
X30440533Y-35809523D02*
X30583390Y-35761904D01*
X30583390Y-35761904D02*
X31154819Y-35190476D01*
X31154819Y-35190476D02*
X31154819Y-35809523D01*
X46769580Y-27333333D02*
X46817200Y-27285714D01*
X46817200Y-27285714D02*
X46864819Y-27142857D01*
X46864819Y-27142857D02*
X46864819Y-27047619D01*
X46864819Y-27047619D02*
X46817200Y-26904762D01*
X46817200Y-26904762D02*
X46721961Y-26809524D01*
X46721961Y-26809524D02*
X46626723Y-26761905D01*
X46626723Y-26761905D02*
X46436247Y-26714286D01*
X46436247Y-26714286D02*
X46293390Y-26714286D01*
X46293390Y-26714286D02*
X46102914Y-26761905D01*
X46102914Y-26761905D02*
X46007676Y-26809524D01*
X46007676Y-26809524D02*
X45912438Y-26904762D01*
X45912438Y-26904762D02*
X45864819Y-27047619D01*
X45864819Y-27047619D02*
X45864819Y-27142857D01*
X45864819Y-27142857D02*
X45912438Y-27285714D01*
X45912438Y-27285714D02*
X45960057Y-27333333D01*
X45864819Y-28190476D02*
X45864819Y-28000000D01*
X45864819Y-28000000D02*
X45912438Y-27904762D01*
X45912438Y-27904762D02*
X45960057Y-27857143D01*
X45960057Y-27857143D02*
X46102914Y-27761905D01*
X46102914Y-27761905D02*
X46293390Y-27714286D01*
X46293390Y-27714286D02*
X46674342Y-27714286D01*
X46674342Y-27714286D02*
X46769580Y-27761905D01*
X46769580Y-27761905D02*
X46817200Y-27809524D01*
X46817200Y-27809524D02*
X46864819Y-27904762D01*
X46864819Y-27904762D02*
X46864819Y-28095238D01*
X46864819Y-28095238D02*
X46817200Y-28190476D01*
X46817200Y-28190476D02*
X46769580Y-28238095D01*
X46769580Y-28238095D02*
X46674342Y-28285714D01*
X46674342Y-28285714D02*
X46436247Y-28285714D01*
X46436247Y-28285714D02*
X46341009Y-28238095D01*
X46341009Y-28238095D02*
X46293390Y-28190476D01*
X46293390Y-28190476D02*
X46245771Y-28095238D01*
X46245771Y-28095238D02*
X46245771Y-27904762D01*
X46245771Y-27904762D02*
X46293390Y-27809524D01*
X46293390Y-27809524D02*
X46341009Y-27761905D01*
X46341009Y-27761905D02*
X46436247Y-27714286D01*
%TO.C,C3*%
D12*
X44890000Y-42357836D02*
X44890000Y-42142164D01*
X45610000Y-42357836D02*
X45610000Y-42142164D01*
D13*
%TO.C,G\u002A\u002A\u002A*%
G36*
X32652754Y-48527935D02*
G01*
X32652754Y-48796494D01*
X32553812Y-48796494D01*
X32454869Y-48796494D01*
X32454869Y-48626878D01*
X32454869Y-48457262D01*
X31907151Y-48457262D01*
X31359432Y-48457262D01*
X31359432Y-48358319D01*
X31359432Y-48259377D01*
X32006093Y-48259377D01*
X32652754Y-48259377D01*
X32652754Y-48527935D01*
G37*
G36*
X31557318Y-44061380D02*
G01*
X31557318Y-44167390D01*
X32105036Y-44167390D01*
X32652754Y-44167390D01*
X32652754Y-44266333D01*
X32652754Y-44365275D01*
X32105036Y-44365275D01*
X31557318Y-44365275D01*
X31557318Y-44467752D01*
X31557318Y-44570228D01*
X31458375Y-44570228D01*
X31359432Y-44570228D01*
X31359432Y-44262799D01*
X31359432Y-43955370D01*
X31458375Y-43955370D01*
X31557318Y-43955370D01*
X31557318Y-44061380D01*
G37*
G36*
X32652754Y-46266388D02*
G01*
X32652754Y-46365331D01*
X32380662Y-46365331D01*
X32108570Y-46365331D01*
X32108570Y-46481942D01*
X32108570Y-46598553D01*
X32380662Y-46598553D01*
X32652754Y-46598553D01*
X32652754Y-46697496D01*
X32652754Y-46796438D01*
X32006093Y-46796438D01*
X31359432Y-46796438D01*
X31359432Y-46697496D01*
X31359432Y-46598553D01*
X31631525Y-46598553D01*
X31903617Y-46598553D01*
X31903617Y-46481942D01*
X31903617Y-46365331D01*
X31631525Y-46365331D01*
X31359432Y-46365331D01*
X31359432Y-46266388D01*
X31359432Y-46167446D01*
X32006093Y-46167446D01*
X32652754Y-46167446D01*
X32652754Y-46266388D01*
G37*
G36*
X28307465Y-48228294D02*
G01*
X28309340Y-48234556D01*
X28317937Y-48259313D01*
X28326134Y-48277513D01*
X28332378Y-48285588D01*
X28334859Y-48288316D01*
X28338724Y-48302462D01*
X28341180Y-48325165D01*
X28342227Y-48352760D01*
X28341866Y-48381585D01*
X28340098Y-48407978D01*
X28336924Y-48428275D01*
X28332344Y-48438814D01*
X28331093Y-48440165D01*
X28324072Y-48453039D01*
X28315295Y-48474749D01*
X28306364Y-48501433D01*
X28289720Y-48556205D01*
X28226571Y-48556205D01*
X28163422Y-48556205D01*
X28084702Y-48500504D01*
X28005982Y-48444804D01*
X27804563Y-48440991D01*
X27789726Y-48440698D01*
X27713379Y-48438701D01*
X27648149Y-48436019D01*
X27591481Y-48432498D01*
X27540816Y-48427984D01*
X27493600Y-48422323D01*
X27453073Y-48416416D01*
X27400997Y-48407579D01*
X27354187Y-48398228D01*
X27314839Y-48388854D01*
X27285155Y-48379946D01*
X27267332Y-48371991D01*
X27264395Y-48369640D01*
X27263395Y-48361041D01*
X27276413Y-48351662D01*
X27303380Y-48341542D01*
X27344223Y-48330718D01*
X27365307Y-48325930D01*
X27412819Y-48316326D01*
X27460655Y-48308554D01*
X27511116Y-48302399D01*
X27566502Y-48297647D01*
X27629111Y-48294084D01*
X27701245Y-48291496D01*
X27785203Y-48289669D01*
X28002599Y-48286028D01*
X28080450Y-48230299D01*
X28158301Y-48174569D01*
X28225078Y-48174569D01*
X28291855Y-48174569D01*
X28307465Y-48228294D01*
G37*
G36*
X31359468Y-48684606D02*
G01*
X31375472Y-48689956D01*
X31402754Y-48699232D01*
X31440111Y-48712020D01*
X31486341Y-48727906D01*
X31540240Y-48746476D01*
X31600605Y-48767318D01*
X31666235Y-48790018D01*
X31735925Y-48814162D01*
X32113013Y-48944908D01*
X32382884Y-48944908D01*
X32652754Y-48944908D01*
X32652754Y-49043851D01*
X32652754Y-49142793D01*
X32384127Y-49142793D01*
X32115499Y-49142793D01*
X31746300Y-49271090D01*
X31703707Y-49285884D01*
X31636589Y-49309168D01*
X31574030Y-49330836D01*
X31517285Y-49350455D01*
X31467611Y-49367592D01*
X31426263Y-49381814D01*
X31394497Y-49392688D01*
X31373568Y-49399781D01*
X31364733Y-49402660D01*
X31363303Y-49402982D01*
X31359005Y-49402401D01*
X31356004Y-49397559D01*
X31354068Y-49386483D01*
X31352969Y-49367197D01*
X31352478Y-49337726D01*
X31352365Y-49296097D01*
X31352365Y-49186261D01*
X31385935Y-49176260D01*
X31419188Y-49166316D01*
X31486390Y-49145995D01*
X31550362Y-49126360D01*
X31609813Y-49107828D01*
X31663454Y-49090814D01*
X31709993Y-49075733D01*
X31748141Y-49063002D01*
X31776607Y-49053036D01*
X31794100Y-49046251D01*
X31799331Y-49043063D01*
X31795182Y-49041324D01*
X31779136Y-49035742D01*
X31752830Y-49027012D01*
X31718145Y-49015731D01*
X31676962Y-49002495D01*
X31631162Y-48987900D01*
X31582626Y-48972544D01*
X31533234Y-48957023D01*
X31484868Y-48941933D01*
X31439409Y-48927871D01*
X31398737Y-48915434D01*
X31364733Y-48905218D01*
X31364485Y-48905143D01*
X31359817Y-48902359D01*
X31356517Y-48895991D01*
X31354353Y-48883929D01*
X31353094Y-48864064D01*
X31352509Y-48834286D01*
X31352365Y-48792484D01*
X31352430Y-48770801D01*
X31352833Y-48736183D01*
X31353543Y-48708474D01*
X31354490Y-48690082D01*
X31355601Y-48683417D01*
X31359468Y-48684606D01*
G37*
G36*
X31857089Y-50267375D02*
G01*
X31932362Y-50267655D01*
X32020597Y-50268051D01*
X32150910Y-50268660D01*
X32444586Y-50270033D01*
X32492409Y-50293581D01*
X32538645Y-50321567D01*
X32585702Y-50363222D01*
X32623706Y-50412418D01*
X32650973Y-50466912D01*
X32665813Y-50524457D01*
X32669025Y-50565356D01*
X32663986Y-50629944D01*
X32647083Y-50690518D01*
X32619336Y-50745597D01*
X32581766Y-50793694D01*
X32535396Y-50833326D01*
X32481245Y-50863009D01*
X32420335Y-50881259D01*
X32419871Y-50881343D01*
X32403028Y-50883007D01*
X32373884Y-50884451D01*
X32334093Y-50885676D01*
X32285307Y-50886683D01*
X32229177Y-50887474D01*
X32167355Y-50888051D01*
X32101494Y-50888414D01*
X32033245Y-50888565D01*
X31964262Y-50888504D01*
X31896195Y-50888235D01*
X31830696Y-50887757D01*
X31769419Y-50887072D01*
X31714015Y-50886181D01*
X31666135Y-50885086D01*
X31627433Y-50883788D01*
X31599560Y-50882289D01*
X31584168Y-50880589D01*
X31541143Y-50867866D01*
X31485794Y-50839746D01*
X31436579Y-50801032D01*
X31395365Y-50753601D01*
X31364025Y-50699329D01*
X31344428Y-50640091D01*
X31340115Y-50607914D01*
X31340262Y-50569930D01*
X31536271Y-50569930D01*
X31539243Y-50589341D01*
X31551328Y-50617894D01*
X31569773Y-50644513D01*
X31591389Y-50663771D01*
X31617390Y-50679939D01*
X31986777Y-50681946D01*
X32021820Y-50682115D01*
X32108207Y-50682331D01*
X32183959Y-50682208D01*
X32248493Y-50681754D01*
X32301227Y-50680977D01*
X32341577Y-50679884D01*
X32368961Y-50678483D01*
X32382796Y-50676782D01*
X32390338Y-50674148D01*
X32413071Y-50661533D01*
X32433583Y-50644688D01*
X32443051Y-50634354D01*
X32452845Y-50619479D01*
X32457862Y-50601796D01*
X32460294Y-50575645D01*
X32460954Y-50560803D01*
X32460040Y-50539072D01*
X32455117Y-50522622D01*
X32444917Y-50505680D01*
X32441361Y-50500568D01*
X32434348Y-50491131D01*
X32426875Y-50483160D01*
X32417804Y-50476539D01*
X32405993Y-50471151D01*
X32390304Y-50466879D01*
X32369598Y-50463606D01*
X32342733Y-50461216D01*
X32308572Y-50459591D01*
X32265974Y-50458614D01*
X32213800Y-50458169D01*
X32150910Y-50458139D01*
X32076165Y-50458406D01*
X31988425Y-50458854D01*
X31610323Y-50460851D01*
X31586530Y-50477820D01*
X31574905Y-50488021D01*
X31555742Y-50513423D01*
X31541787Y-50542701D01*
X31536271Y-50569930D01*
X31340262Y-50569930D01*
X31340307Y-50558313D01*
X31346968Y-50507569D01*
X31359564Y-50461956D01*
X31375393Y-50427871D01*
X31408752Y-50379372D01*
X31450971Y-50336774D01*
X31499168Y-50302822D01*
X31550460Y-50280260D01*
X31559099Y-50277706D01*
X31569291Y-50275142D01*
X31580711Y-50272999D01*
X31594533Y-50271247D01*
X31611930Y-50269856D01*
X31634075Y-50268795D01*
X31662141Y-50268034D01*
X31697303Y-50267542D01*
X31740732Y-50267288D01*
X31793603Y-50267243D01*
X31857089Y-50267375D01*
G37*
G36*
X31861678Y-45390837D02*
G01*
X31936515Y-45391128D01*
X32024304Y-45391538D01*
X32444589Y-45393572D01*
X32492703Y-45417265D01*
X32542795Y-45448156D01*
X32588928Y-45490337D01*
X32625912Y-45539850D01*
X32652091Y-45594447D01*
X32665805Y-45651881D01*
X32666947Y-45662668D01*
X32667019Y-45732287D01*
X32654252Y-45796798D01*
X32629127Y-45855316D01*
X32592124Y-45906957D01*
X32543724Y-45950835D01*
X32484408Y-45986066D01*
X32478447Y-45988882D01*
X32462451Y-45996081D01*
X32448051Y-46001312D01*
X32432623Y-46004944D01*
X32413547Y-46007348D01*
X32388203Y-46008890D01*
X32353968Y-46009942D01*
X32308222Y-46010871D01*
X32179243Y-46013312D01*
X32179243Y-45910162D01*
X32179243Y-45807011D01*
X32276688Y-45807011D01*
X32301333Y-45806945D01*
X32334856Y-45806361D01*
X32359018Y-45804859D01*
X32376854Y-45802065D01*
X32391393Y-45797607D01*
X32405667Y-45791110D01*
X32423392Y-45779361D01*
X32446643Y-45754216D01*
X32462891Y-45724395D01*
X32469004Y-45694668D01*
X32466150Y-45675897D01*
X32454089Y-45646978D01*
X32435539Y-45620032D01*
X32413730Y-45600558D01*
X32387729Y-45584390D01*
X32034363Y-45582171D01*
X32025903Y-45582119D01*
X31955470Y-45581794D01*
X31888424Y-45581667D01*
X31826302Y-45581727D01*
X31770637Y-45581966D01*
X31722966Y-45582375D01*
X31684823Y-45582944D01*
X31657743Y-45583663D01*
X31643263Y-45584525D01*
X31637441Y-45585382D01*
X31602515Y-45597196D01*
X31573041Y-45618116D01*
X31551177Y-45645558D01*
X31539080Y-45676934D01*
X31538907Y-45709658D01*
X31548442Y-45737840D01*
X31570923Y-45769736D01*
X31602219Y-45792375D01*
X31614782Y-45797796D01*
X31631201Y-45802456D01*
X31651750Y-45805266D01*
X31679761Y-45806645D01*
X31718564Y-45807011D01*
X31804674Y-45807011D01*
X31804674Y-45909488D01*
X31804674Y-46011964D01*
X31707498Y-46011880D01*
X31690642Y-46011793D01*
X31639689Y-46010190D01*
X31598533Y-46006085D01*
X31563882Y-45998853D01*
X31532444Y-45987864D01*
X31500925Y-45972491D01*
X31495422Y-45969353D01*
X31459890Y-45943280D01*
X31424388Y-45908638D01*
X31392786Y-45869595D01*
X31368951Y-45830317D01*
X31363255Y-45818407D01*
X31356599Y-45802025D01*
X31352377Y-45785621D01*
X31350041Y-45765667D01*
X31349042Y-45738637D01*
X31348831Y-45701001D01*
X31348869Y-45682900D01*
X31349420Y-45649924D01*
X31351029Y-45626037D01*
X31354208Y-45607727D01*
X31359468Y-45591482D01*
X31367318Y-45573789D01*
X31370621Y-45567034D01*
X31405592Y-45511363D01*
X31449460Y-45464536D01*
X31500420Y-45428171D01*
X31556669Y-45403885D01*
X31565517Y-45401292D01*
X31575872Y-45398684D01*
X31587353Y-45396507D01*
X31601144Y-45394729D01*
X31618427Y-45393319D01*
X31640385Y-45392246D01*
X31668200Y-45391478D01*
X31703054Y-45390984D01*
X31746130Y-45390734D01*
X31798611Y-45390695D01*
X31861678Y-45390837D01*
G37*
G36*
X31861553Y-49489891D02*
G01*
X31936372Y-49490182D01*
X32024143Y-49490592D01*
X32444268Y-49492626D01*
X32492369Y-49516146D01*
X32543031Y-49547328D01*
X32589035Y-49589468D01*
X32625952Y-49638965D01*
X32652101Y-49693545D01*
X32665805Y-49750935D01*
X32666947Y-49761722D01*
X32667019Y-49831341D01*
X32654252Y-49895852D01*
X32629127Y-49954370D01*
X32592124Y-50006011D01*
X32543724Y-50049889D01*
X32484408Y-50085120D01*
X32478447Y-50087936D01*
X32462451Y-50095135D01*
X32448051Y-50100366D01*
X32432623Y-50103998D01*
X32413547Y-50106402D01*
X32388203Y-50107944D01*
X32353968Y-50108996D01*
X32308222Y-50109925D01*
X32179243Y-50112366D01*
X32179243Y-50009216D01*
X32179243Y-49906065D01*
X32276688Y-49906065D01*
X32301333Y-49905999D01*
X32334856Y-49905415D01*
X32359018Y-49903913D01*
X32376854Y-49901119D01*
X32391393Y-49896661D01*
X32405667Y-49890164D01*
X32423392Y-49878415D01*
X32446643Y-49853270D01*
X32462891Y-49823449D01*
X32469004Y-49793722D01*
X32466150Y-49774951D01*
X32454089Y-49746032D01*
X32435539Y-49719086D01*
X32413730Y-49699612D01*
X32387729Y-49683444D01*
X32041430Y-49681202D01*
X32036282Y-49681169D01*
X31948796Y-49680637D01*
X31874232Y-49680312D01*
X31811441Y-49680272D01*
X31759274Y-49680596D01*
X31716582Y-49681362D01*
X31682216Y-49682648D01*
X31655026Y-49684534D01*
X31633862Y-49687096D01*
X31617577Y-49690415D01*
X31605021Y-49694568D01*
X31595044Y-49699633D01*
X31586497Y-49705690D01*
X31578231Y-49712816D01*
X31575899Y-49714959D01*
X31550375Y-49746597D01*
X31538783Y-49780464D01*
X31541174Y-49816217D01*
X31557599Y-49853515D01*
X31560431Y-49857900D01*
X31577325Y-49877130D01*
X31599414Y-49890852D01*
X31628869Y-49899777D01*
X31667862Y-49904611D01*
X31718564Y-49906065D01*
X31804674Y-49906065D01*
X31804674Y-50008542D01*
X31804674Y-50111018D01*
X31707498Y-50110934D01*
X31702871Y-50110925D01*
X31649453Y-50109757D01*
X31606544Y-50106243D01*
X31570872Y-50099808D01*
X31539168Y-50089877D01*
X31508161Y-50075875D01*
X31470335Y-50051152D01*
X31432380Y-50016841D01*
X31398527Y-49977192D01*
X31372791Y-49936340D01*
X31363075Y-49916692D01*
X31356260Y-49900172D01*
X31352061Y-49883874D01*
X31349845Y-49864210D01*
X31348979Y-49837590D01*
X31348831Y-49800425D01*
X31348872Y-49781607D01*
X31349431Y-49748755D01*
X31351047Y-49724950D01*
X31354230Y-49706695D01*
X31359484Y-49690492D01*
X31367318Y-49672843D01*
X31370621Y-49666088D01*
X31405592Y-49610417D01*
X31449460Y-49563590D01*
X31500420Y-49527225D01*
X31556669Y-49502939D01*
X31565492Y-49500353D01*
X31575846Y-49497744D01*
X31587325Y-49495565D01*
X31601111Y-49493786D01*
X31618386Y-49492375D01*
X31640334Y-49491301D01*
X31668136Y-49490533D01*
X31702977Y-49490039D01*
X31746038Y-49489788D01*
X31798502Y-49489749D01*
X31861553Y-49489891D01*
G37*
G36*
X32344240Y-51047092D02*
G01*
X32350253Y-51047801D01*
X32421336Y-51062296D01*
X32485652Y-51086717D01*
X32542076Y-51120097D01*
X32589483Y-51161467D01*
X32626746Y-51209862D01*
X32652740Y-51264314D01*
X32666339Y-51323856D01*
X32667964Y-51340418D01*
X32668322Y-51413073D01*
X32657030Y-51478552D01*
X32634313Y-51536406D01*
X32600394Y-51586185D01*
X32555495Y-51627439D01*
X32499840Y-51659716D01*
X32465283Y-51673355D01*
X32396557Y-51689343D01*
X32326497Y-51691670D01*
X32256538Y-51680356D01*
X32188119Y-51655421D01*
X32159200Y-51641108D01*
X32112230Y-51614166D01*
X32068860Y-51583552D01*
X32026448Y-51547110D01*
X31982351Y-51502683D01*
X31933924Y-51448118D01*
X31929397Y-51442825D01*
X31889031Y-51397423D01*
X31853800Y-51361744D01*
X31821441Y-51333814D01*
X31789690Y-51311661D01*
X31756283Y-51293312D01*
X31734628Y-51283672D01*
X31713467Y-51277450D01*
X31689170Y-51274480D01*
X31656260Y-51273689D01*
X31651948Y-51273698D01*
X31610404Y-51276303D01*
X31578912Y-51284359D01*
X31554282Y-51299119D01*
X31533321Y-51321831D01*
X31523019Y-51343336D01*
X31518569Y-51374066D01*
X31522182Y-51405269D01*
X31533832Y-51430977D01*
X31548851Y-51446052D01*
X31576673Y-51464349D01*
X31609263Y-51478949D01*
X31641384Y-51487118D01*
X31653778Y-51488969D01*
X31662767Y-51492101D01*
X31667919Y-51498543D01*
X31669500Y-51510414D01*
X31667772Y-51529833D01*
X31663003Y-51558922D01*
X31655455Y-51599800D01*
X31640515Y-51679966D01*
X31617214Y-51679966D01*
X31603255Y-51678700D01*
X31578049Y-51673865D01*
X31551133Y-51666652D01*
X31520051Y-51655401D01*
X31463175Y-51624717D01*
X31416399Y-51584565D01*
X31380214Y-51535695D01*
X31355111Y-51478855D01*
X31341580Y-51414797D01*
X31340111Y-51344268D01*
X31341691Y-51326158D01*
X31355043Y-51262071D01*
X31379962Y-51206104D01*
X31416410Y-51158313D01*
X31464348Y-51118752D01*
X31523737Y-51087474D01*
X31533006Y-51083702D01*
X31551640Y-51077140D01*
X31570047Y-51072883D01*
X31591815Y-51070444D01*
X31620534Y-51069338D01*
X31659794Y-51069080D01*
X31671123Y-51069097D01*
X31707995Y-51069596D01*
X31735380Y-51071140D01*
X31756977Y-51074206D01*
X31776486Y-51079270D01*
X31797607Y-51086807D01*
X31804163Y-51089371D01*
X31828429Y-51099705D01*
X31851477Y-51111305D01*
X31874510Y-51125183D01*
X31898734Y-51142348D01*
X31925353Y-51163810D01*
X31955571Y-51190577D01*
X31990594Y-51223660D01*
X32031624Y-51264068D01*
X32079868Y-51312811D01*
X32136529Y-51370899D01*
X32156111Y-51390809D01*
X32193699Y-51426836D01*
X32225780Y-51453507D01*
X32254495Y-51472084D01*
X32281989Y-51483829D01*
X32310403Y-51490005D01*
X32341881Y-51491873D01*
X32363209Y-51490870D01*
X32406598Y-51480834D01*
X32441942Y-51460808D01*
X32467853Y-51431747D01*
X32482942Y-51394611D01*
X32483209Y-51393394D01*
X32484311Y-51357291D01*
X32472499Y-51323890D01*
X32448867Y-51294227D01*
X32414504Y-51269338D01*
X32370503Y-51250258D01*
X32317955Y-51238023D01*
X32284072Y-51232942D01*
X32287941Y-51193196D01*
X32290490Y-51165693D01*
X32293492Y-51131374D01*
X32296280Y-51097842D01*
X32300750Y-51042235D01*
X32344240Y-51047092D01*
G37*
G36*
X32097068Y-46966089D02*
G01*
X32172725Y-46966252D01*
X32210223Y-46966476D01*
X32236709Y-46966634D01*
X32290254Y-46967325D01*
X32334596Y-46968416D01*
X32370970Y-46969996D01*
X32400610Y-46972156D01*
X32424750Y-46974986D01*
X32444627Y-46978575D01*
X32461474Y-46983014D01*
X32476526Y-46988393D01*
X32491018Y-46994803D01*
X32506185Y-47002332D01*
X32533851Y-47020482D01*
X32565162Y-47047648D01*
X32595920Y-47079739D01*
X32622477Y-47112944D01*
X32641186Y-47143449D01*
X32648574Y-47160975D01*
X32659303Y-47195411D01*
X32665766Y-47228257D01*
X32667043Y-47240696D01*
X32666933Y-47310190D01*
X32654330Y-47374698D01*
X32629638Y-47433206D01*
X32593263Y-47484706D01*
X32545609Y-47528185D01*
X32532944Y-47537605D01*
X32519562Y-47547415D01*
X32507011Y-47555753D01*
X32494140Y-47562740D01*
X32479797Y-47568493D01*
X32462832Y-47573133D01*
X32442094Y-47576779D01*
X32416430Y-47579549D01*
X32384691Y-47581564D01*
X32345724Y-47582941D01*
X32298379Y-47583801D01*
X32241505Y-47584262D01*
X32173949Y-47584444D01*
X32094561Y-47584465D01*
X32002190Y-47584446D01*
X31567180Y-47584446D01*
X31513427Y-47557879D01*
X31473311Y-47534384D01*
X31424154Y-47492698D01*
X31385373Y-47442984D01*
X31357712Y-47386880D01*
X31341918Y-47326021D01*
X31339356Y-47274536D01*
X31538602Y-47274536D01*
X31544619Y-47309937D01*
X31563169Y-47342089D01*
X31565383Y-47344723D01*
X31572593Y-47352986D01*
X31579953Y-47359967D01*
X31588627Y-47365772D01*
X31599783Y-47370511D01*
X31614584Y-47374292D01*
X31634197Y-47377223D01*
X31659786Y-47379411D01*
X31692518Y-47380965D01*
X31733557Y-47381994D01*
X31784070Y-47382606D01*
X31845221Y-47382908D01*
X31918175Y-47383008D01*
X32004099Y-47383016D01*
X32045691Y-47383009D01*
X32122499Y-47382941D01*
X32186923Y-47382771D01*
X32240150Y-47382463D01*
X32283361Y-47381981D01*
X32317743Y-47381288D01*
X32344477Y-47380347D01*
X32364750Y-47379121D01*
X32379744Y-47377576D01*
X32390643Y-47375672D01*
X32398632Y-47373375D01*
X32404895Y-47370648D01*
X32406608Y-47369748D01*
X32426790Y-47355864D01*
X32442468Y-47340076D01*
X32458974Y-47306896D01*
X32463625Y-47270517D01*
X32456642Y-47234712D01*
X32438659Y-47202691D01*
X32410314Y-47177665D01*
X32407843Y-47176195D01*
X32402293Y-47173442D01*
X32395342Y-47171141D01*
X32385832Y-47169258D01*
X32372607Y-47167761D01*
X32354508Y-47166615D01*
X32330378Y-47165788D01*
X32299058Y-47165246D01*
X32259393Y-47164955D01*
X32210223Y-47164881D01*
X32150392Y-47164993D01*
X32078741Y-47165255D01*
X31994114Y-47165635D01*
X31600499Y-47167473D01*
X31575238Y-47191961D01*
X31563264Y-47205294D01*
X31544893Y-47238713D01*
X31538602Y-47274536D01*
X31339356Y-47274536D01*
X31338734Y-47262045D01*
X31348908Y-47196588D01*
X31360222Y-47162594D01*
X31389029Y-47108514D01*
X31428152Y-47060535D01*
X31475493Y-47020633D01*
X31528954Y-46990783D01*
X31586435Y-46972961D01*
X31588373Y-46972655D01*
X31605711Y-46971277D01*
X31635650Y-46970015D01*
X31676926Y-46968891D01*
X31728275Y-46967925D01*
X31788432Y-46967138D01*
X31856132Y-46966550D01*
X31930112Y-46966182D01*
X32009107Y-46966054D01*
X32097068Y-46966089D01*
G37*
G36*
X31140345Y-46011821D02*
G01*
X31140345Y-46017657D01*
X31140333Y-46120973D01*
X31140287Y-46211101D01*
X31140187Y-46288938D01*
X31140012Y-46355385D01*
X31139742Y-46411338D01*
X31139357Y-46457698D01*
X31138837Y-46495363D01*
X31138163Y-46525230D01*
X31137314Y-46548200D01*
X31136270Y-46565171D01*
X31135012Y-46577040D01*
X31133518Y-46584708D01*
X31131770Y-46589073D01*
X31129747Y-46591032D01*
X31127429Y-46591486D01*
X31116023Y-46593625D01*
X31095414Y-46600009D01*
X31071030Y-46609154D01*
X31046044Y-46618524D01*
X31020855Y-46624754D01*
X30997388Y-46625210D01*
X30972222Y-46619454D01*
X30941937Y-46607043D01*
X30903113Y-46587539D01*
X30872524Y-46572030D01*
X30839642Y-46557520D01*
X30816258Y-46550788D01*
X30801122Y-46551704D01*
X30792987Y-46560141D01*
X30790603Y-46575970D01*
X30790074Y-46588503D01*
X30786197Y-46596036D01*
X30776468Y-46595227D01*
X30719036Y-46579902D01*
X30668428Y-46569670D01*
X30625741Y-46565496D01*
X30588515Y-46567318D01*
X30554288Y-46575073D01*
X30520600Y-46588699D01*
X30508190Y-46594533D01*
X30495423Y-46599659D01*
X30481843Y-46603499D01*
X30465231Y-46606328D01*
X30443367Y-46608421D01*
X30414031Y-46610053D01*
X30375005Y-46611497D01*
X30324068Y-46613030D01*
X30284585Y-46614207D01*
X30242531Y-46615685D01*
X30210612Y-46617306D01*
X30186541Y-46619344D01*
X30168034Y-46622073D01*
X30152805Y-46625767D01*
X30138568Y-46630701D01*
X30123038Y-46637148D01*
X30101633Y-46645526D01*
X30058930Y-46656128D01*
X30023623Y-46655714D01*
X29996272Y-46644455D01*
X29977441Y-46622521D01*
X29967691Y-46590081D01*
X29963634Y-46559683D01*
X29920420Y-46555545D01*
X29908515Y-46554169D01*
X29881406Y-46548088D01*
X29857791Y-46536753D01*
X29833895Y-46517991D01*
X29805947Y-46489632D01*
X29786173Y-46464707D01*
X29777411Y-46443034D01*
X29780812Y-46424269D01*
X29796160Y-46406596D01*
X29796951Y-46405954D01*
X29810253Y-46396496D01*
X29833203Y-46381350D01*
X29863575Y-46361941D01*
X29899145Y-46339693D01*
X29937688Y-46316028D01*
X29953191Y-46306563D01*
X30004687Y-46274364D01*
X30045907Y-46246932D01*
X30078601Y-46222796D01*
X30104518Y-46200484D01*
X30125407Y-46178525D01*
X30143017Y-46155447D01*
X30159098Y-46129779D01*
X30171285Y-46109912D01*
X30200085Y-46070735D01*
X30229478Y-46040391D01*
X30257291Y-46021277D01*
X30262397Y-46018848D01*
X30281014Y-46010156D01*
X30306705Y-45998284D01*
X30335509Y-45985066D01*
X30340174Y-45982917D01*
X30413053Y-45944298D01*
X30474992Y-45900749D01*
X30528718Y-45850366D01*
X30575457Y-45801026D01*
X30617063Y-45759500D01*
X30650658Y-45728918D01*
X30676459Y-45709073D01*
X30687983Y-45701587D01*
X30699791Y-45695600D01*
X30706886Y-45696725D01*
X30713563Y-45704423D01*
X30717100Y-45711649D01*
X30721722Y-45734194D01*
X30723372Y-45765958D01*
X30723370Y-45768935D01*
X30723697Y-45793419D01*
X30726637Y-45807397D01*
X30735029Y-45812949D01*
X30751710Y-45812152D01*
X30779517Y-45807086D01*
X30797566Y-45802960D01*
X30824257Y-45792358D01*
X30846228Y-45775516D01*
X30866307Y-45749973D01*
X30887323Y-45713267D01*
X30907559Y-45677132D01*
X30939394Y-45627724D01*
X30974661Y-45579690D01*
X31011446Y-45535301D01*
X31047837Y-45496829D01*
X31081921Y-45466547D01*
X31111782Y-45446727D01*
X31140345Y-45432155D01*
X31140345Y-46011821D01*
G37*
G36*
X32648663Y-44550209D02*
G01*
X32650277Y-44561986D01*
X32651575Y-44584374D01*
X32652440Y-44614884D01*
X32652754Y-44651026D01*
X32652652Y-44684974D01*
X32652109Y-44715259D01*
X32650867Y-44735380D01*
X32648669Y-44747518D01*
X32645261Y-44753854D01*
X32640387Y-44756568D01*
X32633256Y-44758078D01*
X32613491Y-44761587D01*
X32584287Y-44766436D01*
X32548223Y-44772201D01*
X32507874Y-44778454D01*
X32477252Y-44783163D01*
X32439283Y-44789098D01*
X32407275Y-44794211D01*
X32383899Y-44798074D01*
X32371828Y-44800259D01*
X32369585Y-44800775D01*
X32363937Y-44803087D01*
X32360109Y-44808206D01*
X32357748Y-44818395D01*
X32356500Y-44835922D01*
X32356011Y-44863052D01*
X32355926Y-44902051D01*
X32356002Y-44930820D01*
X32356505Y-44961737D01*
X32357716Y-44982289D01*
X32359905Y-44994701D01*
X32363341Y-45001196D01*
X32368294Y-45003997D01*
X32375416Y-45005516D01*
X32395178Y-45009012D01*
X32424383Y-45013824D01*
X32460452Y-45019530D01*
X32500807Y-45025706D01*
X32531400Y-45030353D01*
X32569378Y-45036238D01*
X32601396Y-45041332D01*
X32624778Y-45045208D01*
X32636853Y-45047438D01*
X32640114Y-45048259D01*
X32645349Y-45050864D01*
X32648894Y-45056541D01*
X32651077Y-45067502D01*
X32652229Y-45085961D01*
X32652678Y-45114129D01*
X32652754Y-45154220D01*
X32652754Y-45257364D01*
X32633319Y-45254285D01*
X32623864Y-45252727D01*
X32601430Y-45248998D01*
X32567089Y-45243274D01*
X32521865Y-45235727D01*
X32466782Y-45226528D01*
X32402867Y-45215849D01*
X32331143Y-45203861D01*
X32252635Y-45190735D01*
X32168369Y-45176642D01*
X32079368Y-45161754D01*
X31986658Y-45146241D01*
X31359432Y-45041276D01*
X31359432Y-44904829D01*
X31359433Y-44900941D01*
X31698610Y-44900941D01*
X31707459Y-44903582D01*
X31728101Y-44907790D01*
X31758934Y-44913285D01*
X31798355Y-44919791D01*
X31844761Y-44927029D01*
X31896550Y-44934722D01*
X31909808Y-44936646D01*
X31963437Y-44944433D01*
X32013379Y-44951692D01*
X32057574Y-44958124D01*
X32093961Y-44963428D01*
X32120481Y-44967304D01*
X32135072Y-44969452D01*
X32165108Y-44973932D01*
X32165108Y-44902264D01*
X32165108Y-44830596D01*
X32145673Y-44834497D01*
X32143750Y-44834850D01*
X32128458Y-44837273D01*
X32101632Y-44841268D01*
X32065211Y-44846555D01*
X32021132Y-44852854D01*
X31971333Y-44859887D01*
X31917752Y-44867373D01*
X31901291Y-44869668D01*
X31849342Y-44877021D01*
X31802216Y-44883852D01*
X31761748Y-44889883D01*
X31729776Y-44894837D01*
X31708136Y-44898438D01*
X31698664Y-44900409D01*
X31698610Y-44900941D01*
X31359433Y-44900941D01*
X31359440Y-44876433D01*
X31359583Y-44836589D01*
X31360073Y-44807886D01*
X31361129Y-44788420D01*
X31362967Y-44776283D01*
X31365802Y-44769568D01*
X31369853Y-44766369D01*
X31375334Y-44764779D01*
X31375672Y-44764707D01*
X31386285Y-44762769D01*
X31409361Y-44758731D01*
X31443700Y-44752795D01*
X31488102Y-44745167D01*
X31541367Y-44736048D01*
X31602296Y-44725643D01*
X31669688Y-44714155D01*
X31742344Y-44701787D01*
X31819063Y-44688743D01*
X31898647Y-44675226D01*
X31979894Y-44661439D01*
X32061606Y-44647587D01*
X32142583Y-44633871D01*
X32165108Y-44630060D01*
X32221624Y-44620497D01*
X32297530Y-44607667D01*
X32369101Y-44595584D01*
X32435137Y-44584452D01*
X32494438Y-44574475D01*
X32545805Y-44565856D01*
X32588038Y-44558798D01*
X32619936Y-44553505D01*
X32640300Y-44550180D01*
X32647931Y-44549026D01*
X32648663Y-44550209D01*
G37*
G36*
X29375614Y-48465575D02*
G01*
X29518686Y-48465740D01*
X29675640Y-48466013D01*
X29810165Y-48466265D01*
X29940914Y-48466494D01*
X30021854Y-48466645D01*
X30058911Y-48466714D01*
X30164869Y-48466954D01*
X30259502Y-48467247D01*
X30343523Y-48467625D01*
X30417646Y-48468119D01*
X30482586Y-48468762D01*
X30528022Y-48469423D01*
X30539055Y-48469584D01*
X30587768Y-48470617D01*
X30629439Y-48471894D01*
X30664781Y-48473445D01*
X30694508Y-48475303D01*
X30719333Y-48477499D01*
X30739971Y-48480065D01*
X30757136Y-48483032D01*
X30771540Y-48486433D01*
X30783899Y-48490298D01*
X30794925Y-48494661D01*
X30805333Y-48499551D01*
X30815836Y-48505002D01*
X30827148Y-48511044D01*
X30839983Y-48517710D01*
X30868806Y-48533537D01*
X30936850Y-48581823D01*
X30999455Y-48642338D01*
X31055773Y-48714192D01*
X31104959Y-48796494D01*
X31139855Y-48863634D01*
X31140100Y-50269273D01*
X31140345Y-51674913D01*
X31098999Y-51670591D01*
X31074458Y-51666848D01*
X31031249Y-51656796D01*
X30984303Y-51642773D01*
X30938822Y-51626383D01*
X30900008Y-51609229D01*
X30891077Y-51604615D01*
X30820900Y-51559606D01*
X30758125Y-51503315D01*
X30703799Y-51436994D01*
X30658967Y-51361896D01*
X30624674Y-51279273D01*
X30600224Y-51188369D01*
X30586007Y-51089866D01*
X30583761Y-50991233D01*
X30593304Y-50894256D01*
X30614452Y-50800723D01*
X30647025Y-50712419D01*
X30690839Y-50631132D01*
X30701778Y-50612940D01*
X30709387Y-50595651D01*
X30707514Y-50588649D01*
X30700061Y-50586905D01*
X30680912Y-50582821D01*
X30653774Y-50577227D01*
X30621881Y-50570797D01*
X30580410Y-50561800D01*
X30459589Y-50527173D01*
X30343577Y-50481386D01*
X30233863Y-50425262D01*
X30131936Y-50359627D01*
X30039287Y-50285305D01*
X29957406Y-50203120D01*
X29914729Y-50150106D01*
X29861054Y-50068293D01*
X29812701Y-49976555D01*
X29770656Y-49877040D01*
X29735908Y-49771897D01*
X29709443Y-49663275D01*
X29700252Y-49616246D01*
X29691691Y-49568105D01*
X29685181Y-49524206D01*
X29680454Y-49481485D01*
X29677240Y-49436883D01*
X29675282Y-49387716D01*
X30400552Y-49387716D01*
X30407491Y-49390008D01*
X30424787Y-49393714D01*
X30448335Y-49397859D01*
X30458019Y-49399478D01*
X30484328Y-49405273D01*
X30500521Y-49412663D01*
X30509706Y-49423618D01*
X30514993Y-49440110D01*
X30517932Y-49450249D01*
X30524455Y-49459827D01*
X30530129Y-49456454D01*
X30532554Y-49440126D01*
X30532594Y-49437747D01*
X30538861Y-49415252D01*
X30556003Y-49401541D01*
X30584297Y-49396381D01*
X30588390Y-49396228D01*
X30613617Y-49394126D01*
X30635030Y-49390746D01*
X30642473Y-49388505D01*
X30641741Y-49386169D01*
X30629282Y-49383889D01*
X30603900Y-49381301D01*
X30600667Y-49381002D01*
X30574710Y-49377702D01*
X30554629Y-49373641D01*
X30544541Y-49369627D01*
X30543419Y-49368248D01*
X30537587Y-49355010D01*
X30532767Y-49335738D01*
X30528022Y-49308876D01*
X30515879Y-49336897D01*
X30509940Y-49349920D01*
X30501198Y-49363522D01*
X30489494Y-49371620D01*
X30471115Y-49376390D01*
X30442351Y-49380009D01*
X30420881Y-49382723D01*
X30405388Y-49385547D01*
X30400552Y-49387716D01*
X29675282Y-49387716D01*
X29675267Y-49387336D01*
X29674267Y-49329785D01*
X29673968Y-49261167D01*
X29673873Y-49072112D01*
X29652671Y-49068890D01*
X29638858Y-49066912D01*
X29613835Y-49063473D01*
X29581878Y-49059165D01*
X29546661Y-49054487D01*
X29496008Y-49047277D01*
X29409830Y-49032677D01*
X29325817Y-49015656D01*
X29246360Y-48996801D01*
X29173853Y-48976698D01*
X29110686Y-48955933D01*
X29059253Y-48935091D01*
X28985747Y-48895251D01*
X28940830Y-48862696D01*
X29837729Y-48862696D01*
X29845812Y-48865937D01*
X29866875Y-48867315D01*
X29882547Y-48868306D01*
X29909625Y-48871796D01*
X29938053Y-48876908D01*
X29955787Y-48880930D01*
X29975678Y-48887951D01*
X29989044Y-48898738D01*
X29999362Y-48916564D01*
X30010112Y-48944700D01*
X30021253Y-48976296D01*
X30029890Y-48932398D01*
X30032962Y-48918603D01*
X30041405Y-48893942D01*
X30050959Y-48881846D01*
X30054000Y-48880632D01*
X30070513Y-48876903D01*
X30095556Y-48873207D01*
X30125016Y-48870192D01*
X30137104Y-48869116D01*
X30163100Y-48866072D01*
X30181834Y-48862835D01*
X30189884Y-48859945D01*
X30188304Y-48858362D01*
X30176063Y-48855372D01*
X30154312Y-48852318D01*
X30125917Y-48849660D01*
X30122920Y-48849430D01*
X30086956Y-48845540D01*
X30061665Y-48840514D01*
X30048774Y-48834687D01*
X30043923Y-48826965D01*
X30036629Y-48807996D01*
X30030347Y-48784121D01*
X30021854Y-48743489D01*
X30013413Y-48771758D01*
X30012633Y-48774349D01*
X30003593Y-48800137D01*
X29992957Y-48818638D01*
X29978220Y-48831379D01*
X29956873Y-48839884D01*
X29926411Y-48845678D01*
X29884325Y-48850287D01*
X29882480Y-48850463D01*
X29856952Y-48854092D01*
X29841739Y-48858459D01*
X29837729Y-48862696D01*
X28940830Y-48862696D01*
X28916112Y-48844781D01*
X28850361Y-48783179D01*
X28787433Y-48709450D01*
X28726268Y-48622599D01*
X28710978Y-48598290D01*
X28691211Y-48564998D01*
X28673371Y-48533011D01*
X28658874Y-48504982D01*
X28649136Y-48483565D01*
X28645576Y-48471416D01*
X28645693Y-48471243D01*
X28652755Y-48470136D01*
X28670917Y-48469152D01*
X28700433Y-48468289D01*
X28741555Y-48467545D01*
X28794535Y-48466920D01*
X28859628Y-48466411D01*
X28937085Y-48466018D01*
X29027159Y-48465739D01*
X29130103Y-48465573D01*
X29246171Y-48465519D01*
X29375614Y-48465575D01*
G37*
G36*
X31140345Y-44615193D02*
G01*
X31140345Y-45296218D01*
X31046703Y-45249388D01*
X30952842Y-45206522D01*
X30849174Y-45169269D01*
X30741040Y-45141153D01*
X30734169Y-45139748D01*
X30689899Y-45133150D01*
X30636916Y-45128406D01*
X30578998Y-45125581D01*
X30519923Y-45124740D01*
X30463470Y-45125948D01*
X30413416Y-45129272D01*
X30373539Y-45134778D01*
X30312464Y-45148971D01*
X30203359Y-45185210D01*
X30098368Y-45234043D01*
X29998557Y-45294615D01*
X29904993Y-45366070D01*
X29818743Y-45447552D01*
X29740873Y-45538205D01*
X29672451Y-45637175D01*
X29614543Y-45743604D01*
X29593787Y-45789044D01*
X29567267Y-45855918D01*
X29546166Y-45923239D01*
X29528164Y-45997830D01*
X29522050Y-46031470D01*
X29514411Y-46100165D01*
X29511157Y-46175155D01*
X29512294Y-46251844D01*
X29517826Y-46325633D01*
X29527758Y-46391924D01*
X29533144Y-46417497D01*
X29565450Y-46532576D01*
X29592016Y-46597425D01*
X29609772Y-46640768D01*
X29666489Y-46742777D01*
X29735983Y-46839309D01*
X29818633Y-46931066D01*
X29853389Y-46964527D01*
X29948153Y-47042930D01*
X30050202Y-47109653D01*
X30160065Y-47164977D01*
X30278269Y-47209181D01*
X30405342Y-47242547D01*
X30405503Y-47242581D01*
X30454611Y-47250606D01*
X30512478Y-47256182D01*
X30572632Y-47259143D01*
X30575329Y-47259276D01*
X30639392Y-47259854D01*
X30700893Y-47257881D01*
X30756058Y-47253322D01*
X30801113Y-47246144D01*
X30801481Y-47246063D01*
X30856264Y-47231903D01*
X30914562Y-47213176D01*
X30972889Y-47191286D01*
X31027757Y-47167634D01*
X31075679Y-47143623D01*
X31113166Y-47120655D01*
X31114043Y-47120039D01*
X31128060Y-47111092D01*
X31136319Y-47107401D01*
X31136623Y-47108299D01*
X31137390Y-47119894D01*
X31138031Y-47143837D01*
X31138539Y-47178811D01*
X31138904Y-47223503D01*
X31139117Y-47276596D01*
X31139171Y-47336776D01*
X31139055Y-47402728D01*
X31138762Y-47473136D01*
X31136811Y-47838870D01*
X31096672Y-47920144D01*
X31077634Y-47956614D01*
X31026739Y-48036958D01*
X30969599Y-48104748D01*
X30906014Y-48160172D01*
X30835784Y-48203415D01*
X30758709Y-48234664D01*
X30754909Y-48235746D01*
X30742726Y-48238281D01*
X30726094Y-48240635D01*
X30704445Y-48242819D01*
X30677208Y-48244846D01*
X30643813Y-48246726D01*
X30603691Y-48248472D01*
X30556272Y-48250096D01*
X30500986Y-48251610D01*
X30437263Y-48253026D01*
X30364534Y-48254355D01*
X30282228Y-48255610D01*
X30189776Y-48256803D01*
X30086608Y-48257945D01*
X29972155Y-48259048D01*
X29845846Y-48260125D01*
X29707112Y-48261187D01*
X29555383Y-48262246D01*
X29390089Y-48263314D01*
X28555053Y-48268533D01*
X28540872Y-48240736D01*
X28527295Y-48211527D01*
X28505851Y-48155161D01*
X28485539Y-48089756D01*
X28467212Y-48018449D01*
X28451727Y-47944376D01*
X28446164Y-47909593D01*
X29461211Y-47909593D01*
X29467370Y-47912292D01*
X29487178Y-47913476D01*
X29496508Y-47913755D01*
X29534349Y-47919517D01*
X29560253Y-47932646D01*
X29574362Y-47953207D01*
X29579415Y-47966707D01*
X29586378Y-47979277D01*
X29590953Y-47978851D01*
X29592599Y-47965077D01*
X29595022Y-47947736D01*
X29602047Y-47931127D01*
X29607689Y-47925789D01*
X29625755Y-47918531D01*
X29655692Y-47913874D01*
X29674385Y-47911466D01*
X29690482Y-47907308D01*
X29692596Y-47903248D01*
X29680764Y-47900166D01*
X29655027Y-47898942D01*
X29642258Y-47898338D01*
X29614758Y-47890512D01*
X29598111Y-47873637D01*
X29592307Y-47847704D01*
X29592016Y-47824735D01*
X29576406Y-47856538D01*
X29572010Y-47865359D01*
X29563798Y-47878794D01*
X29553948Y-47886701D01*
X29538348Y-47891647D01*
X29512891Y-47896198D01*
X29488338Y-47900656D01*
X29468325Y-47905630D01*
X29461211Y-47909593D01*
X28446164Y-47909593D01*
X28439939Y-47870673D01*
X28438334Y-47857277D01*
X28434432Y-47807853D01*
X28432124Y-47749355D01*
X28431565Y-47701432D01*
X30251285Y-47701432D01*
X30252727Y-47702027D01*
X30266444Y-47705043D01*
X30289227Y-47708300D01*
X30316979Y-47711192D01*
X30348908Y-47714532D01*
X30391792Y-47720501D01*
X30432536Y-47727645D01*
X30467155Y-47735250D01*
X30491660Y-47742596D01*
X30507775Y-47754779D01*
X30524782Y-47778492D01*
X30540759Y-47810942D01*
X30554151Y-47849471D01*
X30559182Y-47866165D01*
X30565598Y-47882062D01*
X30570358Y-47884074D01*
X30574032Y-47872118D01*
X30577188Y-47846110D01*
X30578218Y-47836684D01*
X30585526Y-47798727D01*
X30596681Y-47766461D01*
X30610504Y-47742698D01*
X30625812Y-47730253D01*
X30627317Y-47729767D01*
X30642606Y-47726701D01*
X30668186Y-47722999D01*
X30700880Y-47719083D01*
X30737507Y-47715378D01*
X30746112Y-47714582D01*
X30794968Y-47709873D01*
X30829898Y-47705945D01*
X30851047Y-47702545D01*
X30858561Y-47699419D01*
X30852585Y-47696314D01*
X30833265Y-47692976D01*
X30800747Y-47689151D01*
X30755175Y-47684585D01*
X30716446Y-47680780D01*
X30680977Y-47676955D01*
X30655634Y-47673527D01*
X30638256Y-47670045D01*
X30626682Y-47666060D01*
X30618751Y-47661118D01*
X30612304Y-47654771D01*
X30604893Y-47645065D01*
X30593257Y-47620883D01*
X30584393Y-47587386D01*
X30577566Y-47542193D01*
X30572632Y-47499940D01*
X30556609Y-47547440D01*
X30547392Y-47572609D01*
X30535371Y-47601382D01*
X30524592Y-47623398D01*
X30516269Y-47635964D01*
X30504534Y-47647355D01*
X30488366Y-47656570D01*
X30465832Y-47664250D01*
X30434998Y-47671038D01*
X30393933Y-47677576D01*
X30340704Y-47684507D01*
X30326366Y-47686327D01*
X30294248Y-47690942D01*
X30269556Y-47695277D01*
X30254499Y-47698913D01*
X30251285Y-47701432D01*
X28431565Y-47701432D01*
X28431379Y-47685534D01*
X28432165Y-47620145D01*
X28434453Y-47556941D01*
X28438209Y-47499675D01*
X28443405Y-47452099D01*
X28452111Y-47397657D01*
X28457044Y-47375825D01*
X28705731Y-47375825D01*
X28709206Y-47378004D01*
X28724064Y-47381449D01*
X28748023Y-47385315D01*
X28778365Y-47389106D01*
X28797743Y-47391376D01*
X28837063Y-47396648D01*
X28874330Y-47402395D01*
X28903533Y-47407723D01*
X28931704Y-47415133D01*
X28957110Y-47427420D01*
X28976349Y-47445982D01*
X28991977Y-47473412D01*
X29006549Y-47512304D01*
X29007900Y-47516405D01*
X29016397Y-47541073D01*
X29023468Y-47559835D01*
X29027698Y-47568903D01*
X29027988Y-47569161D01*
X29030757Y-47564118D01*
X29033736Y-47548370D01*
X29036328Y-47524957D01*
X29039682Y-47499498D01*
X29047062Y-47467317D01*
X29056759Y-47438993D01*
X29067559Y-47417933D01*
X29078246Y-47407541D01*
X29085483Y-47406076D01*
X29105071Y-47403281D01*
X29134193Y-47399652D01*
X29170368Y-47395496D01*
X29211119Y-47391118D01*
X29245907Y-47387269D01*
X29279381Y-47382970D01*
X29303414Y-47379148D01*
X29316461Y-47376054D01*
X29316973Y-47373939D01*
X29312379Y-47373047D01*
X29293697Y-47370380D01*
X29265288Y-47366946D01*
X29230108Y-47363092D01*
X29191112Y-47359164D01*
X29171315Y-47357135D01*
X29135104Y-47352772D01*
X29104864Y-47348278D01*
X29083302Y-47344079D01*
X29073122Y-47340600D01*
X29069157Y-47336226D01*
X29059171Y-47317245D01*
X29049517Y-47289260D01*
X29041315Y-47255862D01*
X29035686Y-47220641D01*
X29030745Y-47177145D01*
X29010586Y-47236708D01*
X28997865Y-47272397D01*
X28985367Y-47299714D01*
X28971357Y-47318345D01*
X28953133Y-47330846D01*
X28927989Y-47339776D01*
X28893221Y-47347689D01*
X28884462Y-47349420D01*
X28844569Y-47356318D01*
X28803043Y-47362253D01*
X28767583Y-47366098D01*
X28758000Y-47366938D01*
X28732307Y-47369873D01*
X28713717Y-47373019D01*
X28705731Y-47375825D01*
X28457044Y-47375825D01*
X28481305Y-47268462D01*
X28521661Y-47147341D01*
X28573691Y-47033257D01*
X28637911Y-46925173D01*
X28714835Y-46822051D01*
X28804978Y-46722855D01*
X28829701Y-46698704D01*
X28899513Y-46636452D01*
X28978222Y-46573382D01*
X29030745Y-46535104D01*
X29062548Y-46511927D01*
X29149213Y-46454524D01*
X29234939Y-46403605D01*
X29292696Y-46371444D01*
X29287603Y-46320683D01*
X29286373Y-46307547D01*
X29281861Y-46219153D01*
X29282638Y-46123119D01*
X29288449Y-46024057D01*
X29299043Y-45926574D01*
X29314167Y-45835281D01*
X29330566Y-45762357D01*
X29366084Y-45644617D01*
X29411347Y-45536156D01*
X29467070Y-45435755D01*
X29533971Y-45342192D01*
X29612765Y-45254248D01*
X29704169Y-45170701D01*
X29720362Y-45157367D01*
X29810639Y-45089625D01*
X29900279Y-45033377D01*
X29988469Y-44988990D01*
X30074394Y-44956830D01*
X30157242Y-44937265D01*
X30236199Y-44930662D01*
X30298466Y-44930662D01*
X30302912Y-44897092D01*
X30305080Y-44881638D01*
X30319589Y-44801298D01*
X30339295Y-44718421D01*
X30362369Y-44640893D01*
X30371518Y-44614408D01*
X30407056Y-44526260D01*
X30448564Y-44445701D01*
X30497917Y-44369760D01*
X30556986Y-44295462D01*
X30627646Y-44219834D01*
X30639741Y-44207810D01*
X30712616Y-44140133D01*
X30782913Y-44083641D01*
X30852886Y-44036648D01*
X30924791Y-43997466D01*
X30926296Y-43996736D01*
X30970338Y-43977034D01*
X31015085Y-43959868D01*
X31057257Y-43946296D01*
X31093577Y-43937376D01*
X31120768Y-43934168D01*
X31140345Y-43934168D01*
X31140345Y-44615193D01*
G37*
%TO.C,C2*%
D12*
X45640000Y-54357836D02*
X45640000Y-54142164D01*
X46360000Y-54357836D02*
X46360000Y-54142164D01*
%TO.C,C5*%
X29790000Y-31362164D02*
X29790000Y-31577836D01*
X30510000Y-31362164D02*
X30510000Y-31577836D01*
%TO.C,U1*%
X24640000Y-22690000D02*
X24640000Y-27310000D01*
X24640000Y-27310000D02*
X24840000Y-27310000D01*
X24840000Y-22690000D02*
X24640000Y-22690000D01*
X29660000Y-27310000D02*
X29860000Y-27310000D01*
X29860000Y-22690000D02*
X29660000Y-22690000D01*
X29860000Y-27310000D02*
X29860000Y-22690000D01*
X29660000Y-27950000D02*
X30130000Y-28290000D01*
X30130000Y-27610000D01*
X29660000Y-27950000D01*
G36*
X30130000Y-28290000D02*
G01*
X29660000Y-27950000D01*
X30130000Y-27610000D01*
X30130000Y-28290000D01*
G37*
%TO.C,U2*%
X24640000Y-32690000D02*
X24640000Y-37310000D01*
X24640000Y-37310000D02*
X24840000Y-37310000D01*
X24840000Y-32690000D02*
X24640000Y-32690000D01*
X29660000Y-37310000D02*
X29860000Y-37310000D01*
X29860000Y-32690000D02*
X29660000Y-32690000D01*
X29860000Y-37310000D02*
X29860000Y-32690000D01*
X29660000Y-37950000D02*
X30130000Y-38290000D01*
X30130000Y-37610000D01*
X29660000Y-37950000D01*
G36*
X30130000Y-38290000D02*
G01*
X29660000Y-37950000D01*
X30130000Y-37610000D01*
X30130000Y-38290000D01*
G37*
D13*
%TO.C,G\u002A\u002A\u002A*%
G36*
X23630417Y-45495867D02*
G01*
X23630417Y-45696217D01*
X23273222Y-45696217D01*
X22916026Y-45696217D01*
X22903885Y-46011465D01*
X22900452Y-46090287D01*
X22891251Y-46226548D01*
X22877516Y-46333623D01*
X22857237Y-46418794D01*
X22828403Y-46489344D01*
X22789003Y-46552553D01*
X22737027Y-46615705D01*
X22724828Y-46628958D01*
X22630156Y-46710698D01*
X22524237Y-46763430D01*
X22399390Y-46789940D01*
X22247933Y-46793012D01*
X22128145Y-46780381D01*
X22012727Y-46746143D01*
X21914485Y-46686362D01*
X21823037Y-46596230D01*
X21799456Y-46567460D01*
X21769195Y-46523547D01*
X21745628Y-46475650D01*
X21727934Y-46418621D01*
X21715295Y-46347311D01*
X21706891Y-46256574D01*
X21701903Y-46141260D01*
X21699511Y-45996222D01*
X21698896Y-45816312D01*
X21698896Y-45696217D01*
X22029156Y-45696217D01*
X22029156Y-45927041D01*
X22029157Y-45929656D01*
X22032357Y-46062636D01*
X22041583Y-46161016D01*
X22056600Y-46222274D01*
X22067574Y-46245400D01*
X22127308Y-46323249D01*
X22203945Y-46371506D01*
X22289451Y-46389572D01*
X22375795Y-46376852D01*
X22454942Y-46332746D01*
X22518861Y-46256658D01*
X22531888Y-46231322D01*
X22546264Y-46188561D01*
X22555971Y-46131764D01*
X22562324Y-46052268D01*
X22566636Y-45941410D01*
X22573698Y-45696217D01*
X22301427Y-45696217D01*
X22029156Y-45696217D01*
X21698896Y-45696217D01*
X21698896Y-45305910D01*
X22301427Y-45302668D01*
X22664656Y-45300714D01*
X23630417Y-45295517D01*
X23630417Y-45495867D01*
G37*
G36*
X22848438Y-46895821D02*
G01*
X23019860Y-46947319D01*
X23179433Y-47030695D01*
X23321366Y-47145942D01*
X23400112Y-47235544D01*
X23496485Y-47393591D01*
X23559261Y-47573148D01*
X23562082Y-47585116D01*
X23587609Y-47771813D01*
X23582092Y-47962879D01*
X23546683Y-48147188D01*
X23482535Y-48313614D01*
X23480370Y-48317817D01*
X23446952Y-48374981D01*
X23403307Y-48440493D01*
X23355784Y-48505933D01*
X23310730Y-48562879D01*
X23274492Y-48602908D01*
X23253418Y-48617599D01*
X23250643Y-48616545D01*
X23224172Y-48597441D01*
X23178456Y-48559374D01*
X23121463Y-48508909D01*
X23002817Y-48401138D01*
X23076803Y-48310848D01*
X23129958Y-48240865D01*
X23199385Y-48118288D01*
X23237915Y-47991188D01*
X23249906Y-47847911D01*
X23248857Y-47781435D01*
X23241540Y-47705780D01*
X23224170Y-47640340D01*
X23193185Y-47567509D01*
X23157412Y-47501080D01*
X23064104Y-47383805D01*
X22947835Y-47299195D01*
X22809413Y-47247752D01*
X22649644Y-47229977D01*
X22575427Y-47233061D01*
X22427644Y-47264238D01*
X22301216Y-47329243D01*
X22195576Y-47428423D01*
X22110156Y-47562130D01*
X22090794Y-47602490D01*
X22064670Y-47671924D01*
X22052296Y-47741443D01*
X22049172Y-47830878D01*
X22050762Y-47887010D01*
X22072925Y-48028213D01*
X22124467Y-48158864D01*
X22209561Y-48290933D01*
X22292757Y-48401126D01*
X22195984Y-48507663D01*
X22193027Y-48510902D01*
X22140583Y-48563383D01*
X22094571Y-48601200D01*
X22064649Y-48616359D01*
X22053890Y-48614115D01*
X22016256Y-48587431D01*
X21967620Y-48536814D01*
X21914299Y-48469932D01*
X21862609Y-48394451D01*
X21818867Y-48318037D01*
X21770696Y-48206427D01*
X21722764Y-48020320D01*
X21709649Y-47829728D01*
X21730471Y-47640749D01*
X21784353Y-47459484D01*
X21870417Y-47292035D01*
X21987784Y-47144500D01*
X22016293Y-47116720D01*
X22160088Y-47008734D01*
X22320992Y-46932658D01*
X22493212Y-46888484D01*
X22670958Y-46876207D01*
X22848438Y-46895821D01*
G37*
G36*
X23351262Y-52930460D02*
G01*
X23467521Y-52983361D01*
X23563510Y-53064558D01*
X23632696Y-53170987D01*
X23659203Y-53249393D01*
X23673100Y-53381065D01*
X23656575Y-53519373D01*
X23611144Y-53654595D01*
X23538320Y-53777011D01*
X23488269Y-53842632D01*
X23559343Y-53842632D01*
X23630417Y-53842632D01*
X23630417Y-54072813D01*
X23630417Y-54302994D01*
X23059325Y-54302994D01*
X22970346Y-54302944D01*
X22807122Y-54302223D01*
X22676763Y-54300024D01*
X22574385Y-54295570D01*
X22495106Y-54288082D01*
X22434044Y-54276783D01*
X22386314Y-54260894D01*
X22347036Y-54239638D01*
X22311325Y-54212236D01*
X22274300Y-54177912D01*
X22229689Y-54127342D01*
X22181357Y-54043732D01*
X22147148Y-53939038D01*
X22125266Y-53807266D01*
X22113915Y-53642423D01*
X22111818Y-53484610D01*
X22119027Y-53347603D01*
X22136449Y-53224341D01*
X22142210Y-53194401D01*
X22157148Y-53122217D01*
X22169476Y-53070067D01*
X22176974Y-53047637D01*
X22179176Y-53046271D01*
X22209799Y-53041178D01*
X22265422Y-53038563D01*
X22335208Y-53038208D01*
X22408323Y-53039893D01*
X22473929Y-53043398D01*
X22521192Y-53048502D01*
X22539276Y-53054987D01*
X22539146Y-53056442D01*
X22531220Y-53086478D01*
X22513471Y-53141970D01*
X22489328Y-53212135D01*
X22461284Y-53311529D01*
X22442367Y-53436240D01*
X22439414Y-53557264D01*
X22452575Y-53663660D01*
X22482001Y-53744487D01*
X22518861Y-53789917D01*
X22565697Y-53825254D01*
X22610553Y-53843295D01*
X22613957Y-53842632D01*
X22944075Y-53842632D01*
X23093994Y-53842632D01*
X23151812Y-53841656D01*
X23222829Y-53833216D01*
X23269359Y-53811335D01*
X23301000Y-53770335D01*
X23327346Y-53704538D01*
X23339991Y-53657416D01*
X23346970Y-53565167D01*
X23330964Y-53484257D01*
X23294341Y-53423154D01*
X23239472Y-53390328D01*
X23152095Y-53383090D01*
X23076518Y-53410638D01*
X23018183Y-53473496D01*
X22977741Y-53570948D01*
X22955841Y-53702278D01*
X22944075Y-53842632D01*
X22613957Y-53842632D01*
X22641704Y-53837228D01*
X22645261Y-53828901D01*
X22653853Y-53787533D01*
X22663513Y-53720826D01*
X22672745Y-53638348D01*
X22684061Y-53539049D01*
X22716020Y-53358365D01*
X22760507Y-53212322D01*
X22819153Y-53098153D01*
X22893587Y-53013090D01*
X22985440Y-52954364D01*
X23096342Y-52919207D01*
X23152095Y-52914618D01*
X23221266Y-52908924D01*
X23351262Y-52930460D01*
G37*
G36*
X22239321Y-48718597D02*
G01*
X22644637Y-48718597D01*
X22667035Y-48718601D01*
X22860175Y-48718959D01*
X23029944Y-48719805D01*
X23040646Y-48719858D01*
X23204538Y-48721241D01*
X23347943Y-48723049D01*
X23466953Y-48725224D01*
X23557658Y-48727707D01*
X23616149Y-48730442D01*
X23638517Y-48733370D01*
X23643846Y-48757442D01*
X23647224Y-48815516D01*
X23648619Y-48901000D01*
X23648225Y-49007510D01*
X23646240Y-49128659D01*
X23642858Y-49258063D01*
X23638277Y-49389335D01*
X23632692Y-49516092D01*
X23626299Y-49631946D01*
X23619293Y-49730513D01*
X23611872Y-49805408D01*
X23604232Y-49850245D01*
X23579690Y-49920684D01*
X23522131Y-50031460D01*
X23448706Y-50130986D01*
X23366811Y-50209836D01*
X23283842Y-50258583D01*
X23246580Y-50267638D01*
X23170512Y-50275777D01*
X23077331Y-50278998D01*
X22980104Y-50277289D01*
X22891895Y-50270638D01*
X22825770Y-50259031D01*
X22823506Y-50258381D01*
X22753446Y-50221440D01*
X22683579Y-50157698D01*
X22624300Y-50078578D01*
X22586004Y-49995507D01*
X22573055Y-49960491D01*
X22552959Y-49926579D01*
X22536420Y-49917016D01*
X22529550Y-49938023D01*
X22526004Y-49953296D01*
X22497133Y-49996652D01*
X22446959Y-50046753D01*
X22384857Y-50094894D01*
X22320202Y-50132373D01*
X22261133Y-50155671D01*
X22132941Y-50178534D01*
X22010360Y-50164591D01*
X21898913Y-50115817D01*
X21804121Y-50034189D01*
X21731505Y-49921684D01*
X21716540Y-49888985D01*
X21704147Y-49857301D01*
X21694677Y-49823055D01*
X21687647Y-49780893D01*
X21682574Y-49725464D01*
X21678976Y-49651415D01*
X21676370Y-49553394D01*
X21674274Y-49426048D01*
X21672204Y-49264026D01*
X21671653Y-49218991D01*
X22029156Y-49218991D01*
X22029451Y-49364105D01*
X22029617Y-49384214D01*
X22036706Y-49485159D01*
X22056791Y-49556623D01*
X22093406Y-49606806D01*
X22150085Y-49643907D01*
X22178431Y-49656612D01*
X22233506Y-49668222D01*
X22296639Y-49657537D01*
X22337130Y-49643022D01*
X22377624Y-49610791D01*
X22410613Y-49552873D01*
X22438278Y-49460896D01*
X22449047Y-49344089D01*
X22449487Y-49218991D01*
X22789755Y-49218991D01*
X22789755Y-49409784D01*
X22792960Y-49524911D01*
X22805511Y-49622229D01*
X22829668Y-49691708D01*
X22867651Y-49739430D01*
X22921677Y-49771475D01*
X22939312Y-49778227D01*
X23036355Y-49793614D01*
X23124754Y-49772648D01*
X23197800Y-49718168D01*
X23248784Y-49633015D01*
X23252385Y-49620946D01*
X23261450Y-49564475D01*
X23267764Y-49485724D01*
X23270133Y-49397830D01*
X23270133Y-49218991D01*
X23029944Y-49218991D01*
X22789755Y-49218991D01*
X22449487Y-49218991D01*
X22239321Y-49218991D01*
X22029156Y-49218991D01*
X21671653Y-49218991D01*
X21665529Y-48718597D01*
X22239321Y-48718597D01*
G37*
G36*
X21703900Y-50307846D02*
G01*
X21715624Y-50311046D01*
X21763596Y-50323517D01*
X21843671Y-50344047D01*
X21951677Y-50371575D01*
X22083443Y-50405041D01*
X22234798Y-50443384D01*
X22401571Y-50485545D01*
X22579589Y-50530462D01*
X22678096Y-50555313D01*
X22855352Y-50600135D01*
X23021592Y-50642300D01*
X23172181Y-50680625D01*
X23302485Y-50713927D01*
X23407868Y-50741023D01*
X23483696Y-50760730D01*
X23525334Y-50771864D01*
X23630417Y-50801354D01*
X23630417Y-51076149D01*
X23630417Y-51350944D01*
X23038677Y-51499416D01*
X22972949Y-51516034D01*
X22833163Y-51552283D01*
X22710051Y-51585449D01*
X22608057Y-51614256D01*
X22531626Y-51637429D01*
X22485203Y-51653690D01*
X22473232Y-51661764D01*
X22476032Y-51662937D01*
X22510128Y-51673523D01*
X22576662Y-51692312D01*
X22670524Y-51717921D01*
X22786603Y-51748968D01*
X22919789Y-51784069D01*
X23064971Y-51821842D01*
X23630417Y-51968045D01*
X23630417Y-52244047D01*
X23630417Y-52520048D01*
X23555358Y-52539750D01*
X23527680Y-52546886D01*
X23463087Y-52563391D01*
X23367583Y-52587719D01*
X23245403Y-52618795D01*
X23100780Y-52655544D01*
X22937946Y-52696887D01*
X22761137Y-52741751D01*
X22574585Y-52789057D01*
X21668872Y-53018662D01*
X21668872Y-52764251D01*
X21668872Y-52509840D01*
X21783963Y-52486115D01*
X21885405Y-52464969D01*
X22016045Y-52437230D01*
X22155302Y-52407223D01*
X22297869Y-52376132D01*
X22438441Y-52345141D01*
X22571709Y-52315434D01*
X22692368Y-52288195D01*
X22795111Y-52264608D01*
X22874632Y-52245856D01*
X22925622Y-52233123D01*
X22942776Y-52227594D01*
X22942014Y-52227107D01*
X22914612Y-52218513D01*
X22849983Y-52201395D01*
X22749703Y-52176141D01*
X22615347Y-52143138D01*
X22448488Y-52102775D01*
X22250704Y-52055437D01*
X22023568Y-52001513D01*
X21667705Y-51917316D01*
X21673292Y-51665172D01*
X21678880Y-51413029D01*
X22315100Y-51254135D01*
X22416434Y-51228716D01*
X22560513Y-51192165D01*
X22688132Y-51159299D01*
X22794808Y-51131298D01*
X22876062Y-51109343D01*
X22927412Y-51094616D01*
X22944377Y-51088296D01*
X22941539Y-51087231D01*
X22908737Y-51079133D01*
X22843248Y-51064453D01*
X22749953Y-51044240D01*
X22633737Y-51019545D01*
X22499482Y-50991419D01*
X22352071Y-50960910D01*
X22307927Y-50951821D01*
X22160615Y-50921398D01*
X22025745Y-50893408D01*
X21908673Y-50868971D01*
X21814753Y-50849209D01*
X21749341Y-50835242D01*
X21717791Y-50828190D01*
X21712994Y-50826972D01*
X21694466Y-50820323D01*
X21682022Y-50807272D01*
X21674452Y-50781093D01*
X21670545Y-50735059D01*
X21669088Y-50662447D01*
X21668872Y-50556528D01*
X21669055Y-50478078D01*
X21670354Y-50396586D01*
X21673638Y-50344847D01*
X21679758Y-50316831D01*
X21689562Y-50306508D01*
X21703900Y-50307846D01*
G37*
G36*
X24707450Y-45110754D02*
G01*
X24707875Y-45140987D01*
X24698728Y-45197209D01*
X24680148Y-45285894D01*
X24673589Y-45316600D01*
X24647215Y-45447241D01*
X24616107Y-45610341D01*
X24581207Y-45800360D01*
X24543455Y-46011760D01*
X24503793Y-46238999D01*
X24463161Y-46476540D01*
X24422500Y-46718841D01*
X24382752Y-46960364D01*
X24344858Y-47195569D01*
X24309759Y-47418916D01*
X24278395Y-47624866D01*
X24251708Y-47807880D01*
X24234630Y-47931431D01*
X24212259Y-48099929D01*
X24188504Y-48284774D01*
X24164338Y-48477963D01*
X24140735Y-48671496D01*
X24118669Y-48857372D01*
X24099113Y-49027589D01*
X24083042Y-49174148D01*
X24071429Y-49289046D01*
X24063797Y-49368907D01*
X24051796Y-49490626D01*
X24040003Y-49606441D01*
X24030127Y-49699369D01*
X24029190Y-49708060D01*
X24021633Y-49786225D01*
X24012263Y-49893712D01*
X24001836Y-50021294D01*
X23991109Y-50159746D01*
X23980840Y-50299842D01*
X23965093Y-50529228D01*
X23933654Y-51053928D01*
X23911101Y-51547583D01*
X23897405Y-52015825D01*
X23892536Y-52464284D01*
X23896466Y-52898589D01*
X23909165Y-53324372D01*
X23930604Y-53747263D01*
X23960753Y-54172892D01*
X23968901Y-54274425D01*
X23977937Y-54387611D01*
X23985629Y-54484567D01*
X23991349Y-54557403D01*
X23994473Y-54598227D01*
X23999024Y-54636701D01*
X24012389Y-54658274D01*
X24043256Y-54656464D01*
X24100993Y-54634458D01*
X24112989Y-54629704D01*
X24156498Y-54617391D01*
X24178324Y-54619446D01*
X24181669Y-54641845D01*
X24184994Y-54696463D01*
X24187750Y-54774613D01*
X24189553Y-54867843D01*
X24192426Y-55102432D01*
X24119008Y-55133108D01*
X24045590Y-55163784D01*
X24057557Y-55278819D01*
X24058941Y-55292174D01*
X24077191Y-55480169D01*
X24090744Y-55644069D01*
X24099439Y-55780764D01*
X24103116Y-55887142D01*
X24101611Y-55960091D01*
X24094765Y-55996500D01*
X24083627Y-56014843D01*
X24072625Y-56017571D01*
X24063246Y-55984035D01*
X24061571Y-55975003D01*
X24054349Y-55925742D01*
X24044347Y-55848386D01*
X24032658Y-55751601D01*
X24020374Y-55644050D01*
X24016091Y-55605563D01*
X24000754Y-55470328D01*
X23988515Y-55368985D01*
X23978562Y-55296764D01*
X23970081Y-55248895D01*
X23962260Y-55220608D01*
X23954286Y-55207135D01*
X23945347Y-55203703D01*
X23930993Y-55207475D01*
X23882897Y-55223432D01*
X23806655Y-55250134D01*
X23707613Y-55285677D01*
X23591120Y-55328155D01*
X23462523Y-55375664D01*
X23439309Y-55384294D01*
X23273567Y-55445903D01*
X23091183Y-55513696D01*
X22905698Y-55582641D01*
X22730653Y-55647704D01*
X22579589Y-55703851D01*
X22159258Y-55860077D01*
X22153590Y-55628630D01*
X22152610Y-55542531D01*
X22154089Y-55463475D01*
X22157868Y-55407332D01*
X22163598Y-55382644D01*
X22171146Y-55378814D01*
X22211804Y-55363535D01*
X22282164Y-55339384D01*
X22376599Y-55308232D01*
X22489478Y-55271953D01*
X22615174Y-55232419D01*
X22686315Y-55210019D01*
X22802048Y-55172379D01*
X22899960Y-55138997D01*
X22974924Y-55111699D01*
X23021814Y-55092312D01*
X23035505Y-55082662D01*
X23027699Y-55078680D01*
X22986872Y-55062739D01*
X22916566Y-55037371D01*
X22822363Y-55004539D01*
X22709845Y-54966201D01*
X22584593Y-54924318D01*
X22149250Y-54780043D01*
X22149250Y-54532399D01*
X22149250Y-54284754D01*
X22224310Y-54311897D01*
X22233805Y-54315361D01*
X22288678Y-54335769D01*
X22369101Y-54366021D01*
X22465821Y-54402628D01*
X22569581Y-54442100D01*
X22652850Y-54473809D01*
X22783367Y-54523391D01*
X22929187Y-54578687D01*
X23077872Y-54634982D01*
X23216980Y-54687556D01*
X23594165Y-54829953D01*
X23697358Y-54793663D01*
X23774631Y-54765434D01*
X23843511Y-54735705D01*
X23884951Y-54709031D01*
X23905195Y-54681138D01*
X23910485Y-54647752D01*
X23910279Y-54638667D01*
X23906782Y-54584947D01*
X23899869Y-54508618D01*
X23890717Y-54423089D01*
X23888591Y-54403400D01*
X23881430Y-54326985D01*
X23872359Y-54219677D01*
X23861892Y-54088022D01*
X23850540Y-53938568D01*
X23838817Y-53777861D01*
X23827235Y-53612450D01*
X23819368Y-53494152D01*
X23810276Y-53344190D01*
X23802764Y-53199597D01*
X23796684Y-53054697D01*
X23791892Y-52903815D01*
X23788240Y-52741277D01*
X23785583Y-52561409D01*
X23783774Y-52358534D01*
X23782668Y-52126980D01*
X23782117Y-51861071D01*
X23782002Y-51677303D01*
X23782325Y-51431759D01*
X23783465Y-51214876D01*
X23785673Y-51019846D01*
X23789202Y-50839859D01*
X23794304Y-50668105D01*
X23801229Y-50497776D01*
X23810231Y-50322061D01*
X23821560Y-50134151D01*
X23835469Y-49927236D01*
X23852208Y-49694508D01*
X23872031Y-49429156D01*
X23902258Y-49055947D01*
X23961073Y-48433937D01*
X24030616Y-47803702D01*
X24109652Y-47174840D01*
X24196947Y-46556952D01*
X24291264Y-45959637D01*
X24391369Y-45392494D01*
X24435044Y-45158826D01*
X24538128Y-45135545D01*
X24575920Y-45126905D01*
X24637037Y-45112489D01*
X24676240Y-45102656D01*
X24677333Y-45102359D01*
X24697315Y-45100037D01*
X24707450Y-45110754D01*
G37*
%TO.C,C6*%
D12*
X44890000Y-27607836D02*
X44890000Y-27392164D01*
X45610000Y-27607836D02*
X45610000Y-27392164D01*
%TD*%
M02*
