%TF.GenerationSoftware,KiCad,Pcbnew,10.0.6*%
%TF.CreationDate,2026-10-06T17:14:12-04:00*%
%TF.ProjectId,motor_controller_encoder_counter,6d6f746f-725f-4636-9f6e-74726f6c6c65,rev?*%
%TF.SameCoordinates,Original*%
%TF.FileFunction,Copper,L1,Top*%
%TF.FilePolarity,Positive*%
%FSLAX46Y46*%
G04 Gerber Fmt 4.6, Leading zero omitted, Abs format (unit mm)*
G04 Created by KiCad (PCBNEW 10.0.6) date 2026-10-06 17:14:12*
%MOMM*%
%LPD*%
G01*
G04 APERTURE LIST*
G04 Aperture macros list*
%AMRoundRect*
0 Rectangle with rounded corners*
0 $1 Rounding radius*
0 $2 $3 $4 $5 $6 $7 $8 $9 X,Y pos of 4 corners*
0 Add a 4 corners polygon primitive as box body*
4,1,4,$2,$3,$4,$5,$6,$7,$8,$9,$2,$3,0*
0 Add four circle primitives for the rounded corners*
1,1,$1+$1,$2,$3*
1,1,$1+$1,$4,$5*
1,1,$1+$1,$6,$7*
1,1,$1+$1,$8,$9*
0 Add four rect primitives between the rounded corners*
20,1,$1+$1,$2,$3,$4,$5,0*
20,1,$1+$1,$4,$5,$6,$7,0*
20,1,$1+$1,$6,$7,$8,$9,0*
20,1,$1+$1,$8,$9,$2,$3,0*%
G04 Aperture macros list end*
%TA.AperFunction,SMDPad,CuDef*%
%ADD10R,1.000000X1.000000*%
%TD*%
%TA.AperFunction,ComponentPad*%
%ADD11R,1.700000X1.700000*%
%TD*%
%TA.AperFunction,ComponentPad*%
%ADD12C,1.700000*%
%TD*%
%TA.AperFunction,ComponentPad*%
%ADD13C,1.900000*%
%TD*%
%TA.AperFunction,SMDPad,CuDef*%
%ADD14RoundRect,0.135000X-0.185000X0.135000X-0.185000X-0.135000X0.185000X-0.135000X0.185000X0.135000X0*%
%TD*%
%TA.AperFunction,SMDPad,CuDef*%
%ADD15RoundRect,0.135000X0.135000X0.185000X-0.135000X0.185000X-0.135000X-0.185000X0.135000X-0.185000X0*%
%TD*%
%TA.AperFunction,ComponentPad*%
%ADD16RoundRect,0.250000X0.625000X-0.350000X0.625000X0.350000X-0.625000X0.350000X-0.625000X-0.350000X0*%
%TD*%
%TA.AperFunction,ComponentPad*%
%ADD17O,1.750000X1.200000*%
%TD*%
%TA.AperFunction,SMDPad,CuDef*%
%ADD18RoundRect,0.135000X-0.135000X-0.185000X0.135000X-0.185000X0.135000X0.185000X-0.135000X0.185000X0*%
%TD*%
%TA.AperFunction,SMDPad,CuDef*%
%ADD19RoundRect,0.140000X-0.140000X-0.170000X0.140000X-0.170000X0.140000X0.170000X-0.140000X0.170000X0*%
%TD*%
%TA.AperFunction,SMDPad,CuDef*%
%ADD20RoundRect,0.250000X-1.250000X-0.550000X1.250000X-0.550000X1.250000X0.550000X-1.250000X0.550000X0*%
%TD*%
%TA.AperFunction,ViaPad*%
%ADD21C,0.600000*%
%TD*%
%TA.AperFunction,ViaPad*%
%ADD22C,0.900000*%
%TD*%
%TA.AperFunction,Conductor*%
%ADD23C,0.150000*%
%TD*%
G04 APERTURE END LIST*
D10*
%TO.P,TP1,1,1_1*%
%TO.N,Net-(U1-DFLAG{slash})*%
X28750000Y-22700000D03*
%TD*%
D11*
%TO.P,J6,1,Pin_1_1*%
%TO.N,GND*%
X22270000Y-40050000D03*
D12*
%TO.P,J6,2,Pin_2_2*%
%TO.N,+3.3V*%
X22270000Y-37510000D03*
%TO.P,J6,3,Pin_3_3*%
%TO.N,/SDA*%
X22270000Y-34970000D03*
%TO.P,J6,4,Pin_4_4*%
%TO.N,/SCL*%
X22270000Y-32430000D03*
%TO.P,J6,5,Pin_5_5*%
%TO.N,unconnected-(J6-Pin_5-Pad5)*%
X22270000Y-29890000D03*
%TO.P,J6,6,Pin_6_6*%
%TO.N,unconnected-(J6-Pin_6-Pad6)*%
X22270000Y-27350000D03*
%TO.P,J6,7,Pin_7_7*%
%TO.N,unconnected-(J6-Pin_7-Pad7)*%
X22270000Y-24810000D03*
%TO.P,J6,8,Pin_8_8*%
%TO.N,unconnected-(J6-Pin_8-Pad8)*%
X22270000Y-22270000D03*
%TD*%
D13*
%TO.P,J3,1,1_1*%
%TO.N,+12V*%
X33000000Y-53500000D03*
%TO.P,J3,2,1_2_2*%
X28000000Y-53500000D03*
%TO.P,J3,3,2_3*%
%TO.N,GND*%
X33000000Y-57000000D03*
%TO.P,J3,4,2_2_4*%
X28000000Y-57000000D03*
%TD*%
D10*
%TO.P,TP3,1,1_1*%
%TO.N,Net-(U2-DFLAG{slash})*%
X31750000Y-32500000D03*
%TD*%
D14*
%TO.P,R2,1*%
%TO.N,Net-(U1-A2)*%
X27100000Y-23450000D03*
%TO.P,R2,2*%
%TO.N,+3.3V*%
X27100000Y-24470000D03*
%TD*%
D10*
%TO.P,TP4,1,1_1*%
%TO.N,Net-(U2-LFLAG{slash})*%
X25750000Y-32162005D03*
%TD*%
D15*
%TO.P,R4,1*%
%TO.N,Net-(U2-A2)*%
X26260000Y-35750000D03*
%TO.P,R4,2*%
%TO.N,GND*%
X25240000Y-35750000D03*
%TD*%
%TO.P,R1,1*%
%TO.N,Net-(U1-A2)*%
X26050000Y-24950000D03*
%TO.P,R1,2*%
%TO.N,GND*%
X25030000Y-24950000D03*
%TD*%
D16*
%TO.P,J2,1,Pin_1_1*%
%TO.N,/M1_A*%
X42500000Y-33000000D03*
D17*
%TO.P,J2,2,Pin_2_2*%
%TO.N,/M1_B*%
X42500000Y-31000000D03*
%TO.P,J2,3,Pin_3_3*%
%TO.N,+3.3V*%
X42500000Y-29000000D03*
%TO.P,J2,4,Pin_4_4*%
%TO.N,/SingleMotorAndCounter/Encoder_A*%
X42500000Y-27000000D03*
%TO.P,J2,5,Pin_5_5*%
%TO.N,GND*%
X42500000Y-25000000D03*
%TO.P,J2,6,Pin_6_6*%
%TO.N,/SingleMotorAndCounter/Encoder_B*%
X42500000Y-23000000D03*
%TD*%
D11*
%TO.P,J1,1,Pin_1_1*%
%TO.N,+3.3V*%
X40380000Y-58000000D03*
D12*
%TO.P,J1,2,Pin_2_2*%
%TO.N,/SCL*%
X42920000Y-58000000D03*
%TO.P,J1,3,Pin_3_3*%
%TO.N,/SDA*%
X45460000Y-58000000D03*
%TO.P,J1,4,Pin_4_4*%
%TO.N,GND*%
X48000000Y-58000000D03*
%TD*%
D10*
%TO.P,TP2,1,1_1*%
%TO.N,Net-(U1-LFLAG{slash})*%
X25500000Y-23250000D03*
%TD*%
D14*
%TO.P,R5,1*%
%TO.N,+3.3V*%
X35680000Y-46960000D03*
%TO.P,R5,2*%
%TO.N,/SDA*%
X35680000Y-47980000D03*
%TD*%
D16*
%TO.P,J8,1,Pin_1_1*%
%TO.N,/M2_A*%
X42550000Y-48500000D03*
D17*
%TO.P,J8,2,Pin_2_2*%
%TO.N,/M2_B*%
X42550000Y-46500000D03*
%TO.P,J8,3,Pin_3_3*%
%TO.N,+3.3V*%
X42550000Y-44500000D03*
%TO.P,J8,4,Pin_4_4*%
%TO.N,/SingleMotorAndCounter1/Encoder_A*%
X42550000Y-42500000D03*
%TO.P,J8,5,Pin_5_5*%
%TO.N,GND*%
X42550000Y-40500000D03*
%TO.P,J8,6,Pin_6_6*%
%TO.N,/SingleMotorAndCounter1/Encoder_B*%
X42550000Y-38500000D03*
%TD*%
D15*
%TO.P,R3,1*%
%TO.N,Net-(U2-A2)*%
X26260000Y-33750000D03*
%TO.P,R3,2*%
%TO.N,+3.3V*%
X25240000Y-33750000D03*
%TD*%
D18*
%TO.P,R6,1*%
%TO.N,+3.3V*%
X24260000Y-45780000D03*
%TO.P,R6,2*%
%TO.N,/SCL*%
X25280000Y-45780000D03*
%TD*%
D19*
%TO.P,C7,1*%
%TO.N,+3.3V*%
X21770000Y-42750000D03*
%TO.P,C7,2*%
%TO.N,GND*%
X22730000Y-42750000D03*
%TD*%
D11*
%TO.P,J4,1,Pin_1_1*%
%TO.N,/M1_A*%
X34970000Y-24810000D03*
D12*
%TO.P,J4,2,Pin_2_2*%
%TO.N,/M1_B*%
X34970000Y-27350000D03*
%TO.P,J4,3,Pin_3_3*%
%TO.N,+12V*%
X34970000Y-29890000D03*
%TO.P,J4,4,Pin_4_4*%
%TO.N,GND*%
X34970000Y-32430000D03*
%TO.P,J4,5,Pin_5_5*%
%TO.N,/M2_A*%
X34970000Y-34970000D03*
%TO.P,J4,6,Pin_6_6*%
%TO.N,/M2_B*%
X34970000Y-37510000D03*
%TD*%
D20*
%TO.P,C4,1*%
%TO.N,+12V*%
X29550000Y-45000000D03*
%TO.P,C4,2*%
%TO.N,GND*%
X33950000Y-45000000D03*
%TD*%
D19*
%TO.P,C1,1*%
%TO.N,GND*%
X28300000Y-24420000D03*
%TO.P,C1,2*%
%TO.N,+3.3V*%
X29260000Y-24420000D03*
%TD*%
D21*
%TO.N,Net-(U1-DFLAG{slash})*%
X29750000Y-23250000D03*
%TO.N,GND*%
X23500000Y-21000000D03*
X45000000Y-25250000D03*
D22*
X33000000Y-43000000D03*
D21*
X30987062Y-31634808D03*
X25300000Y-39000000D03*
X25300000Y-22137500D03*
D22*
X35000000Y-43175000D03*
D21*
X47500000Y-56100000D03*
X45000000Y-40500000D03*
X25300000Y-26580000D03*
X26173304Y-31056852D03*
X22730000Y-41630000D03*
X21000000Y-26100000D03*
D22*
%TO.N,+3.3V*%
X44320000Y-54620000D03*
D21*
X23670000Y-46240000D03*
D22*
X44300000Y-51900000D03*
D21*
X24500000Y-33500000D03*
X21910000Y-43770000D03*
X27640000Y-26140000D03*
X35893637Y-46287029D03*
%TO.N,/SDA*%
X25092177Y-29039328D03*
X25950000Y-41500000D03*
X26600000Y-45300000D03*
X36250000Y-48750000D03*
%TO.N,/SCL*%
X25200000Y-42800000D03*
X20800000Y-35500000D03*
X25700000Y-46500000D03*
X26600000Y-29000000D03*
%TO.N,Net-(U2-DFLAG{slash})*%
X31750000Y-32500000D03*
%TO.N,Net-(U1-A2)*%
X26600000Y-22200000D03*
%TO.N,Net-(U2-LFLAG{slash})*%
X25749943Y-34386494D03*
%TO.N,Net-(U2-A2)*%
X26881329Y-33256186D03*
%TO.N,Net-(U1-LFLAG{slash})*%
X25505161Y-23314857D03*
%TD*%
%TO.N,Net-(U1-DFLAG{slash})*%
D23*
X29750000Y-23250000D02*
X29300000Y-23250000D01*
X29300000Y-23250000D02*
X28750000Y-22700000D01*
%TO.N,GND*%
X47500000Y-56100000D02*
X48000000Y-56600000D01*
X26220000Y-26580000D02*
X25300000Y-26580000D01*
X22730000Y-41630000D02*
X22730000Y-42750000D01*
X25020000Y-24960000D02*
X25030000Y-24950000D01*
X25300000Y-39000000D02*
X25240000Y-38940000D01*
X25240000Y-38940000D02*
X25240000Y-35750000D01*
X48000000Y-56600000D02*
X48000000Y-58000000D01*
X25020000Y-26300000D02*
X25020000Y-24960000D01*
X28300000Y-24420000D02*
X28300000Y-24500000D01*
X28300000Y-24500000D02*
X26220000Y-26580000D01*
X25300000Y-26580000D02*
X25020000Y-26300000D01*
%TO.N,+3.3V*%
X21770000Y-42750000D02*
X21770000Y-43630000D01*
X35680000Y-46960000D02*
X35680000Y-46500666D01*
X35680000Y-46500666D02*
X35893637Y-46287029D01*
X27270000Y-24470000D02*
X28010000Y-23730000D01*
X28010000Y-23730000D02*
X28570000Y-23730000D01*
X29260000Y-24520000D02*
X29260000Y-24420000D01*
X24750000Y-33750000D02*
X25240000Y-33750000D01*
X27640000Y-26140000D02*
X29260000Y-24520000D01*
X24260000Y-45780000D02*
X24130000Y-45780000D01*
X27100000Y-24470000D02*
X27270000Y-24470000D01*
X28570000Y-23730000D02*
X29260000Y-24420000D01*
X24130000Y-45780000D02*
X23670000Y-46240000D01*
X21770000Y-43630000D02*
X21910000Y-43770000D01*
X24500000Y-33500000D02*
X24750000Y-33750000D01*
%TO.N,/SDA*%
X21870000Y-34970000D02*
X22270000Y-34970000D01*
X25150000Y-34900000D02*
X22340000Y-34900000D01*
X25700000Y-35450000D02*
X25150000Y-34900000D01*
X24860672Y-29039328D02*
X24700000Y-29200000D01*
X26800000Y-45100000D02*
X26800000Y-42800000D01*
X26800000Y-42800000D02*
X25950000Y-41950000D01*
X25700000Y-38657537D02*
X25700000Y-35450000D01*
X26600000Y-45300000D02*
X26800000Y-45100000D01*
X36250000Y-48750000D02*
X36250000Y-48550000D01*
X25825000Y-38782537D02*
X25700000Y-38657537D01*
X23300000Y-31100000D02*
X21500000Y-31100000D01*
X21500000Y-31100000D02*
X20700000Y-31900000D01*
X24700000Y-29200000D02*
X24700000Y-29700000D01*
X25092177Y-29039328D02*
X24860672Y-29039328D01*
X36250000Y-48550000D02*
X35680000Y-47980000D01*
X24700000Y-29700000D02*
X23300000Y-31100000D01*
X25825000Y-41375000D02*
X25825000Y-38782537D01*
X22340000Y-34900000D02*
X22270000Y-34970000D01*
X25950000Y-41950000D02*
X25950000Y-41500000D01*
X25950000Y-41500000D02*
X25825000Y-41375000D01*
X20700000Y-31900000D02*
X20700000Y-33800000D01*
X20700000Y-33800000D02*
X21870000Y-34970000D01*
%TO.N,/SCL*%
X25200000Y-42800000D02*
X25200000Y-44500000D01*
X20800000Y-35500000D02*
X20800000Y-44300000D01*
X25700000Y-46500000D02*
X25200000Y-46000000D01*
X26600000Y-29400000D02*
X23570000Y-32430000D01*
X25200000Y-46000000D02*
X25200000Y-44500000D01*
X21500000Y-45000000D02*
X24700000Y-45000000D01*
X20800000Y-44300000D02*
X21500000Y-45000000D01*
X26600000Y-29000000D02*
X26600000Y-29400000D01*
X24700000Y-45000000D02*
X25200000Y-44500000D01*
X23570000Y-32430000D02*
X22270000Y-32430000D01*
%TO.N,Net-(U1-A2)*%
X26050000Y-24410000D02*
X27010000Y-23450000D01*
X26050000Y-24950000D02*
X26050000Y-24410000D01*
X27010000Y-23450000D02*
X27100000Y-23450000D01*
X27100000Y-22700000D02*
X26600000Y-22200000D01*
X27100000Y-23450000D02*
X27100000Y-22700000D01*
%TO.N,Net-(U2-LFLAG{slash})*%
X25749943Y-34386494D02*
X25785642Y-34350795D01*
X25749943Y-34386494D02*
X25750000Y-34386437D01*
X25750000Y-34386437D02*
X25750000Y-32162005D01*
X25785642Y-34350795D02*
X25785642Y-34108500D01*
X25785642Y-34108500D02*
X25750000Y-34072858D01*
%TO.N,Net-(U2-A2)*%
X26260000Y-33750000D02*
X26310642Y-33800642D01*
X26881329Y-33256186D02*
X26888910Y-33263767D01*
X26310642Y-35699358D02*
X26260000Y-35750000D01*
X26260000Y-33750000D02*
X26387515Y-33750000D01*
X26888910Y-34861090D02*
X26310642Y-35439358D01*
X26310642Y-35439358D02*
X26310642Y-35699358D01*
X26888910Y-33263767D02*
X26888910Y-34861090D01*
X26387515Y-33750000D02*
X26881329Y-33256186D01*
%TD*%
%TA.AperFunction,Conductor*%
%TO.N,/M1_B*%
G36*
X41193106Y-19505023D02*
G01*
X41208104Y-19509427D01*
X41266855Y-19547172D01*
X41268042Y-19548541D01*
X41295518Y-19603402D01*
X41297163Y-19610960D01*
X41300000Y-19637331D01*
X41300000Y-22344614D01*
X41295351Y-22378248D01*
X41284651Y-22416217D01*
X41275785Y-22438877D01*
X41240522Y-22508086D01*
X41240522Y-22508087D01*
X41205129Y-22577549D01*
X41151596Y-22742305D01*
X41151595Y-22742306D01*
X41131242Y-22870820D01*
X41131242Y-22870823D01*
X41124500Y-22913386D01*
X41124500Y-23086610D01*
X41145212Y-23217385D01*
X41151598Y-23257701D01*
X41171403Y-23318655D01*
X41205126Y-23422442D01*
X41205130Y-23422452D01*
X41240659Y-23492182D01*
X41275716Y-23560986D01*
X41284565Y-23583583D01*
X41295334Y-23621723D01*
X41300000Y-23655417D01*
X41300000Y-24344614D01*
X41295351Y-24378248D01*
X41284651Y-24416217D01*
X41275785Y-24438877D01*
X41240522Y-24508086D01*
X41240522Y-24508087D01*
X41205129Y-24577549D01*
X41151596Y-24742305D01*
X41151595Y-24742306D01*
X41131242Y-24870820D01*
X41131242Y-24870823D01*
X41124500Y-24913386D01*
X41124500Y-25086610D01*
X41151598Y-25257702D01*
X41174712Y-25328841D01*
X41205128Y-25422447D01*
X41275716Y-25560985D01*
X41284565Y-25583583D01*
X41295334Y-25621723D01*
X41300000Y-25655417D01*
X41300000Y-26344614D01*
X41295351Y-26378248D01*
X41284651Y-26416217D01*
X41275785Y-26438877D01*
X41240522Y-26508086D01*
X41240522Y-26508087D01*
X41205129Y-26577549D01*
X41151596Y-26742305D01*
X41124500Y-26913383D01*
X41124500Y-27086615D01*
X41151596Y-27257693D01*
X41205129Y-27422449D01*
X41275716Y-27560985D01*
X41284565Y-27583583D01*
X41295334Y-27621723D01*
X41300000Y-27655417D01*
X41300000Y-28344614D01*
X41295352Y-28378247D01*
X41284652Y-28416217D01*
X41275785Y-28438879D01*
X41205129Y-28577549D01*
X41151596Y-28742304D01*
X41132972Y-28859897D01*
X41132972Y-28859898D01*
X41124500Y-28913385D01*
X41124500Y-29086610D01*
X41151598Y-29257702D01*
X41188601Y-29371587D01*
X41205125Y-29422440D01*
X41205129Y-29422450D01*
X41275716Y-29560985D01*
X41284565Y-29583583D01*
X41295334Y-29621723D01*
X41300000Y-29655417D01*
X41300000Y-29900000D01*
X41533341Y-29900000D01*
X41568275Y-29905023D01*
X41598198Y-29913809D01*
X41636147Y-29932466D01*
X41648212Y-29941232D01*
X41802555Y-30019873D01*
X41967299Y-30073402D01*
X42138389Y-30100500D01*
X42138390Y-30100500D01*
X42861610Y-30100500D01*
X42861611Y-30100500D01*
X43032701Y-30073402D01*
X43197445Y-30019873D01*
X43351788Y-29941232D01*
X43361517Y-29934162D01*
X43392734Y-29917690D01*
X43422107Y-29907209D01*
X43463773Y-29900000D01*
X43858170Y-29900000D01*
X43893106Y-29905023D01*
X43908104Y-29909427D01*
X43966855Y-29947172D01*
X43968042Y-29948541D01*
X43995518Y-30003402D01*
X43997163Y-30010960D01*
X44000000Y-30037331D01*
X44000000Y-31371458D01*
X43980315Y-31438497D01*
X43927511Y-31484252D01*
X43867159Y-31495142D01*
X43858184Y-31494500D01*
X43858170Y-31494500D01*
X43280896Y-31494500D01*
X43221481Y-31498004D01*
X43216656Y-31498575D01*
X43192530Y-31501430D01*
X43192524Y-31501431D01*
X43133959Y-31511889D01*
X43106204Y-31518552D01*
X43106196Y-31518554D01*
X43074967Y-31528028D01*
X43049162Y-31535857D01*
X43049154Y-31535860D01*
X43036032Y-31540702D01*
X43031426Y-31542300D01*
X42923603Y-31577335D01*
X42904683Y-31581877D01*
X42868077Y-31587675D01*
X42831469Y-31593473D01*
X42812073Y-31595000D01*
X42187933Y-31595000D01*
X42168536Y-31593473D01*
X42131922Y-31587674D01*
X42095310Y-31581875D01*
X42076390Y-31577333D01*
X41974004Y-31544065D01*
X41970571Y-31542893D01*
X41945975Y-31534097D01*
X41945957Y-31534092D01*
X41893760Y-31518544D01*
X41866052Y-31511892D01*
X41807474Y-31501431D01*
X41807467Y-31501430D01*
X41807465Y-31501430D01*
X41778519Y-31498004D01*
X41719104Y-31494500D01*
X41719101Y-31494500D01*
X39629500Y-31494500D01*
X39562461Y-31474815D01*
X39516706Y-31422011D01*
X39505500Y-31370500D01*
X39505500Y-23637330D01*
X39502600Y-23583269D01*
X39502600Y-23583261D01*
X39499763Y-23556890D01*
X39491099Y-23503455D01*
X39489454Y-23495897D01*
X39463531Y-23422452D01*
X39447502Y-23377037D01*
X39420029Y-23322183D01*
X39420025Y-23322175D01*
X39349969Y-23217389D01*
X39348782Y-23216020D01*
X39240088Y-23121879D01*
X39240087Y-23121878D01*
X39240083Y-23121875D01*
X39181343Y-23084137D01*
X39181338Y-23084134D01*
X39181337Y-23084134D01*
X39050525Y-23024405D01*
X39050520Y-23024403D01*
X39050519Y-23024403D01*
X39045883Y-23023042D01*
X39035527Y-23020001D01*
X38997588Y-23011747D01*
X38965045Y-23004667D01*
X38930110Y-22999645D01*
X38858172Y-22994500D01*
X38858170Y-22994500D01*
X33887332Y-22994500D01*
X33887330Y-22994500D01*
X33833306Y-22997395D01*
X33806937Y-23000230D01*
X33753571Y-23008875D01*
X33753553Y-23008879D01*
X33745998Y-23010522D01*
X33745973Y-23010529D01*
X33627094Y-23052474D01*
X33627084Y-23052479D01*
X33572210Y-23079956D01*
X33572189Y-23079968D01*
X33467396Y-23150024D01*
X33467388Y-23150030D01*
X33466018Y-23151218D01*
X33371878Y-23259911D01*
X33371875Y-23259915D01*
X33334137Y-23318655D01*
X33334134Y-23318662D01*
X33286747Y-23422445D01*
X33274403Y-23449479D01*
X33271363Y-23459830D01*
X33270001Y-23464472D01*
X33263973Y-23492182D01*
X33254667Y-23534953D01*
X33249645Y-23569888D01*
X33244500Y-23641826D01*
X33244500Y-25662673D01*
X33247391Y-25716649D01*
X33247394Y-25716681D01*
X33250222Y-25743010D01*
X33258882Y-25796457D01*
X33258886Y-25796483D01*
X33260529Y-25804033D01*
X33260529Y-25804035D01*
X33302481Y-25922923D01*
X33302482Y-25922926D01*
X33302484Y-25922929D01*
X33329964Y-25977804D01*
X33400030Y-26082610D01*
X33401217Y-26083979D01*
X33509905Y-26178116D01*
X33568651Y-26215859D01*
X33568658Y-26215862D01*
X33699446Y-26275585D01*
X33699447Y-26275585D01*
X33699448Y-26275586D01*
X33714447Y-26279991D01*
X33784931Y-26295327D01*
X33819872Y-26300352D01*
X33891830Y-26305500D01*
X36370500Y-26305500D01*
X36437539Y-26325185D01*
X36483294Y-26377989D01*
X36494500Y-26429500D01*
X36494500Y-27901035D01*
X36474815Y-27968074D01*
X36422011Y-28013829D01*
X36352853Y-28023773D01*
X36337690Y-28020476D01*
X36337672Y-28020549D01*
X36335642Y-28020030D01*
X36335592Y-28020020D01*
X36335541Y-28020005D01*
X36335536Y-28020003D01*
X36265045Y-28004667D01*
X36230110Y-27999645D01*
X36158172Y-27994500D01*
X36158170Y-27994500D01*
X35732172Y-27994500D01*
X35732165Y-27994500D01*
X35672791Y-27998000D01*
X35672775Y-27998001D01*
X35643828Y-28001427D01*
X35643823Y-28001428D01*
X35585247Y-28011886D01*
X35585230Y-28011890D01*
X35557505Y-28018544D01*
X35557469Y-28018554D01*
X35500511Y-28035831D01*
X35473186Y-28045911D01*
X35473178Y-28045915D01*
X35418644Y-28069767D01*
X35303058Y-28128662D01*
X35285081Y-28136108D01*
X35177146Y-28171178D01*
X35158227Y-28175720D01*
X35065249Y-28190447D01*
X35046145Y-28193473D01*
X35026749Y-28195000D01*
X34913252Y-28195000D01*
X34893854Y-28193473D01*
X34781774Y-28175721D01*
X34762853Y-28171179D01*
X34654916Y-28136107D01*
X34636940Y-28128661D01*
X34521354Y-28069767D01*
X34466824Y-28045916D01*
X34466814Y-28045912D01*
X34439474Y-28035827D01*
X34382529Y-28018555D01*
X34382527Y-28018554D01*
X34382522Y-28018553D01*
X34370854Y-28015752D01*
X34354768Y-28011890D01*
X34354769Y-28011890D01*
X34296195Y-28001431D01*
X34296170Y-28001427D01*
X34267223Y-27998001D01*
X34267207Y-27998000D01*
X34207833Y-27994500D01*
X34207827Y-27994500D01*
X30824000Y-27994500D01*
X30756961Y-27974815D01*
X30711206Y-27922011D01*
X30700000Y-27870500D01*
X30700000Y-19641829D01*
X30705023Y-19606893D01*
X30709427Y-19591895D01*
X30747172Y-19533144D01*
X30748541Y-19531957D01*
X30803420Y-19504477D01*
X30810979Y-19502833D01*
X30837332Y-19500000D01*
X41158170Y-19500000D01*
X41193106Y-19505023D01*
G37*
%TD.AperFunction*%
%TD*%
%TA.AperFunction,Conductor*%
%TO.N,/M2_B*%
G36*
X34529123Y-36251526D02*
G01*
X34547757Y-36254477D01*
X34548162Y-36254541D01*
X34567085Y-36259084D01*
X34588780Y-36266133D01*
X34653757Y-36287246D01*
X34863713Y-36320500D01*
X34863714Y-36320500D01*
X35076286Y-36320500D01*
X35076287Y-36320500D01*
X35286243Y-36287246D01*
X35372913Y-36259083D01*
X35391831Y-36254541D01*
X35410883Y-36251525D01*
X35430272Y-36250000D01*
X41108170Y-36250000D01*
X41143106Y-36255023D01*
X41158104Y-36259427D01*
X41216855Y-36297172D01*
X41218042Y-36298541D01*
X41245518Y-36353402D01*
X41247163Y-36360960D01*
X41250000Y-36387331D01*
X41250000Y-38063937D01*
X41248473Y-38083337D01*
X41245458Y-38102371D01*
X41240916Y-38121289D01*
X41201596Y-38242303D01*
X41201596Y-38242304D01*
X41174500Y-38413383D01*
X41174500Y-38586615D01*
X41201596Y-38757694D01*
X41201596Y-38757695D01*
X41240916Y-38878709D01*
X41245458Y-38897627D01*
X41248473Y-38916661D01*
X41250000Y-38936061D01*
X41250000Y-40063937D01*
X41248473Y-40083337D01*
X41245458Y-40102371D01*
X41240916Y-40121289D01*
X41201596Y-40242303D01*
X41201596Y-40242304D01*
X41174500Y-40413383D01*
X41174500Y-40586615D01*
X41201596Y-40757694D01*
X41201596Y-40757695D01*
X41240916Y-40878709D01*
X41245458Y-40897627D01*
X41248473Y-40916661D01*
X41250000Y-40936061D01*
X41250000Y-42063937D01*
X41248473Y-42083337D01*
X41245458Y-42102371D01*
X41240916Y-42121289D01*
X41201596Y-42242303D01*
X41201596Y-42242304D01*
X41174500Y-42413383D01*
X41174500Y-42586615D01*
X41201596Y-42757694D01*
X41201596Y-42757695D01*
X41240916Y-42878709D01*
X41245458Y-42897627D01*
X41248473Y-42916661D01*
X41250000Y-42936061D01*
X41250000Y-44063937D01*
X41248473Y-44083337D01*
X41245458Y-44102371D01*
X41240916Y-44121289D01*
X41201596Y-44242303D01*
X41201596Y-44242304D01*
X41174500Y-44413383D01*
X41174500Y-44586615D01*
X41201596Y-44757694D01*
X41201596Y-44757695D01*
X41240916Y-44878709D01*
X41245458Y-44897627D01*
X41248473Y-44916661D01*
X41250000Y-44936061D01*
X41250000Y-45250000D01*
X41399466Y-45250000D01*
X41434398Y-45255021D01*
X41459642Y-45262434D01*
X41512388Y-45293730D01*
X41558072Y-45339414D01*
X41698212Y-45441232D01*
X41852555Y-45519873D01*
X42017299Y-45573402D01*
X42188389Y-45600500D01*
X42188390Y-45600500D01*
X42911610Y-45600500D01*
X42911611Y-45600500D01*
X43082701Y-45573402D01*
X43247445Y-45519873D01*
X43401788Y-45441232D01*
X43541928Y-45339414D01*
X43582417Y-45298924D01*
X43610668Y-45277775D01*
X43633760Y-45265167D01*
X43693185Y-45250000D01*
X44608170Y-45250000D01*
X44643106Y-45255023D01*
X44658104Y-45259427D01*
X44716855Y-45297172D01*
X44718042Y-45298541D01*
X44745518Y-45353402D01*
X44747163Y-45360960D01*
X44750000Y-45387331D01*
X44750000Y-47358170D01*
X44744975Y-47393114D01*
X44740570Y-47408112D01*
X44702827Y-47466855D01*
X44701458Y-47468042D01*
X44646597Y-47495518D01*
X44639039Y-47497163D01*
X44612668Y-47500000D01*
X43603185Y-47500000D01*
X43569358Y-47495296D01*
X43537432Y-47486242D01*
X43506172Y-47472487D01*
X43494340Y-47465189D01*
X43494339Y-47465188D01*
X43494335Y-47465186D01*
X43336265Y-47412807D01*
X43333445Y-47411641D01*
X43327792Y-47409999D01*
X43225019Y-47399500D01*
X43225010Y-47399500D01*
X41874998Y-47399500D01*
X41874981Y-47399501D01*
X41860959Y-47400933D01*
X41772198Y-47410000D01*
X41772193Y-47410001D01*
X41772032Y-47410056D01*
X41605670Y-47465184D01*
X41605653Y-47465191D01*
X41605651Y-47465192D01*
X41593824Y-47472488D01*
X41562562Y-47486244D01*
X41554356Y-47488571D01*
X41530645Y-47495295D01*
X41496815Y-47500000D01*
X39391830Y-47500000D01*
X39356889Y-47494975D01*
X39341890Y-47490570D01*
X39283144Y-47452827D01*
X39281957Y-47451458D01*
X39254477Y-47396583D01*
X39252832Y-47389021D01*
X39250000Y-47362668D01*
X39250000Y-39000000D01*
X34141830Y-39000000D01*
X34106889Y-38994975D01*
X34091890Y-38990570D01*
X34033144Y-38952827D01*
X34031957Y-38951458D01*
X34004477Y-38896583D01*
X34002832Y-38889021D01*
X34000000Y-38862668D01*
X34000000Y-36391829D01*
X34005023Y-36356893D01*
X34009427Y-36341895D01*
X34047172Y-36283144D01*
X34048541Y-36281957D01*
X34103420Y-36254477D01*
X34110979Y-36252833D01*
X34137332Y-36250000D01*
X34509728Y-36250000D01*
X34529123Y-36251526D01*
G37*
%TD.AperFunction*%
%TD*%
%TA.AperFunction,Conductor*%
%TO.N,+12V*%
G36*
X34236765Y-28503424D02*
G01*
X34264525Y-28510088D01*
X34291869Y-28520175D01*
X34451588Y-28601557D01*
X34653757Y-28667246D01*
X34863713Y-28700500D01*
X34863714Y-28700500D01*
X35076286Y-28700500D01*
X35076287Y-28700500D01*
X35286243Y-28667246D01*
X35488412Y-28601557D01*
X35648132Y-28520174D01*
X35675472Y-28510088D01*
X35703234Y-28503424D01*
X35732172Y-28500000D01*
X36158170Y-28500000D01*
X36193106Y-28505023D01*
X36208104Y-28509427D01*
X36266855Y-28547172D01*
X36268042Y-28548541D01*
X36295518Y-28603402D01*
X36297163Y-28610960D01*
X36300000Y-28637331D01*
X36300000Y-30958170D01*
X36294975Y-30993114D01*
X36290570Y-31008112D01*
X36252827Y-31066855D01*
X36251458Y-31068042D01*
X36196597Y-31095518D01*
X36189039Y-31097163D01*
X36162668Y-31100000D01*
X35220353Y-31100000D01*
X35210616Y-31099617D01*
X35200929Y-31098854D01*
X35191423Y-31097735D01*
X35191273Y-31097711D01*
X35191104Y-31097684D01*
X35191007Y-31097669D01*
X35076291Y-31079500D01*
X35076287Y-31079500D01*
X34863713Y-31079500D01*
X34863707Y-31079500D01*
X34748989Y-31097669D01*
X34748551Y-31097738D01*
X34748286Y-31097779D01*
X34739071Y-31098854D01*
X34729866Y-31099579D01*
X34729389Y-31099617D01*
X34719647Y-31100000D01*
X31653524Y-31100000D01*
X31618588Y-31094977D01*
X31593346Y-31087565D01*
X31540600Y-31056268D01*
X31497358Y-31013025D01*
X31497357Y-31013024D01*
X31497354Y-31013021D01*
X31497350Y-31013018D01*
X31366247Y-30925417D01*
X31366234Y-30925410D01*
X31366227Y-30925406D01*
X31220564Y-30865072D01*
X31220533Y-30865065D01*
X31065909Y-30834308D01*
X31065907Y-30834308D01*
X31065904Y-30834308D01*
X30908220Y-30834308D01*
X30908217Y-30834308D01*
X30908215Y-30834308D01*
X30753589Y-30865065D01*
X30753558Y-30865072D01*
X30607895Y-30925406D01*
X30607886Y-30925411D01*
X30607869Y-30925421D01*
X30476770Y-31013019D01*
X30476769Y-31013020D01*
X30476763Y-31013025D01*
X30365279Y-31124509D01*
X30365274Y-31124515D01*
X30365273Y-31124516D01*
X30277675Y-31255615D01*
X30277665Y-31255632D01*
X30277660Y-31255641D01*
X30217326Y-31401304D01*
X30217319Y-31401335D01*
X30186562Y-31555958D01*
X30186562Y-31555961D01*
X30186562Y-31713654D01*
X30186562Y-31713656D01*
X30186561Y-31713656D01*
X30217319Y-31868279D01*
X30217326Y-31868310D01*
X30277660Y-32013973D01*
X30277665Y-32013982D01*
X30277675Y-32013999D01*
X30365270Y-32145094D01*
X30451074Y-32230898D01*
X30472224Y-32259150D01*
X30484831Y-32282237D01*
X30500000Y-32341666D01*
X30500000Y-33750000D01*
X30500000Y-41500000D01*
X31608170Y-41500000D01*
X31643106Y-41505023D01*
X31658104Y-41509427D01*
X31716855Y-41547172D01*
X31718042Y-41548541D01*
X31745518Y-41603402D01*
X31747163Y-41610960D01*
X31750000Y-41637331D01*
X31750000Y-46250000D01*
X32396546Y-46250000D01*
X32416292Y-46251582D01*
X32435678Y-46254711D01*
X32454911Y-46259416D01*
X32547203Y-46289999D01*
X32649991Y-46300500D01*
X34608170Y-46300499D01*
X34643104Y-46305522D01*
X34658103Y-46309926D01*
X34716881Y-46347700D01*
X34716890Y-46347710D01*
X34718076Y-46349079D01*
X34745518Y-46403901D01*
X34747163Y-46411459D01*
X34750000Y-46437830D01*
X34750000Y-54858170D01*
X34744975Y-54893114D01*
X34740570Y-54908112D01*
X34702827Y-54966855D01*
X34701458Y-54968042D01*
X34646597Y-54995518D01*
X34639039Y-54997163D01*
X34612668Y-55000000D01*
X20642330Y-55000000D01*
X20607389Y-54994975D01*
X20592390Y-54990570D01*
X20533644Y-54952827D01*
X20532457Y-54951458D01*
X20504977Y-54896583D01*
X20503332Y-54889021D01*
X20500500Y-54862668D01*
X20500500Y-48241829D01*
X20505523Y-48206893D01*
X20509927Y-48191895D01*
X20547672Y-48133144D01*
X20549041Y-48131957D01*
X20603920Y-48104477D01*
X20611479Y-48102833D01*
X20637832Y-48100000D01*
X27250000Y-48100000D01*
X27250000Y-45823512D01*
X27255023Y-45788576D01*
X27264363Y-45756768D01*
X27280238Y-45722813D01*
X27309394Y-45679179D01*
X27369737Y-45533497D01*
X27400500Y-45378842D01*
X27400500Y-45221158D01*
X27400500Y-45221155D01*
X27400500Y-45220973D01*
X27400065Y-45218972D01*
X27370397Y-45069824D01*
X27369994Y-45067467D01*
X27369737Y-45066504D01*
X27369735Y-45066498D01*
X27311074Y-44924876D01*
X27309770Y-44921383D01*
X27280802Y-44878029D01*
X27265569Y-44846190D01*
X27255665Y-44814559D01*
X27250000Y-44777507D01*
X27250000Y-34056709D01*
X27255022Y-34021776D01*
X27260934Y-34001641D01*
X27291449Y-33949684D01*
X27296157Y-33944891D01*
X27315724Y-33928684D01*
X27391618Y-33877975D01*
X27503118Y-33766475D01*
X27590723Y-33635365D01*
X27651066Y-33489683D01*
X27681829Y-33335028D01*
X27681829Y-33177344D01*
X27681829Y-33177341D01*
X27681829Y-33177159D01*
X27681394Y-33175158D01*
X27651727Y-33026016D01*
X27651312Y-33023589D01*
X27651067Y-33022693D01*
X27651066Y-33022691D01*
X27651066Y-33022689D01*
X27591228Y-32878226D01*
X27591227Y-32878215D01*
X27591225Y-32878217D01*
X27590731Y-32877024D01*
X27590729Y-32877020D01*
X27590726Y-32877013D01*
X27590719Y-32877000D01*
X27503118Y-32745897D01*
X27503115Y-32745893D01*
X27503110Y-32745887D01*
X27391626Y-32634403D01*
X27391623Y-32634401D01*
X27391621Y-32634399D01*
X27391617Y-32634396D01*
X27319930Y-32586496D01*
X27293675Y-32562912D01*
X27280220Y-32546812D01*
X27253973Y-32492574D01*
X27252603Y-32485994D01*
X27250000Y-32460718D01*
X27250000Y-29523512D01*
X27255023Y-29488576D01*
X27264363Y-29456768D01*
X27280238Y-29422813D01*
X27309394Y-29379179D01*
X27369737Y-29233497D01*
X27400500Y-29078842D01*
X27400500Y-28921158D01*
X27400500Y-28921155D01*
X27400500Y-28920973D01*
X27400065Y-28918972D01*
X27370398Y-28769830D01*
X27369984Y-28767406D01*
X27369737Y-28766506D01*
X27369737Y-28766503D01*
X27337186Y-28687920D01*
X27328460Y-28653730D01*
X27326976Y-28639930D01*
X27339380Y-28571170D01*
X27386986Y-28520034D01*
X27391524Y-28517341D01*
X27454771Y-28500000D01*
X34207827Y-28500000D01*
X34236765Y-28503424D01*
G37*
%TD.AperFunction*%
%TD*%
%TA.AperFunction,Conductor*%
%TO.N,GND*%
G36*
X35937539Y-42025185D02*
G01*
X35983294Y-42077989D01*
X35994500Y-42129500D01*
X35994500Y-45362529D01*
X35974815Y-45429568D01*
X35922011Y-45475323D01*
X35870500Y-45486529D01*
X35814790Y-45486529D01*
X35660164Y-45517286D01*
X35660133Y-45517293D01*
X35514470Y-45577627D01*
X35514461Y-45577632D01*
X35514444Y-45577642D01*
X35383345Y-45665240D01*
X35383344Y-45665241D01*
X35383338Y-45665246D01*
X35271854Y-45776730D01*
X35271849Y-45776736D01*
X35271848Y-45776737D01*
X35184989Y-45906731D01*
X35131377Y-45951536D01*
X35062052Y-45960243D01*
X35000687Y-45931555D01*
X34990175Y-45922447D01*
X34990169Y-45922442D01*
X34965721Y-45906731D01*
X34931395Y-45884671D01*
X34931394Y-45884671D01*
X34928890Y-45883062D01*
X34923326Y-45880986D01*
X34878652Y-45860584D01*
X34800513Y-45824899D01*
X34800510Y-45824898D01*
X34785524Y-45820498D01*
X34785502Y-45820493D01*
X34715057Y-45805169D01*
X34680114Y-45800145D01*
X34608171Y-45794999D01*
X34608170Y-45794999D01*
X32682064Y-45794999D01*
X32669467Y-45794357D01*
X32667157Y-45794121D01*
X32640762Y-45788470D01*
X32613917Y-45779575D01*
X32575030Y-45768395D01*
X32555787Y-45763687D01*
X32516234Y-45755671D01*
X32496830Y-45752539D01*
X32456669Y-45747697D01*
X32436919Y-45746115D01*
X32412694Y-45745146D01*
X32396546Y-45744500D01*
X32396544Y-45744500D01*
X32379500Y-45744500D01*
X32312461Y-45724815D01*
X32266706Y-45672011D01*
X32255500Y-45620500D01*
X32255500Y-42129500D01*
X32275185Y-42062461D01*
X32327989Y-42016706D01*
X32379500Y-42005500D01*
X35870500Y-42005500D01*
X35937539Y-42025185D01*
G37*
%TD.AperFunction*%
%TD*%
%TA.AperFunction,Conductor*%
%TO.N,/M1_A*%
G36*
X38893106Y-23505023D02*
G01*
X38908104Y-23509427D01*
X38966855Y-23547172D01*
X38968042Y-23548541D01*
X38995518Y-23603402D01*
X38997163Y-23610960D01*
X39000000Y-23637331D01*
X39000000Y-32000000D01*
X41719104Y-32000000D01*
X41748050Y-32003426D01*
X41766329Y-32007814D01*
X41775756Y-32010077D01*
X41800882Y-32019062D01*
X41801433Y-32019329D01*
X41803411Y-32020312D01*
X41807164Y-32021370D01*
X41967299Y-32073402D01*
X42138389Y-32100500D01*
X42138390Y-32100500D01*
X42861610Y-32100500D01*
X42861611Y-32100500D01*
X43032701Y-32073402D01*
X43197445Y-32019873D01*
X43197454Y-32019868D01*
X43201942Y-32018010D01*
X43202046Y-32018262D01*
X43224189Y-32010090D01*
X43232569Y-32008078D01*
X43251950Y-32003426D01*
X43280896Y-32000000D01*
X43858170Y-32000000D01*
X43893106Y-32005023D01*
X43908104Y-32009427D01*
X43966855Y-32047172D01*
X43968042Y-32048541D01*
X43995518Y-32103402D01*
X43997163Y-32110960D01*
X44000000Y-32137331D01*
X44000000Y-34858170D01*
X43994975Y-34893114D01*
X43990570Y-34908112D01*
X43952827Y-34966855D01*
X43951458Y-34968042D01*
X43896597Y-34995518D01*
X43889039Y-34997163D01*
X43862668Y-35000000D01*
X37141830Y-35000000D01*
X37106889Y-34994975D01*
X37091890Y-34990570D01*
X37033144Y-34952827D01*
X37031957Y-34951458D01*
X37004477Y-34896583D01*
X37002832Y-34889021D01*
X37000000Y-34862668D01*
X37000000Y-25800000D01*
X33891830Y-25800000D01*
X33856889Y-25794975D01*
X33841890Y-25790570D01*
X33783144Y-25752827D01*
X33781957Y-25751458D01*
X33754477Y-25696583D01*
X33752832Y-25689021D01*
X33750000Y-25662668D01*
X33750000Y-23641829D01*
X33755023Y-23606893D01*
X33759427Y-23591895D01*
X33797172Y-23533144D01*
X33798541Y-23531957D01*
X33853420Y-23504477D01*
X33860979Y-23502833D01*
X33887332Y-23500000D01*
X38858170Y-23500000D01*
X38893106Y-23505023D01*
G37*
%TD.AperFunction*%
%TD*%
%TA.AperFunction,Conductor*%
%TO.N,+3.3V*%
G36*
X45243039Y-51119685D02*
G01*
X45288794Y-51172489D01*
X45300000Y-51224000D01*
X45300000Y-55076000D01*
X45280315Y-55143039D01*
X45227511Y-55188794D01*
X45176000Y-55200000D01*
X41900000Y-55200000D01*
X41900000Y-57066010D01*
X41880315Y-57133049D01*
X41876318Y-57138895D01*
X41764951Y-57292179D01*
X41668444Y-57481585D01*
X41602753Y-57683760D01*
X41569500Y-57893713D01*
X41569500Y-58106286D01*
X41602753Y-58316239D01*
X41668444Y-58518414D01*
X41764951Y-58707819D01*
X41876318Y-58861104D01*
X41899798Y-58926910D01*
X41900000Y-58933989D01*
X41900000Y-59876000D01*
X41880315Y-59943039D01*
X41827511Y-59988794D01*
X41776000Y-60000000D01*
X38324000Y-60000000D01*
X38256961Y-59980315D01*
X38211206Y-59927511D01*
X38200000Y-59876000D01*
X38200000Y-51224000D01*
X38219685Y-51156961D01*
X38272489Y-51111206D01*
X38324000Y-51100000D01*
X45176000Y-51100000D01*
X45243039Y-51119685D01*
G37*
%TD.AperFunction*%
%TD*%
%TA.AperFunction,Conductor*%
%TO.N,/M2_A*%
G36*
X34666227Y-33750380D02*
G01*
X34675942Y-33751145D01*
X34685580Y-33752285D01*
X34863713Y-33780500D01*
X34863714Y-33780500D01*
X35076285Y-33780500D01*
X35076286Y-33780500D01*
X35076287Y-33780500D01*
X35254421Y-33752285D01*
X35264058Y-33751144D01*
X35273769Y-33750380D01*
X35283481Y-33750000D01*
X36108170Y-33750000D01*
X36143106Y-33755023D01*
X36158104Y-33759427D01*
X36216855Y-33797172D01*
X36218042Y-33798541D01*
X36245518Y-33853402D01*
X36247163Y-33860960D01*
X36250000Y-33887331D01*
X36250000Y-35620500D01*
X36230315Y-35687539D01*
X36177511Y-35733294D01*
X36126000Y-35744500D01*
X35430272Y-35744500D01*
X35390635Y-35746056D01*
X35390623Y-35746056D01*
X35390621Y-35746057D01*
X35371243Y-35747581D01*
X35331836Y-35752243D01*
X35312799Y-35755256D01*
X35273815Y-35763009D01*
X35254918Y-35767546D01*
X35216694Y-35778327D01*
X35177146Y-35791178D01*
X35158227Y-35795720D01*
X35082811Y-35807665D01*
X35046144Y-35813473D01*
X35026749Y-35815000D01*
X34913252Y-35815000D01*
X34893854Y-35813473D01*
X34781773Y-35795721D01*
X34762853Y-35791179D01*
X34723306Y-35778329D01*
X34723300Y-35778327D01*
X34723296Y-35778326D01*
X34685091Y-35767551D01*
X34673941Y-35764874D01*
X34666165Y-35763007D01*
X34627221Y-35755261D01*
X34610681Y-35752642D01*
X34608188Y-35752248D01*
X34603808Y-35751729D01*
X34568781Y-35747583D01*
X34549390Y-35746057D01*
X34529553Y-35745278D01*
X34509728Y-35744500D01*
X34509716Y-35744500D01*
X34137330Y-35744500D01*
X34083306Y-35747395D01*
X34056937Y-35750230D01*
X34003571Y-35758875D01*
X34003553Y-35758879D01*
X33995998Y-35760522D01*
X33995973Y-35760529D01*
X33877094Y-35802474D01*
X33877084Y-35802479D01*
X33822210Y-35829956D01*
X33822189Y-35829968D01*
X33717396Y-35900024D01*
X33717388Y-35900030D01*
X33716018Y-35901218D01*
X33621878Y-36009911D01*
X33621875Y-36009915D01*
X33584137Y-36068655D01*
X33524403Y-36199479D01*
X33521363Y-36209830D01*
X33520001Y-36214472D01*
X33513716Y-36243360D01*
X33504667Y-36284953D01*
X33499645Y-36319888D01*
X33494500Y-36391826D01*
X33494500Y-38862673D01*
X33497391Y-38916649D01*
X33497394Y-38916681D01*
X33500222Y-38943010D01*
X33508882Y-38996457D01*
X33508886Y-38996483D01*
X33510529Y-39004033D01*
X33510529Y-39004035D01*
X33552481Y-39122923D01*
X33552482Y-39122926D01*
X33552484Y-39122929D01*
X33579964Y-39177804D01*
X33650030Y-39282610D01*
X33651217Y-39283979D01*
X33759905Y-39378116D01*
X33818651Y-39415859D01*
X33827505Y-39419902D01*
X33880311Y-39465653D01*
X33886406Y-39486406D01*
X33900000Y-39500000D01*
X34060521Y-39500000D01*
X34069370Y-39500316D01*
X34069870Y-39500351D01*
X34069872Y-39500352D01*
X34141830Y-39505500D01*
X38620500Y-39505500D01*
X38687539Y-39525185D01*
X38733294Y-39577989D01*
X38744500Y-39629500D01*
X38744500Y-47362673D01*
X38747391Y-47416649D01*
X38747394Y-47416681D01*
X38750222Y-47443010D01*
X38758882Y-47496457D01*
X38758886Y-47496483D01*
X38760529Y-47504033D01*
X38760529Y-47504035D01*
X38802481Y-47622923D01*
X38802482Y-47622926D01*
X38802484Y-47622929D01*
X38829964Y-47677804D01*
X38900030Y-47782610D01*
X38901217Y-47783979D01*
X39009905Y-47878116D01*
X39068651Y-47915859D01*
X39141089Y-47948937D01*
X39199446Y-47975585D01*
X39199447Y-47975585D01*
X39199448Y-47975586D01*
X39214447Y-47979991D01*
X39284931Y-47995327D01*
X39319872Y-48000352D01*
X39391830Y-48005500D01*
X41496815Y-48005500D01*
X41566449Y-48000681D01*
X41600279Y-47995976D01*
X41648787Y-47985775D01*
X41668538Y-47981623D01*
X41668540Y-47981622D01*
X41668556Y-47981619D01*
X41700473Y-47972568D01*
X41766155Y-47948932D01*
X41797417Y-47935176D01*
X41797415Y-47935176D01*
X41799381Y-47934312D01*
X41799424Y-47934411D01*
X41811659Y-47929455D01*
X41865767Y-47911525D01*
X41892192Y-47905873D01*
X41894500Y-47905637D01*
X41907054Y-47905000D01*
X43192949Y-47905000D01*
X43205547Y-47905641D01*
X43207832Y-47905875D01*
X43234228Y-47911525D01*
X43288337Y-47929455D01*
X43300573Y-47934410D01*
X43300617Y-47934312D01*
X43333828Y-47948925D01*
X43333832Y-47948926D01*
X43333840Y-47948930D01*
X43399514Y-47972564D01*
X43431440Y-47981618D01*
X43499733Y-47995978D01*
X43533560Y-48000682D01*
X43603185Y-48005500D01*
X44612666Y-48005500D01*
X44612668Y-48005500D01*
X44619357Y-48005141D01*
X44687354Y-48021206D01*
X44735873Y-48071482D01*
X44750000Y-48128963D01*
X44750000Y-50358170D01*
X44744975Y-50393114D01*
X44740570Y-50408112D01*
X44702827Y-50466855D01*
X44701458Y-50468042D01*
X44646597Y-50495518D01*
X44639039Y-50497163D01*
X44612668Y-50500000D01*
X36641830Y-50500000D01*
X36606889Y-50494975D01*
X36591890Y-50490570D01*
X36533144Y-50452827D01*
X36531957Y-50451458D01*
X36504477Y-50396583D01*
X36502832Y-50389021D01*
X36500000Y-50362668D01*
X36500000Y-49613584D01*
X36505023Y-49578648D01*
X36509427Y-49563650D01*
X36547195Y-49504878D01*
X36557493Y-49495954D01*
X36591244Y-49475106D01*
X36629179Y-49459394D01*
X36760289Y-49371789D01*
X36871789Y-49260289D01*
X36959394Y-49129179D01*
X37019737Y-48983497D01*
X37050500Y-48828842D01*
X37050500Y-48671158D01*
X37050500Y-48671155D01*
X37050500Y-48670973D01*
X37050065Y-48668972D01*
X37020397Y-48519824D01*
X37019994Y-48517467D01*
X37019738Y-48516508D01*
X37019737Y-48516506D01*
X37019737Y-48516503D01*
X37019735Y-48516498D01*
X36959397Y-48370827D01*
X36959390Y-48370814D01*
X36871789Y-48239711D01*
X36871786Y-48239707D01*
X36871781Y-48239701D01*
X36760297Y-48128217D01*
X36760291Y-48128212D01*
X36760290Y-48128211D01*
X36629162Y-48040593D01*
X36628564Y-48040350D01*
X36602354Y-48029495D01*
X36602339Y-48029482D01*
X36602337Y-48029488D01*
X36593506Y-48025829D01*
X36563169Y-48007828D01*
X36554301Y-48000682D01*
X36550996Y-47998019D01*
X36511146Y-47940629D01*
X36511142Y-47940617D01*
X36509331Y-47935176D01*
X36506842Y-47927695D01*
X36500499Y-47888543D01*
X36500499Y-47780846D01*
X36500499Y-47780831D01*
X36500498Y-47780806D01*
X36500496Y-47780788D01*
X36500456Y-47779798D01*
X36500287Y-47776936D01*
X36500094Y-47772005D01*
X36500000Y-47767183D01*
X36500000Y-47172853D01*
X36500094Y-47168013D01*
X36500288Y-47163071D01*
X36500461Y-47160152D01*
X36500497Y-47159217D01*
X36500500Y-47159181D01*
X36500499Y-46875097D01*
X36505522Y-46840163D01*
X36514860Y-46808361D01*
X36530735Y-46774405D01*
X36603031Y-46666208D01*
X36663374Y-46520526D01*
X36694137Y-46365871D01*
X36694137Y-46208187D01*
X36694137Y-46208184D01*
X36694137Y-46208002D01*
X36693702Y-46206000D01*
X36681113Y-46142711D01*
X36663376Y-46053539D01*
X36663373Y-46053530D01*
X36648928Y-46018656D01*
X36603039Y-45907869D01*
X36603034Y-45907856D01*
X36603027Y-45907843D01*
X36603025Y-45907841D01*
X36603023Y-45907836D01*
X36530804Y-45799753D01*
X36515571Y-45767914D01*
X36505665Y-45736277D01*
X36500000Y-45699225D01*
X36500000Y-41500000D01*
X32328633Y-41500000D01*
X32261594Y-41480315D01*
X32215839Y-41427511D01*
X32211703Y-41417272D01*
X32197501Y-41377035D01*
X32170029Y-41322183D01*
X32170025Y-41322175D01*
X32099969Y-41217389D01*
X32098782Y-41216020D01*
X31990088Y-41121879D01*
X31990087Y-41121878D01*
X31990083Y-41121875D01*
X31931343Y-41084137D01*
X31931338Y-41084134D01*
X31931337Y-41084134D01*
X31800525Y-41024405D01*
X31800520Y-41024403D01*
X31800519Y-41024403D01*
X31795883Y-41023042D01*
X31785527Y-41020001D01*
X31747588Y-41011747D01*
X31715045Y-41004667D01*
X31680110Y-40999645D01*
X31608172Y-40994500D01*
X31608170Y-40994500D01*
X31129500Y-40994500D01*
X31062461Y-40974815D01*
X31016706Y-40922011D01*
X31005500Y-40870500D01*
X31005500Y-33874000D01*
X31025185Y-33806961D01*
X31077989Y-33761206D01*
X31129500Y-33750000D01*
X34656519Y-33750000D01*
X34666227Y-33750380D01*
G37*
%TD.AperFunction*%
%TD*%
%TA.AperFunction,Conductor*%
%TO.N,Net-(U1-DFLAG{slash})*%
G36*
X29240244Y-22498614D02*
G01*
X29248509Y-22502055D01*
X29249097Y-22502645D01*
X29252387Y-22509210D01*
X29279935Y-22697452D01*
X29351852Y-23188900D01*
X29352910Y-23196125D01*
X29352966Y-23196903D01*
X29353033Y-23196966D01*
X29353033Y-23196967D01*
X29714587Y-23175857D01*
X29719106Y-23176486D01*
X29720789Y-23177071D01*
X29727477Y-23183021D01*
X29728118Y-23184344D01*
X29729289Y-23189445D01*
X29729289Y-23310972D01*
X29728398Y-23315451D01*
X29727716Y-23317097D01*
X29721388Y-23323426D01*
X29720807Y-23323667D01*
X29719741Y-23324108D01*
X29715262Y-23325000D01*
X29303479Y-23325000D01*
X29301196Y-23324775D01*
X29298972Y-23324332D01*
X29296782Y-23323667D01*
X29271754Y-23313300D01*
X29246970Y-23303033D01*
X28560033Y-23202507D01*
X28555734Y-23200978D01*
X28554205Y-23200066D01*
X28548856Y-23192889D01*
X28548652Y-23192083D01*
X28549178Y-23184752D01*
X28552901Y-23175722D01*
X28746551Y-22705942D01*
X28749079Y-22702146D01*
X28752101Y-22699114D01*
X28755926Y-22696557D01*
X29233988Y-22499493D01*
X29238457Y-22498611D01*
X29240244Y-22498614D01*
G37*
%TD.AperFunction*%
%TD*%
%TA.AperFunction,Conductor*%
%TO.N,GND*%
G36*
X47775335Y-55989621D02*
G01*
X47781567Y-55995947D01*
X47972531Y-56462213D01*
X47972495Y-56471167D01*
X47969977Y-56474920D01*
X47874920Y-56569977D01*
X47866647Y-56573404D01*
X47862213Y-56572531D01*
X47395947Y-56381567D01*
X47389590Y-56375260D01*
X47389523Y-56366383D01*
X47495616Y-56102114D01*
X47501879Y-56095714D01*
X47502084Y-56095628D01*
X47766383Y-55989523D01*
X47775335Y-55989621D01*
G37*
%TD.AperFunction*%
%TD*%
%TA.AperFunction,Conductor*%
%TO.N,GND*%
G36*
X25425519Y-26307323D02*
G01*
X25890253Y-26501992D01*
X25896560Y-26508349D01*
X25897433Y-26512783D01*
X25897433Y-26647216D01*
X25894006Y-26655489D01*
X25890253Y-26658007D01*
X25425521Y-26852675D01*
X25416567Y-26852711D01*
X25410242Y-26846480D01*
X25298394Y-26584593D01*
X25298297Y-26575641D01*
X25298395Y-26575405D01*
X25325140Y-26512783D01*
X25410242Y-26313518D01*
X25416642Y-26307257D01*
X25425519Y-26307323D01*
G37*
%TD.AperFunction*%
%TD*%
%TA.AperFunction,Conductor*%
%TO.N,GND*%
G36*
X22800109Y-42160889D02*
G01*
X22803095Y-42162126D01*
X22808953Y-42167453D01*
X22993803Y-42515979D01*
X22995114Y-42520351D01*
X22995349Y-42522816D01*
X22993444Y-42530406D01*
X22992991Y-42531087D01*
X22990742Y-42533593D01*
X22739279Y-42743262D01*
X22735271Y-42745444D01*
X22732990Y-42746155D01*
X22725022Y-42745793D01*
X22724145Y-42745429D01*
X22721137Y-42743609D01*
X22469734Y-42533992D01*
X22466869Y-42530445D01*
X22465715Y-42528246D01*
X22464608Y-42520502D01*
X22464769Y-42519699D01*
X22465902Y-42516534D01*
X22650612Y-42168271D01*
X22653496Y-42164735D01*
X22655987Y-42162677D01*
X22663436Y-42160000D01*
X22795635Y-42160000D01*
X22800109Y-42160889D01*
G37*
%TD.AperFunction*%
%TD*%
%TA.AperFunction,Conductor*%
%TO.N,GND*%
G36*
X22736625Y-41629262D02*
G01*
X22994340Y-41739328D01*
X22998105Y-41741903D01*
X22999366Y-41743192D01*
X23002706Y-41751463D01*
X23002693Y-41753215D01*
X23001784Y-41757648D01*
X22808905Y-42218107D01*
X22806356Y-42221891D01*
X22804194Y-42224037D01*
X22795952Y-42227433D01*
X22665110Y-42227433D01*
X22660633Y-42226542D01*
X22657815Y-42225375D01*
X22651503Y-42219086D01*
X22651093Y-42218107D01*
X22458221Y-41757663D01*
X22457313Y-41753196D01*
X22457306Y-41751384D01*
X22460670Y-41743133D01*
X22461900Y-41741884D01*
X22465634Y-41739338D01*
X22723270Y-41629306D01*
X22727731Y-41628368D01*
X22731906Y-41628323D01*
X22736625Y-41629262D01*
G37*
%TD.AperFunction*%
%TD*%
%TA.AperFunction,Conductor*%
%TO.N,GND*%
G36*
X25244713Y-35754907D02*
G01*
X25245995Y-35755438D01*
X25249416Y-35757616D01*
X25491365Y-35979013D01*
X25494067Y-35982692D01*
X25495189Y-35985093D01*
X25496009Y-35992589D01*
X25495889Y-35993128D01*
X25494838Y-35996006D01*
X25319360Y-36331659D01*
X25316498Y-36335212D01*
X25314033Y-36337274D01*
X25306526Y-36340000D01*
X25174413Y-36340000D01*
X25169936Y-36339109D01*
X25166962Y-36337877D01*
X25161073Y-36332490D01*
X24985522Y-35996698D01*
X24984237Y-35992316D01*
X24984002Y-35989680D01*
X24985782Y-35982365D01*
X24986086Y-35981886D01*
X24988051Y-35979545D01*
X25230386Y-35757795D01*
X25234282Y-35755434D01*
X25236246Y-35754721D01*
X25244713Y-35754907D01*
G37*
%TD.AperFunction*%
%TD*%
%TA.AperFunction,Conductor*%
%TO.N,GND*%
G36*
X25315837Y-38411578D02*
G01*
X25318157Y-38414883D01*
X25476582Y-38752712D01*
X25476992Y-38761658D01*
X25474415Y-38765797D01*
X25243636Y-39005376D01*
X25235429Y-39008957D01*
X25234764Y-39008951D01*
X25014802Y-39000564D01*
X25006666Y-38996824D01*
X25003556Y-38988426D01*
X25003978Y-38985730D01*
X25066447Y-38761658D01*
X25162614Y-38416708D01*
X25168136Y-38409660D01*
X25173884Y-38408151D01*
X25307564Y-38408151D01*
X25315837Y-38411578D01*
G37*
%TD.AperFunction*%
%TD*%
%TA.AperFunction,Conductor*%
%TO.N,GND*%
G36*
X47852069Y-56346003D02*
G01*
X48051387Y-56545321D01*
X48053923Y-56549117D01*
X48074996Y-56599992D01*
X48074998Y-56599995D01*
X48075000Y-56600000D01*
X48586960Y-57357101D01*
X48651113Y-57451973D01*
X48652909Y-57460746D01*
X48648885Y-57467537D01*
X48007464Y-57998909D01*
X47998907Y-58001548D01*
X47992536Y-57998909D01*
X47351114Y-57467537D01*
X47346929Y-57459620D01*
X47348885Y-57451975D01*
X47925000Y-56600000D01*
X47924999Y-56599999D01*
X47747564Y-56451998D01*
X47743406Y-56444067D01*
X47746073Y-56435519D01*
X47746774Y-56434751D01*
X47835523Y-56346003D01*
X47843796Y-56342576D01*
X47852069Y-56346003D01*
G37*
%TD.AperFunction*%
%TD*%
%TA.AperFunction,Conductor*%
%TO.N,GND*%
G36*
X25024825Y-24954823D02*
G01*
X25026119Y-24955330D01*
X25029586Y-24957446D01*
X25113807Y-25031656D01*
X25280936Y-25178919D01*
X25283707Y-25182549D01*
X25284813Y-25184807D01*
X25285724Y-25192508D01*
X25285558Y-25193250D01*
X25284387Y-25196343D01*
X25099458Y-25531909D01*
X25096521Y-25535397D01*
X25093974Y-25537435D01*
X25086664Y-25540000D01*
X24954594Y-25540000D01*
X24950117Y-25539109D01*
X24947188Y-25537896D01*
X24941179Y-25532273D01*
X24775125Y-25196468D01*
X24773939Y-25192059D01*
X24773754Y-25189281D01*
X24775547Y-25182238D01*
X24775736Y-25181942D01*
X24777537Y-25179750D01*
X25010556Y-24957985D01*
X25014406Y-24955549D01*
X25016353Y-24954799D01*
X25024825Y-24954823D01*
G37*
%TD.AperFunction*%
%TD*%
%TA.AperFunction,Conductor*%
%TO.N,GND*%
G36*
X28031809Y-24386791D02*
G01*
X28333092Y-24457504D01*
X28337247Y-24459394D01*
X28340367Y-24461637D01*
X28344008Y-24465917D01*
X28465957Y-24710563D01*
X28467158Y-24714969D01*
X28467282Y-24716748D01*
X28464441Y-24725237D01*
X28463419Y-24726413D01*
X28459383Y-24729410D01*
X27955506Y-24955781D01*
X27951060Y-24956804D01*
X27948077Y-24956893D01*
X27941238Y-24954933D01*
X27941220Y-24954921D01*
X27939437Y-24953459D01*
X27846970Y-24860992D01*
X27844435Y-24857199D01*
X27843250Y-24854340D01*
X27843135Y-24845679D01*
X27894100Y-24712648D01*
X27894899Y-24710563D01*
X28015515Y-24395724D01*
X28017947Y-24391867D01*
X28019487Y-24390242D01*
X28026865Y-24386646D01*
X28027205Y-24386613D01*
X28028031Y-24386535D01*
X28031809Y-24386791D01*
G37*
%TD.AperFunction*%
%TD*%
%TA.AperFunction,Conductor*%
%TO.N,GND*%
G36*
X25089714Y-26101974D02*
G01*
X25093141Y-26110247D01*
X25093015Y-26111957D01*
X25073033Y-26246967D01*
X25327692Y-26281033D01*
X25335438Y-26285527D01*
X25337755Y-26294048D01*
X25303631Y-26573435D01*
X25299226Y-26581232D01*
X25293435Y-26583631D01*
X25014048Y-26617755D01*
X25005421Y-26615356D01*
X25001033Y-26607692D01*
X24997666Y-26582522D01*
X24966967Y-26353033D01*
X24966966Y-26353031D01*
X24966966Y-26353029D01*
X24945891Y-26302151D01*
X24945000Y-26297673D01*
X24945000Y-26110247D01*
X24948427Y-26101974D01*
X24956700Y-26098547D01*
X25081441Y-26098547D01*
X25089714Y-26101974D01*
G37*
%TD.AperFunction*%
%TD*%
%TA.AperFunction,Conductor*%
%TO.N,+3.3V*%
G36*
X21777491Y-42755246D02*
G01*
X22027805Y-42963955D01*
X22032051Y-42967496D01*
X22036210Y-42975426D01*
X22034894Y-42981964D01*
X21848298Y-43333782D01*
X21841394Y-43339485D01*
X21837962Y-43340000D01*
X21702038Y-43340000D01*
X21693765Y-43336573D01*
X21691702Y-43333782D01*
X21505104Y-42981962D01*
X21504256Y-42973050D01*
X21507946Y-42967497D01*
X21762508Y-42755246D01*
X21771056Y-42752581D01*
X21777491Y-42755246D01*
G37*
%TD.AperFunction*%
%TD*%
%TA.AperFunction,Conductor*%
%TO.N,+3.3V*%
G36*
X21844756Y-43210809D02*
G01*
X21847617Y-43215487D01*
X21928575Y-43466254D01*
X21928014Y-43474858D01*
X21774066Y-43799798D01*
X21767427Y-43805808D01*
X21760764Y-43806166D01*
X21620444Y-43772505D01*
X21613198Y-43767243D01*
X21611604Y-43759380D01*
X21654590Y-43474858D01*
X21693496Y-43217332D01*
X21698121Y-43209666D01*
X21705065Y-43207382D01*
X21836483Y-43207382D01*
X21844756Y-43210809D01*
G37*
%TD.AperFunction*%
%TD*%
%TA.AperFunction,Conductor*%
%TO.N,+3.3V*%
G36*
X35692279Y-46398867D02*
G01*
X35772926Y-46479514D01*
X35776353Y-46487787D01*
X35772926Y-46496060D01*
X35765981Y-46499411D01*
X35754999Y-46500665D01*
X35942294Y-46713784D01*
X35945182Y-46722261D01*
X35941251Y-46730278D01*
X35687745Y-46954160D01*
X35679275Y-46957068D01*
X35672255Y-46954160D01*
X35418748Y-46730278D01*
X35414815Y-46722233D01*
X35417704Y-46713785D01*
X35605000Y-46500666D01*
X35626077Y-46449781D01*
X35628609Y-46445990D01*
X35675733Y-46398867D01*
X35684006Y-46395440D01*
X35692279Y-46398867D01*
G37*
%TD.AperFunction*%
%TD*%
%TA.AperFunction,Conductor*%
%TO.N,+3.3V*%
G36*
X35889495Y-46288893D02*
G01*
X35894028Y-46296616D01*
X35894028Y-46299836D01*
X35856277Y-46571522D01*
X35851744Y-46579245D01*
X35843078Y-46581501D01*
X35841815Y-46581254D01*
X35733033Y-46553698D01*
X35733032Y-46553699D01*
X35753843Y-46783214D01*
X35751177Y-46791763D01*
X35743248Y-46795923D01*
X35742191Y-46795971D01*
X35616700Y-46795971D01*
X35608427Y-46792544D01*
X35605000Y-46784271D01*
X35605000Y-46502992D01*
X35605891Y-46498514D01*
X35626967Y-46447633D01*
X35599411Y-46338848D01*
X35600702Y-46329989D01*
X35607880Y-46324635D01*
X35609124Y-46324391D01*
X35880829Y-46286637D01*
X35889495Y-46288893D01*
G37*
%TD.AperFunction*%
%TD*%
%TA.AperFunction,Conductor*%
%TO.N,+3.3V*%
G36*
X27554203Y-24081125D02*
G01*
X27561356Y-24084498D01*
X27653686Y-24176828D01*
X27656223Y-24180625D01*
X27657281Y-24183180D01*
X27657825Y-24190479D01*
X27657735Y-24190841D01*
X27656705Y-24193523D01*
X27415957Y-24644971D01*
X27413063Y-24648504D01*
X27411506Y-24649784D01*
X27403338Y-24652423D01*
X27401866Y-24652330D01*
X27397822Y-24651331D01*
X27192791Y-24559512D01*
X27189070Y-24556871D01*
X27186841Y-24554512D01*
X27183677Y-24547336D01*
X27159016Y-24211631D01*
X27159575Y-24207108D01*
X27160372Y-24204698D01*
X27165091Y-24198572D01*
X27165709Y-24198169D01*
X27168668Y-24196786D01*
X27546450Y-24081272D01*
X27550990Y-24080816D01*
X27554203Y-24081125D01*
G37*
%TD.AperFunction*%
%TD*%
%TA.AperFunction,Conductor*%
%TO.N,+3.3V*%
G36*
X25006600Y-33486512D02*
G01*
X25007916Y-33487209D01*
X25011209Y-33489802D01*
X25174125Y-33674276D01*
X25232620Y-33740511D01*
X25234917Y-33744459D01*
X25235631Y-33746540D01*
X25235373Y-33754814D01*
X25234907Y-33755939D01*
X25232868Y-33759207D01*
X25011341Y-34010046D01*
X25007707Y-34012813D01*
X25005906Y-34013693D01*
X24997340Y-34014367D01*
X24995918Y-34013931D01*
X24992198Y-34012006D01*
X24991918Y-34011790D01*
X24749998Y-33824998D01*
X24749995Y-33824997D01*
X24749996Y-33824997D01*
X24749895Y-33824944D01*
X24749602Y-33824834D01*
X24700183Y-33804364D01*
X24698162Y-33803284D01*
X24696280Y-33802027D01*
X24694505Y-33800571D01*
X24671528Y-33777593D01*
X24668993Y-33773800D01*
X24668311Y-33772155D01*
X24668310Y-33763202D01*
X24668994Y-33761550D01*
X24671526Y-33757761D01*
X24679289Y-33750000D01*
X24753032Y-33676256D01*
X24753031Y-33676255D01*
X24755011Y-33674276D01*
X24755011Y-33674275D01*
X24755014Y-33674273D01*
X24755014Y-33674268D01*
X24755832Y-33672742D01*
X24756115Y-33672893D01*
X24759220Y-33667879D01*
X24992046Y-33488110D01*
X24996126Y-33486084D01*
X24998069Y-33485557D01*
X25006600Y-33486512D01*
G37*
%TD.AperFunction*%
%TD*%
%TA.AperFunction,Conductor*%
%TO.N,+3.3V*%
G36*
X29305465Y-24468258D02*
G01*
X29312918Y-24473222D01*
X29313358Y-24473933D01*
X29447260Y-24708289D01*
X29448389Y-24717172D01*
X29442905Y-24724252D01*
X29442029Y-24724705D01*
X28925428Y-24964610D01*
X28916481Y-24964986D01*
X28912227Y-24962271D01*
X28817231Y-24867275D01*
X28813804Y-24859002D01*
X28814520Y-24854971D01*
X28862322Y-24724705D01*
X28976557Y-24413401D01*
X28982623Y-24406817D01*
X28989804Y-24405955D01*
X29305465Y-24468258D01*
G37*
%TD.AperFunction*%
%TD*%
%TA.AperFunction,Conductor*%
%TO.N,+3.3V*%
G36*
X28011167Y-25667504D02*
G01*
X28014920Y-25670022D01*
X28109977Y-25765079D01*
X28113404Y-25773352D01*
X28112531Y-25777786D01*
X27921567Y-26244052D01*
X27915260Y-26250409D01*
X27906381Y-26250476D01*
X27642115Y-26144383D01*
X27635714Y-26138120D01*
X27635616Y-26137884D01*
X27529523Y-25873616D01*
X27529621Y-25864664D01*
X27535946Y-25858432D01*
X28002213Y-25667468D01*
X28011167Y-25667504D01*
G37*
%TD.AperFunction*%
%TD*%
%TA.AperFunction,Conductor*%
%TO.N,+3.3V*%
G36*
X29153903Y-24033466D02*
G01*
X29334095Y-24105264D01*
X29337925Y-24107750D01*
X29339472Y-24109256D01*
X29342983Y-24116824D01*
X29343072Y-24118099D01*
X29342683Y-24122011D01*
X29262843Y-24412921D01*
X29260800Y-24417002D01*
X29258530Y-24419924D01*
X29253734Y-24423569D01*
X28992764Y-24530736D01*
X28988288Y-24531613D01*
X28986440Y-24531608D01*
X28978255Y-24528236D01*
X28977046Y-24527044D01*
X28974532Y-24523373D01*
X28930952Y-24422890D01*
X28926628Y-24412921D01*
X28762056Y-24033463D01*
X28761093Y-24029005D01*
X28761044Y-24025992D01*
X28764335Y-24017665D01*
X28764402Y-24017597D01*
X28856942Y-23925056D01*
X28860735Y-23922523D01*
X28863567Y-23921350D01*
X28872374Y-23921290D01*
X29153903Y-24033466D01*
G37*
%TD.AperFunction*%
%TD*%
%TA.AperFunction,Conductor*%
%TO.N,+3.3V*%
G36*
X24005896Y-45551452D02*
G01*
X24012829Y-45554319D01*
X24129112Y-45656038D01*
X24189904Y-45709217D01*
X24192687Y-45712833D01*
X24194420Y-45716334D01*
X24195633Y-45721641D01*
X24191957Y-46088067D01*
X24191022Y-46092536D01*
X24190065Y-46094782D01*
X24184710Y-46100570D01*
X24183939Y-46100972D01*
X24180694Y-46102096D01*
X23860470Y-46162377D01*
X23855907Y-46162330D01*
X23852470Y-46161610D01*
X23846596Y-46158432D01*
X23753627Y-46065463D01*
X23751091Y-46061668D01*
X23749994Y-46059020D01*
X23749405Y-46051903D01*
X23749452Y-46051700D01*
X23750356Y-46049165D01*
X23992508Y-45559058D01*
X23995291Y-45555441D01*
X23996629Y-45554270D01*
X24005097Y-45551399D01*
X24005896Y-45551452D01*
G37*
%TD.AperFunction*%
%TD*%
%TA.AperFunction,Conductor*%
%TO.N,+3.3V*%
G36*
X24037588Y-45767489D02*
G01*
X24045814Y-45770916D01*
X24138331Y-45863433D01*
X24140868Y-45867230D01*
X24142034Y-45870046D01*
X24142051Y-45878956D01*
X23952449Y-46341897D01*
X23949927Y-46345704D01*
X23948655Y-46346986D01*
X23940437Y-46350445D01*
X23938686Y-46350458D01*
X23934240Y-46349616D01*
X23674275Y-46245250D01*
X23670452Y-46242756D01*
X23667465Y-46239833D01*
X23664793Y-46235834D01*
X23560388Y-45975772D01*
X23559548Y-45971287D01*
X23559568Y-45969483D01*
X23563054Y-45961281D01*
X23564304Y-45960049D01*
X23568078Y-45957558D01*
X24030060Y-45768349D01*
X24034536Y-45767477D01*
X24037588Y-45767489D01*
G37*
%TD.AperFunction*%
%TD*%
%TA.AperFunction,Conductor*%
%TO.N,+3.3V*%
G36*
X24786864Y-33463029D02*
G01*
X24787628Y-33463241D01*
X24788578Y-33463505D01*
X24795632Y-33469020D01*
X24795635Y-33469026D01*
X24796273Y-33470156D01*
X24797782Y-33475630D01*
X24803033Y-33696966D01*
X24803033Y-33696967D01*
X24978530Y-33676766D01*
X24983077Y-33677137D01*
X24984792Y-33677627D01*
X24991805Y-33683192D01*
X24992405Y-33684271D01*
X24993880Y-33689957D01*
X24993880Y-33810972D01*
X24992989Y-33815451D01*
X24992307Y-33817097D01*
X24985979Y-33823426D01*
X24985398Y-33823667D01*
X24984332Y-33824108D01*
X24979853Y-33825000D01*
X24753479Y-33825000D01*
X24751196Y-33824775D01*
X24748972Y-33824332D01*
X24746782Y-33823667D01*
X24721754Y-33813300D01*
X24696970Y-33803033D01*
X24476068Y-33797793D01*
X24471615Y-33796797D01*
X24469985Y-33796076D01*
X24463806Y-33789601D01*
X24463333Y-33788377D01*
X24462635Y-33782748D01*
X24473112Y-33696967D01*
X24496086Y-33508868D01*
X24497511Y-33504538D01*
X24498790Y-33502275D01*
X24504493Y-33497225D01*
X24505087Y-33496979D01*
X24508145Y-33496174D01*
X24782315Y-33462688D01*
X24786864Y-33463029D01*
G37*
%TD.AperFunction*%
%TD*%
%TA.AperFunction,Conductor*%
%TO.N,/SDA*%
G36*
X22680262Y-34224836D02*
G01*
X23959156Y-34821848D01*
X23965203Y-34828453D01*
X23965907Y-34832450D01*
X23965907Y-34968231D01*
X23962480Y-34976504D01*
X23960038Y-34978374D01*
X22681479Y-35713428D01*
X22672599Y-35714581D01*
X22665505Y-35709116D01*
X22665163Y-35708476D01*
X22267736Y-34905714D01*
X22267136Y-34896779D01*
X22268171Y-34894531D01*
X22665270Y-34229439D01*
X22672452Y-34224095D01*
X22680262Y-34224836D01*
G37*
%TD.AperFunction*%
%TD*%
%TA.AperFunction,Conductor*%
%TO.N,/SDA*%
G36*
X24888694Y-28831064D02*
G01*
X25002619Y-28882010D01*
X25008773Y-28888516D01*
X25008551Y-28897406D01*
X24864005Y-29225643D01*
X24857534Y-29231834D01*
X24855605Y-29232398D01*
X24753033Y-29253032D01*
X24753033Y-29253033D01*
X24772050Y-29343916D01*
X24770390Y-29352715D01*
X24762994Y-29357764D01*
X24760598Y-29358012D01*
X24636700Y-29358012D01*
X24628427Y-29354585D01*
X24625000Y-29346312D01*
X24625000Y-29202325D01*
X24625891Y-29197848D01*
X24646432Y-29148258D01*
X24647786Y-29145843D01*
X24874464Y-28834852D01*
X24882105Y-28830186D01*
X24888694Y-28831064D01*
G37*
%TD.AperFunction*%
%TD*%
%TA.AperFunction,Conductor*%
%TO.N,/SDA*%
G36*
X26872121Y-44782793D02*
G01*
X26875535Y-44790505D01*
X26899714Y-45294050D01*
X26896687Y-45302478D01*
X26895356Y-45303731D01*
X26813881Y-45369209D01*
X26805286Y-45371720D01*
X26797432Y-45367418D01*
X26795272Y-45363195D01*
X26700585Y-45019284D01*
X26700230Y-45014964D01*
X26723899Y-44789843D01*
X26728172Y-44781973D01*
X26735535Y-44779366D01*
X26863848Y-44779366D01*
X26872121Y-44782793D01*
G37*
%TD.AperFunction*%
%TD*%
%TA.AperFunction,Conductor*%
%TO.N,/SDA*%
G36*
X35992699Y-47920459D02*
G01*
X35995041Y-47920944D01*
X36001824Y-47925118D01*
X36002413Y-47925858D01*
X36004164Y-47928911D01*
X36170842Y-48359092D01*
X36171629Y-48363592D01*
X36171557Y-48366675D01*
X36168133Y-48374675D01*
X36075720Y-48467088D01*
X36071923Y-48469625D01*
X36069165Y-48470767D01*
X36062533Y-48471457D01*
X36062517Y-48471454D01*
X36059883Y-48470629D01*
X35580620Y-48255589D01*
X35576899Y-48252942D01*
X35575601Y-48251566D01*
X35572413Y-48243388D01*
X35572434Y-48241749D01*
X35573310Y-48237456D01*
X35676004Y-47987302D01*
X35678519Y-47983509D01*
X35680961Y-47981052D01*
X35687062Y-47977811D01*
X35988135Y-47920423D01*
X35992699Y-47920459D01*
G37*
%TD.AperFunction*%
%TD*%
%TA.AperFunction,Conductor*%
%TO.N,/SDA*%
G36*
X36013888Y-48205723D02*
G01*
X36453582Y-48531532D01*
X36458189Y-48539210D01*
X36456633Y-48546978D01*
X36382687Y-48669492D01*
X36375478Y-48674804D01*
X36368685Y-48674447D01*
X36030388Y-48551906D01*
X36023979Y-48546276D01*
X35903641Y-48313379D01*
X35902888Y-48304457D01*
X35905761Y-48299738D01*
X35998650Y-48206849D01*
X36006922Y-48203423D01*
X36013888Y-48205723D01*
G37*
%TD.AperFunction*%
%TD*%
%TA.AperFunction,Conductor*%
%TO.N,/SDA*%
G36*
X25900073Y-40932149D02*
G01*
X25902798Y-40936430D01*
X25998213Y-41199275D01*
X25997815Y-41208221D01*
X25997520Y-41208807D01*
X25828979Y-41522319D01*
X25822044Y-41527983D01*
X25816715Y-41528314D01*
X25661593Y-41501969D01*
X25654010Y-41497205D01*
X25652017Y-41488475D01*
X25748305Y-40938404D01*
X25753107Y-40930846D01*
X25759830Y-40928722D01*
X25891800Y-40928722D01*
X25900073Y-40932149D01*
G37*
%TD.AperFunction*%
%TD*%
%TA.AperFunction,Conductor*%
%TO.N,/SDA*%
G36*
X25957207Y-41502071D02*
G01*
X26179805Y-41676212D01*
X26184210Y-41684009D01*
X26182586Y-41691517D01*
X26025000Y-41949999D01*
X26025000Y-41950000D01*
X26094773Y-41993430D01*
X26099986Y-42000711D01*
X26098523Y-42009546D01*
X26096863Y-42011636D01*
X26009490Y-42099010D01*
X26001217Y-42102437D01*
X25992944Y-42099010D01*
X25898612Y-42004678D01*
X25896076Y-42000882D01*
X25875002Y-41950005D01*
X25874996Y-41949993D01*
X25717413Y-41691517D01*
X25716033Y-41682670D01*
X25720192Y-41676214D01*
X25942792Y-41502071D01*
X25951418Y-41499673D01*
X25957207Y-41502071D01*
G37*
%TD.AperFunction*%
%TD*%
%TA.AperFunction,Conductor*%
%TO.N,/SDA*%
G36*
X21386279Y-34065076D02*
G01*
X21895338Y-34200076D01*
X21899438Y-34202086D01*
X21901954Y-34204007D01*
X21906323Y-34210994D01*
X22105321Y-35198030D01*
X22105333Y-35202597D01*
X22104708Y-35205779D01*
X22100701Y-35212525D01*
X21684077Y-35558486D01*
X21681732Y-35560433D01*
X21677719Y-35562608D01*
X21676018Y-35563135D01*
X21667102Y-35562310D01*
X21667096Y-35562307D01*
X21666247Y-35561859D01*
X21661413Y-35557072D01*
X21474813Y-35211625D01*
X20931664Y-34206106D01*
X20856588Y-34067121D01*
X20855246Y-34062764D01*
X20854963Y-34060021D01*
X20856553Y-34052836D01*
X20856761Y-34052487D01*
X20858529Y-34050217D01*
X20951001Y-33957745D01*
X20954794Y-33955211D01*
X20957863Y-33953941D01*
X20965336Y-33953443D01*
X21386279Y-34065076D01*
G37*
%TD.AperFunction*%
%TD*%
%TA.AperFunction,Conductor*%
%TO.N,/SCL*%
G36*
X25206625Y-42799262D02*
G01*
X25464340Y-42909328D01*
X25468105Y-42911903D01*
X25469366Y-42913192D01*
X25472706Y-42921463D01*
X25472693Y-42923215D01*
X25471784Y-42927648D01*
X25278905Y-43388107D01*
X25276356Y-43391891D01*
X25274194Y-43394037D01*
X25265952Y-43397433D01*
X25135110Y-43397433D01*
X25130633Y-43396542D01*
X25127815Y-43395375D01*
X25121503Y-43389086D01*
X25121093Y-43388107D01*
X24928221Y-42927663D01*
X24927313Y-42923196D01*
X24927306Y-42921384D01*
X24930670Y-42913133D01*
X24931900Y-42911884D01*
X24935634Y-42909338D01*
X25193270Y-42799306D01*
X25197731Y-42798368D01*
X25201906Y-42798323D01*
X25206625Y-42799262D01*
G37*
%TD.AperFunction*%
%TD*%
%TA.AperFunction,Conductor*%
%TO.N,/SCL*%
G36*
X20804557Y-35498379D02*
G01*
X21066480Y-35610242D01*
X21072742Y-35616642D01*
X21072676Y-35625519D01*
X20878006Y-36090255D01*
X20871651Y-36096560D01*
X20867217Y-36097433D01*
X20732783Y-36097433D01*
X20724510Y-36094006D01*
X20721992Y-36090253D01*
X20527323Y-35625519D01*
X20527288Y-35616567D01*
X20533518Y-35610242D01*
X20795406Y-35498394D01*
X20804359Y-35498297D01*
X20804557Y-35498379D01*
G37*
%TD.AperFunction*%
%TD*%
%TA.AperFunction,Conductor*%
%TO.N,/SCL*%
G36*
X25539123Y-45966246D02*
G01*
X25546864Y-45970743D01*
X25549261Y-45978080D01*
X25544047Y-46233179D01*
X25540622Y-46241213D01*
X25444966Y-46336869D01*
X25436693Y-46340296D01*
X25429796Y-46338046D01*
X25197767Y-46168664D01*
X25056795Y-46065754D01*
X25052133Y-46058108D01*
X25052781Y-46052083D01*
X25105046Y-45916975D01*
X25111226Y-45910497D01*
X25117514Y-45909602D01*
X25539123Y-45966246D01*
G37*
%TD.AperFunction*%
%TD*%
%TA.AperFunction,Conductor*%
%TO.N,/SCL*%
G36*
X25337786Y-46027468D02*
G01*
X25804052Y-46218432D01*
X25810409Y-46224739D01*
X25810476Y-46233618D01*
X25704383Y-46497884D01*
X25698120Y-46504285D01*
X25697884Y-46504383D01*
X25433618Y-46610476D01*
X25424664Y-46610378D01*
X25418432Y-46604052D01*
X25227468Y-46137786D01*
X25227504Y-46128832D01*
X25230019Y-46125082D01*
X25325080Y-46030021D01*
X25333352Y-46026595D01*
X25337786Y-46027468D01*
G37*
%TD.AperFunction*%
%TD*%
%TA.AperFunction,Conductor*%
%TO.N,/SCL*%
G36*
X25277133Y-45193427D02*
G01*
X25278489Y-45195054D01*
X25464825Y-45465009D01*
X25466704Y-45473764D01*
X25464000Y-45479361D01*
X25209466Y-45770184D01*
X25201439Y-45774152D01*
X25192956Y-45771282D01*
X25191330Y-45769535D01*
X25183995Y-45759835D01*
X25023840Y-45548051D01*
X25021584Y-45539387D01*
X25021953Y-45537678D01*
X25122518Y-45198375D01*
X25128155Y-45191417D01*
X25133736Y-45190000D01*
X25268860Y-45190000D01*
X25277133Y-45193427D01*
G37*
%TD.AperFunction*%
%TD*%
%TA.AperFunction,Conductor*%
%TO.N,/SCL*%
G36*
X26607207Y-29002071D02*
G01*
X26736027Y-29102849D01*
X26828977Y-29175565D01*
X26833382Y-29183362D01*
X26831128Y-29191799D01*
X26675004Y-29399993D01*
X26674999Y-29400001D01*
X26653923Y-29450883D01*
X26651387Y-29454678D01*
X26521700Y-29584366D01*
X26513427Y-29587793D01*
X26505154Y-29584366D01*
X26416987Y-29496199D01*
X26413560Y-29487926D01*
X26416987Y-29479653D01*
X26418313Y-29478512D01*
X26525000Y-29400000D01*
X26524999Y-29399999D01*
X26525000Y-29399999D01*
X26368871Y-29191799D01*
X26366649Y-29183125D01*
X26371022Y-29175565D01*
X26592792Y-29002071D01*
X26601418Y-28999673D01*
X26607207Y-29002071D01*
G37*
%TD.AperFunction*%
%TD*%
%TA.AperFunction,Conductor*%
%TO.N,/SCL*%
G36*
X22818172Y-31779780D02*
G01*
X23569999Y-32355000D01*
X23569999Y-32354999D01*
X23570000Y-32355000D01*
X23788679Y-32106382D01*
X23796713Y-32102435D01*
X23805188Y-32105326D01*
X23805734Y-32105838D01*
X23894708Y-32194812D01*
X23898135Y-32203085D01*
X23894708Y-32211358D01*
X23624678Y-32481387D01*
X23620882Y-32483923D01*
X23570006Y-32504996D01*
X23569994Y-32505003D01*
X22818172Y-33080219D01*
X22809520Y-33082525D01*
X22802053Y-33078391D01*
X22271089Y-32437463D01*
X22268451Y-32428907D01*
X22271090Y-32422536D01*
X22446036Y-32211358D01*
X22802054Y-31781607D01*
X22809970Y-31777423D01*
X22818172Y-31779780D01*
G37*
%TD.AperFunction*%
%TD*%
%TA.AperFunction,Conductor*%
%TO.N,Net-(U1-A2)*%
G36*
X26792413Y-23298203D02*
G01*
X26796685Y-23299061D01*
X26809517Y-23304275D01*
X27047782Y-23401073D01*
X27051594Y-23403583D01*
X27054079Y-23406034D01*
X27057314Y-23411965D01*
X27119337Y-23708068D01*
X27119384Y-23712632D01*
X27118948Y-23714947D01*
X27114847Y-23721847D01*
X27114075Y-23722477D01*
X27110981Y-23724292D01*
X26674939Y-23896750D01*
X26670451Y-23897568D01*
X26667380Y-23897519D01*
X26659296Y-23894094D01*
X26566917Y-23801715D01*
X26564381Y-23797920D01*
X26563237Y-23795159D01*
X26562548Y-23788528D01*
X26562551Y-23788512D01*
X26563374Y-23785885D01*
X26778607Y-23306394D01*
X26781247Y-23302682D01*
X26782639Y-23301369D01*
X26790792Y-23298185D01*
X26792413Y-23298203D01*
G37*
%TD.AperFunction*%
%TD*%
%TA.AperFunction,Conductor*%
%TO.N,Net-(U1-A2)*%
G36*
X26040595Y-24329884D02*
G01*
X26126350Y-24415639D01*
X26127269Y-24415822D01*
X26130761Y-24419463D01*
X26131673Y-24420961D01*
X26131680Y-24420969D01*
X26133085Y-24422374D01*
X26134549Y-24425910D01*
X26134651Y-24425849D01*
X26304718Y-24705118D01*
X26306094Y-24713966D01*
X26302623Y-24719835D01*
X26057898Y-24943772D01*
X26049482Y-24946829D01*
X26042102Y-24943772D01*
X25797376Y-24719835D01*
X25793585Y-24711721D01*
X25795280Y-24705120D01*
X25975000Y-24410000D01*
X25996078Y-24359111D01*
X25998609Y-24355324D01*
X26024052Y-24329882D01*
X26032322Y-24326457D01*
X26040595Y-24329884D01*
G37*
%TD.AperFunction*%
%TD*%
%TA.AperFunction,Conductor*%
%TO.N,Net-(U1-A2)*%
G36*
X26875335Y-22089621D02*
G01*
X26881567Y-22095947D01*
X27072531Y-22562213D01*
X27072495Y-22571167D01*
X27069977Y-22574920D01*
X26974920Y-22669977D01*
X26966647Y-22673404D01*
X26962213Y-22672531D01*
X26495947Y-22481567D01*
X26489590Y-22475260D01*
X26489523Y-22466383D01*
X26595616Y-22202114D01*
X26601879Y-22195714D01*
X26602084Y-22195628D01*
X26866383Y-22089523D01*
X26875335Y-22089621D01*
G37*
%TD.AperFunction*%
%TD*%
%TA.AperFunction,Conductor*%
%TO.N,Net-(U1-A2)*%
G36*
X27176895Y-22913427D02*
G01*
X27178456Y-22915362D01*
X27364552Y-23204099D01*
X27366154Y-23212909D01*
X27362463Y-23219207D01*
X27107745Y-23444160D01*
X27099275Y-23447068D01*
X27092255Y-23444160D01*
X26837536Y-23219207D01*
X26833603Y-23211162D01*
X26835446Y-23204101D01*
X27021544Y-22915361D01*
X27028906Y-22910264D01*
X27031378Y-22910000D01*
X27168622Y-22910000D01*
X27176895Y-22913427D01*
G37*
%TD.AperFunction*%
%TD*%
%TA.AperFunction,Conductor*%
%TO.N,Net-(U2-LFLAG{slash})*%
G36*
X25756101Y-32168391D02*
G01*
X25759916Y-32170940D01*
X26101799Y-32513507D01*
X26240739Y-32652726D01*
X26243272Y-32656524D01*
X26244059Y-32658429D01*
X26244224Y-32666939D01*
X26243735Y-32668267D01*
X26241671Y-32671801D01*
X25830012Y-33156108D01*
X25826435Y-33158942D01*
X25822975Y-33160716D01*
X25817637Y-33162005D01*
X25682737Y-33162005D01*
X25678259Y-33161114D01*
X25674667Y-33159626D01*
X25670230Y-33156394D01*
X25258487Y-32671990D01*
X25256267Y-32668004D01*
X25255635Y-32666044D01*
X25256147Y-32657551D01*
X25256740Y-32656266D01*
X25259079Y-32652906D01*
X25740075Y-32170947D01*
X25743861Y-32168411D01*
X25745511Y-32167725D01*
X25754460Y-32167714D01*
X25756101Y-32168391D01*
G37*
%TD.AperFunction*%
%TD*%
%TA.AperFunction,Conductor*%
%TO.N,Net-(U2-LFLAG{slash})*%
G36*
X25819365Y-33789952D02*
G01*
X25822180Y-33791118D01*
X25828495Y-33797408D01*
X25902515Y-33974168D01*
X25902914Y-33975273D01*
X25903256Y-33976394D01*
X25903540Y-33977526D01*
X25912580Y-34022983D01*
X25912854Y-34023495D01*
X25913223Y-34023944D01*
X25939438Y-34063180D01*
X25940012Y-34064134D01*
X25940551Y-34065138D01*
X25941031Y-34066146D01*
X26021721Y-34258827D01*
X26022629Y-34263301D01*
X26022636Y-34265106D01*
X26019269Y-34273364D01*
X26018039Y-34274612D01*
X26014302Y-34277158D01*
X25756735Y-34387182D01*
X25752268Y-34388122D01*
X25748094Y-34388168D01*
X25743371Y-34387229D01*
X25568567Y-34312589D01*
X25485605Y-34277165D01*
X25481838Y-34274589D01*
X25480574Y-34273297D01*
X25477238Y-34265029D01*
X25477251Y-34263277D01*
X25478160Y-34258843D01*
X25478167Y-34258827D01*
X25558806Y-34066370D01*
X25559274Y-34065388D01*
X25559797Y-34064414D01*
X25560351Y-34063490D01*
X25587417Y-34022986D01*
X25596502Y-33977308D01*
X25596786Y-33976178D01*
X25597126Y-33975066D01*
X25597524Y-33973966D01*
X25671092Y-33798386D01*
X25673640Y-33794603D01*
X25675810Y-33792452D01*
X25684047Y-33789061D01*
X25814888Y-33789061D01*
X25819365Y-33789952D01*
G37*
%TD.AperFunction*%
%TD*%
%TA.AperFunction,Conductor*%
%TO.N,Net-(U2-LFLAG{slash})*%
G36*
X25811301Y-34027860D02*
G01*
X25811424Y-34027979D01*
X25959164Y-34171534D01*
X25962609Y-34178382D01*
X25975694Y-34276739D01*
X25973388Y-34285392D01*
X25965639Y-34289880D01*
X25957736Y-34288102D01*
X25713154Y-34129707D01*
X25708073Y-34122334D01*
X25709694Y-34113527D01*
X25711236Y-34111619D01*
X25794878Y-34027978D01*
X25803150Y-34024552D01*
X25811301Y-34027860D01*
G37*
%TD.AperFunction*%
%TD*%
%TA.AperFunction,Conductor*%
%TO.N,Net-(U2-A2)*%
G36*
X26462375Y-35191586D02*
G01*
X26463123Y-35191988D01*
X26465857Y-35194021D01*
X26558336Y-35286500D01*
X26560872Y-35290295D01*
X26562316Y-35293781D01*
X26563137Y-35299534D01*
X26531340Y-35589603D01*
X26529966Y-35593958D01*
X26528851Y-35595989D01*
X26522748Y-35601297D01*
X26521763Y-35601671D01*
X26518186Y-35602419D01*
X26139816Y-35621061D01*
X26135300Y-35620391D01*
X26132849Y-35619514D01*
X26126916Y-35614772D01*
X26126580Y-35614243D01*
X26125260Y-35611367D01*
X26121740Y-35599768D01*
X26118655Y-35589603D01*
X26076545Y-35450844D01*
X26076098Y-35446310D01*
X26076368Y-35443569D01*
X26079366Y-35436836D01*
X26079651Y-35436523D01*
X26081825Y-35434664D01*
X26447978Y-35192597D01*
X26452197Y-35190874D01*
X26454611Y-35190406D01*
X26462375Y-35191586D01*
G37*
%TD.AperFunction*%
%TD*%
%TA.AperFunction,Conductor*%
%TO.N,Net-(U2-A2)*%
G36*
X26895508Y-33255515D02*
G01*
X27092786Y-33342139D01*
X27145970Y-33365492D01*
X27149711Y-33368107D01*
X27151016Y-33369468D01*
X27154271Y-33377637D01*
X27154261Y-33379285D01*
X27153412Y-33383589D01*
X26967732Y-33844136D01*
X26965235Y-33847952D01*
X26963119Y-33850110D01*
X26954880Y-33853618D01*
X26954765Y-33853619D01*
X26823909Y-33853619D01*
X26819432Y-33852728D01*
X26816591Y-33851551D01*
X26810341Y-33845406D01*
X26609830Y-33384028D01*
X26608862Y-33379572D01*
X26608831Y-33377786D01*
X26612112Y-33369458D01*
X26613292Y-33368237D01*
X26617209Y-33365567D01*
X26882146Y-33255429D01*
X26886617Y-33254534D01*
X26890796Y-33254529D01*
X26895508Y-33255515D01*
G37*
%TD.AperFunction*%
%TD*%
%TA.AperFunction,Conductor*%
%TO.N,Net-(U2-A2)*%
G36*
X26664057Y-33365212D02*
G01*
X26667487Y-33365912D01*
X26673423Y-33369102D01*
X26766383Y-33462062D01*
X26768918Y-33465855D01*
X26770018Y-33468509D01*
X26770599Y-33475664D01*
X26770552Y-33475864D01*
X26769661Y-33478350D01*
X26527480Y-33970886D01*
X26524705Y-33974511D01*
X26523368Y-33975686D01*
X26514891Y-33978574D01*
X26514890Y-33978574D01*
X26514100Y-33978523D01*
X26507147Y-33975650D01*
X26328829Y-33819525D01*
X26326047Y-33815905D01*
X26324310Y-33812390D01*
X26323099Y-33807129D01*
X26325595Y-33441905D01*
X26326516Y-33437435D01*
X26327469Y-33435178D01*
X26332792Y-33429380D01*
X26333554Y-33428979D01*
X26336775Y-33427844D01*
X26659498Y-33365192D01*
X26664057Y-33365212D01*
G37*
%TD.AperFunction*%
%TD*%
%TA.AperFunction,Conductor*%
%TO.N,Net-(U2-A2)*%
G36*
X26617084Y-33146567D02*
G01*
X26877053Y-33250935D01*
X26880874Y-33253427D01*
X26883861Y-33256350D01*
X26886536Y-33260353D01*
X26990938Y-33520408D01*
X26991779Y-33524897D01*
X26991759Y-33526700D01*
X26988269Y-33534906D01*
X26987020Y-33536136D01*
X26983245Y-33538627D01*
X26521269Y-33727834D01*
X26516789Y-33728707D01*
X26513740Y-33728695D01*
X26505513Y-33725268D01*
X26412996Y-33632751D01*
X26410460Y-33628956D01*
X26409292Y-33626137D01*
X26409276Y-33617229D01*
X26598880Y-33154282D01*
X26601394Y-33150485D01*
X26602674Y-33149196D01*
X26610887Y-33145739D01*
X26612641Y-33145726D01*
X26617084Y-33146567D01*
G37*
%TD.AperFunction*%
%TD*%
M02*
