%TF.GenerationSoftware,KiCad,Pcbnew,10.0.6*%
%TF.CreationDate,2026-10-06T17:14:13-04:00*%
%TF.ProjectId,motor_controller_encoder_counter,6d6f746f-725f-4636-9f6e-74726f6c6c65,rev?*%
%TF.SameCoordinates,Original*%
%TF.FileFunction,Soldermask,Top*%
%TF.FilePolarity,Negative*%
%FSLAX46Y46*%
G04 Gerber Fmt 4.6, Leading zero omitted, Abs format (unit mm)*
G04 Created by KiCad (PCBNEW 10.0.6) date 2026-10-06 17:14:13*
%MOMM*%
%LPD*%
G01*
G04 APERTURE LIST*
G04 Aperture macros list*
%AMRoundRect*
0 Rectangle with rounded corners*
0 $1 Rounding radius*
0 $2 $3 $4 $5 $6 $7 $8 $9 X,Y pos of 4 corners*
0 Add a 4 corners polygon primitive as box body*
4,1,4,$2,$3,$4,$5,$6,$7,$8,$9,$2,$3,0*
0 Add four circle primitives for the rounded corners*
1,1,$1+$1,$2,$3*
1,1,$1+$1,$4,$5*
1,1,$1+$1,$6,$7*
1,1,$1+$1,$8,$9*
0 Add four rect primitives between the rounded corners*
20,1,$1+$1,$2,$3,$4,$5,0*
20,1,$1+$1,$4,$5,$6,$7,0*
20,1,$1+$1,$6,$7,$8,$9,0*
20,1,$1+$1,$8,$9,$2,$3,0*%
G04 Aperture macros list end*
%ADD10R,1.000000X1.000000*%
%ADD11R,1.700000X1.700000*%
%ADD12C,1.700000*%
%ADD13C,1.900000*%
%ADD14RoundRect,0.135000X-0.185000X0.135000X-0.185000X-0.135000X0.185000X-0.135000X0.185000X0.135000X0*%
%ADD15RoundRect,0.135000X0.135000X0.185000X-0.135000X0.185000X-0.135000X-0.185000X0.135000X-0.185000X0*%
%ADD16RoundRect,0.250000X0.625000X-0.350000X0.625000X0.350000X-0.625000X0.350000X-0.625000X-0.350000X0*%
%ADD17O,1.750000X1.200000*%
%ADD18C,2.200000*%
%ADD19RoundRect,0.135000X-0.135000X-0.185000X0.135000X-0.185000X0.135000X0.185000X-0.135000X0.185000X0*%
%ADD20RoundRect,0.140000X-0.140000X-0.170000X0.140000X-0.170000X0.140000X0.170000X-0.140000X0.170000X0*%
%ADD21RoundRect,0.250000X-1.250000X-0.550000X1.250000X-0.550000X1.250000X0.550000X-1.250000X0.550000X0*%
G04 APERTURE END LIST*
D10*
%TO.C,TP1*%
X28750000Y-22700000D03*
%TD*%
D11*
%TO.C,J6*%
X22270000Y-40050000D03*
D12*
X22270000Y-37510000D03*
X22270000Y-34970000D03*
X22270000Y-32430000D03*
X22270000Y-29890000D03*
X22270000Y-27350000D03*
X22270000Y-24810000D03*
X22270000Y-22270000D03*
%TD*%
D13*
%TO.C,J3*%
X33000000Y-53500000D03*
X28000000Y-53500000D03*
X33000000Y-57000000D03*
X28000000Y-57000000D03*
%TD*%
D10*
%TO.C,TP3*%
X31750000Y-32500000D03*
%TD*%
D14*
%TO.C,R2*%
X27100000Y-23450000D03*
X27100000Y-24470000D03*
%TD*%
D10*
%TO.C,TP4*%
X25750000Y-32162005D03*
%TD*%
D15*
%TO.C,R4*%
X26260000Y-35750000D03*
X25240000Y-35750000D03*
%TD*%
%TO.C,R1*%
X26050000Y-24950000D03*
X25030000Y-24950000D03*
%TD*%
D16*
%TO.C,J2*%
X42500000Y-33000000D03*
D17*
X42500000Y-31000000D03*
X42500000Y-29000000D03*
X42500000Y-27000000D03*
X42500000Y-25000000D03*
X42500000Y-23000000D03*
%TD*%
D18*
%TO.C,H2*%
X47500000Y-18000000D03*
%TD*%
D11*
%TO.C,J1*%
X40380000Y-58000000D03*
D12*
X42920000Y-58000000D03*
X45460000Y-58000000D03*
X48000000Y-58000000D03*
%TD*%
D10*
%TO.C,TP2*%
X25500000Y-23250000D03*
%TD*%
D14*
%TO.C,R5*%
X35680000Y-46960000D03*
X35680000Y-47980000D03*
%TD*%
D18*
%TO.C,H1*%
X22500000Y-18000000D03*
%TD*%
D16*
%TO.C,J8*%
X42550000Y-48500000D03*
D17*
X42550000Y-46500000D03*
X42550000Y-44500000D03*
X42550000Y-42500000D03*
X42550000Y-40500000D03*
X42550000Y-38500000D03*
%TD*%
D15*
%TO.C,R3*%
X26260000Y-33750000D03*
X25240000Y-33750000D03*
%TD*%
D18*
%TO.C,H3*%
X47500000Y-62500000D03*
%TD*%
D19*
%TO.C,R6*%
X24260000Y-45780000D03*
X25280000Y-45780000D03*
%TD*%
D20*
%TO.C,C7*%
X21770000Y-42750000D03*
X22730000Y-42750000D03*
%TD*%
D11*
%TO.C,J4*%
X34970000Y-24810000D03*
D12*
X34970000Y-27350000D03*
X34970000Y-29890000D03*
X34970000Y-32430000D03*
X34970000Y-34970000D03*
X34970000Y-37510000D03*
%TD*%
D21*
%TO.C,C4*%
X29550000Y-45000000D03*
X33950000Y-45000000D03*
%TD*%
D18*
%TO.C,H4*%
X22500000Y-62500000D03*
%TD*%
D20*
%TO.C,C1*%
X28300000Y-24420000D03*
X29260000Y-24420000D03*
%TD*%
M02*
