%TF.GenerationSoftware,KiCad,Pcbnew,10.0.6*%
%TF.CreationDate,2026-10-06T17:14:13-04:00*%
%TF.ProjectId,motor_controller_encoder_counter,6d6f746f-725f-4636-9f6e-74726f6c6c65,rev?*%
%TF.SameCoordinates,Original*%
%TF.FileFunction,Copper,L3,Inr*%
%TF.FilePolarity,Positive*%
%FSLAX46Y46*%
G04 Gerber Fmt 4.6, Leading zero omitted, Abs format (unit mm)*
G04 Created by KiCad (PCBNEW 10.0.6) date 2026-10-06 17:14:13*
%MOMM*%
%LPD*%
G01*
G04 APERTURE LIST*
G04 Aperture macros list*
%AMRoundRect*
0 Rectangle with rounded corners*
0 $1 Rounding radius*
0 $2 $3 $4 $5 $6 $7 $8 $9 X,Y pos of 4 corners*
0 Add a 4 corners polygon primitive as box body*
4,1,4,$2,$3,$4,$5,$6,$7,$8,$9,$2,$3,0*
0 Add four circle primitives for the rounded corners*
1,1,$1+$1,$2,$3*
1,1,$1+$1,$4,$5*
1,1,$1+$1,$6,$7*
1,1,$1+$1,$8,$9*
0 Add four rect primitives between the rounded corners*
20,1,$1+$1,$2,$3,$4,$5,0*
20,1,$1+$1,$4,$5,$6,$7,0*
20,1,$1+$1,$6,$7,$8,$9,0*
20,1,$1+$1,$8,$9,$2,$3,0*%
G04 Aperture macros list end*
%TA.AperFunction,ComponentPad*%
%ADD10R,1.700000X1.700000*%
%TD*%
%TA.AperFunction,ComponentPad*%
%ADD11C,1.700000*%
%TD*%
%TA.AperFunction,ComponentPad*%
%ADD12C,1.900000*%
%TD*%
%TA.AperFunction,ComponentPad*%
%ADD13RoundRect,0.250000X0.625000X-0.350000X0.625000X0.350000X-0.625000X0.350000X-0.625000X-0.350000X0*%
%TD*%
%TA.AperFunction,ComponentPad*%
%ADD14O,1.750000X1.200000*%
%TD*%
%TA.AperFunction,ViaPad*%
%ADD15C,0.600000*%
%TD*%
%TA.AperFunction,ViaPad*%
%ADD16C,0.900000*%
%TD*%
G04 APERTURE END LIST*
D10*
%TO.N,GND*%
%TO.C,J6*%
X22270000Y-40050000D03*
D11*
%TO.N,+3.3V*%
X22270000Y-37510000D03*
%TO.N,/SDA*%
X22270000Y-34970000D03*
%TO.N,/SCL*%
X22270000Y-32430000D03*
%TO.N,unconnected-(J6-Pin_5-Pad5)*%
X22270000Y-29890000D03*
%TO.N,unconnected-(J6-Pin_6-Pad6)*%
X22270000Y-27350000D03*
%TO.N,unconnected-(J6-Pin_7-Pad7)*%
X22270000Y-24810000D03*
%TO.N,unconnected-(J6-Pin_8-Pad8)*%
X22270000Y-22270000D03*
%TD*%
D12*
%TO.N,+12V*%
%TO.C,J3*%
X33000000Y-53500000D03*
X28000000Y-53500000D03*
%TO.N,GND*%
X33000000Y-57000000D03*
X28000000Y-57000000D03*
%TD*%
D13*
%TO.N,/M1_A*%
%TO.C,J2*%
X42500000Y-33000000D03*
D14*
%TO.N,/M1_B*%
X42500000Y-31000000D03*
%TO.N,+3.3V*%
X42500000Y-29000000D03*
%TO.N,/SingleMotorAndCounter/Encoder_A*%
X42500000Y-27000000D03*
%TO.N,GND*%
X42500000Y-25000000D03*
%TO.N,/SingleMotorAndCounter/Encoder_B*%
X42500000Y-23000000D03*
%TD*%
D10*
%TO.N,+3.3V*%
%TO.C,J1*%
X40380000Y-58000000D03*
D11*
%TO.N,/SCL*%
X42920000Y-58000000D03*
%TO.N,/SDA*%
X45460000Y-58000000D03*
%TO.N,GND*%
X48000000Y-58000000D03*
%TD*%
D13*
%TO.N,/M2_A*%
%TO.C,J8*%
X42550000Y-48500000D03*
D14*
%TO.N,/M2_B*%
X42550000Y-46500000D03*
%TO.N,+3.3V*%
X42550000Y-44500000D03*
%TO.N,/SingleMotorAndCounter1/Encoder_A*%
X42550000Y-42500000D03*
%TO.N,GND*%
X42550000Y-40500000D03*
%TO.N,/SingleMotorAndCounter1/Encoder_B*%
X42550000Y-38500000D03*
%TD*%
D10*
%TO.N,/M1_A*%
%TO.C,J4*%
X34970000Y-24810000D03*
D11*
%TO.N,/M1_B*%
X34970000Y-27350000D03*
%TO.N,+12V*%
X34970000Y-29890000D03*
%TO.N,GND*%
X34970000Y-32430000D03*
%TO.N,/M2_A*%
X34970000Y-34970000D03*
%TO.N,/M2_B*%
X34970000Y-37510000D03*
%TD*%
D15*
%TO.N,Net-(U1-DFLAG{slash})*%
X29750000Y-23250000D03*
%TO.N,GND*%
X23500000Y-21000000D03*
X45000000Y-25250000D03*
D16*
X33000000Y-43000000D03*
D15*
X30987062Y-31634808D03*
X25300000Y-39000000D03*
X25300000Y-22137500D03*
D16*
X35000000Y-43175000D03*
D15*
X47500000Y-56100000D03*
X45000000Y-40500000D03*
X25300000Y-26580000D03*
X26173304Y-31056852D03*
X22730000Y-41630000D03*
X21000000Y-26100000D03*
D16*
%TO.N,+3.3V*%
X44320000Y-54620000D03*
D15*
X23670000Y-46240000D03*
D16*
X44300000Y-51900000D03*
D15*
X24500000Y-33500000D03*
X21910000Y-43770000D03*
X27640000Y-26140000D03*
X35893637Y-46287029D03*
%TO.N,/SDA*%
X25092177Y-29039328D03*
X25950000Y-41500000D03*
X26600000Y-45300000D03*
X36250000Y-48750000D03*
%TO.N,/SCL*%
X25200000Y-42800000D03*
X20800000Y-35500000D03*
X25700000Y-46500000D03*
X26600000Y-29000000D03*
%TO.N,Net-(U2-DFLAG{slash})*%
X31750000Y-32500000D03*
%TO.N,Net-(U1-A2)*%
X26600000Y-22200000D03*
%TO.N,Net-(U2-LFLAG{slash})*%
X25749943Y-34386494D03*
%TO.N,Net-(U2-A2)*%
X26881329Y-33256186D03*
%TO.N,Net-(U1-LFLAG{slash})*%
X25505161Y-23314857D03*
%TD*%
%TA.AperFunction,Conductor*%
%TO.N,GND*%
G36*
X48004418Y-16000816D02*
G01*
X48204561Y-16015130D01*
X48222063Y-16017647D01*
X48413795Y-16059355D01*
X48430760Y-16064336D01*
X48614611Y-16132909D01*
X48630694Y-16140253D01*
X48747495Y-16204032D01*
X48802908Y-16234290D01*
X48817791Y-16243855D01*
X48974864Y-16361438D01*
X48988235Y-16373024D01*
X49126975Y-16511764D01*
X49138561Y-16525135D01*
X49256144Y-16682208D01*
X49265709Y-16697091D01*
X49359743Y-16869300D01*
X49367093Y-16885394D01*
X49435661Y-17069234D01*
X49440645Y-17086209D01*
X49482351Y-17277931D01*
X49484869Y-17295442D01*
X49499184Y-17495580D01*
X49499500Y-17504427D01*
X49499500Y-57463388D01*
X49479815Y-57530427D01*
X49427011Y-57576182D01*
X49357853Y-57586126D01*
X49294297Y-57557101D01*
X49257569Y-57501707D01*
X49251093Y-57481779D01*
X49251094Y-57481779D01*
X49182726Y-57347602D01*
X48530330Y-57999999D01*
X48530330Y-58000000D01*
X49182726Y-58652396D01*
X49251093Y-58518221D01*
X49257568Y-58498294D01*
X49297005Y-58440618D01*
X49361363Y-58413419D01*
X49430210Y-58425333D01*
X49481686Y-58472576D01*
X49499500Y-58536611D01*
X49499500Y-62995572D01*
X49499184Y-63004419D01*
X49484869Y-63204557D01*
X49482351Y-63222068D01*
X49440645Y-63413790D01*
X49435661Y-63430765D01*
X49367093Y-63614605D01*
X49359743Y-63630699D01*
X49265709Y-63802908D01*
X49256144Y-63817791D01*
X49138561Y-63974864D01*
X49126975Y-63988235D01*
X48988235Y-64126975D01*
X48974864Y-64138561D01*
X48817791Y-64256144D01*
X48802908Y-64265709D01*
X48630699Y-64359743D01*
X48614605Y-64367093D01*
X48430765Y-64435661D01*
X48413790Y-64440645D01*
X48222068Y-64482351D01*
X48204557Y-64484869D01*
X48023779Y-64497799D01*
X48004417Y-64499184D01*
X47995572Y-64499500D01*
X22004428Y-64499500D01*
X21995582Y-64499184D01*
X21973622Y-64497613D01*
X21795442Y-64484869D01*
X21777931Y-64482351D01*
X21586209Y-64440645D01*
X21569234Y-64435661D01*
X21385394Y-64367093D01*
X21369300Y-64359743D01*
X21197091Y-64265709D01*
X21182208Y-64256144D01*
X21025135Y-64138561D01*
X21011764Y-64126975D01*
X20873024Y-63988235D01*
X20861438Y-63974864D01*
X20743855Y-63817791D01*
X20734290Y-63802908D01*
X20640256Y-63630699D01*
X20632909Y-63614611D01*
X20564336Y-63430760D01*
X20559354Y-63413790D01*
X20544871Y-63347213D01*
X20517647Y-63222063D01*
X20515130Y-63204556D01*
X20500816Y-63004418D01*
X20500500Y-62995572D01*
X20500500Y-62397648D01*
X21199500Y-62397648D01*
X21199500Y-62602351D01*
X21231522Y-62804534D01*
X21294781Y-62999223D01*
X21387715Y-63181613D01*
X21508028Y-63347213D01*
X21652786Y-63491971D01*
X21807749Y-63604556D01*
X21818390Y-63612287D01*
X21934607Y-63671503D01*
X22000776Y-63705218D01*
X22000778Y-63705218D01*
X22000781Y-63705220D01*
X22105137Y-63739127D01*
X22195465Y-63768477D01*
X22296557Y-63784488D01*
X22397648Y-63800500D01*
X22397649Y-63800500D01*
X22602351Y-63800500D01*
X22602352Y-63800500D01*
X22804534Y-63768477D01*
X22999219Y-63705220D01*
X23181610Y-63612287D01*
X23274590Y-63544732D01*
X23347213Y-63491971D01*
X23347215Y-63491968D01*
X23347219Y-63491966D01*
X23491966Y-63347219D01*
X23491968Y-63347215D01*
X23491971Y-63347213D01*
X23544732Y-63274590D01*
X23612287Y-63181610D01*
X23705220Y-62999219D01*
X23768477Y-62804534D01*
X23800500Y-62602352D01*
X23800500Y-62397648D01*
X46199500Y-62397648D01*
X46199500Y-62602351D01*
X46231522Y-62804534D01*
X46294781Y-62999223D01*
X46387715Y-63181613D01*
X46508028Y-63347213D01*
X46652786Y-63491971D01*
X46807749Y-63604556D01*
X46818390Y-63612287D01*
X46934607Y-63671503D01*
X47000776Y-63705218D01*
X47000778Y-63705218D01*
X47000781Y-63705220D01*
X47105137Y-63739127D01*
X47195465Y-63768477D01*
X47296557Y-63784488D01*
X47397648Y-63800500D01*
X47397649Y-63800500D01*
X47602351Y-63800500D01*
X47602352Y-63800500D01*
X47804534Y-63768477D01*
X47999219Y-63705220D01*
X48181610Y-63612287D01*
X48274590Y-63544732D01*
X48347213Y-63491971D01*
X48347215Y-63491968D01*
X48347219Y-63491966D01*
X48491966Y-63347219D01*
X48491968Y-63347215D01*
X48491971Y-63347213D01*
X48544732Y-63274590D01*
X48612287Y-63181610D01*
X48705220Y-62999219D01*
X48768477Y-62804534D01*
X48800500Y-62602352D01*
X48800500Y-62397648D01*
X48768477Y-62195466D01*
X48705220Y-62000781D01*
X48705218Y-62000778D01*
X48705218Y-62000776D01*
X48671503Y-61934607D01*
X48612287Y-61818390D01*
X48604556Y-61807749D01*
X48491971Y-61652786D01*
X48347213Y-61508028D01*
X48181613Y-61387715D01*
X48181612Y-61387714D01*
X48181610Y-61387713D01*
X48124653Y-61358691D01*
X47999223Y-61294781D01*
X47804534Y-61231522D01*
X47629995Y-61203878D01*
X47602352Y-61199500D01*
X47397648Y-61199500D01*
X47373329Y-61203351D01*
X47195465Y-61231522D01*
X47000776Y-61294781D01*
X46818386Y-61387715D01*
X46652786Y-61508028D01*
X46508028Y-61652786D01*
X46387715Y-61818386D01*
X46294781Y-62000776D01*
X46231522Y-62195465D01*
X46199500Y-62397648D01*
X23800500Y-62397648D01*
X23768477Y-62195466D01*
X23705220Y-62000781D01*
X23705218Y-62000778D01*
X23705218Y-62000776D01*
X23671503Y-61934607D01*
X23612287Y-61818390D01*
X23604556Y-61807749D01*
X23491971Y-61652786D01*
X23347213Y-61508028D01*
X23181613Y-61387715D01*
X23181612Y-61387714D01*
X23181610Y-61387713D01*
X23124653Y-61358691D01*
X22999223Y-61294781D01*
X22804534Y-61231522D01*
X22629995Y-61203878D01*
X22602352Y-61199500D01*
X22397648Y-61199500D01*
X22373329Y-61203351D01*
X22195465Y-61231522D01*
X22000776Y-61294781D01*
X21818386Y-61387715D01*
X21652786Y-61508028D01*
X21508028Y-61652786D01*
X21387715Y-61818386D01*
X21294781Y-62000776D01*
X21231522Y-62195465D01*
X21199500Y-62397648D01*
X20500500Y-62397648D01*
X20500500Y-57102135D01*
X39029500Y-57102135D01*
X39029500Y-58897870D01*
X39029501Y-58897876D01*
X39035908Y-58957483D01*
X39086202Y-59092328D01*
X39086206Y-59092335D01*
X39172452Y-59207544D01*
X39172455Y-59207547D01*
X39287664Y-59293793D01*
X39287671Y-59293797D01*
X39422517Y-59344091D01*
X39422516Y-59344091D01*
X39429444Y-59344835D01*
X39482127Y-59350500D01*
X41277872Y-59350499D01*
X41337483Y-59344091D01*
X41472331Y-59293796D01*
X41587546Y-59207546D01*
X41673796Y-59092331D01*
X41722810Y-58960916D01*
X41764681Y-58904984D01*
X41830145Y-58880566D01*
X41898418Y-58895417D01*
X41926673Y-58916569D01*
X42040213Y-59030109D01*
X42212179Y-59155048D01*
X42212181Y-59155049D01*
X42212184Y-59155051D01*
X42401588Y-59251557D01*
X42603757Y-59317246D01*
X42813713Y-59350500D01*
X42813714Y-59350500D01*
X43026286Y-59350500D01*
X43026287Y-59350500D01*
X43236243Y-59317246D01*
X43438412Y-59251557D01*
X43627816Y-59155051D01*
X43714138Y-59092335D01*
X43799786Y-59030109D01*
X43799788Y-59030106D01*
X43799792Y-59030104D01*
X43950104Y-58879792D01*
X43950106Y-58879788D01*
X43950109Y-58879786D01*
X44075048Y-58707820D01*
X44075047Y-58707820D01*
X44075051Y-58707816D01*
X44079514Y-58699054D01*
X44127488Y-58648259D01*
X44195308Y-58631463D01*
X44261444Y-58653999D01*
X44300486Y-58699056D01*
X44304951Y-58707820D01*
X44429890Y-58879786D01*
X44580213Y-59030109D01*
X44752179Y-59155048D01*
X44752181Y-59155049D01*
X44752184Y-59155051D01*
X44941588Y-59251557D01*
X45143757Y-59317246D01*
X45353713Y-59350500D01*
X45353714Y-59350500D01*
X45566286Y-59350500D01*
X45566287Y-59350500D01*
X45776243Y-59317246D01*
X45978412Y-59251557D01*
X46113501Y-59182726D01*
X47347602Y-59182726D01*
X47481779Y-59251094D01*
X47481782Y-59251095D01*
X47683871Y-59316757D01*
X47893754Y-59350000D01*
X48106246Y-59350000D01*
X48316127Y-59316757D01*
X48316130Y-59316757D01*
X48518217Y-59251095D01*
X48652397Y-59182726D01*
X48000001Y-58530330D01*
X48000000Y-58530330D01*
X47347602Y-59182726D01*
X46113501Y-59182726D01*
X46167816Y-59155051D01*
X46254138Y-59092335D01*
X46326993Y-59039404D01*
X46339785Y-59030109D01*
X46339783Y-59030109D01*
X46339792Y-59030104D01*
X46490104Y-58879792D01*
X46490106Y-58879788D01*
X46490109Y-58879786D01*
X46615048Y-58707820D01*
X46615047Y-58707820D01*
X46615051Y-58707816D01*
X46619795Y-58698504D01*
X46667769Y-58647709D01*
X46735590Y-58630914D01*
X46782444Y-58646880D01*
X46817272Y-58652397D01*
X47469670Y-58000000D01*
X47403844Y-57934174D01*
X47500000Y-57934174D01*
X47500000Y-58065826D01*
X47534075Y-58192993D01*
X47599901Y-58307007D01*
X47692993Y-58400099D01*
X47807007Y-58465925D01*
X47934174Y-58500000D01*
X48065826Y-58500000D01*
X48192993Y-58465925D01*
X48307007Y-58400099D01*
X48400099Y-58307007D01*
X48465925Y-58192993D01*
X48500000Y-58065826D01*
X48500000Y-57934174D01*
X48465925Y-57807007D01*
X48400099Y-57692993D01*
X48307007Y-57599901D01*
X48192993Y-57534075D01*
X48065826Y-57500000D01*
X47934174Y-57500000D01*
X47807007Y-57534075D01*
X47692993Y-57599901D01*
X47599901Y-57692993D01*
X47534075Y-57807007D01*
X47500000Y-57934174D01*
X47403844Y-57934174D01*
X46817271Y-57347601D01*
X46793685Y-57351337D01*
X46792781Y-57352295D01*
X46724959Y-57369085D01*
X46658826Y-57346542D01*
X46619793Y-57301491D01*
X46615051Y-57292184D01*
X46615049Y-57292181D01*
X46615048Y-57292179D01*
X46490109Y-57120213D01*
X46339790Y-56969894D01*
X46339783Y-56969888D01*
X46327021Y-56960616D01*
X46326992Y-56960596D01*
X46167815Y-56844948D01*
X46113495Y-56817271D01*
X47347601Y-56817271D01*
X48000000Y-57469670D01*
X48000001Y-57469670D01*
X48652397Y-56817272D01*
X48518220Y-56748906D01*
X48518217Y-56748904D01*
X48316128Y-56683242D01*
X48106246Y-56650000D01*
X47893754Y-56650000D01*
X47683872Y-56683242D01*
X47683869Y-56683242D01*
X47481781Y-56748905D01*
X47481780Y-56748905D01*
X47347601Y-56817271D01*
X46113495Y-56817271D01*
X45978414Y-56748444D01*
X45978413Y-56748443D01*
X45978412Y-56748443D01*
X45776243Y-56682754D01*
X45776241Y-56682753D01*
X45776240Y-56682753D01*
X45614957Y-56657208D01*
X45566287Y-56649500D01*
X45353713Y-56649500D01*
X45305042Y-56657208D01*
X45143760Y-56682753D01*
X44941585Y-56748444D01*
X44752179Y-56844951D01*
X44580213Y-56969890D01*
X44429890Y-57120213D01*
X44304949Y-57292182D01*
X44300484Y-57300946D01*
X44252509Y-57351742D01*
X44184688Y-57368536D01*
X44118553Y-57345998D01*
X44079516Y-57300946D01*
X44075050Y-57292182D01*
X43950109Y-57120213D01*
X43799786Y-56969890D01*
X43627820Y-56844951D01*
X43438414Y-56748444D01*
X43438413Y-56748443D01*
X43438412Y-56748443D01*
X43236243Y-56682754D01*
X43236241Y-56682753D01*
X43236240Y-56682753D01*
X43074957Y-56657208D01*
X43026287Y-56649500D01*
X42813713Y-56649500D01*
X42765042Y-56657208D01*
X42603760Y-56682753D01*
X42401585Y-56748444D01*
X42212179Y-56844951D01*
X42040215Y-56969889D01*
X41926673Y-57083431D01*
X41865350Y-57116915D01*
X41795658Y-57111931D01*
X41739725Y-57070059D01*
X41722810Y-57039082D01*
X41673797Y-56907671D01*
X41673793Y-56907664D01*
X41587547Y-56792455D01*
X41587544Y-56792452D01*
X41472335Y-56706206D01*
X41472328Y-56706202D01*
X41337482Y-56655908D01*
X41337483Y-56655908D01*
X41277883Y-56649501D01*
X41277881Y-56649500D01*
X41277873Y-56649500D01*
X41277864Y-56649500D01*
X39482129Y-56649500D01*
X39482123Y-56649501D01*
X39422516Y-56655908D01*
X39287671Y-56706202D01*
X39287664Y-56706206D01*
X39172455Y-56792452D01*
X39172452Y-56792455D01*
X39086206Y-56907664D01*
X39086202Y-56907671D01*
X39035908Y-57042517D01*
X39029501Y-57102116D01*
X39029500Y-57102135D01*
X20500500Y-57102135D01*
X20500500Y-53385837D01*
X26549500Y-53385837D01*
X26549500Y-53614162D01*
X26585215Y-53839660D01*
X26655770Y-54056803D01*
X26713331Y-54169771D01*
X26759421Y-54260228D01*
X26893621Y-54444937D01*
X27055063Y-54606379D01*
X27239772Y-54740579D01*
X27335884Y-54789550D01*
X27443196Y-54844229D01*
X27443198Y-54844229D01*
X27443201Y-54844231D01*
X27559592Y-54882049D01*
X27660339Y-54914784D01*
X27885838Y-54950500D01*
X27885843Y-54950500D01*
X28114162Y-54950500D01*
X28339660Y-54914784D01*
X28556799Y-54844231D01*
X28760228Y-54740579D01*
X28944937Y-54606379D01*
X29106379Y-54444937D01*
X29240579Y-54260228D01*
X29344231Y-54056799D01*
X29414784Y-53839660D01*
X29450500Y-53614162D01*
X29450500Y-53385837D01*
X31549500Y-53385837D01*
X31549500Y-53614162D01*
X31585215Y-53839660D01*
X31655770Y-54056803D01*
X31713331Y-54169771D01*
X31759421Y-54260228D01*
X31893621Y-54444937D01*
X32055063Y-54606379D01*
X32239772Y-54740579D01*
X32335884Y-54789550D01*
X32443196Y-54844229D01*
X32443198Y-54844229D01*
X32443201Y-54844231D01*
X32559592Y-54882049D01*
X32660339Y-54914784D01*
X32885838Y-54950500D01*
X32885843Y-54950500D01*
X33114162Y-54950500D01*
X33339660Y-54914784D01*
X33556799Y-54844231D01*
X33760228Y-54740579D01*
X33944937Y-54606379D01*
X34024937Y-54526379D01*
X43369500Y-54526379D01*
X43369500Y-54713620D01*
X43406025Y-54897243D01*
X43406027Y-54897251D01*
X43477676Y-55070228D01*
X43477681Y-55070237D01*
X43581697Y-55225907D01*
X43581700Y-55225911D01*
X43714088Y-55358299D01*
X43714092Y-55358302D01*
X43869762Y-55462318D01*
X43869768Y-55462321D01*
X43869769Y-55462322D01*
X44042749Y-55533973D01*
X44226379Y-55570499D01*
X44226383Y-55570500D01*
X44226384Y-55570500D01*
X44413617Y-55570500D01*
X44413618Y-55570499D01*
X44597251Y-55533973D01*
X44770231Y-55462322D01*
X44925908Y-55358302D01*
X45058302Y-55225908D01*
X45162322Y-55070231D01*
X45233973Y-54897251D01*
X45270500Y-54713616D01*
X45270500Y-54526384D01*
X45233973Y-54342749D01*
X45162322Y-54169769D01*
X45162321Y-54169768D01*
X45162318Y-54169762D01*
X45058302Y-54014092D01*
X45058299Y-54014088D01*
X44925911Y-53881700D01*
X44925907Y-53881697D01*
X44770237Y-53777681D01*
X44770228Y-53777676D01*
X44597251Y-53706027D01*
X44597243Y-53706025D01*
X44413620Y-53669500D01*
X44413616Y-53669500D01*
X44226384Y-53669500D01*
X44226379Y-53669500D01*
X44042756Y-53706025D01*
X44042748Y-53706027D01*
X43869771Y-53777676D01*
X43869762Y-53777681D01*
X43714092Y-53881697D01*
X43714088Y-53881700D01*
X43581700Y-54014088D01*
X43581697Y-54014092D01*
X43477681Y-54169762D01*
X43477676Y-54169771D01*
X43406027Y-54342748D01*
X43406025Y-54342756D01*
X43369500Y-54526379D01*
X34024937Y-54526379D01*
X34106379Y-54444937D01*
X34240579Y-54260228D01*
X34344231Y-54056799D01*
X34414784Y-53839660D01*
X34450500Y-53614162D01*
X34450500Y-53385837D01*
X34414784Y-53160339D01*
X34344229Y-52943196D01*
X34278386Y-52813972D01*
X34240579Y-52739772D01*
X34106379Y-52555063D01*
X33944937Y-52393621D01*
X33760228Y-52259421D01*
X33556803Y-52155770D01*
X33339660Y-52085215D01*
X33114162Y-52049500D01*
X33114157Y-52049500D01*
X32885843Y-52049500D01*
X32885838Y-52049500D01*
X32660339Y-52085215D01*
X32443196Y-52155770D01*
X32239771Y-52259421D01*
X32055061Y-52393622D01*
X31893622Y-52555061D01*
X31759421Y-52739771D01*
X31655770Y-52943196D01*
X31585215Y-53160339D01*
X31549500Y-53385837D01*
X29450500Y-53385837D01*
X29414784Y-53160339D01*
X29344229Y-52943196D01*
X29278386Y-52813972D01*
X29240579Y-52739772D01*
X29106379Y-52555063D01*
X28944937Y-52393621D01*
X28760228Y-52259421D01*
X28556803Y-52155770D01*
X28339660Y-52085215D01*
X28114162Y-52049500D01*
X28114157Y-52049500D01*
X27885843Y-52049500D01*
X27885838Y-52049500D01*
X27660339Y-52085215D01*
X27443196Y-52155770D01*
X27239771Y-52259421D01*
X27055061Y-52393622D01*
X26893622Y-52555061D01*
X26759421Y-52739771D01*
X26655770Y-52943196D01*
X26585215Y-53160339D01*
X26549500Y-53385837D01*
X20500500Y-53385837D01*
X20500500Y-51806379D01*
X43349500Y-51806379D01*
X43349500Y-51993620D01*
X43386025Y-52177243D01*
X43386027Y-52177251D01*
X43457676Y-52350228D01*
X43457681Y-52350237D01*
X43561697Y-52505907D01*
X43561700Y-52505911D01*
X43694088Y-52638299D01*
X43694092Y-52638302D01*
X43849762Y-52742318D01*
X43849768Y-52742321D01*
X43849769Y-52742322D01*
X44022749Y-52813973D01*
X44206379Y-52850499D01*
X44206383Y-52850500D01*
X44206384Y-52850500D01*
X44393617Y-52850500D01*
X44393618Y-52850499D01*
X44577251Y-52813973D01*
X44750231Y-52742322D01*
X44905908Y-52638302D01*
X45038302Y-52505908D01*
X45142322Y-52350231D01*
X45213973Y-52177251D01*
X45250500Y-51993616D01*
X45250500Y-51806384D01*
X45213973Y-51622749D01*
X45142322Y-51449769D01*
X45142321Y-51449768D01*
X45142318Y-51449762D01*
X45038302Y-51294092D01*
X45038299Y-51294088D01*
X44905911Y-51161700D01*
X44905907Y-51161697D01*
X44750237Y-51057681D01*
X44750228Y-51057676D01*
X44577251Y-50986027D01*
X44577243Y-50986025D01*
X44393620Y-50949500D01*
X44393616Y-50949500D01*
X44206384Y-50949500D01*
X44206379Y-50949500D01*
X44022756Y-50986025D01*
X44022748Y-50986027D01*
X43849771Y-51057676D01*
X43849762Y-51057681D01*
X43694092Y-51161697D01*
X43694088Y-51161700D01*
X43561700Y-51294088D01*
X43561697Y-51294092D01*
X43457681Y-51449762D01*
X43457676Y-51449771D01*
X43386027Y-51622748D01*
X43386025Y-51622756D01*
X43349500Y-51806379D01*
X20500500Y-51806379D01*
X20500500Y-48671153D01*
X35449500Y-48671153D01*
X35449500Y-48828846D01*
X35480261Y-48983489D01*
X35480264Y-48983501D01*
X35540602Y-49129172D01*
X35540609Y-49129185D01*
X35628210Y-49260288D01*
X35628213Y-49260292D01*
X35739707Y-49371786D01*
X35739711Y-49371789D01*
X35870814Y-49459390D01*
X35870827Y-49459397D01*
X36016498Y-49519735D01*
X36016503Y-49519737D01*
X36171153Y-49550499D01*
X36171156Y-49550500D01*
X36171158Y-49550500D01*
X36328844Y-49550500D01*
X36328845Y-49550499D01*
X36483497Y-49519737D01*
X36629179Y-49459394D01*
X36760289Y-49371789D01*
X36871789Y-49260289D01*
X36959394Y-49129179D01*
X37019737Y-48983497D01*
X37050500Y-48828842D01*
X37050500Y-48671158D01*
X37050500Y-48671155D01*
X37050499Y-48671153D01*
X37019738Y-48516510D01*
X37019737Y-48516503D01*
X37019735Y-48516498D01*
X36959397Y-48370827D01*
X36959390Y-48370814D01*
X36871789Y-48239711D01*
X36871786Y-48239707D01*
X36760292Y-48128213D01*
X36760288Y-48128210D01*
X36629185Y-48040609D01*
X36629172Y-48040602D01*
X36483501Y-47980264D01*
X36483489Y-47980261D01*
X36328845Y-47949500D01*
X36328842Y-47949500D01*
X36171158Y-47949500D01*
X36171155Y-47949500D01*
X36016510Y-47980261D01*
X36016498Y-47980264D01*
X35870827Y-48040602D01*
X35870814Y-48040609D01*
X35739711Y-48128210D01*
X35739707Y-48128213D01*
X35628213Y-48239707D01*
X35628210Y-48239711D01*
X35540609Y-48370814D01*
X35540602Y-48370827D01*
X35480264Y-48516498D01*
X35480261Y-48516510D01*
X35449500Y-48671153D01*
X20500500Y-48671153D01*
X20500500Y-46161153D01*
X22869500Y-46161153D01*
X22869500Y-46318846D01*
X22900261Y-46473489D01*
X22900264Y-46473501D01*
X22960602Y-46619172D01*
X22960609Y-46619185D01*
X23048210Y-46750288D01*
X23048213Y-46750292D01*
X23159707Y-46861786D01*
X23159711Y-46861789D01*
X23290814Y-46949390D01*
X23290827Y-46949397D01*
X23404350Y-46996419D01*
X23436503Y-47009737D01*
X23591153Y-47040499D01*
X23591156Y-47040500D01*
X23591158Y-47040500D01*
X23748844Y-47040500D01*
X23748845Y-47040499D01*
X23903497Y-47009737D01*
X24049179Y-46949394D01*
X24180289Y-46861789D01*
X24291789Y-46750289D01*
X24379394Y-46619179D01*
X24439737Y-46473497D01*
X24450149Y-46421153D01*
X24899500Y-46421153D01*
X24899500Y-46578846D01*
X24930261Y-46733489D01*
X24930264Y-46733501D01*
X24990602Y-46879172D01*
X24990609Y-46879185D01*
X25078210Y-47010288D01*
X25078213Y-47010292D01*
X25189707Y-47121786D01*
X25189711Y-47121789D01*
X25320814Y-47209390D01*
X25320827Y-47209397D01*
X25466498Y-47269735D01*
X25466503Y-47269737D01*
X25621153Y-47300499D01*
X25621156Y-47300500D01*
X25621158Y-47300500D01*
X25778844Y-47300500D01*
X25778845Y-47300499D01*
X25933497Y-47269737D01*
X26079179Y-47209394D01*
X26210289Y-47121789D01*
X26321789Y-47010289D01*
X26409394Y-46879179D01*
X26469737Y-46733497D01*
X26500500Y-46578842D01*
X26500500Y-46421158D01*
X26500500Y-46421155D01*
X26500499Y-46421153D01*
X26489503Y-46365871D01*
X26469737Y-46266503D01*
X26469732Y-46266492D01*
X26467969Y-46260676D01*
X26470720Y-46259841D01*
X26469160Y-46245499D01*
X26462654Y-46219544D01*
X26465438Y-46211295D01*
X26465100Y-46208182D01*
X35093137Y-46208182D01*
X35093137Y-46365875D01*
X35123898Y-46520518D01*
X35123901Y-46520530D01*
X35184239Y-46666201D01*
X35184246Y-46666214D01*
X35271847Y-46797317D01*
X35271850Y-46797321D01*
X35383344Y-46908815D01*
X35383348Y-46908818D01*
X35514451Y-46996419D01*
X35514464Y-46996426D01*
X35620870Y-47040500D01*
X35660140Y-47056766D01*
X35760797Y-47076788D01*
X35814790Y-47087528D01*
X35814793Y-47087529D01*
X35814795Y-47087529D01*
X35972481Y-47087529D01*
X35972482Y-47087528D01*
X36127134Y-47056766D01*
X36272816Y-46996423D01*
X36403926Y-46908818D01*
X36515426Y-46797318D01*
X36603031Y-46666208D01*
X36663374Y-46520526D01*
X36694137Y-46365871D01*
X36694137Y-46208187D01*
X36694137Y-46208184D01*
X36694136Y-46208182D01*
X36676760Y-46120827D01*
X36663374Y-46053532D01*
X36636937Y-45989707D01*
X36603034Y-45907856D01*
X36603027Y-45907843D01*
X36515426Y-45776740D01*
X36515423Y-45776736D01*
X36403929Y-45665242D01*
X36403925Y-45665239D01*
X36272822Y-45577638D01*
X36272809Y-45577631D01*
X36127138Y-45517293D01*
X36127126Y-45517290D01*
X35972482Y-45486529D01*
X35972479Y-45486529D01*
X35814795Y-45486529D01*
X35814792Y-45486529D01*
X35660147Y-45517290D01*
X35660135Y-45517293D01*
X35514464Y-45577631D01*
X35514451Y-45577638D01*
X35383348Y-45665239D01*
X35383344Y-45665242D01*
X35271850Y-45776736D01*
X35271847Y-45776740D01*
X35184246Y-45907843D01*
X35184239Y-45907856D01*
X35123901Y-46053527D01*
X35123898Y-46053539D01*
X35093137Y-46208182D01*
X26465100Y-46208182D01*
X26464497Y-46202641D01*
X26476442Y-46178699D01*
X26485002Y-46153345D01*
X26491804Y-46147910D01*
X26495691Y-46140122D01*
X26518683Y-46126439D01*
X26539593Y-46109737D01*
X26550286Y-46107633D01*
X26555734Y-46104392D01*
X26573828Y-46101155D01*
X26580176Y-46100500D01*
X26678842Y-46100500D01*
X26833497Y-46069737D01*
X26979179Y-46009394D01*
X27110289Y-45921789D01*
X27221789Y-45810289D01*
X27309394Y-45679179D01*
X27317098Y-45660581D01*
X27334647Y-45618213D01*
X27369737Y-45533497D01*
X27400500Y-45378842D01*
X27400500Y-45221158D01*
X27400500Y-45221155D01*
X27400499Y-45221153D01*
X27399659Y-45216928D01*
X27369737Y-45066503D01*
X27310067Y-44922445D01*
X27309397Y-44920827D01*
X27309390Y-44920814D01*
X27221789Y-44789711D01*
X27221786Y-44789707D01*
X27110292Y-44678213D01*
X27110288Y-44678210D01*
X26979185Y-44590609D01*
X26979172Y-44590602D01*
X26833501Y-44530264D01*
X26833489Y-44530261D01*
X26678845Y-44499500D01*
X26678842Y-44499500D01*
X26521158Y-44499500D01*
X26521155Y-44499500D01*
X26366510Y-44530261D01*
X26366498Y-44530264D01*
X26220827Y-44590602D01*
X26220814Y-44590609D01*
X26089711Y-44678210D01*
X26089707Y-44678213D01*
X25978213Y-44789707D01*
X25978210Y-44789711D01*
X25890609Y-44920814D01*
X25890602Y-44920827D01*
X25830264Y-45066498D01*
X25830261Y-45066510D01*
X25799500Y-45221153D01*
X25799500Y-45378846D01*
X25830261Y-45533489D01*
X25832031Y-45539324D01*
X25829279Y-45540158D01*
X25835503Y-45597359D01*
X25804309Y-45659878D01*
X25744266Y-45695608D01*
X25713445Y-45699500D01*
X25621155Y-45699500D01*
X25466510Y-45730261D01*
X25466498Y-45730264D01*
X25320827Y-45790602D01*
X25320814Y-45790609D01*
X25189711Y-45878210D01*
X25189707Y-45878213D01*
X25078213Y-45989707D01*
X25078210Y-45989711D01*
X24990609Y-46120814D01*
X24990602Y-46120827D01*
X24930264Y-46266498D01*
X24930261Y-46266510D01*
X24899500Y-46421153D01*
X24450149Y-46421153D01*
X24456172Y-46390874D01*
X24470500Y-46318844D01*
X24470500Y-46161155D01*
X24470499Y-46161153D01*
X24459208Y-46104392D01*
X24439737Y-46006503D01*
X24404648Y-45921789D01*
X24379397Y-45860827D01*
X24379390Y-45860814D01*
X24291789Y-45729711D01*
X24291786Y-45729707D01*
X24180292Y-45618213D01*
X24180288Y-45618210D01*
X24049185Y-45530609D01*
X24049172Y-45530602D01*
X23903501Y-45470264D01*
X23903489Y-45470261D01*
X23748845Y-45439500D01*
X23748842Y-45439500D01*
X23591158Y-45439500D01*
X23591155Y-45439500D01*
X23436510Y-45470261D01*
X23436498Y-45470264D01*
X23290827Y-45530602D01*
X23290814Y-45530609D01*
X23159711Y-45618210D01*
X23159707Y-45618213D01*
X23048213Y-45729707D01*
X23048210Y-45729711D01*
X22960609Y-45860814D01*
X22960602Y-45860827D01*
X22900264Y-46006498D01*
X22900261Y-46006510D01*
X22869500Y-46161153D01*
X20500500Y-46161153D01*
X20500500Y-43691153D01*
X21109500Y-43691153D01*
X21109500Y-43848846D01*
X21140261Y-44003489D01*
X21140264Y-44003501D01*
X21200602Y-44149172D01*
X21200609Y-44149185D01*
X21288210Y-44280288D01*
X21288213Y-44280292D01*
X21399707Y-44391786D01*
X21399711Y-44391789D01*
X21530814Y-44479390D01*
X21530827Y-44479397D01*
X21653633Y-44530264D01*
X21676503Y-44539737D01*
X21831153Y-44570499D01*
X21831156Y-44570500D01*
X21831158Y-44570500D01*
X21988844Y-44570500D01*
X21988845Y-44570499D01*
X22143497Y-44539737D01*
X22289179Y-44479394D01*
X22420289Y-44391789D01*
X22531789Y-44280289D01*
X22619394Y-44149179D01*
X22679737Y-44003497D01*
X22710500Y-43848842D01*
X22710500Y-43691158D01*
X22710500Y-43691155D01*
X22710499Y-43691153D01*
X22692467Y-43600500D01*
X22679737Y-43536503D01*
X22679735Y-43536498D01*
X22619397Y-43390827D01*
X22619390Y-43390814D01*
X22531789Y-43259711D01*
X22531786Y-43259707D01*
X22420292Y-43148213D01*
X22420288Y-43148210D01*
X22289185Y-43060609D01*
X22289172Y-43060602D01*
X22143501Y-43000264D01*
X22143489Y-43000261D01*
X21988845Y-42969500D01*
X21988842Y-42969500D01*
X21831158Y-42969500D01*
X21831155Y-42969500D01*
X21676510Y-43000261D01*
X21676498Y-43000264D01*
X21530827Y-43060602D01*
X21530814Y-43060609D01*
X21399711Y-43148210D01*
X21399707Y-43148213D01*
X21288213Y-43259707D01*
X21288210Y-43259711D01*
X21200609Y-43390814D01*
X21200602Y-43390827D01*
X21140264Y-43536498D01*
X21140261Y-43536510D01*
X21109500Y-43691153D01*
X20500500Y-43691153D01*
X20500500Y-42721153D01*
X24399500Y-42721153D01*
X24399500Y-42878846D01*
X24430261Y-43033489D01*
X24430264Y-43033501D01*
X24490602Y-43179172D01*
X24490609Y-43179185D01*
X24578210Y-43310288D01*
X24578213Y-43310292D01*
X24689707Y-43421786D01*
X24689711Y-43421789D01*
X24820814Y-43509390D01*
X24820827Y-43509397D01*
X24886256Y-43536498D01*
X24966503Y-43569737D01*
X25050379Y-43586421D01*
X25121153Y-43600499D01*
X25121156Y-43600500D01*
X25121158Y-43600500D01*
X25278844Y-43600500D01*
X25278845Y-43600499D01*
X25433497Y-43569737D01*
X25579179Y-43509394D01*
X25710289Y-43421789D01*
X25821789Y-43310289D01*
X25909394Y-43179179D01*
X25969737Y-43033497D01*
X26000500Y-42878842D01*
X26000500Y-42721158D01*
X26000500Y-42721155D01*
X26000499Y-42721153D01*
X25969737Y-42566503D01*
X25930172Y-42470986D01*
X25927901Y-42449861D01*
X25920893Y-42429807D01*
X25924241Y-42415819D01*
X25922704Y-42401517D01*
X25932215Y-42382516D01*
X25937161Y-42361858D01*
X25947539Y-42351901D01*
X25953979Y-42339038D01*
X25972250Y-42328197D01*
X25987582Y-42313490D01*
X26006494Y-42307879D01*
X26014068Y-42303386D01*
X26020900Y-42301846D01*
X26027772Y-42300500D01*
X26028842Y-42300500D01*
X26097396Y-42286863D01*
X26097573Y-42286829D01*
X26138514Y-42278684D01*
X26183497Y-42269737D01*
X26329179Y-42209394D01*
X26460289Y-42121789D01*
X26571789Y-42010289D01*
X26659394Y-41879179D01*
X26719737Y-41733497D01*
X26750500Y-41578842D01*
X26750500Y-41421158D01*
X26750500Y-41421155D01*
X26750499Y-41421153D01*
X26745018Y-41393598D01*
X26719737Y-41266503D01*
X26719735Y-41266498D01*
X26659397Y-41120827D01*
X26659390Y-41120814D01*
X26571789Y-40989711D01*
X26571786Y-40989707D01*
X26460292Y-40878213D01*
X26460288Y-40878210D01*
X26329185Y-40790609D01*
X26329172Y-40790602D01*
X26183501Y-40730264D01*
X26183489Y-40730261D01*
X26028845Y-40699500D01*
X26028842Y-40699500D01*
X25871158Y-40699500D01*
X25871155Y-40699500D01*
X25716510Y-40730261D01*
X25716498Y-40730264D01*
X25570827Y-40790602D01*
X25570814Y-40790609D01*
X25439711Y-40878210D01*
X25439707Y-40878213D01*
X25328213Y-40989707D01*
X25328210Y-40989711D01*
X25240609Y-41120814D01*
X25240602Y-41120827D01*
X25180264Y-41266498D01*
X25180261Y-41266510D01*
X25149500Y-41421153D01*
X25149500Y-41578846D01*
X25180261Y-41733489D01*
X25180264Y-41733501D01*
X25219826Y-41829013D01*
X25227295Y-41898482D01*
X25196019Y-41960961D01*
X25135930Y-41996613D01*
X25127102Y-41998165D01*
X25127132Y-41998311D01*
X24966510Y-42030261D01*
X24966498Y-42030264D01*
X24820827Y-42090602D01*
X24820814Y-42090609D01*
X24689711Y-42178210D01*
X24689707Y-42178213D01*
X24578213Y-42289707D01*
X24578210Y-42289711D01*
X24490609Y-42420814D01*
X24490602Y-42420827D01*
X24430264Y-42566498D01*
X24430261Y-42566510D01*
X24399500Y-42721153D01*
X20500500Y-42721153D01*
X20500500Y-40947844D01*
X20920000Y-40947844D01*
X20926401Y-41007372D01*
X20926403Y-41007379D01*
X20976645Y-41142086D01*
X20976649Y-41142093D01*
X21062809Y-41257187D01*
X21062812Y-41257190D01*
X21177906Y-41343350D01*
X21177913Y-41343354D01*
X21312620Y-41393596D01*
X21312627Y-41393598D01*
X21372155Y-41399999D01*
X21372172Y-41400000D01*
X21895000Y-41400000D01*
X22645000Y-41400000D01*
X23167828Y-41400000D01*
X23167844Y-41399999D01*
X23227372Y-41393598D01*
X23227379Y-41393596D01*
X23362086Y-41343354D01*
X23362093Y-41343350D01*
X23477187Y-41257190D01*
X23477190Y-41257187D01*
X23563350Y-41142093D01*
X23563354Y-41142086D01*
X23613596Y-41007379D01*
X23613598Y-41007372D01*
X23619999Y-40947844D01*
X23620000Y-40947827D01*
X23620000Y-40425000D01*
X22645000Y-40425000D01*
X22645000Y-41400000D01*
X21895000Y-41400000D01*
X21895000Y-40425000D01*
X20920000Y-40425000D01*
X20920000Y-40947844D01*
X20500500Y-40947844D01*
X20500500Y-36407702D01*
X20520185Y-36340663D01*
X20572989Y-36294908D01*
X20642147Y-36284964D01*
X20648667Y-36286080D01*
X20705435Y-36297372D01*
X20721157Y-36300500D01*
X20721158Y-36300500D01*
X20878844Y-36300500D01*
X20878845Y-36300499D01*
X21033497Y-36269737D01*
X21179179Y-36209394D01*
X21310289Y-36121789D01*
X21339512Y-36092564D01*
X21400832Y-36059081D01*
X21470524Y-36064065D01*
X21500077Y-36079928D01*
X21562184Y-36125051D01*
X21566498Y-36127249D01*
X21570946Y-36129516D01*
X21621742Y-36177491D01*
X21638536Y-36245312D01*
X21615998Y-36311447D01*
X21570946Y-36350484D01*
X21562182Y-36354949D01*
X21390213Y-36479890D01*
X21239890Y-36630213D01*
X21114951Y-36802179D01*
X21018444Y-36991585D01*
X20952753Y-37193760D01*
X20920167Y-37399500D01*
X20919500Y-37403713D01*
X20919500Y-37616287D01*
X20952754Y-37826243D01*
X20984261Y-37923212D01*
X21018444Y-38028414D01*
X21114951Y-38217820D01*
X21239890Y-38389786D01*
X21353818Y-38503714D01*
X21387303Y-38565037D01*
X21382319Y-38634729D01*
X21340447Y-38690662D01*
X21309471Y-38707577D01*
X21177912Y-38756646D01*
X21177906Y-38756649D01*
X21062812Y-38842809D01*
X21062809Y-38842812D01*
X20976649Y-38957906D01*
X20976645Y-38957913D01*
X20926403Y-39092620D01*
X20926401Y-39092627D01*
X20920000Y-39152155D01*
X20920000Y-39675000D01*
X21937894Y-39675000D01*
X21869901Y-39742993D01*
X21804075Y-39857007D01*
X21770000Y-39984174D01*
X21770000Y-40115826D01*
X21804075Y-40242993D01*
X21869901Y-40357007D01*
X21962993Y-40450099D01*
X22077007Y-40515925D01*
X22204174Y-40550000D01*
X22335826Y-40550000D01*
X22462993Y-40515925D01*
X22577007Y-40450099D01*
X22670099Y-40357007D01*
X22735925Y-40242993D01*
X22770000Y-40115826D01*
X22770000Y-39984174D01*
X22735925Y-39857007D01*
X22670099Y-39742993D01*
X22602106Y-39675000D01*
X23620000Y-39675000D01*
X23620000Y-39152172D01*
X23619999Y-39152155D01*
X23613598Y-39092627D01*
X23613596Y-39092620D01*
X23563354Y-38957913D01*
X23563350Y-38957906D01*
X23477190Y-38842812D01*
X23477187Y-38842809D01*
X23362093Y-38756649D01*
X23362088Y-38756646D01*
X23230528Y-38707577D01*
X23174595Y-38665705D01*
X23150178Y-38600241D01*
X23165030Y-38531968D01*
X23186175Y-38503720D01*
X23300104Y-38389792D01*
X23425051Y-38217816D01*
X23521557Y-38028412D01*
X23587246Y-37826243D01*
X23620500Y-37616287D01*
X23620500Y-37403713D01*
X23587246Y-37193757D01*
X23521557Y-36991588D01*
X23425051Y-36802184D01*
X23425049Y-36802181D01*
X23425048Y-36802179D01*
X23300109Y-36630213D01*
X23149786Y-36479890D01*
X22977820Y-36354951D01*
X22977115Y-36354591D01*
X22969054Y-36350485D01*
X22918259Y-36302512D01*
X22901463Y-36234692D01*
X22923999Y-36168556D01*
X22969054Y-36129515D01*
X22977816Y-36125051D01*
X23068617Y-36059081D01*
X23149786Y-36000109D01*
X23149788Y-36000106D01*
X23149792Y-36000104D01*
X23300104Y-35849792D01*
X23300106Y-35849788D01*
X23300109Y-35849786D01*
X23425048Y-35677820D01*
X23425047Y-35677820D01*
X23425051Y-35677816D01*
X23521557Y-35488412D01*
X23587246Y-35286243D01*
X23620500Y-35076287D01*
X23620500Y-34863713D01*
X23587246Y-34653757D01*
X23521557Y-34451588D01*
X23425051Y-34262184D01*
X23425049Y-34262181D01*
X23425048Y-34262179D01*
X23300109Y-34090213D01*
X23149786Y-33939890D01*
X22977820Y-33814951D01*
X22977115Y-33814591D01*
X22969054Y-33810485D01*
X22918259Y-33762512D01*
X22901463Y-33694692D01*
X22923999Y-33628556D01*
X22969054Y-33589515D01*
X22977816Y-33585051D01*
X23045177Y-33536111D01*
X23149786Y-33460109D01*
X23149788Y-33460106D01*
X23149792Y-33460104D01*
X23188743Y-33421153D01*
X23699500Y-33421153D01*
X23699500Y-33578846D01*
X23730261Y-33733489D01*
X23730264Y-33733501D01*
X23790602Y-33879172D01*
X23790609Y-33879185D01*
X23878210Y-34010288D01*
X23878213Y-34010292D01*
X23989707Y-34121786D01*
X23989711Y-34121789D01*
X24120814Y-34209390D01*
X24120827Y-34209397D01*
X24248256Y-34262179D01*
X24266503Y-34269737D01*
X24421153Y-34300499D01*
X24421156Y-34300500D01*
X24421158Y-34300500D01*
X24578844Y-34300500D01*
X24578845Y-34300499D01*
X24733497Y-34269737D01*
X24777991Y-34251306D01*
X24847459Y-34243838D01*
X24909939Y-34275113D01*
X24945591Y-34335202D01*
X24949443Y-34365868D01*
X24949443Y-34465340D01*
X24980204Y-34619983D01*
X24980207Y-34619995D01*
X25040545Y-34765666D01*
X25040552Y-34765679D01*
X25128153Y-34896782D01*
X25128156Y-34896786D01*
X25239650Y-35008280D01*
X25239654Y-35008283D01*
X25370757Y-35095884D01*
X25370770Y-35095891D01*
X25516441Y-35156229D01*
X25516446Y-35156231D01*
X25671096Y-35186993D01*
X25671099Y-35186994D01*
X25671101Y-35186994D01*
X25828787Y-35186994D01*
X25828788Y-35186993D01*
X25983440Y-35156231D01*
X26129122Y-35095888D01*
X26260232Y-35008283D01*
X26371732Y-34896783D01*
X26393829Y-34863713D01*
X33619500Y-34863713D01*
X33619500Y-35076286D01*
X33652753Y-35286239D01*
X33718444Y-35488414D01*
X33814951Y-35677820D01*
X33939890Y-35849786D01*
X34090213Y-36000109D01*
X34262182Y-36125050D01*
X34270946Y-36129516D01*
X34321742Y-36177491D01*
X34338536Y-36245312D01*
X34315998Y-36311447D01*
X34270946Y-36350484D01*
X34262182Y-36354949D01*
X34090213Y-36479890D01*
X33939890Y-36630213D01*
X33814951Y-36802179D01*
X33718444Y-36991585D01*
X33652753Y-37193760D01*
X33620167Y-37399500D01*
X33619500Y-37403713D01*
X33619500Y-37616287D01*
X33652754Y-37826243D01*
X33684261Y-37923212D01*
X33718444Y-38028414D01*
X33814951Y-38217820D01*
X33939890Y-38389786D01*
X34090213Y-38540109D01*
X34262179Y-38665048D01*
X34262181Y-38665049D01*
X34262184Y-38665051D01*
X34451588Y-38761557D01*
X34653757Y-38827246D01*
X34863713Y-38860500D01*
X34863714Y-38860500D01*
X35076286Y-38860500D01*
X35076287Y-38860500D01*
X35286243Y-38827246D01*
X35488412Y-38761557D01*
X35677816Y-38665051D01*
X35767020Y-38600241D01*
X35849786Y-38540109D01*
X35849788Y-38540106D01*
X35849792Y-38540104D01*
X35976507Y-38413389D01*
X41174500Y-38413389D01*
X41174500Y-38586611D01*
X41201598Y-38757701D01*
X41255127Y-38922445D01*
X41333768Y-39076788D01*
X41435586Y-39216928D01*
X41558072Y-39339414D01*
X41641449Y-39399991D01*
X41684114Y-39455322D01*
X41690093Y-39524935D01*
X41657487Y-39586730D01*
X41641448Y-39600627D01*
X41558404Y-39660961D01*
X41558399Y-39660965D01*
X41435967Y-39783397D01*
X41334195Y-39923475D01*
X41255589Y-40077746D01*
X41255587Y-40077752D01*
X41240236Y-40124999D01*
X41240237Y-40125000D01*
X42500630Y-40125000D01*
X42405255Y-40150556D01*
X42319745Y-40199925D01*
X42249925Y-40269745D01*
X42200556Y-40355255D01*
X42175000Y-40450630D01*
X42175000Y-40549370D01*
X42200556Y-40644745D01*
X42249925Y-40730255D01*
X42319745Y-40800075D01*
X42405255Y-40849444D01*
X42500630Y-40875000D01*
X41240236Y-40875000D01*
X41255587Y-40922247D01*
X41255589Y-40922253D01*
X41334195Y-41076524D01*
X41435967Y-41216602D01*
X41558401Y-41339036D01*
X41641447Y-41399371D01*
X41684114Y-41454701D01*
X41690093Y-41524314D01*
X41657488Y-41586109D01*
X41641450Y-41600007D01*
X41558072Y-41660585D01*
X41435588Y-41783069D01*
X41435588Y-41783070D01*
X41435586Y-41783072D01*
X41402208Y-41829013D01*
X41333768Y-41923211D01*
X41255128Y-42077552D01*
X41201597Y-42242302D01*
X41174500Y-42413389D01*
X41174500Y-42586610D01*
X41195809Y-42721155D01*
X41201598Y-42757701D01*
X41240959Y-42878842D01*
X41255128Y-42922447D01*
X41294776Y-43000261D01*
X41333768Y-43076788D01*
X41435586Y-43216928D01*
X41558072Y-43339414D01*
X41558078Y-43339418D01*
X41641023Y-43399683D01*
X41683689Y-43455013D01*
X41689667Y-43524626D01*
X41657061Y-43586421D01*
X41641023Y-43600317D01*
X41558078Y-43660581D01*
X41558069Y-43660588D01*
X41435588Y-43783069D01*
X41435588Y-43783070D01*
X41435586Y-43783072D01*
X41391859Y-43843256D01*
X41333768Y-43923211D01*
X41255128Y-44077552D01*
X41201597Y-44242302D01*
X41195581Y-44280288D01*
X41174500Y-44413389D01*
X41174500Y-44586611D01*
X41201598Y-44757701D01*
X41255127Y-44922445D01*
X41333768Y-45076788D01*
X41435586Y-45216928D01*
X41558072Y-45339414D01*
X41558078Y-45339418D01*
X41641023Y-45399683D01*
X41683689Y-45455013D01*
X41689667Y-45524626D01*
X41657061Y-45586421D01*
X41641023Y-45600317D01*
X41558078Y-45660581D01*
X41558069Y-45660588D01*
X41435588Y-45783069D01*
X41435588Y-45783070D01*
X41435586Y-45783072D01*
X41391859Y-45843256D01*
X41333768Y-45923211D01*
X41255128Y-46077552D01*
X41255127Y-46077554D01*
X41255127Y-46077555D01*
X41234798Y-46140122D01*
X41201597Y-46242302D01*
X41174500Y-46413389D01*
X41174500Y-46586610D01*
X41200424Y-46750292D01*
X41201598Y-46757701D01*
X41250699Y-46908818D01*
X41255128Y-46922447D01*
X41323565Y-47056764D01*
X41333768Y-47076788D01*
X41435586Y-47216928D01*
X41435588Y-47216930D01*
X41543127Y-47324469D01*
X41576612Y-47385792D01*
X41571628Y-47455484D01*
X41529756Y-47511417D01*
X41520544Y-47517688D01*
X41456344Y-47557287D01*
X41332289Y-47681342D01*
X41240187Y-47830663D01*
X41240186Y-47830666D01*
X41185001Y-47997203D01*
X41185001Y-47997204D01*
X41185000Y-47997204D01*
X41174500Y-48099983D01*
X41174500Y-48900001D01*
X41174501Y-48900019D01*
X41185000Y-49002796D01*
X41185001Y-49002799D01*
X41226880Y-49129179D01*
X41240186Y-49169334D01*
X41332288Y-49318656D01*
X41456344Y-49442712D01*
X41605666Y-49534814D01*
X41772203Y-49589999D01*
X41874991Y-49600500D01*
X43225008Y-49600499D01*
X43327797Y-49589999D01*
X43494334Y-49534814D01*
X43643656Y-49442712D01*
X43767712Y-49318656D01*
X43859814Y-49169334D01*
X43914999Y-49002797D01*
X43925500Y-48900009D01*
X43925499Y-48099992D01*
X43914999Y-47997203D01*
X43859814Y-47830666D01*
X43767712Y-47681344D01*
X43643656Y-47557288D01*
X43643652Y-47557285D01*
X43579456Y-47517688D01*
X43532731Y-47465740D01*
X43521510Y-47396777D01*
X43549353Y-47332695D01*
X43556850Y-47324491D01*
X43664414Y-47216928D01*
X43766232Y-47076788D01*
X43844873Y-46922445D01*
X43898402Y-46757701D01*
X43925500Y-46586611D01*
X43925500Y-46413389D01*
X43898402Y-46242299D01*
X43844873Y-46077555D01*
X43766232Y-45923212D01*
X43664414Y-45783072D01*
X43541928Y-45660586D01*
X43458975Y-45600317D01*
X43416311Y-45544988D01*
X43410332Y-45475374D01*
X43442938Y-45413579D01*
X43458976Y-45399682D01*
X43541928Y-45339414D01*
X43664414Y-45216928D01*
X43766232Y-45076788D01*
X43844873Y-44922445D01*
X43898402Y-44757701D01*
X43925500Y-44586611D01*
X43925500Y-44413389D01*
X43898402Y-44242299D01*
X43844873Y-44077555D01*
X43766232Y-43923212D01*
X43664414Y-43783072D01*
X43541928Y-43660586D01*
X43458975Y-43600317D01*
X43416311Y-43544988D01*
X43410332Y-43475374D01*
X43442938Y-43413579D01*
X43458976Y-43399682D01*
X43541928Y-43339414D01*
X43664414Y-43216928D01*
X43766232Y-43076788D01*
X43844873Y-42922445D01*
X43898402Y-42757701D01*
X43925500Y-42586611D01*
X43925500Y-42413389D01*
X43898402Y-42242299D01*
X43844873Y-42077555D01*
X43766232Y-41923212D01*
X43664414Y-41783072D01*
X43541928Y-41660586D01*
X43458550Y-41600008D01*
X43415885Y-41544677D01*
X43409906Y-41475064D01*
X43442512Y-41413269D01*
X43458552Y-41399371D01*
X43541598Y-41339036D01*
X43664032Y-41216602D01*
X43765804Y-41076524D01*
X43844410Y-40922253D01*
X43844412Y-40922247D01*
X43859763Y-40875000D01*
X42599370Y-40875000D01*
X42694745Y-40849444D01*
X42780255Y-40800075D01*
X42850075Y-40730255D01*
X42899444Y-40644745D01*
X42925000Y-40549370D01*
X42925000Y-40450630D01*
X42899444Y-40355255D01*
X42850075Y-40269745D01*
X42780255Y-40199925D01*
X42694745Y-40150556D01*
X42599370Y-40125000D01*
X43859763Y-40125000D01*
X43859763Y-40124999D01*
X43844412Y-40077752D01*
X43844410Y-40077746D01*
X43765804Y-39923475D01*
X43664032Y-39783397D01*
X43541602Y-39660967D01*
X43458551Y-39600628D01*
X43415885Y-39545298D01*
X43409906Y-39475685D01*
X43442511Y-39413889D01*
X43458551Y-39399991D01*
X43541928Y-39339414D01*
X43664414Y-39216928D01*
X43766232Y-39076788D01*
X43844873Y-38922445D01*
X43898402Y-38757701D01*
X43925500Y-38586611D01*
X43925500Y-38413389D01*
X43898402Y-38242299D01*
X43844873Y-38077555D01*
X43766232Y-37923212D01*
X43664414Y-37783072D01*
X43541928Y-37660586D01*
X43401788Y-37558768D01*
X43247445Y-37480127D01*
X43082701Y-37426598D01*
X43082699Y-37426597D01*
X43082698Y-37426597D01*
X42951271Y-37405781D01*
X42911611Y-37399500D01*
X42188389Y-37399500D01*
X42148728Y-37405781D01*
X42017302Y-37426597D01*
X41852552Y-37480128D01*
X41698211Y-37558768D01*
X41619046Y-37616286D01*
X41558072Y-37660586D01*
X41558070Y-37660588D01*
X41558069Y-37660588D01*
X41435588Y-37783069D01*
X41435588Y-37783070D01*
X41435586Y-37783072D01*
X41404223Y-37826239D01*
X41333768Y-37923211D01*
X41255128Y-38077552D01*
X41201597Y-38242302D01*
X41178239Y-38389784D01*
X41174500Y-38413389D01*
X35976507Y-38413389D01*
X36000104Y-38389792D01*
X36125051Y-38217816D01*
X36221557Y-38028412D01*
X36287246Y-37826243D01*
X36320500Y-37616287D01*
X36320500Y-37403713D01*
X36287246Y-37193757D01*
X36221557Y-36991588D01*
X36125051Y-36802184D01*
X36125049Y-36802181D01*
X36125048Y-36802179D01*
X36000109Y-36630213D01*
X35849786Y-36479890D01*
X35677820Y-36354951D01*
X35677115Y-36354591D01*
X35669054Y-36350485D01*
X35618259Y-36302512D01*
X35601463Y-36234692D01*
X35623999Y-36168556D01*
X35669054Y-36129515D01*
X35677816Y-36125051D01*
X35768617Y-36059081D01*
X35849786Y-36000109D01*
X35849788Y-36000106D01*
X35849792Y-36000104D01*
X36000104Y-35849792D01*
X36000106Y-35849788D01*
X36000109Y-35849786D01*
X36125048Y-35677820D01*
X36125047Y-35677820D01*
X36125051Y-35677816D01*
X36221557Y-35488412D01*
X36287246Y-35286243D01*
X36320500Y-35076287D01*
X36320500Y-34863713D01*
X36287246Y-34653757D01*
X36221557Y-34451588D01*
X36125051Y-34262184D01*
X36125049Y-34262181D01*
X36125048Y-34262179D01*
X36000109Y-34090213D01*
X35849786Y-33939890D01*
X35677820Y-33814951D01*
X35488414Y-33718444D01*
X35488413Y-33718443D01*
X35488412Y-33718443D01*
X35286243Y-33652754D01*
X35286241Y-33652753D01*
X35286240Y-33652753D01*
X35124957Y-33627208D01*
X35076287Y-33619500D01*
X34863713Y-33619500D01*
X34815042Y-33627208D01*
X34653760Y-33652753D01*
X34451585Y-33718444D01*
X34262179Y-33814951D01*
X34090213Y-33939890D01*
X33939890Y-34090213D01*
X33814951Y-34262179D01*
X33718444Y-34451585D01*
X33652753Y-34653760D01*
X33619500Y-34863713D01*
X26393829Y-34863713D01*
X26459337Y-34765673D01*
X26519680Y-34619991D01*
X26550443Y-34465336D01*
X26550443Y-34307652D01*
X26550443Y-34307649D01*
X26550442Y-34307647D01*
X26524288Y-34176160D01*
X26530515Y-34106569D01*
X26573378Y-34051391D01*
X26639268Y-34028147D01*
X26670097Y-34030352D01*
X26802484Y-34056686D01*
X26802487Y-34056686D01*
X26960173Y-34056686D01*
X26960174Y-34056685D01*
X27114826Y-34025923D01*
X27260508Y-33965580D01*
X27391618Y-33877975D01*
X27503118Y-33766475D01*
X27590723Y-33635365D01*
X27597295Y-33619500D01*
X27631835Y-33536111D01*
X27651066Y-33489683D01*
X27681829Y-33335028D01*
X27681829Y-33177344D01*
X27681829Y-33177341D01*
X27681828Y-33177339D01*
X27651067Y-33022696D01*
X27651066Y-33022689D01*
X27620300Y-32948412D01*
X27590726Y-32877013D01*
X27590719Y-32877000D01*
X27503118Y-32745897D01*
X27503115Y-32745893D01*
X27391621Y-32634399D01*
X27391617Y-32634396D01*
X27260514Y-32546795D01*
X27260501Y-32546788D01*
X27219069Y-32529627D01*
X27114830Y-32486450D01*
X27114818Y-32486447D01*
X26960174Y-32455686D01*
X26960171Y-32455686D01*
X26802487Y-32455686D01*
X26802484Y-32455686D01*
X26647839Y-32486447D01*
X26647827Y-32486450D01*
X26502156Y-32546788D01*
X26502143Y-32546795D01*
X26371040Y-32634396D01*
X26371036Y-32634399D01*
X26259542Y-32745893D01*
X26259539Y-32745897D01*
X26171938Y-32877000D01*
X26171931Y-32877013D01*
X26111593Y-33022684D01*
X26111590Y-33022696D01*
X26080829Y-33177339D01*
X26080829Y-33335032D01*
X26106983Y-33466519D01*
X26100756Y-33536111D01*
X26057892Y-33591288D01*
X25992003Y-33614532D01*
X25961175Y-33612327D01*
X25828789Y-33585994D01*
X25828785Y-33585994D01*
X25671101Y-33585994D01*
X25671098Y-33585994D01*
X25516453Y-33616755D01*
X25516446Y-33616757D01*
X25471951Y-33635187D01*
X25402482Y-33642654D01*
X25340003Y-33611379D01*
X25304351Y-33551289D01*
X25300500Y-33520625D01*
X25300500Y-33421155D01*
X25300499Y-33421153D01*
X25283368Y-33335030D01*
X25269737Y-33266503D01*
X25246080Y-33209390D01*
X25209397Y-33120827D01*
X25209390Y-33120814D01*
X25121789Y-32989711D01*
X25121786Y-32989707D01*
X25010292Y-32878213D01*
X25010288Y-32878210D01*
X24879185Y-32790609D01*
X24879172Y-32790602D01*
X24733501Y-32730264D01*
X24733489Y-32730261D01*
X24578845Y-32699500D01*
X24578842Y-32699500D01*
X24421158Y-32699500D01*
X24421155Y-32699500D01*
X24266510Y-32730261D01*
X24266498Y-32730264D01*
X24120827Y-32790602D01*
X24120814Y-32790609D01*
X23989711Y-32878210D01*
X23989707Y-32878213D01*
X23878213Y-32989707D01*
X23878210Y-32989711D01*
X23790609Y-33120814D01*
X23790602Y-33120827D01*
X23730264Y-33266498D01*
X23730261Y-33266510D01*
X23699500Y-33421153D01*
X23188743Y-33421153D01*
X23300104Y-33309792D01*
X23300106Y-33309788D01*
X23300109Y-33309786D01*
X23425048Y-33137820D01*
X23425047Y-33137820D01*
X23425051Y-33137816D01*
X23521557Y-32948412D01*
X23587246Y-32746243D01*
X23620500Y-32536287D01*
X23620500Y-32421153D01*
X30949500Y-32421153D01*
X30949500Y-32578846D01*
X30980261Y-32733489D01*
X30980264Y-32733501D01*
X31040602Y-32879172D01*
X31040609Y-32879185D01*
X31128210Y-33010288D01*
X31128213Y-33010292D01*
X31239707Y-33121786D01*
X31239711Y-33121789D01*
X31370814Y-33209390D01*
X31370827Y-33209397D01*
X31508683Y-33266498D01*
X31516503Y-33269737D01*
X31671153Y-33300499D01*
X31671156Y-33300500D01*
X31671158Y-33300500D01*
X31828844Y-33300500D01*
X31828845Y-33300499D01*
X31983497Y-33269737D01*
X32129179Y-33209394D01*
X32260289Y-33121789D01*
X32371789Y-33010289D01*
X32459394Y-32879179D01*
X32519737Y-32733497D01*
X32550500Y-32578842D01*
X32550500Y-32421158D01*
X32550500Y-32421155D01*
X32550499Y-32421153D01*
X32519738Y-32266510D01*
X32519737Y-32266503D01*
X32519735Y-32266498D01*
X32459397Y-32120827D01*
X32459390Y-32120814D01*
X32371789Y-31989711D01*
X32371786Y-31989707D01*
X32260292Y-31878213D01*
X32260288Y-31878210D01*
X32129185Y-31790609D01*
X32129172Y-31790602D01*
X31983501Y-31730264D01*
X31983489Y-31730261D01*
X31828845Y-31699500D01*
X31828842Y-31699500D01*
X31671158Y-31699500D01*
X31671155Y-31699500D01*
X31516510Y-31730261D01*
X31516498Y-31730264D01*
X31370827Y-31790602D01*
X31370814Y-31790609D01*
X31239711Y-31878210D01*
X31239707Y-31878213D01*
X31128213Y-31989707D01*
X31128210Y-31989711D01*
X31040609Y-32120814D01*
X31040602Y-32120827D01*
X30980264Y-32266498D01*
X30980261Y-32266510D01*
X30949500Y-32421153D01*
X23620500Y-32421153D01*
X23620500Y-32323713D01*
X23587246Y-32113757D01*
X23521557Y-31911588D01*
X23425051Y-31722184D01*
X23425049Y-31722181D01*
X23425048Y-31722179D01*
X23300109Y-31550213D01*
X23149786Y-31399890D01*
X22977820Y-31274951D01*
X22977115Y-31274591D01*
X22969054Y-31270485D01*
X22918259Y-31222512D01*
X22901463Y-31154692D01*
X22923999Y-31088556D01*
X22969054Y-31049515D01*
X22977816Y-31045051D01*
X22999789Y-31029086D01*
X23149786Y-30920109D01*
X23149788Y-30920106D01*
X23149792Y-30920104D01*
X23300104Y-30769792D01*
X23300106Y-30769788D01*
X23300109Y-30769786D01*
X23425048Y-30597820D01*
X23425047Y-30597820D01*
X23425051Y-30597816D01*
X23521557Y-30408412D01*
X23587246Y-30206243D01*
X23620500Y-29996287D01*
X23620500Y-29783713D01*
X23587246Y-29573757D01*
X23521557Y-29371588D01*
X23425051Y-29182184D01*
X23378545Y-29118174D01*
X23312507Y-29027279D01*
X23312506Y-29027278D01*
X23300105Y-29010209D01*
X23250377Y-28960481D01*
X24291677Y-28960481D01*
X24291677Y-29118174D01*
X24322438Y-29272817D01*
X24322441Y-29272829D01*
X24382779Y-29418500D01*
X24382786Y-29418513D01*
X24470387Y-29549616D01*
X24470390Y-29549620D01*
X24581884Y-29661114D01*
X24581888Y-29661117D01*
X24712991Y-29748718D01*
X24713004Y-29748725D01*
X24838002Y-29800500D01*
X24858680Y-29809065D01*
X25011239Y-29839411D01*
X25013330Y-29839827D01*
X25013333Y-29839828D01*
X25013335Y-29839828D01*
X25171021Y-29839828D01*
X25171022Y-29839827D01*
X25325674Y-29809065D01*
X25471356Y-29748722D01*
X25602466Y-29661117D01*
X25713966Y-29549617D01*
X25756125Y-29486520D01*
X25809736Y-29441717D01*
X25879061Y-29433009D01*
X25942089Y-29463163D01*
X25962329Y-29486520D01*
X25978213Y-29510292D01*
X26089707Y-29621786D01*
X26089711Y-29621789D01*
X26220814Y-29709390D01*
X26220827Y-29709397D01*
X26315775Y-29748725D01*
X26366503Y-29769737D01*
X26521153Y-29800499D01*
X26521156Y-29800500D01*
X26521158Y-29800500D01*
X26678844Y-29800500D01*
X26678845Y-29800499D01*
X26833497Y-29769737D01*
X26979179Y-29709394D01*
X27110289Y-29621789D01*
X27221789Y-29510289D01*
X27309394Y-29379179D01*
X27369737Y-29233497D01*
X27400500Y-29078842D01*
X27400500Y-28921158D01*
X27400500Y-28921155D01*
X27400499Y-28921153D01*
X27369738Y-28766510D01*
X27369737Y-28766503D01*
X27359713Y-28742302D01*
X27309397Y-28620827D01*
X27309390Y-28620814D01*
X27221789Y-28489711D01*
X27221786Y-28489707D01*
X27110292Y-28378213D01*
X27110288Y-28378210D01*
X26979185Y-28290609D01*
X26979172Y-28290602D01*
X26833501Y-28230264D01*
X26833489Y-28230261D01*
X26678845Y-28199500D01*
X26678842Y-28199500D01*
X26521158Y-28199500D01*
X26521155Y-28199500D01*
X26366510Y-28230261D01*
X26366498Y-28230264D01*
X26220827Y-28290602D01*
X26220814Y-28290609D01*
X26089711Y-28378210D01*
X26089707Y-28378213D01*
X25978213Y-28489707D01*
X25936051Y-28552807D01*
X25882438Y-28597611D01*
X25813113Y-28606318D01*
X25750086Y-28576163D01*
X25729847Y-28552806D01*
X25713966Y-28529039D01*
X25713963Y-28529035D01*
X25602469Y-28417541D01*
X25602465Y-28417538D01*
X25471362Y-28329937D01*
X25471349Y-28329930D01*
X25325678Y-28269592D01*
X25325666Y-28269589D01*
X25171022Y-28238828D01*
X25171019Y-28238828D01*
X25013335Y-28238828D01*
X25013332Y-28238828D01*
X24858687Y-28269589D01*
X24858675Y-28269592D01*
X24713004Y-28329930D01*
X24712991Y-28329937D01*
X24581888Y-28417538D01*
X24581884Y-28417541D01*
X24470390Y-28529035D01*
X24470387Y-28529039D01*
X24382786Y-28660142D01*
X24382779Y-28660155D01*
X24322441Y-28805826D01*
X24322438Y-28805838D01*
X24291677Y-28960481D01*
X23250377Y-28960481D01*
X23149786Y-28859890D01*
X22977820Y-28734951D01*
X22977115Y-28734591D01*
X22969054Y-28730485D01*
X22918259Y-28682512D01*
X22901463Y-28614692D01*
X22923999Y-28548556D01*
X22969054Y-28509515D01*
X22977816Y-28505051D01*
X23090460Y-28423211D01*
X23149786Y-28380109D01*
X23149788Y-28380106D01*
X23149792Y-28380104D01*
X23300104Y-28229792D01*
X23300106Y-28229788D01*
X23300109Y-28229786D01*
X23425048Y-28057820D01*
X23425047Y-28057820D01*
X23425051Y-28057816D01*
X23521557Y-27868412D01*
X23587246Y-27666243D01*
X23620500Y-27456287D01*
X23620500Y-27243713D01*
X23587246Y-27033757D01*
X23521557Y-26831588D01*
X23425051Y-26642184D01*
X23425049Y-26642181D01*
X23425048Y-26642179D01*
X23300109Y-26470213D01*
X23149786Y-26319890D01*
X22977820Y-26194951D01*
X22977115Y-26194591D01*
X22969054Y-26190485D01*
X22964034Y-26185743D01*
X22957424Y-26183741D01*
X22938961Y-26162064D01*
X22918259Y-26142512D01*
X22916598Y-26135807D01*
X22912120Y-26130549D01*
X22908307Y-26102330D01*
X22901463Y-26074692D01*
X22903690Y-26068154D01*
X22902766Y-26061309D01*
X22902839Y-26061153D01*
X26839500Y-26061153D01*
X26839500Y-26218846D01*
X26870261Y-26373489D01*
X26870264Y-26373501D01*
X26930602Y-26519172D01*
X26930609Y-26519185D01*
X27018210Y-26650288D01*
X27018213Y-26650292D01*
X27129707Y-26761786D01*
X27129711Y-26761789D01*
X27260814Y-26849390D01*
X27260827Y-26849397D01*
X27406498Y-26909735D01*
X27406503Y-26909737D01*
X27561153Y-26940499D01*
X27561156Y-26940500D01*
X27561158Y-26940500D01*
X27718844Y-26940500D01*
X27718845Y-26940499D01*
X27873497Y-26909737D01*
X28019179Y-26849394D01*
X28150289Y-26761789D01*
X28261789Y-26650289D01*
X28349394Y-26519179D01*
X28409737Y-26373497D01*
X28440500Y-26218842D01*
X28440500Y-26061158D01*
X28440500Y-26061155D01*
X28440499Y-26061153D01*
X28431825Y-26017546D01*
X28409737Y-25906503D01*
X28382234Y-25840104D01*
X28349397Y-25760827D01*
X28349390Y-25760814D01*
X28261789Y-25629711D01*
X28261786Y-25629707D01*
X28150292Y-25518213D01*
X28150288Y-25518210D01*
X28019185Y-25430609D01*
X28019172Y-25430602D01*
X27873501Y-25370264D01*
X27873489Y-25370261D01*
X27718845Y-25339500D01*
X27718842Y-25339500D01*
X27561158Y-25339500D01*
X27561155Y-25339500D01*
X27406510Y-25370261D01*
X27406498Y-25370264D01*
X27260827Y-25430602D01*
X27260814Y-25430609D01*
X27129711Y-25518210D01*
X27129707Y-25518213D01*
X27018213Y-25629707D01*
X27018210Y-25629711D01*
X26930609Y-25760814D01*
X26930602Y-25760827D01*
X26870264Y-25906498D01*
X26870261Y-25906510D01*
X26839500Y-26061153D01*
X22902839Y-26061153D01*
X22914814Y-26035510D01*
X22923999Y-26008556D01*
X22930115Y-26002745D01*
X22932331Y-25998002D01*
X22947481Y-25986249D01*
X22959200Y-25975118D01*
X22963999Y-25972090D01*
X22977816Y-25965051D01*
X22995291Y-25952355D01*
X23149786Y-25840109D01*
X23149788Y-25840106D01*
X23149792Y-25840104D01*
X23300104Y-25689792D01*
X23300106Y-25689788D01*
X23300109Y-25689786D01*
X23409086Y-25539789D01*
X23425051Y-25517816D01*
X23521557Y-25328412D01*
X23587246Y-25126243D01*
X23620500Y-24916287D01*
X23620500Y-24703713D01*
X23587246Y-24493757D01*
X23521557Y-24291588D01*
X23425051Y-24102184D01*
X23425049Y-24102181D01*
X23425048Y-24102179D01*
X23300109Y-23930213D01*
X23149786Y-23779890D01*
X22977820Y-23654951D01*
X22977115Y-23654591D01*
X22969054Y-23650485D01*
X22918259Y-23602512D01*
X22901463Y-23534692D01*
X22923999Y-23468556D01*
X22969054Y-23429515D01*
X22977816Y-23425051D01*
X23110235Y-23328844D01*
X23149786Y-23300109D01*
X23149788Y-23300106D01*
X23149792Y-23300104D01*
X23213886Y-23236010D01*
X24704661Y-23236010D01*
X24704661Y-23393703D01*
X24735422Y-23548346D01*
X24735425Y-23548358D01*
X24795763Y-23694029D01*
X24795770Y-23694042D01*
X24883371Y-23825145D01*
X24883374Y-23825149D01*
X24994868Y-23936643D01*
X24994872Y-23936646D01*
X25125975Y-24024247D01*
X25125988Y-24024254D01*
X25244644Y-24073402D01*
X25271664Y-24084594D01*
X25426314Y-24115356D01*
X25426317Y-24115357D01*
X25426319Y-24115357D01*
X25584005Y-24115357D01*
X25584006Y-24115356D01*
X25738658Y-24084594D01*
X25884340Y-24024251D01*
X26015450Y-23936646D01*
X26126950Y-23825146D01*
X26214555Y-23694036D01*
X26274898Y-23548354D01*
X26305661Y-23393699D01*
X26305661Y-23236015D01*
X26305661Y-23236012D01*
X26305660Y-23236010D01*
X26296361Y-23189259D01*
X26292759Y-23171153D01*
X28949500Y-23171153D01*
X28949500Y-23328846D01*
X28980261Y-23483489D01*
X28980264Y-23483501D01*
X29040602Y-23629172D01*
X29040609Y-23629185D01*
X29128210Y-23760288D01*
X29128213Y-23760292D01*
X29239707Y-23871786D01*
X29239711Y-23871789D01*
X29370814Y-23959390D01*
X29370827Y-23959397D01*
X29516498Y-24019735D01*
X29516503Y-24019737D01*
X29645006Y-24045298D01*
X29671153Y-24050499D01*
X29671156Y-24050500D01*
X29671158Y-24050500D01*
X29828844Y-24050500D01*
X29828845Y-24050499D01*
X29983497Y-24019737D01*
X30129179Y-23959394D01*
X30199907Y-23912135D01*
X33619500Y-23912135D01*
X33619500Y-25707870D01*
X33619501Y-25707876D01*
X33625908Y-25767483D01*
X33676202Y-25902328D01*
X33676206Y-25902335D01*
X33762452Y-26017544D01*
X33762455Y-26017547D01*
X33877664Y-26103793D01*
X33877671Y-26103797D01*
X34009082Y-26152810D01*
X34065016Y-26194681D01*
X34089433Y-26260145D01*
X34074582Y-26328418D01*
X34053431Y-26356673D01*
X33939889Y-26470215D01*
X33814951Y-26642179D01*
X33718444Y-26831585D01*
X33652753Y-27033760D01*
X33619500Y-27243713D01*
X33619500Y-27456286D01*
X33638585Y-27576788D01*
X33652754Y-27666243D01*
X33709022Y-27839418D01*
X33718444Y-27868414D01*
X33814951Y-28057820D01*
X33939890Y-28229786D01*
X34090213Y-28380109D01*
X34262182Y-28505050D01*
X34270946Y-28509516D01*
X34321742Y-28557491D01*
X34338536Y-28625312D01*
X34315998Y-28691447D01*
X34270946Y-28730484D01*
X34262182Y-28734949D01*
X34090213Y-28859890D01*
X33939890Y-29010213D01*
X33814951Y-29182179D01*
X33718444Y-29371585D01*
X33652753Y-29573760D01*
X33630077Y-29716930D01*
X33619500Y-29783713D01*
X33619500Y-29996287D01*
X33627214Y-30044988D01*
X33645522Y-30160586D01*
X33652754Y-30206243D01*
X33677717Y-30283072D01*
X33718444Y-30408414D01*
X33814951Y-30597820D01*
X33939890Y-30769786D01*
X34090213Y-30920109D01*
X34262179Y-31045048D01*
X34262181Y-31045049D01*
X34262184Y-31045051D01*
X34451588Y-31141557D01*
X34653757Y-31207246D01*
X34863713Y-31240500D01*
X34863714Y-31240500D01*
X35076286Y-31240500D01*
X35076287Y-31240500D01*
X35286243Y-31207246D01*
X35488412Y-31141557D01*
X35677816Y-31045051D01*
X35699789Y-31029086D01*
X35849786Y-30920109D01*
X35849788Y-30920106D01*
X35849792Y-30920104D01*
X36000104Y-30769792D01*
X36000106Y-30769788D01*
X36000109Y-30769786D01*
X36125048Y-30597820D01*
X36125047Y-30597820D01*
X36125051Y-30597816D01*
X36221557Y-30408412D01*
X36287246Y-30206243D01*
X36320500Y-29996287D01*
X36320500Y-29783713D01*
X36287246Y-29573757D01*
X36221557Y-29371588D01*
X36125051Y-29182184D01*
X36125049Y-29182181D01*
X36125048Y-29182179D01*
X36000109Y-29010213D01*
X35849786Y-28859890D01*
X35677820Y-28734951D01*
X35677115Y-28734591D01*
X35669054Y-28730485D01*
X35618259Y-28682512D01*
X35601463Y-28614692D01*
X35623999Y-28548556D01*
X35669054Y-28509515D01*
X35677816Y-28505051D01*
X35790460Y-28423211D01*
X35849786Y-28380109D01*
X35849788Y-28380106D01*
X35849792Y-28380104D01*
X36000104Y-28229792D01*
X36000106Y-28229788D01*
X36000109Y-28229786D01*
X36125048Y-28057820D01*
X36125047Y-28057820D01*
X36125051Y-28057816D01*
X36221557Y-27868412D01*
X36287246Y-27666243D01*
X36320500Y-27456287D01*
X36320500Y-27243713D01*
X36287246Y-27033757D01*
X36221557Y-26831588D01*
X36125051Y-26642184D01*
X36125049Y-26642181D01*
X36125048Y-26642179D01*
X36000109Y-26470213D01*
X35886569Y-26356673D01*
X35853084Y-26295350D01*
X35858068Y-26225658D01*
X35899940Y-26169725D01*
X35930915Y-26152810D01*
X36062331Y-26103796D01*
X36177546Y-26017546D01*
X36263796Y-25902331D01*
X36314091Y-25767483D01*
X36320500Y-25707873D01*
X36320499Y-23912128D01*
X36314091Y-23852517D01*
X36309203Y-23839412D01*
X36263797Y-23717671D01*
X36263793Y-23717664D01*
X36177547Y-23602455D01*
X36177544Y-23602452D01*
X36062335Y-23516206D01*
X36062328Y-23516202D01*
X35927482Y-23465908D01*
X35927483Y-23465908D01*
X35867883Y-23459501D01*
X35867881Y-23459500D01*
X35867873Y-23459500D01*
X35867864Y-23459500D01*
X34072129Y-23459500D01*
X34072123Y-23459501D01*
X34012516Y-23465908D01*
X33877671Y-23516202D01*
X33877664Y-23516206D01*
X33762455Y-23602452D01*
X33762452Y-23602455D01*
X33676206Y-23717664D01*
X33676202Y-23717671D01*
X33625908Y-23852517D01*
X33619501Y-23912116D01*
X33619501Y-23912123D01*
X33619500Y-23912135D01*
X30199907Y-23912135D01*
X30260289Y-23871789D01*
X30279562Y-23852516D01*
X30310954Y-23821125D01*
X30371786Y-23760292D01*
X30371789Y-23760289D01*
X30459394Y-23629179D01*
X30519737Y-23483497D01*
X30550500Y-23328842D01*
X30550500Y-23171158D01*
X30550500Y-23171155D01*
X30550499Y-23171153D01*
X30519738Y-23016510D01*
X30519737Y-23016503D01*
X30477026Y-22913389D01*
X41124500Y-22913389D01*
X41124500Y-23086610D01*
X41148162Y-23236012D01*
X41151598Y-23257701D01*
X41205127Y-23422445D01*
X41283768Y-23576788D01*
X41385586Y-23716928D01*
X41508072Y-23839414D01*
X41591449Y-23899991D01*
X41634114Y-23955322D01*
X41640093Y-24024935D01*
X41607487Y-24086730D01*
X41591448Y-24100627D01*
X41508404Y-24160961D01*
X41508399Y-24160965D01*
X41385967Y-24283397D01*
X41284195Y-24423475D01*
X41205589Y-24577746D01*
X41205587Y-24577752D01*
X41190236Y-24624999D01*
X41190237Y-24625000D01*
X42450630Y-24625000D01*
X42355255Y-24650556D01*
X42269745Y-24699925D01*
X42199925Y-24769745D01*
X42150556Y-24855255D01*
X42125000Y-24950630D01*
X42125000Y-25049370D01*
X42150556Y-25144745D01*
X42199925Y-25230255D01*
X42269745Y-25300075D01*
X42355255Y-25349444D01*
X42450630Y-25375000D01*
X41190236Y-25375000D01*
X41205587Y-25422247D01*
X41205589Y-25422253D01*
X41284195Y-25576524D01*
X41385967Y-25716602D01*
X41508401Y-25839036D01*
X41591447Y-25899371D01*
X41634114Y-25954701D01*
X41640093Y-26024314D01*
X41607488Y-26086109D01*
X41591450Y-26100007D01*
X41508072Y-26160585D01*
X41385588Y-26283069D01*
X41385588Y-26283070D01*
X41385586Y-26283072D01*
X41358836Y-26319890D01*
X41283768Y-26423211D01*
X41205128Y-26577552D01*
X41151597Y-26742302D01*
X41124500Y-26913389D01*
X41124500Y-27086610D01*
X41149382Y-27243713D01*
X41151598Y-27257701D01*
X41205127Y-27422445D01*
X41283768Y-27576788D01*
X41385586Y-27716928D01*
X41508072Y-27839414D01*
X41508078Y-27839418D01*
X41591023Y-27899683D01*
X41633689Y-27955013D01*
X41639667Y-28024626D01*
X41607061Y-28086421D01*
X41591023Y-28100317D01*
X41508078Y-28160581D01*
X41508069Y-28160588D01*
X41385588Y-28283069D01*
X41385588Y-28283070D01*
X41385586Y-28283072D01*
X41341859Y-28343256D01*
X41283768Y-28423211D01*
X41205128Y-28577552D01*
X41151597Y-28742302D01*
X41141534Y-28805838D01*
X41124500Y-28913389D01*
X41124500Y-29086611D01*
X41151598Y-29257701D01*
X41205127Y-29422445D01*
X41283768Y-29576788D01*
X41385586Y-29716928D01*
X41508072Y-29839414D01*
X41508642Y-29839828D01*
X41591023Y-29899683D01*
X41633689Y-29955013D01*
X41639667Y-30024626D01*
X41607061Y-30086421D01*
X41591023Y-30100317D01*
X41508078Y-30160581D01*
X41508069Y-30160588D01*
X41385588Y-30283069D01*
X41385588Y-30283070D01*
X41385586Y-30283072D01*
X41341859Y-30343256D01*
X41283768Y-30423211D01*
X41205128Y-30577552D01*
X41151597Y-30742302D01*
X41124500Y-30913389D01*
X41124500Y-31086610D01*
X41148873Y-31240500D01*
X41151598Y-31257701D01*
X41205127Y-31422445D01*
X41283768Y-31576788D01*
X41385586Y-31716928D01*
X41385588Y-31716930D01*
X41493127Y-31824469D01*
X41526612Y-31885792D01*
X41521628Y-31955484D01*
X41479756Y-32011417D01*
X41470544Y-32017688D01*
X41406344Y-32057287D01*
X41282289Y-32181342D01*
X41190187Y-32330663D01*
X41190186Y-32330666D01*
X41135001Y-32497203D01*
X41135001Y-32497204D01*
X41135000Y-32497204D01*
X41124500Y-32599983D01*
X41124500Y-33400001D01*
X41124501Y-33400019D01*
X41135000Y-33502796D01*
X41135001Y-33502799D01*
X41176673Y-33628556D01*
X41190186Y-33669334D01*
X41282288Y-33818656D01*
X41406344Y-33942712D01*
X41555666Y-34034814D01*
X41722203Y-34089999D01*
X41824991Y-34100500D01*
X43175008Y-34100499D01*
X43277797Y-34089999D01*
X43444334Y-34034814D01*
X43593656Y-33942712D01*
X43717712Y-33818656D01*
X43809814Y-33669334D01*
X43864999Y-33502797D01*
X43875500Y-33400009D01*
X43875499Y-32599992D01*
X43868991Y-32536287D01*
X43864999Y-32497203D01*
X43864998Y-32497200D01*
X43861435Y-32486447D01*
X43809814Y-32330666D01*
X43717712Y-32181344D01*
X43593656Y-32057288D01*
X43593652Y-32057285D01*
X43529456Y-32017688D01*
X43482731Y-31965740D01*
X43471510Y-31896777D01*
X43499353Y-31832695D01*
X43506850Y-31824491D01*
X43614414Y-31716928D01*
X43716232Y-31576788D01*
X43794873Y-31422445D01*
X43848402Y-31257701D01*
X43875500Y-31086611D01*
X43875500Y-30913389D01*
X43848402Y-30742299D01*
X43794873Y-30577555D01*
X43716232Y-30423212D01*
X43614414Y-30283072D01*
X43491928Y-30160586D01*
X43408975Y-30100317D01*
X43366311Y-30044988D01*
X43360332Y-29975374D01*
X43392938Y-29913579D01*
X43408976Y-29899682D01*
X43491928Y-29839414D01*
X43614414Y-29716928D01*
X43716232Y-29576788D01*
X43794873Y-29422445D01*
X43848402Y-29257701D01*
X43875500Y-29086611D01*
X43875500Y-28913389D01*
X43848402Y-28742299D01*
X43794873Y-28577555D01*
X43716232Y-28423212D01*
X43614414Y-28283072D01*
X43491928Y-28160586D01*
X43408975Y-28100317D01*
X43366311Y-28044988D01*
X43360332Y-27975374D01*
X43392938Y-27913579D01*
X43408976Y-27899682D01*
X43491928Y-27839414D01*
X43614414Y-27716928D01*
X43716232Y-27576788D01*
X43794873Y-27422445D01*
X43848402Y-27257701D01*
X43875500Y-27086611D01*
X43875500Y-26913389D01*
X43848402Y-26742299D01*
X43794873Y-26577555D01*
X43716232Y-26423212D01*
X43614414Y-26283072D01*
X43491928Y-26160586D01*
X43413764Y-26103796D01*
X43408550Y-26100008D01*
X43365885Y-26044677D01*
X43359906Y-25975064D01*
X43392512Y-25913269D01*
X43408552Y-25899371D01*
X43491598Y-25839036D01*
X43614032Y-25716602D01*
X43715804Y-25576524D01*
X43794410Y-25422253D01*
X43794412Y-25422247D01*
X43809763Y-25375000D01*
X42549370Y-25375000D01*
X42644745Y-25349444D01*
X42730255Y-25300075D01*
X42800075Y-25230255D01*
X42849444Y-25144745D01*
X42875000Y-25049370D01*
X42875000Y-24950630D01*
X42849444Y-24855255D01*
X42800075Y-24769745D01*
X42730255Y-24699925D01*
X42644745Y-24650556D01*
X42549370Y-24625000D01*
X43809763Y-24625000D01*
X43809763Y-24624999D01*
X43794412Y-24577752D01*
X43794410Y-24577746D01*
X43715804Y-24423475D01*
X43614032Y-24283397D01*
X43491602Y-24160967D01*
X43408551Y-24100628D01*
X43365885Y-24045298D01*
X43359906Y-23975685D01*
X43392511Y-23913889D01*
X43408551Y-23899991D01*
X43491928Y-23839414D01*
X43614414Y-23716928D01*
X43716232Y-23576788D01*
X43794873Y-23422445D01*
X43848402Y-23257701D01*
X43875500Y-23086611D01*
X43875500Y-22913389D01*
X43848402Y-22742299D01*
X43794873Y-22577555D01*
X43716232Y-22423212D01*
X43614414Y-22283072D01*
X43491928Y-22160586D01*
X43351788Y-22058768D01*
X43197445Y-21980127D01*
X43032701Y-21926598D01*
X43032699Y-21926597D01*
X43032698Y-21926597D01*
X42901271Y-21905781D01*
X42861611Y-21899500D01*
X42138389Y-21899500D01*
X42098728Y-21905781D01*
X41967302Y-21926597D01*
X41967299Y-21926598D01*
X41844464Y-21966510D01*
X41802552Y-21980128D01*
X41648211Y-22058768D01*
X41568256Y-22116859D01*
X41508072Y-22160586D01*
X41508070Y-22160588D01*
X41508069Y-22160588D01*
X41385588Y-22283069D01*
X41385588Y-22283070D01*
X41385586Y-22283072D01*
X41341859Y-22343256D01*
X41283768Y-22423211D01*
X41205128Y-22577552D01*
X41151597Y-22742302D01*
X41124500Y-22913389D01*
X30477026Y-22913389D01*
X30463457Y-22880630D01*
X30459395Y-22870823D01*
X30459390Y-22870814D01*
X30371789Y-22739711D01*
X30371786Y-22739707D01*
X30260292Y-22628213D01*
X30260288Y-22628210D01*
X30129185Y-22540609D01*
X30129172Y-22540602D01*
X29983501Y-22480264D01*
X29983489Y-22480261D01*
X29828845Y-22449500D01*
X29828842Y-22449500D01*
X29671158Y-22449500D01*
X29671155Y-22449500D01*
X29516510Y-22480261D01*
X29516498Y-22480264D01*
X29370827Y-22540602D01*
X29370814Y-22540609D01*
X29239711Y-22628210D01*
X29239707Y-22628213D01*
X29128213Y-22739707D01*
X29128210Y-22739711D01*
X29040609Y-22870814D01*
X29040602Y-22870827D01*
X28980264Y-23016498D01*
X28980261Y-23016510D01*
X28949500Y-23171153D01*
X26292759Y-23171153D01*
X26284211Y-23128181D01*
X26290438Y-23058589D01*
X26333300Y-23003411D01*
X26399189Y-22980166D01*
X26430016Y-22982370D01*
X26475836Y-22991484D01*
X26521156Y-23000500D01*
X26521158Y-23000500D01*
X26678844Y-23000500D01*
X26678845Y-23000499D01*
X26833497Y-22969737D01*
X26979179Y-22909394D01*
X27110289Y-22821789D01*
X27221789Y-22710289D01*
X27309394Y-22579179D01*
X27369737Y-22433497D01*
X27400500Y-22278842D01*
X27400500Y-22121158D01*
X27400500Y-22121155D01*
X27400499Y-22121153D01*
X27369738Y-21966510D01*
X27369737Y-21966503D01*
X27364459Y-21953760D01*
X27309397Y-21820827D01*
X27309390Y-21820814D01*
X27221789Y-21689711D01*
X27221786Y-21689707D01*
X27110292Y-21578213D01*
X27110288Y-21578210D01*
X26979185Y-21490609D01*
X26979172Y-21490602D01*
X26833501Y-21430264D01*
X26833489Y-21430261D01*
X26678845Y-21399500D01*
X26678842Y-21399500D01*
X26521158Y-21399500D01*
X26521155Y-21399500D01*
X26366510Y-21430261D01*
X26366498Y-21430264D01*
X26220827Y-21490602D01*
X26220814Y-21490609D01*
X26089711Y-21578210D01*
X26089707Y-21578213D01*
X25978213Y-21689707D01*
X25978210Y-21689711D01*
X25890609Y-21820814D01*
X25890602Y-21820827D01*
X25830264Y-21966498D01*
X25830261Y-21966510D01*
X25799500Y-22121153D01*
X25799500Y-22278846D01*
X25820949Y-22386677D01*
X25814722Y-22456268D01*
X25771859Y-22511446D01*
X25705969Y-22534690D01*
X25675141Y-22532485D01*
X25584006Y-22514357D01*
X25584003Y-22514357D01*
X25426319Y-22514357D01*
X25426316Y-22514357D01*
X25271671Y-22545118D01*
X25271659Y-22545121D01*
X25125988Y-22605459D01*
X25125975Y-22605466D01*
X24994872Y-22693067D01*
X24994868Y-22693070D01*
X24883374Y-22804564D01*
X24883371Y-22804568D01*
X24795770Y-22935671D01*
X24795763Y-22935684D01*
X24735425Y-23081355D01*
X24735422Y-23081367D01*
X24704661Y-23236010D01*
X23213886Y-23236010D01*
X23300104Y-23149792D01*
X23425051Y-22977816D01*
X23521557Y-22788412D01*
X23587246Y-22586243D01*
X23620500Y-22376287D01*
X23620500Y-22163713D01*
X23587246Y-21953757D01*
X23521557Y-21751588D01*
X23425051Y-21562184D01*
X23425049Y-21562181D01*
X23425048Y-21562179D01*
X23300109Y-21390213D01*
X23149786Y-21239890D01*
X22977820Y-21114951D01*
X22788414Y-21018444D01*
X22788413Y-21018443D01*
X22788412Y-21018443D01*
X22586243Y-20952754D01*
X22586241Y-20952753D01*
X22586240Y-20952753D01*
X22424957Y-20927208D01*
X22376287Y-20919500D01*
X22163713Y-20919500D01*
X22115042Y-20927208D01*
X21953760Y-20952753D01*
X21751585Y-21018444D01*
X21562179Y-21114951D01*
X21390213Y-21239890D01*
X21239890Y-21390213D01*
X21114951Y-21562179D01*
X21018444Y-21751585D01*
X20952753Y-21953760D01*
X20919500Y-22163713D01*
X20919500Y-22376286D01*
X20946240Y-22545120D01*
X20952754Y-22586243D01*
X20993059Y-22710289D01*
X21018444Y-22788414D01*
X21114951Y-22977820D01*
X21239890Y-23149786D01*
X21390213Y-23300109D01*
X21562182Y-23425050D01*
X21570946Y-23429516D01*
X21621742Y-23477491D01*
X21638536Y-23545312D01*
X21615998Y-23611447D01*
X21570946Y-23650484D01*
X21562182Y-23654949D01*
X21390213Y-23779890D01*
X21239890Y-23930213D01*
X21114951Y-24102179D01*
X21018444Y-24291585D01*
X20952753Y-24493760D01*
X20939451Y-24577746D01*
X20919500Y-24703713D01*
X20919500Y-24916287D01*
X20929534Y-24979644D01*
X20952753Y-25126239D01*
X21018444Y-25328414D01*
X21114951Y-25517820D01*
X21239890Y-25689786D01*
X21390213Y-25840109D01*
X21562182Y-25965050D01*
X21570946Y-25969516D01*
X21621742Y-26017491D01*
X21638536Y-26085312D01*
X21615998Y-26151447D01*
X21570946Y-26190484D01*
X21562182Y-26194949D01*
X21390213Y-26319890D01*
X21239890Y-26470213D01*
X21114951Y-26642179D01*
X21018444Y-26831585D01*
X20952753Y-27033760D01*
X20919500Y-27243713D01*
X20919500Y-27456286D01*
X20938585Y-27576788D01*
X20952754Y-27666243D01*
X21009022Y-27839418D01*
X21018444Y-27868414D01*
X21114951Y-28057820D01*
X21239890Y-28229786D01*
X21390213Y-28380109D01*
X21562182Y-28505050D01*
X21570946Y-28509516D01*
X21621742Y-28557491D01*
X21638536Y-28625312D01*
X21615998Y-28691447D01*
X21570946Y-28730484D01*
X21562182Y-28734949D01*
X21390213Y-28859890D01*
X21239890Y-29010213D01*
X21114951Y-29182179D01*
X21018444Y-29371585D01*
X20952753Y-29573760D01*
X20930077Y-29716930D01*
X20919500Y-29783713D01*
X20919500Y-29996287D01*
X20927214Y-30044988D01*
X20945522Y-30160586D01*
X20952754Y-30206243D01*
X20977717Y-30283072D01*
X21018444Y-30408414D01*
X21114951Y-30597820D01*
X21239890Y-30769786D01*
X21390213Y-30920109D01*
X21562182Y-31045050D01*
X21570946Y-31049516D01*
X21621742Y-31097491D01*
X21638536Y-31165312D01*
X21615998Y-31231447D01*
X21570946Y-31270484D01*
X21562182Y-31274949D01*
X21390213Y-31399890D01*
X21239890Y-31550213D01*
X21114951Y-31722179D01*
X21018444Y-31911585D01*
X20952753Y-32113760D01*
X20919500Y-32323713D01*
X20919500Y-32536286D01*
X20952698Y-32745893D01*
X20952754Y-32746243D01*
X20995945Y-32879172D01*
X21018444Y-32948414D01*
X21114951Y-33137820D01*
X21239890Y-33309786D01*
X21390213Y-33460109D01*
X21562182Y-33585050D01*
X21570946Y-33589516D01*
X21621742Y-33637491D01*
X21638536Y-33705312D01*
X21615998Y-33771447D01*
X21570946Y-33810484D01*
X21562182Y-33814949D01*
X21390213Y-33939890D01*
X21239890Y-34090213D01*
X21114951Y-34262179D01*
X21018444Y-34451585D01*
X20965731Y-34613818D01*
X20926293Y-34671494D01*
X20861935Y-34698692D01*
X20847800Y-34699500D01*
X20721155Y-34699500D01*
X20648691Y-34713914D01*
X20579100Y-34707687D01*
X20523922Y-34664824D01*
X20500678Y-34598934D01*
X20500500Y-34592297D01*
X20500500Y-17897648D01*
X21199500Y-17897648D01*
X21199500Y-18102351D01*
X21231522Y-18304534D01*
X21294781Y-18499223D01*
X21387715Y-18681613D01*
X21508028Y-18847213D01*
X21652786Y-18991971D01*
X21807749Y-19104556D01*
X21818390Y-19112287D01*
X21934607Y-19171503D01*
X22000776Y-19205218D01*
X22000778Y-19205218D01*
X22000781Y-19205220D01*
X22105137Y-19239127D01*
X22195465Y-19268477D01*
X22296557Y-19284488D01*
X22397648Y-19300500D01*
X22397649Y-19300500D01*
X22602351Y-19300500D01*
X22602352Y-19300500D01*
X22804534Y-19268477D01*
X22999219Y-19205220D01*
X23181610Y-19112287D01*
X23274590Y-19044732D01*
X23347213Y-18991971D01*
X23347215Y-18991968D01*
X23347219Y-18991966D01*
X23491966Y-18847219D01*
X23491968Y-18847215D01*
X23491971Y-18847213D01*
X23544732Y-18774590D01*
X23612287Y-18681610D01*
X23705220Y-18499219D01*
X23768477Y-18304534D01*
X23800500Y-18102352D01*
X23800500Y-17897648D01*
X46199500Y-17897648D01*
X46199500Y-18102351D01*
X46231522Y-18304534D01*
X46294781Y-18499223D01*
X46387715Y-18681613D01*
X46508028Y-18847213D01*
X46652786Y-18991971D01*
X46807749Y-19104556D01*
X46818390Y-19112287D01*
X46934607Y-19171503D01*
X47000776Y-19205218D01*
X47000778Y-19205218D01*
X47000781Y-19205220D01*
X47105137Y-19239127D01*
X47195465Y-19268477D01*
X47296557Y-19284488D01*
X47397648Y-19300500D01*
X47397649Y-19300500D01*
X47602351Y-19300500D01*
X47602352Y-19300500D01*
X47804534Y-19268477D01*
X47999219Y-19205220D01*
X48181610Y-19112287D01*
X48274590Y-19044732D01*
X48347213Y-18991971D01*
X48347215Y-18991968D01*
X48347219Y-18991966D01*
X48491966Y-18847219D01*
X48491968Y-18847215D01*
X48491971Y-18847213D01*
X48544732Y-18774590D01*
X48612287Y-18681610D01*
X48705220Y-18499219D01*
X48768477Y-18304534D01*
X48800500Y-18102352D01*
X48800500Y-17897648D01*
X48768477Y-17695466D01*
X48705220Y-17500781D01*
X48705218Y-17500778D01*
X48705218Y-17500776D01*
X48671248Y-17434108D01*
X48612287Y-17318390D01*
X48595615Y-17295443D01*
X48491971Y-17152786D01*
X48347213Y-17008028D01*
X48181613Y-16887715D01*
X48181612Y-16887714D01*
X48181610Y-16887713D01*
X48124653Y-16858691D01*
X47999223Y-16794781D01*
X47804534Y-16731522D01*
X47629995Y-16703878D01*
X47602352Y-16699500D01*
X47397648Y-16699500D01*
X47373329Y-16703351D01*
X47195465Y-16731522D01*
X47000776Y-16794781D01*
X46818386Y-16887715D01*
X46652786Y-17008028D01*
X46508028Y-17152786D01*
X46387715Y-17318386D01*
X46294781Y-17500776D01*
X46231522Y-17695465D01*
X46199500Y-17897648D01*
X23800500Y-17897648D01*
X23768477Y-17695466D01*
X23705220Y-17500781D01*
X23705218Y-17500778D01*
X23705218Y-17500776D01*
X23671248Y-17434108D01*
X23612287Y-17318390D01*
X23595615Y-17295443D01*
X23491971Y-17152786D01*
X23347213Y-17008028D01*
X23181613Y-16887715D01*
X23181612Y-16887714D01*
X23181610Y-16887713D01*
X23124653Y-16858691D01*
X22999223Y-16794781D01*
X22804534Y-16731522D01*
X22629995Y-16703878D01*
X22602352Y-16699500D01*
X22397648Y-16699500D01*
X22373329Y-16703351D01*
X22195465Y-16731522D01*
X22000776Y-16794781D01*
X21818386Y-16887715D01*
X21652786Y-17008028D01*
X21508028Y-17152786D01*
X21387715Y-17318386D01*
X21294781Y-17500776D01*
X21231522Y-17695465D01*
X21199500Y-17897648D01*
X20500500Y-17897648D01*
X20500500Y-17504427D01*
X20500816Y-17495581D01*
X20513489Y-17318390D01*
X20515130Y-17295436D01*
X20517646Y-17277938D01*
X20559356Y-17086200D01*
X20564335Y-17069242D01*
X20632911Y-16885382D01*
X20640251Y-16869310D01*
X20734294Y-16697083D01*
X20743850Y-16682214D01*
X20861443Y-16525128D01*
X20873017Y-16511771D01*
X21011771Y-16373017D01*
X21025128Y-16361443D01*
X21182214Y-16243850D01*
X21197083Y-16234294D01*
X21369310Y-16140251D01*
X21385382Y-16132911D01*
X21569242Y-16064335D01*
X21586200Y-16059356D01*
X21777938Y-16017646D01*
X21795436Y-16015130D01*
X21995582Y-16000816D01*
X22004428Y-16000500D01*
X22065892Y-16000500D01*
X47934108Y-16000500D01*
X47995572Y-16000500D01*
X48004418Y-16000816D01*
G37*
%TD.AperFunction*%
%TD*%
M02*
