%TF.GenerationSoftware,KiCad,Pcbnew,10.0.6*%
%TF.CreationDate,2026-10-06T17:14:13-04:00*%
%TF.ProjectId,motor_controller_encoder_counter,6d6f746f-725f-4636-9f6e-74726f6c6c65,rev?*%
%TF.SameCoordinates,Original*%
%TF.FileFunction,Legend,Top*%
%TF.FilePolarity,Positive*%
%FSLAX46Y46*%
G04 Gerber Fmt 4.6, Leading zero omitted, Abs format (unit mm)*
G04 Created by KiCad (PCBNEW 10.0.6) date 2026-10-06 17:14:13*
%MOMM*%
%LPD*%
G01*
G04 APERTURE LIST*
%ADD10C,0.150000*%
%ADD11C,0.200000*%
%ADD12C,0.120000*%
%ADD13C,0.152400*%
%ADD14C,0.508000*%
G04 APERTURE END LIST*
D10*
X21017438Y-57489411D02*
X20969819Y-57584649D01*
X20969819Y-57584649D02*
X20969819Y-57727506D01*
X20969819Y-57727506D02*
X21017438Y-57870363D01*
X21017438Y-57870363D02*
X21112676Y-57965601D01*
X21112676Y-57965601D02*
X21207914Y-58013220D01*
X21207914Y-58013220D02*
X21398390Y-58060839D01*
X21398390Y-58060839D02*
X21541247Y-58060839D01*
X21541247Y-58060839D02*
X21731723Y-58013220D01*
X21731723Y-58013220D02*
X21826961Y-57965601D01*
X21826961Y-57965601D02*
X21922200Y-57870363D01*
X21922200Y-57870363D02*
X21969819Y-57727506D01*
X21969819Y-57727506D02*
X21969819Y-57632268D01*
X21969819Y-57632268D02*
X21922200Y-57489411D01*
X21922200Y-57489411D02*
X21874580Y-57441792D01*
X21874580Y-57441792D02*
X21541247Y-57441792D01*
X21541247Y-57441792D02*
X21541247Y-57632268D01*
X21969819Y-57013220D02*
X20969819Y-57013220D01*
X20969819Y-57013220D02*
X21969819Y-56441792D01*
X21969819Y-56441792D02*
X20969819Y-56441792D01*
X21969819Y-55965601D02*
X20969819Y-55965601D01*
X20969819Y-55965601D02*
X20969819Y-55727506D01*
X20969819Y-55727506D02*
X21017438Y-55584649D01*
X21017438Y-55584649D02*
X21112676Y-55489411D01*
X21112676Y-55489411D02*
X21207914Y-55441792D01*
X21207914Y-55441792D02*
X21398390Y-55394173D01*
X21398390Y-55394173D02*
X21541247Y-55394173D01*
X21541247Y-55394173D02*
X21731723Y-55441792D01*
X21731723Y-55441792D02*
X21826961Y-55489411D01*
X21826961Y-55489411D02*
X21922200Y-55584649D01*
X21922200Y-55584649D02*
X21969819Y-55727506D01*
X21969819Y-55727506D02*
X21969819Y-55965601D01*
X22069819Y-54463220D02*
X21069819Y-54463220D01*
X21069819Y-54463220D02*
X21069819Y-54082268D01*
X21069819Y-54082268D02*
X21117438Y-53987030D01*
X21117438Y-53987030D02*
X21165057Y-53939411D01*
X21165057Y-53939411D02*
X21260295Y-53891792D01*
X21260295Y-53891792D02*
X21403152Y-53891792D01*
X21403152Y-53891792D02*
X21498390Y-53939411D01*
X21498390Y-53939411D02*
X21546009Y-53987030D01*
X21546009Y-53987030D02*
X21593628Y-54082268D01*
X21593628Y-54082268D02*
X21593628Y-54463220D01*
X21069819Y-53558458D02*
X22069819Y-53320363D01*
X22069819Y-53320363D02*
X21355533Y-53129887D01*
X21355533Y-53129887D02*
X22069819Y-52939411D01*
X22069819Y-52939411D02*
X21069819Y-52701316D01*
X22069819Y-51748935D02*
X21593628Y-52082268D01*
X22069819Y-52320363D02*
X21069819Y-52320363D01*
X21069819Y-52320363D02*
X21069819Y-51939411D01*
X21069819Y-51939411D02*
X21117438Y-51844173D01*
X21117438Y-51844173D02*
X21165057Y-51796554D01*
X21165057Y-51796554D02*
X21260295Y-51748935D01*
X21260295Y-51748935D02*
X21403152Y-51748935D01*
X21403152Y-51748935D02*
X21498390Y-51796554D01*
X21498390Y-51796554D02*
X21546009Y-51844173D01*
X21546009Y-51844173D02*
X21593628Y-51939411D01*
X21593628Y-51939411D02*
X21593628Y-52320363D01*
X40388866Y-56063220D02*
X40388866Y-55301316D01*
X40769819Y-55682268D02*
X40007914Y-55682268D01*
X39769819Y-54920363D02*
X39769819Y-54301316D01*
X39769819Y-54301316D02*
X40150771Y-54634649D01*
X40150771Y-54634649D02*
X40150771Y-54491792D01*
X40150771Y-54491792D02*
X40198390Y-54396554D01*
X40198390Y-54396554D02*
X40246009Y-54348935D01*
X40246009Y-54348935D02*
X40341247Y-54301316D01*
X40341247Y-54301316D02*
X40579342Y-54301316D01*
X40579342Y-54301316D02*
X40674580Y-54348935D01*
X40674580Y-54348935D02*
X40722200Y-54396554D01*
X40722200Y-54396554D02*
X40769819Y-54491792D01*
X40769819Y-54491792D02*
X40769819Y-54777506D01*
X40769819Y-54777506D02*
X40722200Y-54872744D01*
X40722200Y-54872744D02*
X40674580Y-54920363D01*
X40674580Y-53872744D02*
X40722200Y-53825125D01*
X40722200Y-53825125D02*
X40769819Y-53872744D01*
X40769819Y-53872744D02*
X40722200Y-53920363D01*
X40722200Y-53920363D02*
X40674580Y-53872744D01*
X40674580Y-53872744D02*
X40769819Y-53872744D01*
X39769819Y-53491792D02*
X39769819Y-52872745D01*
X39769819Y-52872745D02*
X40150771Y-53206078D01*
X40150771Y-53206078D02*
X40150771Y-53063221D01*
X40150771Y-53063221D02*
X40198390Y-52967983D01*
X40198390Y-52967983D02*
X40246009Y-52920364D01*
X40246009Y-52920364D02*
X40341247Y-52872745D01*
X40341247Y-52872745D02*
X40579342Y-52872745D01*
X40579342Y-52872745D02*
X40674580Y-52920364D01*
X40674580Y-52920364D02*
X40722200Y-52967983D01*
X40722200Y-52967983D02*
X40769819Y-53063221D01*
X40769819Y-53063221D02*
X40769819Y-53348935D01*
X40769819Y-53348935D02*
X40722200Y-53444173D01*
X40722200Y-53444173D02*
X40674580Y-53491792D01*
X39769819Y-52587030D02*
X40769819Y-52253697D01*
X40769819Y-52253697D02*
X39769819Y-51920364D01*
X43322200Y-55960839D02*
X43369819Y-55817982D01*
X43369819Y-55817982D02*
X43369819Y-55579887D01*
X43369819Y-55579887D02*
X43322200Y-55484649D01*
X43322200Y-55484649D02*
X43274580Y-55437030D01*
X43274580Y-55437030D02*
X43179342Y-55389411D01*
X43179342Y-55389411D02*
X43084104Y-55389411D01*
X43084104Y-55389411D02*
X42988866Y-55437030D01*
X42988866Y-55437030D02*
X42941247Y-55484649D01*
X42941247Y-55484649D02*
X42893628Y-55579887D01*
X42893628Y-55579887D02*
X42846009Y-55770363D01*
X42846009Y-55770363D02*
X42798390Y-55865601D01*
X42798390Y-55865601D02*
X42750771Y-55913220D01*
X42750771Y-55913220D02*
X42655533Y-55960839D01*
X42655533Y-55960839D02*
X42560295Y-55960839D01*
X42560295Y-55960839D02*
X42465057Y-55913220D01*
X42465057Y-55913220D02*
X42417438Y-55865601D01*
X42417438Y-55865601D02*
X42369819Y-55770363D01*
X42369819Y-55770363D02*
X42369819Y-55532268D01*
X42369819Y-55532268D02*
X42417438Y-55389411D01*
X43274580Y-54389411D02*
X43322200Y-54437030D01*
X43322200Y-54437030D02*
X43369819Y-54579887D01*
X43369819Y-54579887D02*
X43369819Y-54675125D01*
X43369819Y-54675125D02*
X43322200Y-54817982D01*
X43322200Y-54817982D02*
X43226961Y-54913220D01*
X43226961Y-54913220D02*
X43131723Y-54960839D01*
X43131723Y-54960839D02*
X42941247Y-55008458D01*
X42941247Y-55008458D02*
X42798390Y-55008458D01*
X42798390Y-55008458D02*
X42607914Y-54960839D01*
X42607914Y-54960839D02*
X42512676Y-54913220D01*
X42512676Y-54913220D02*
X42417438Y-54817982D01*
X42417438Y-54817982D02*
X42369819Y-54675125D01*
X42369819Y-54675125D02*
X42369819Y-54579887D01*
X42369819Y-54579887D02*
X42417438Y-54437030D01*
X42417438Y-54437030D02*
X42465057Y-54389411D01*
X43369819Y-53484649D02*
X43369819Y-53960839D01*
X43369819Y-53960839D02*
X42369819Y-53960839D01*
X45922200Y-56140839D02*
X45969819Y-55997982D01*
X45969819Y-55997982D02*
X45969819Y-55759887D01*
X45969819Y-55759887D02*
X45922200Y-55664649D01*
X45922200Y-55664649D02*
X45874580Y-55617030D01*
X45874580Y-55617030D02*
X45779342Y-55569411D01*
X45779342Y-55569411D02*
X45684104Y-55569411D01*
X45684104Y-55569411D02*
X45588866Y-55617030D01*
X45588866Y-55617030D02*
X45541247Y-55664649D01*
X45541247Y-55664649D02*
X45493628Y-55759887D01*
X45493628Y-55759887D02*
X45446009Y-55950363D01*
X45446009Y-55950363D02*
X45398390Y-56045601D01*
X45398390Y-56045601D02*
X45350771Y-56093220D01*
X45350771Y-56093220D02*
X45255533Y-56140839D01*
X45255533Y-56140839D02*
X45160295Y-56140839D01*
X45160295Y-56140839D02*
X45065057Y-56093220D01*
X45065057Y-56093220D02*
X45017438Y-56045601D01*
X45017438Y-56045601D02*
X44969819Y-55950363D01*
X44969819Y-55950363D02*
X44969819Y-55712268D01*
X44969819Y-55712268D02*
X45017438Y-55569411D01*
X45969819Y-55140839D02*
X44969819Y-55140839D01*
X44969819Y-55140839D02*
X44969819Y-54902744D01*
X44969819Y-54902744D02*
X45017438Y-54759887D01*
X45017438Y-54759887D02*
X45112676Y-54664649D01*
X45112676Y-54664649D02*
X45207914Y-54617030D01*
X45207914Y-54617030D02*
X45398390Y-54569411D01*
X45398390Y-54569411D02*
X45541247Y-54569411D01*
X45541247Y-54569411D02*
X45731723Y-54617030D01*
X45731723Y-54617030D02*
X45826961Y-54664649D01*
X45826961Y-54664649D02*
X45922200Y-54759887D01*
X45922200Y-54759887D02*
X45969819Y-54902744D01*
X45969819Y-54902744D02*
X45969819Y-55140839D01*
X45684104Y-54188458D02*
X45684104Y-53712268D01*
X45969819Y-54283696D02*
X44969819Y-53950363D01*
X44969819Y-53950363D02*
X45969819Y-53617030D01*
X47667438Y-55389411D02*
X47619819Y-55484649D01*
X47619819Y-55484649D02*
X47619819Y-55627506D01*
X47619819Y-55627506D02*
X47667438Y-55770363D01*
X47667438Y-55770363D02*
X47762676Y-55865601D01*
X47762676Y-55865601D02*
X47857914Y-55913220D01*
X47857914Y-55913220D02*
X48048390Y-55960839D01*
X48048390Y-55960839D02*
X48191247Y-55960839D01*
X48191247Y-55960839D02*
X48381723Y-55913220D01*
X48381723Y-55913220D02*
X48476961Y-55865601D01*
X48476961Y-55865601D02*
X48572200Y-55770363D01*
X48572200Y-55770363D02*
X48619819Y-55627506D01*
X48619819Y-55627506D02*
X48619819Y-55532268D01*
X48619819Y-55532268D02*
X48572200Y-55389411D01*
X48572200Y-55389411D02*
X48524580Y-55341792D01*
X48524580Y-55341792D02*
X48191247Y-55341792D01*
X48191247Y-55341792D02*
X48191247Y-55532268D01*
X48619819Y-54913220D02*
X47619819Y-54913220D01*
X47619819Y-54913220D02*
X48619819Y-54341792D01*
X48619819Y-54341792D02*
X47619819Y-54341792D01*
X48619819Y-53865601D02*
X47619819Y-53865601D01*
X47619819Y-53865601D02*
X47619819Y-53627506D01*
X47619819Y-53627506D02*
X47667438Y-53484649D01*
X47667438Y-53484649D02*
X47762676Y-53389411D01*
X47762676Y-53389411D02*
X47857914Y-53341792D01*
X47857914Y-53341792D02*
X48048390Y-53294173D01*
X48048390Y-53294173D02*
X48191247Y-53294173D01*
X48191247Y-53294173D02*
X48381723Y-53341792D01*
X48381723Y-53341792D02*
X48476961Y-53389411D01*
X48476961Y-53389411D02*
X48572200Y-53484649D01*
X48572200Y-53484649D02*
X48619819Y-53627506D01*
X48619819Y-53627506D02*
X48619819Y-53865601D01*
D11*
X40306028Y-32761279D02*
X38806028Y-32761279D01*
X38806028Y-32761279D02*
X39877457Y-32261279D01*
X39877457Y-32261279D02*
X38806028Y-31761279D01*
X38806028Y-31761279D02*
X40306028Y-31761279D01*
X38806028Y-30761278D02*
X38806028Y-30475564D01*
X38806028Y-30475564D02*
X38877457Y-30332707D01*
X38877457Y-30332707D02*
X39020314Y-30189850D01*
X39020314Y-30189850D02*
X39306028Y-30118421D01*
X39306028Y-30118421D02*
X39806028Y-30118421D01*
X39806028Y-30118421D02*
X40091742Y-30189850D01*
X40091742Y-30189850D02*
X40234600Y-30332707D01*
X40234600Y-30332707D02*
X40306028Y-30475564D01*
X40306028Y-30475564D02*
X40306028Y-30761278D01*
X40306028Y-30761278D02*
X40234600Y-30904136D01*
X40234600Y-30904136D02*
X40091742Y-31046993D01*
X40091742Y-31046993D02*
X39806028Y-31118421D01*
X39806028Y-31118421D02*
X39306028Y-31118421D01*
X39306028Y-31118421D02*
X39020314Y-31046993D01*
X39020314Y-31046993D02*
X38877457Y-30904136D01*
X38877457Y-30904136D02*
X38806028Y-30761278D01*
X38806028Y-29689849D02*
X38806028Y-28832707D01*
X40306028Y-29261278D02*
X38806028Y-29261278D01*
X38806028Y-28046992D02*
X38806028Y-27761278D01*
X38806028Y-27761278D02*
X38877457Y-27618421D01*
X38877457Y-27618421D02*
X39020314Y-27475564D01*
X39020314Y-27475564D02*
X39306028Y-27404135D01*
X39306028Y-27404135D02*
X39806028Y-27404135D01*
X39806028Y-27404135D02*
X40091742Y-27475564D01*
X40091742Y-27475564D02*
X40234600Y-27618421D01*
X40234600Y-27618421D02*
X40306028Y-27761278D01*
X40306028Y-27761278D02*
X40306028Y-28046992D01*
X40306028Y-28046992D02*
X40234600Y-28189850D01*
X40234600Y-28189850D02*
X40091742Y-28332707D01*
X40091742Y-28332707D02*
X39806028Y-28404135D01*
X39806028Y-28404135D02*
X39306028Y-28404135D01*
X39306028Y-28404135D02*
X39020314Y-28332707D01*
X39020314Y-28332707D02*
X38877457Y-28189850D01*
X38877457Y-28189850D02*
X38806028Y-28046992D01*
X40306028Y-25904135D02*
X39591742Y-26404135D01*
X40306028Y-26761278D02*
X38806028Y-26761278D01*
X38806028Y-26761278D02*
X38806028Y-26189849D01*
X38806028Y-26189849D02*
X38877457Y-26046992D01*
X38877457Y-26046992D02*
X38948885Y-25975563D01*
X38948885Y-25975563D02*
X39091742Y-25904135D01*
X39091742Y-25904135D02*
X39306028Y-25904135D01*
X39306028Y-25904135D02*
X39448885Y-25975563D01*
X39448885Y-25975563D02*
X39520314Y-26046992D01*
X39520314Y-26046992D02*
X39591742Y-26189849D01*
X39591742Y-26189849D02*
X39591742Y-26761278D01*
X40306028Y-23332706D02*
X40306028Y-24189849D01*
X40306028Y-23761278D02*
X38806028Y-23761278D01*
X38806028Y-23761278D02*
X39020314Y-23904135D01*
X39020314Y-23904135D02*
X39163171Y-24046992D01*
X39163171Y-24046992D02*
X39234600Y-24189849D01*
X40306028Y-48261279D02*
X38806028Y-48261279D01*
X38806028Y-48261279D02*
X39877457Y-47761279D01*
X39877457Y-47761279D02*
X38806028Y-47261279D01*
X38806028Y-47261279D02*
X40306028Y-47261279D01*
X38806028Y-46261278D02*
X38806028Y-45975564D01*
X38806028Y-45975564D02*
X38877457Y-45832707D01*
X38877457Y-45832707D02*
X39020314Y-45689850D01*
X39020314Y-45689850D02*
X39306028Y-45618421D01*
X39306028Y-45618421D02*
X39806028Y-45618421D01*
X39806028Y-45618421D02*
X40091742Y-45689850D01*
X40091742Y-45689850D02*
X40234600Y-45832707D01*
X40234600Y-45832707D02*
X40306028Y-45975564D01*
X40306028Y-45975564D02*
X40306028Y-46261278D01*
X40306028Y-46261278D02*
X40234600Y-46404136D01*
X40234600Y-46404136D02*
X40091742Y-46546993D01*
X40091742Y-46546993D02*
X39806028Y-46618421D01*
X39806028Y-46618421D02*
X39306028Y-46618421D01*
X39306028Y-46618421D02*
X39020314Y-46546993D01*
X39020314Y-46546993D02*
X38877457Y-46404136D01*
X38877457Y-46404136D02*
X38806028Y-46261278D01*
X38806028Y-45189849D02*
X38806028Y-44332707D01*
X40306028Y-44761278D02*
X38806028Y-44761278D01*
X38806028Y-43546992D02*
X38806028Y-43261278D01*
X38806028Y-43261278D02*
X38877457Y-43118421D01*
X38877457Y-43118421D02*
X39020314Y-42975564D01*
X39020314Y-42975564D02*
X39306028Y-42904135D01*
X39306028Y-42904135D02*
X39806028Y-42904135D01*
X39806028Y-42904135D02*
X40091742Y-42975564D01*
X40091742Y-42975564D02*
X40234600Y-43118421D01*
X40234600Y-43118421D02*
X40306028Y-43261278D01*
X40306028Y-43261278D02*
X40306028Y-43546992D01*
X40306028Y-43546992D02*
X40234600Y-43689850D01*
X40234600Y-43689850D02*
X40091742Y-43832707D01*
X40091742Y-43832707D02*
X39806028Y-43904135D01*
X39806028Y-43904135D02*
X39306028Y-43904135D01*
X39306028Y-43904135D02*
X39020314Y-43832707D01*
X39020314Y-43832707D02*
X38877457Y-43689850D01*
X38877457Y-43689850D02*
X38806028Y-43546992D01*
X40306028Y-41404135D02*
X39591742Y-41904135D01*
X40306028Y-42261278D02*
X38806028Y-42261278D01*
X38806028Y-42261278D02*
X38806028Y-41689849D01*
X38806028Y-41689849D02*
X38877457Y-41546992D01*
X38877457Y-41546992D02*
X38948885Y-41475563D01*
X38948885Y-41475563D02*
X39091742Y-41404135D01*
X39091742Y-41404135D02*
X39306028Y-41404135D01*
X39306028Y-41404135D02*
X39448885Y-41475563D01*
X39448885Y-41475563D02*
X39520314Y-41546992D01*
X39520314Y-41546992D02*
X39591742Y-41689849D01*
X39591742Y-41689849D02*
X39591742Y-42261278D01*
X38948885Y-39689849D02*
X38877457Y-39618421D01*
X38877457Y-39618421D02*
X38806028Y-39475564D01*
X38806028Y-39475564D02*
X38806028Y-39118421D01*
X38806028Y-39118421D02*
X38877457Y-38975564D01*
X38877457Y-38975564D02*
X38948885Y-38904135D01*
X38948885Y-38904135D02*
X39091742Y-38832706D01*
X39091742Y-38832706D02*
X39234600Y-38832706D01*
X39234600Y-38832706D02*
X39448885Y-38904135D01*
X39448885Y-38904135D02*
X40306028Y-39761278D01*
X40306028Y-39761278D02*
X40306028Y-38832706D01*
D10*
X30234819Y-23581904D02*
X30234819Y-23010476D01*
X31234819Y-23296190D02*
X30234819Y-23296190D01*
X31234819Y-22677142D02*
X30234819Y-22677142D01*
X30234819Y-22677142D02*
X30234819Y-22296190D01*
X30234819Y-22296190D02*
X30282438Y-22200952D01*
X30282438Y-22200952D02*
X30330057Y-22153333D01*
X30330057Y-22153333D02*
X30425295Y-22105714D01*
X30425295Y-22105714D02*
X30568152Y-22105714D01*
X30568152Y-22105714D02*
X30663390Y-22153333D01*
X30663390Y-22153333D02*
X30711009Y-22200952D01*
X30711009Y-22200952D02*
X30758628Y-22296190D01*
X30758628Y-22296190D02*
X30758628Y-22677142D01*
X31234819Y-21153333D02*
X31234819Y-21724761D01*
X31234819Y-21439047D02*
X30234819Y-21439047D01*
X30234819Y-21439047D02*
X30377676Y-21534285D01*
X30377676Y-21534285D02*
X30472914Y-21629523D01*
X30472914Y-21629523D02*
X30520533Y-21724761D01*
X24566666Y-39654819D02*
X24566666Y-40369104D01*
X24566666Y-40369104D02*
X24519047Y-40511961D01*
X24519047Y-40511961D02*
X24423809Y-40607200D01*
X24423809Y-40607200D02*
X24280952Y-40654819D01*
X24280952Y-40654819D02*
X24185714Y-40654819D01*
X25471428Y-39654819D02*
X25280952Y-39654819D01*
X25280952Y-39654819D02*
X25185714Y-39702438D01*
X25185714Y-39702438D02*
X25138095Y-39750057D01*
X25138095Y-39750057D02*
X25042857Y-39892914D01*
X25042857Y-39892914D02*
X24995238Y-40083390D01*
X24995238Y-40083390D02*
X24995238Y-40464342D01*
X24995238Y-40464342D02*
X25042857Y-40559580D01*
X25042857Y-40559580D02*
X25090476Y-40607200D01*
X25090476Y-40607200D02*
X25185714Y-40654819D01*
X25185714Y-40654819D02*
X25376190Y-40654819D01*
X25376190Y-40654819D02*
X25471428Y-40607200D01*
X25471428Y-40607200D02*
X25519047Y-40559580D01*
X25519047Y-40559580D02*
X25566666Y-40464342D01*
X25566666Y-40464342D02*
X25566666Y-40226247D01*
X25566666Y-40226247D02*
X25519047Y-40131009D01*
X25519047Y-40131009D02*
X25471428Y-40083390D01*
X25471428Y-40083390D02*
X25376190Y-40035771D01*
X25376190Y-40035771D02*
X25185714Y-40035771D01*
X25185714Y-40035771D02*
X25090476Y-40083390D01*
X25090476Y-40083390D02*
X25042857Y-40131009D01*
X25042857Y-40131009D02*
X24995238Y-40226247D01*
X21166666Y-48754819D02*
X21166666Y-49469104D01*
X21166666Y-49469104D02*
X21119047Y-49611961D01*
X21119047Y-49611961D02*
X21023809Y-49707200D01*
X21023809Y-49707200D02*
X20880952Y-49754819D01*
X20880952Y-49754819D02*
X20785714Y-49754819D01*
X21547619Y-48754819D02*
X22166666Y-48754819D01*
X22166666Y-48754819D02*
X21833333Y-49135771D01*
X21833333Y-49135771D02*
X21976190Y-49135771D01*
X21976190Y-49135771D02*
X22071428Y-49183390D01*
X22071428Y-49183390D02*
X22119047Y-49231009D01*
X22119047Y-49231009D02*
X22166666Y-49326247D01*
X22166666Y-49326247D02*
X22166666Y-49564342D01*
X22166666Y-49564342D02*
X22119047Y-49659580D01*
X22119047Y-49659580D02*
X22071428Y-49707200D01*
X22071428Y-49707200D02*
X21976190Y-49754819D01*
X21976190Y-49754819D02*
X21690476Y-49754819D01*
X21690476Y-49754819D02*
X21595238Y-49707200D01*
X21595238Y-49707200D02*
X21547619Y-49659580D01*
X30488095Y-33704819D02*
X31059523Y-33704819D01*
X30773809Y-34704819D02*
X30773809Y-33704819D01*
X31392857Y-34704819D02*
X31392857Y-33704819D01*
X31392857Y-33704819D02*
X31773809Y-33704819D01*
X31773809Y-33704819D02*
X31869047Y-33752438D01*
X31869047Y-33752438D02*
X31916666Y-33800057D01*
X31916666Y-33800057D02*
X31964285Y-33895295D01*
X31964285Y-33895295D02*
X31964285Y-34038152D01*
X31964285Y-34038152D02*
X31916666Y-34133390D01*
X31916666Y-34133390D02*
X31869047Y-34181009D01*
X31869047Y-34181009D02*
X31773809Y-34228628D01*
X31773809Y-34228628D02*
X31392857Y-34228628D01*
X32297619Y-33704819D02*
X32916666Y-33704819D01*
X32916666Y-33704819D02*
X32583333Y-34085771D01*
X32583333Y-34085771D02*
X32726190Y-34085771D01*
X32726190Y-34085771D02*
X32821428Y-34133390D01*
X32821428Y-34133390D02*
X32869047Y-34181009D01*
X32869047Y-34181009D02*
X32916666Y-34276247D01*
X32916666Y-34276247D02*
X32916666Y-34514342D01*
X32916666Y-34514342D02*
X32869047Y-34609580D01*
X32869047Y-34609580D02*
X32821428Y-34657200D01*
X32821428Y-34657200D02*
X32726190Y-34704819D01*
X32726190Y-34704819D02*
X32440476Y-34704819D01*
X32440476Y-34704819D02*
X32345238Y-34657200D01*
X32345238Y-34657200D02*
X32297619Y-34609580D01*
X27704819Y-26006666D02*
X27228628Y-26339999D01*
X27704819Y-26578094D02*
X26704819Y-26578094D01*
X26704819Y-26578094D02*
X26704819Y-26197142D01*
X26704819Y-26197142D02*
X26752438Y-26101904D01*
X26752438Y-26101904D02*
X26800057Y-26054285D01*
X26800057Y-26054285D02*
X26895295Y-26006666D01*
X26895295Y-26006666D02*
X27038152Y-26006666D01*
X27038152Y-26006666D02*
X27133390Y-26054285D01*
X27133390Y-26054285D02*
X27181009Y-26101904D01*
X27181009Y-26101904D02*
X27228628Y-26197142D01*
X27228628Y-26197142D02*
X27228628Y-26578094D01*
X26800057Y-25625713D02*
X26752438Y-25578094D01*
X26752438Y-25578094D02*
X26704819Y-25482856D01*
X26704819Y-25482856D02*
X26704819Y-25244761D01*
X26704819Y-25244761D02*
X26752438Y-25149523D01*
X26752438Y-25149523D02*
X26800057Y-25101904D01*
X26800057Y-25101904D02*
X26895295Y-25054285D01*
X26895295Y-25054285D02*
X26990533Y-25054285D01*
X26990533Y-25054285D02*
X27133390Y-25101904D01*
X27133390Y-25101904D02*
X27704819Y-25673332D01*
X27704819Y-25673332D02*
X27704819Y-25054285D01*
X24488095Y-30168824D02*
X25059523Y-30168824D01*
X24773809Y-31168824D02*
X24773809Y-30168824D01*
X25392857Y-31168824D02*
X25392857Y-30168824D01*
X25392857Y-30168824D02*
X25773809Y-30168824D01*
X25773809Y-30168824D02*
X25869047Y-30216443D01*
X25869047Y-30216443D02*
X25916666Y-30264062D01*
X25916666Y-30264062D02*
X25964285Y-30359300D01*
X25964285Y-30359300D02*
X25964285Y-30502157D01*
X25964285Y-30502157D02*
X25916666Y-30597395D01*
X25916666Y-30597395D02*
X25869047Y-30645014D01*
X25869047Y-30645014D02*
X25773809Y-30692633D01*
X25773809Y-30692633D02*
X25392857Y-30692633D01*
X26821428Y-30502157D02*
X26821428Y-31168824D01*
X26583333Y-30121205D02*
X26345238Y-30835490D01*
X26345238Y-30835490D02*
X26964285Y-30835490D01*
X27493333Y-36244819D02*
X27160000Y-35768628D01*
X26921905Y-36244819D02*
X26921905Y-35244819D01*
X26921905Y-35244819D02*
X27302857Y-35244819D01*
X27302857Y-35244819D02*
X27398095Y-35292438D01*
X27398095Y-35292438D02*
X27445714Y-35340057D01*
X27445714Y-35340057D02*
X27493333Y-35435295D01*
X27493333Y-35435295D02*
X27493333Y-35578152D01*
X27493333Y-35578152D02*
X27445714Y-35673390D01*
X27445714Y-35673390D02*
X27398095Y-35721009D01*
X27398095Y-35721009D02*
X27302857Y-35768628D01*
X27302857Y-35768628D02*
X26921905Y-35768628D01*
X28350476Y-35578152D02*
X28350476Y-36244819D01*
X28112381Y-35197200D02*
X27874286Y-35911485D01*
X27874286Y-35911485D02*
X28493333Y-35911485D01*
X24843333Y-26554819D02*
X24510000Y-26078628D01*
X24271905Y-26554819D02*
X24271905Y-25554819D01*
X24271905Y-25554819D02*
X24652857Y-25554819D01*
X24652857Y-25554819D02*
X24748095Y-25602438D01*
X24748095Y-25602438D02*
X24795714Y-25650057D01*
X24795714Y-25650057D02*
X24843333Y-25745295D01*
X24843333Y-25745295D02*
X24843333Y-25888152D01*
X24843333Y-25888152D02*
X24795714Y-25983390D01*
X24795714Y-25983390D02*
X24748095Y-26031009D01*
X24748095Y-26031009D02*
X24652857Y-26078628D01*
X24652857Y-26078628D02*
X24271905Y-26078628D01*
X25795714Y-26554819D02*
X25224286Y-26554819D01*
X25510000Y-26554819D02*
X25510000Y-25554819D01*
X25510000Y-25554819D02*
X25414762Y-25697676D01*
X25414762Y-25697676D02*
X25319524Y-25792914D01*
X25319524Y-25792914D02*
X25224286Y-25840533D01*
X39416666Y-34454819D02*
X39416666Y-35169104D01*
X39416666Y-35169104D02*
X39369047Y-35311961D01*
X39369047Y-35311961D02*
X39273809Y-35407200D01*
X39273809Y-35407200D02*
X39130952Y-35454819D01*
X39130952Y-35454819D02*
X39035714Y-35454819D01*
X39845238Y-34550057D02*
X39892857Y-34502438D01*
X39892857Y-34502438D02*
X39988095Y-34454819D01*
X39988095Y-34454819D02*
X40226190Y-34454819D01*
X40226190Y-34454819D02*
X40321428Y-34502438D01*
X40321428Y-34502438D02*
X40369047Y-34550057D01*
X40369047Y-34550057D02*
X40416666Y-34645295D01*
X40416666Y-34645295D02*
X40416666Y-34740533D01*
X40416666Y-34740533D02*
X40369047Y-34883390D01*
X40369047Y-34883390D02*
X39797619Y-35454819D01*
X39797619Y-35454819D02*
X40416666Y-35454819D01*
X46738095Y-15304819D02*
X46738095Y-14304819D01*
X46738095Y-14781009D02*
X47309523Y-14781009D01*
X47309523Y-15304819D02*
X47309523Y-14304819D01*
X47738095Y-14400057D02*
X47785714Y-14352438D01*
X47785714Y-14352438D02*
X47880952Y-14304819D01*
X47880952Y-14304819D02*
X48119047Y-14304819D01*
X48119047Y-14304819D02*
X48214285Y-14352438D01*
X48214285Y-14352438D02*
X48261904Y-14400057D01*
X48261904Y-14400057D02*
X48309523Y-14495295D01*
X48309523Y-14495295D02*
X48309523Y-14590533D01*
X48309523Y-14590533D02*
X48261904Y-14733390D01*
X48261904Y-14733390D02*
X47690476Y-15304819D01*
X47690476Y-15304819D02*
X48309523Y-15304819D01*
X37654819Y-58833333D02*
X38369104Y-58833333D01*
X38369104Y-58833333D02*
X38511961Y-58880952D01*
X38511961Y-58880952D02*
X38607200Y-58976190D01*
X38607200Y-58976190D02*
X38654819Y-59119047D01*
X38654819Y-59119047D02*
X38654819Y-59214285D01*
X38654819Y-57833333D02*
X38654819Y-58404761D01*
X38654819Y-58119047D02*
X37654819Y-58119047D01*
X37654819Y-58119047D02*
X37797676Y-58214285D01*
X37797676Y-58214285D02*
X37892914Y-58309523D01*
X37892914Y-58309523D02*
X37940533Y-58404761D01*
X24238095Y-21204819D02*
X24809523Y-21204819D01*
X24523809Y-22204819D02*
X24523809Y-21204819D01*
X25142857Y-22204819D02*
X25142857Y-21204819D01*
X25142857Y-21204819D02*
X25523809Y-21204819D01*
X25523809Y-21204819D02*
X25619047Y-21252438D01*
X25619047Y-21252438D02*
X25666666Y-21300057D01*
X25666666Y-21300057D02*
X25714285Y-21395295D01*
X25714285Y-21395295D02*
X25714285Y-21538152D01*
X25714285Y-21538152D02*
X25666666Y-21633390D01*
X25666666Y-21633390D02*
X25619047Y-21681009D01*
X25619047Y-21681009D02*
X25523809Y-21728628D01*
X25523809Y-21728628D02*
X25142857Y-21728628D01*
X26095238Y-21300057D02*
X26142857Y-21252438D01*
X26142857Y-21252438D02*
X26238095Y-21204819D01*
X26238095Y-21204819D02*
X26476190Y-21204819D01*
X26476190Y-21204819D02*
X26571428Y-21252438D01*
X26571428Y-21252438D02*
X26619047Y-21300057D01*
X26619047Y-21300057D02*
X26666666Y-21395295D01*
X26666666Y-21395295D02*
X26666666Y-21490533D01*
X26666666Y-21490533D02*
X26619047Y-21633390D01*
X26619047Y-21633390D02*
X26047619Y-22204819D01*
X26047619Y-22204819D02*
X26666666Y-22204819D01*
X35403333Y-49684819D02*
X35070000Y-49208628D01*
X34831905Y-49684819D02*
X34831905Y-48684819D01*
X34831905Y-48684819D02*
X35212857Y-48684819D01*
X35212857Y-48684819D02*
X35308095Y-48732438D01*
X35308095Y-48732438D02*
X35355714Y-48780057D01*
X35355714Y-48780057D02*
X35403333Y-48875295D01*
X35403333Y-48875295D02*
X35403333Y-49018152D01*
X35403333Y-49018152D02*
X35355714Y-49113390D01*
X35355714Y-49113390D02*
X35308095Y-49161009D01*
X35308095Y-49161009D02*
X35212857Y-49208628D01*
X35212857Y-49208628D02*
X34831905Y-49208628D01*
X36308095Y-48684819D02*
X35831905Y-48684819D01*
X35831905Y-48684819D02*
X35784286Y-49161009D01*
X35784286Y-49161009D02*
X35831905Y-49113390D01*
X35831905Y-49113390D02*
X35927143Y-49065771D01*
X35927143Y-49065771D02*
X36165238Y-49065771D01*
X36165238Y-49065771D02*
X36260476Y-49113390D01*
X36260476Y-49113390D02*
X36308095Y-49161009D01*
X36308095Y-49161009D02*
X36355714Y-49256247D01*
X36355714Y-49256247D02*
X36355714Y-49494342D01*
X36355714Y-49494342D02*
X36308095Y-49589580D01*
X36308095Y-49589580D02*
X36260476Y-49637200D01*
X36260476Y-49637200D02*
X36165238Y-49684819D01*
X36165238Y-49684819D02*
X35927143Y-49684819D01*
X35927143Y-49684819D02*
X35831905Y-49637200D01*
X35831905Y-49637200D02*
X35784286Y-49589580D01*
X21738095Y-15304819D02*
X21738095Y-14304819D01*
X21738095Y-14781009D02*
X22309523Y-14781009D01*
X22309523Y-15304819D02*
X22309523Y-14304819D01*
X23309523Y-15304819D02*
X22738095Y-15304819D01*
X23023809Y-15304819D02*
X23023809Y-14304819D01*
X23023809Y-14304819D02*
X22928571Y-14447676D01*
X22928571Y-14447676D02*
X22833333Y-14542914D01*
X22833333Y-14542914D02*
X22738095Y-14590533D01*
X39416666Y-49954819D02*
X39416666Y-50669104D01*
X39416666Y-50669104D02*
X39369047Y-50811961D01*
X39369047Y-50811961D02*
X39273809Y-50907200D01*
X39273809Y-50907200D02*
X39130952Y-50954819D01*
X39130952Y-50954819D02*
X39035714Y-50954819D01*
X40035714Y-50383390D02*
X39940476Y-50335771D01*
X39940476Y-50335771D02*
X39892857Y-50288152D01*
X39892857Y-50288152D02*
X39845238Y-50192914D01*
X39845238Y-50192914D02*
X39845238Y-50145295D01*
X39845238Y-50145295D02*
X39892857Y-50050057D01*
X39892857Y-50050057D02*
X39940476Y-50002438D01*
X39940476Y-50002438D02*
X40035714Y-49954819D01*
X40035714Y-49954819D02*
X40226190Y-49954819D01*
X40226190Y-49954819D02*
X40321428Y-50002438D01*
X40321428Y-50002438D02*
X40369047Y-50050057D01*
X40369047Y-50050057D02*
X40416666Y-50145295D01*
X40416666Y-50145295D02*
X40416666Y-50192914D01*
X40416666Y-50192914D02*
X40369047Y-50288152D01*
X40369047Y-50288152D02*
X40321428Y-50335771D01*
X40321428Y-50335771D02*
X40226190Y-50383390D01*
X40226190Y-50383390D02*
X40035714Y-50383390D01*
X40035714Y-50383390D02*
X39940476Y-50431009D01*
X39940476Y-50431009D02*
X39892857Y-50478628D01*
X39892857Y-50478628D02*
X39845238Y-50573866D01*
X39845238Y-50573866D02*
X39845238Y-50764342D01*
X39845238Y-50764342D02*
X39892857Y-50859580D01*
X39892857Y-50859580D02*
X39940476Y-50907200D01*
X39940476Y-50907200D02*
X40035714Y-50954819D01*
X40035714Y-50954819D02*
X40226190Y-50954819D01*
X40226190Y-50954819D02*
X40321428Y-50907200D01*
X40321428Y-50907200D02*
X40369047Y-50859580D01*
X40369047Y-50859580D02*
X40416666Y-50764342D01*
X40416666Y-50764342D02*
X40416666Y-50573866D01*
X40416666Y-50573866D02*
X40369047Y-50478628D01*
X40369047Y-50478628D02*
X40321428Y-50431009D01*
X40321428Y-50431009D02*
X40226190Y-50383390D01*
X27423333Y-34294819D02*
X27090000Y-33818628D01*
X26851905Y-34294819D02*
X26851905Y-33294819D01*
X26851905Y-33294819D02*
X27232857Y-33294819D01*
X27232857Y-33294819D02*
X27328095Y-33342438D01*
X27328095Y-33342438D02*
X27375714Y-33390057D01*
X27375714Y-33390057D02*
X27423333Y-33485295D01*
X27423333Y-33485295D02*
X27423333Y-33628152D01*
X27423333Y-33628152D02*
X27375714Y-33723390D01*
X27375714Y-33723390D02*
X27328095Y-33771009D01*
X27328095Y-33771009D02*
X27232857Y-33818628D01*
X27232857Y-33818628D02*
X26851905Y-33818628D01*
X27756667Y-33294819D02*
X28375714Y-33294819D01*
X28375714Y-33294819D02*
X28042381Y-33675771D01*
X28042381Y-33675771D02*
X28185238Y-33675771D01*
X28185238Y-33675771D02*
X28280476Y-33723390D01*
X28280476Y-33723390D02*
X28328095Y-33771009D01*
X28328095Y-33771009D02*
X28375714Y-33866247D01*
X28375714Y-33866247D02*
X28375714Y-34104342D01*
X28375714Y-34104342D02*
X28328095Y-34199580D01*
X28328095Y-34199580D02*
X28280476Y-34247200D01*
X28280476Y-34247200D02*
X28185238Y-34294819D01*
X28185238Y-34294819D02*
X27899524Y-34294819D01*
X27899524Y-34294819D02*
X27804286Y-34247200D01*
X27804286Y-34247200D02*
X27756667Y-34199580D01*
X42988095Y-62704819D02*
X42988095Y-61704819D01*
X42988095Y-62181009D02*
X43559523Y-62181009D01*
X43559523Y-62704819D02*
X43559523Y-61704819D01*
X43940476Y-61704819D02*
X44559523Y-61704819D01*
X44559523Y-61704819D02*
X44226190Y-62085771D01*
X44226190Y-62085771D02*
X44369047Y-62085771D01*
X44369047Y-62085771D02*
X44464285Y-62133390D01*
X44464285Y-62133390D02*
X44511904Y-62181009D01*
X44511904Y-62181009D02*
X44559523Y-62276247D01*
X44559523Y-62276247D02*
X44559523Y-62514342D01*
X44559523Y-62514342D02*
X44511904Y-62609580D01*
X44511904Y-62609580D02*
X44464285Y-62657200D01*
X44464285Y-62657200D02*
X44369047Y-62704819D01*
X44369047Y-62704819D02*
X44083333Y-62704819D01*
X44083333Y-62704819D02*
X43988095Y-62657200D01*
X43988095Y-62657200D02*
X43940476Y-62609580D01*
X24463333Y-47634819D02*
X24130000Y-47158628D01*
X23891905Y-47634819D02*
X23891905Y-46634819D01*
X23891905Y-46634819D02*
X24272857Y-46634819D01*
X24272857Y-46634819D02*
X24368095Y-46682438D01*
X24368095Y-46682438D02*
X24415714Y-46730057D01*
X24415714Y-46730057D02*
X24463333Y-46825295D01*
X24463333Y-46825295D02*
X24463333Y-46968152D01*
X24463333Y-46968152D02*
X24415714Y-47063390D01*
X24415714Y-47063390D02*
X24368095Y-47111009D01*
X24368095Y-47111009D02*
X24272857Y-47158628D01*
X24272857Y-47158628D02*
X23891905Y-47158628D01*
X25320476Y-46634819D02*
X25130000Y-46634819D01*
X25130000Y-46634819D02*
X25034762Y-46682438D01*
X25034762Y-46682438D02*
X24987143Y-46730057D01*
X24987143Y-46730057D02*
X24891905Y-46872914D01*
X24891905Y-46872914D02*
X24844286Y-47063390D01*
X24844286Y-47063390D02*
X24844286Y-47444342D01*
X24844286Y-47444342D02*
X24891905Y-47539580D01*
X24891905Y-47539580D02*
X24939524Y-47587200D01*
X24939524Y-47587200D02*
X25034762Y-47634819D01*
X25034762Y-47634819D02*
X25225238Y-47634819D01*
X25225238Y-47634819D02*
X25320476Y-47587200D01*
X25320476Y-47587200D02*
X25368095Y-47539580D01*
X25368095Y-47539580D02*
X25415714Y-47444342D01*
X25415714Y-47444342D02*
X25415714Y-47206247D01*
X25415714Y-47206247D02*
X25368095Y-47111009D01*
X25368095Y-47111009D02*
X25320476Y-47063390D01*
X25320476Y-47063390D02*
X25225238Y-47015771D01*
X25225238Y-47015771D02*
X25034762Y-47015771D01*
X25034762Y-47015771D02*
X24939524Y-47063390D01*
X24939524Y-47063390D02*
X24891905Y-47111009D01*
X24891905Y-47111009D02*
X24844286Y-47206247D01*
X23013333Y-44359580D02*
X22965714Y-44407200D01*
X22965714Y-44407200D02*
X22822857Y-44454819D01*
X22822857Y-44454819D02*
X22727619Y-44454819D01*
X22727619Y-44454819D02*
X22584762Y-44407200D01*
X22584762Y-44407200D02*
X22489524Y-44311961D01*
X22489524Y-44311961D02*
X22441905Y-44216723D01*
X22441905Y-44216723D02*
X22394286Y-44026247D01*
X22394286Y-44026247D02*
X22394286Y-43883390D01*
X22394286Y-43883390D02*
X22441905Y-43692914D01*
X22441905Y-43692914D02*
X22489524Y-43597676D01*
X22489524Y-43597676D02*
X22584762Y-43502438D01*
X22584762Y-43502438D02*
X22727619Y-43454819D01*
X22727619Y-43454819D02*
X22822857Y-43454819D01*
X22822857Y-43454819D02*
X22965714Y-43502438D01*
X22965714Y-43502438D02*
X23013333Y-43550057D01*
X23346667Y-43454819D02*
X24013333Y-43454819D01*
X24013333Y-43454819D02*
X23584762Y-44454819D01*
X34636666Y-21494819D02*
X34636666Y-22209104D01*
X34636666Y-22209104D02*
X34589047Y-22351961D01*
X34589047Y-22351961D02*
X34493809Y-22447200D01*
X34493809Y-22447200D02*
X34350952Y-22494819D01*
X34350952Y-22494819D02*
X34255714Y-22494819D01*
X35541428Y-21828152D02*
X35541428Y-22494819D01*
X35303333Y-21447200D02*
X35065238Y-22161485D01*
X35065238Y-22161485D02*
X35684285Y-22161485D01*
X27583333Y-48109580D02*
X27535714Y-48157200D01*
X27535714Y-48157200D02*
X27392857Y-48204819D01*
X27392857Y-48204819D02*
X27297619Y-48204819D01*
X27297619Y-48204819D02*
X27154762Y-48157200D01*
X27154762Y-48157200D02*
X27059524Y-48061961D01*
X27059524Y-48061961D02*
X27011905Y-47966723D01*
X27011905Y-47966723D02*
X26964286Y-47776247D01*
X26964286Y-47776247D02*
X26964286Y-47633390D01*
X26964286Y-47633390D02*
X27011905Y-47442914D01*
X27011905Y-47442914D02*
X27059524Y-47347676D01*
X27059524Y-47347676D02*
X27154762Y-47252438D01*
X27154762Y-47252438D02*
X27297619Y-47204819D01*
X27297619Y-47204819D02*
X27392857Y-47204819D01*
X27392857Y-47204819D02*
X27535714Y-47252438D01*
X27535714Y-47252438D02*
X27583333Y-47300057D01*
X28440476Y-47538152D02*
X28440476Y-48204819D01*
X28202381Y-47157200D02*
X27964286Y-47871485D01*
X27964286Y-47871485D02*
X28583333Y-47871485D01*
X25488095Y-62954819D02*
X25488095Y-61954819D01*
X25488095Y-62431009D02*
X26059523Y-62431009D01*
X26059523Y-62954819D02*
X26059523Y-61954819D01*
X26964285Y-62288152D02*
X26964285Y-62954819D01*
X26726190Y-61907200D02*
X26488095Y-62621485D01*
X26488095Y-62621485D02*
X27107142Y-62621485D01*
X29303333Y-25969580D02*
X29255714Y-26017200D01*
X29255714Y-26017200D02*
X29112857Y-26064819D01*
X29112857Y-26064819D02*
X29017619Y-26064819D01*
X29017619Y-26064819D02*
X28874762Y-26017200D01*
X28874762Y-26017200D02*
X28779524Y-25921961D01*
X28779524Y-25921961D02*
X28731905Y-25826723D01*
X28731905Y-25826723D02*
X28684286Y-25636247D01*
X28684286Y-25636247D02*
X28684286Y-25493390D01*
X28684286Y-25493390D02*
X28731905Y-25302914D01*
X28731905Y-25302914D02*
X28779524Y-25207676D01*
X28779524Y-25207676D02*
X28874762Y-25112438D01*
X28874762Y-25112438D02*
X29017619Y-25064819D01*
X29017619Y-25064819D02*
X29112857Y-25064819D01*
X29112857Y-25064819D02*
X29255714Y-25112438D01*
X29255714Y-25112438D02*
X29303333Y-25160057D01*
X30255714Y-26064819D02*
X29684286Y-26064819D01*
X29970000Y-26064819D02*
X29970000Y-25064819D01*
X29970000Y-25064819D02*
X29874762Y-25207676D01*
X29874762Y-25207676D02*
X29779524Y-25302914D01*
X29779524Y-25302914D02*
X29684286Y-25350533D01*
%TO.C,TP1*%
D12*
X28050000Y-22000000D02*
X29450000Y-22000000D01*
X28050000Y-23400000D02*
X28050000Y-22000000D01*
X29450000Y-22000000D02*
X29450000Y-23400000D01*
X29450000Y-23400000D02*
X28050000Y-23400000D01*
%TO.C,J6*%
X20940000Y-38780000D02*
X20940000Y-20940000D01*
X20940000Y-41380000D02*
X20940000Y-40050000D01*
X22270000Y-41380000D02*
X20940000Y-41380000D01*
X23600000Y-20940000D02*
X20940000Y-20940000D01*
X23600000Y-38780000D02*
X20940000Y-38780000D01*
X23600000Y-38780000D02*
X23600000Y-20940000D01*
%TO.C,J3*%
D13*
X20475001Y-51500000D02*
X20475001Y-54749999D01*
X20475001Y-55150001D02*
X20475001Y-58400000D01*
X22650000Y-51500000D02*
X20475001Y-51500000D01*
X22650000Y-54749999D02*
X20475001Y-54749999D01*
X22650000Y-55150001D02*
X20475001Y-55150001D01*
X22650000Y-58400000D02*
X20475001Y-58400000D01*
X22650001Y-51050000D02*
X22650001Y-59550000D01*
X22650001Y-51050000D02*
X37149999Y-51050000D01*
X27965999Y-50300000D02*
X33849998Y-50300000D01*
X27965999Y-51050001D02*
X27965999Y-50300000D01*
X33849998Y-51050001D02*
X33849998Y-50300000D01*
X37149999Y-51050000D02*
X37149999Y-59550000D01*
X37149999Y-59550000D02*
X22650001Y-59550000D01*
D14*
X33381000Y-49145000D02*
G75*
G02*
X32619000Y-49145000I-381000J0D01*
G01*
X32619000Y-49145000D02*
G75*
G02*
X33381000Y-49145000I381000J0D01*
G01*
%TO.C,TP3*%
D12*
X31050000Y-31800000D02*
X32450000Y-31800000D01*
X31050000Y-33200000D02*
X31050000Y-31800000D01*
X32450000Y-31800000D02*
X32450000Y-33200000D01*
X32450000Y-33200000D02*
X31050000Y-33200000D01*
%TO.C,R2*%
X26720000Y-23806359D02*
X26720000Y-24113641D01*
X27480000Y-23806359D02*
X27480000Y-24113641D01*
%TO.C,TP4*%
X25050000Y-31462005D02*
X26450000Y-31462005D01*
X25050000Y-32862005D02*
X25050000Y-31462005D01*
X26450000Y-31462005D02*
X26450000Y-32862005D01*
X26450000Y-32862005D02*
X25050000Y-32862005D01*
%TO.C,R4*%
X25903641Y-35370000D02*
X25596359Y-35370000D01*
X25903641Y-36130000D02*
X25596359Y-36130000D01*
%TO.C,R1*%
X25693641Y-24570000D02*
X25386359Y-24570000D01*
X25693641Y-25330000D02*
X25386359Y-25330000D01*
%TO.C,J2*%
X41040000Y-20940000D02*
X41040000Y-21860000D01*
X41040000Y-21860000D02*
X42640000Y-21860000D01*
X41040000Y-34140000D02*
X41040000Y-35060000D01*
X41040000Y-35060000D02*
X48860000Y-35060000D01*
X42640000Y-20940000D02*
X42640000Y-21860000D01*
X42640000Y-21860000D02*
X42640000Y-22140000D01*
X42640000Y-33860000D02*
X41425000Y-33860000D01*
X42640000Y-33860000D02*
X42640000Y-34140000D01*
X42640000Y-34140000D02*
X41040000Y-34140000D01*
X42640000Y-35060000D02*
X42640000Y-34140000D01*
X44500000Y-23500000D02*
X48860000Y-23500000D01*
X44500000Y-32500000D02*
X44500000Y-23500000D01*
X46600000Y-33300000D02*
X48860000Y-33300000D01*
X46600000Y-33800000D02*
X48860000Y-33800000D01*
X48860000Y-20940000D02*
X41040000Y-20940000D01*
X48860000Y-32500000D02*
X44500000Y-32500000D01*
X48860000Y-35060000D02*
X48860000Y-20940000D01*
X45000000Y-21700000D02*
X46600000Y-21700000D01*
X46600000Y-22700000D01*
X45000000Y-22700000D01*
X45000000Y-21700000D01*
X45000000Y-33300000D02*
X46600000Y-33300000D01*
X46600000Y-34300000D01*
X45000000Y-34300000D01*
X45000000Y-33300000D01*
%TO.C,J1*%
X39000000Y-59380000D02*
X39000000Y-58000000D01*
X40380000Y-59380000D02*
X39000000Y-59380000D01*
X41650000Y-56620000D02*
X49380000Y-56620000D01*
X41650000Y-59380000D02*
X41650000Y-56620000D01*
X41650000Y-59380000D02*
X49380000Y-59380000D01*
X49380000Y-59380000D02*
X49380000Y-56620000D01*
%TO.C,TP2*%
X24800000Y-22550000D02*
X26200000Y-22550000D01*
X24800000Y-23950000D02*
X24800000Y-22550000D01*
X26200000Y-22550000D02*
X26200000Y-23950000D01*
X26200000Y-23950000D02*
X24800000Y-23950000D01*
%TO.C,R5*%
X35300000Y-47316359D02*
X35300000Y-47623641D01*
X36060000Y-47316359D02*
X36060000Y-47623641D01*
%TO.C,J8*%
X41090000Y-36440000D02*
X41090000Y-37360000D01*
X41090000Y-37360000D02*
X42690000Y-37360000D01*
X41090000Y-49640000D02*
X41090000Y-50560000D01*
X41090000Y-50560000D02*
X48910000Y-50560000D01*
X42690000Y-36440000D02*
X42690000Y-37360000D01*
X42690000Y-37360000D02*
X42690000Y-37640000D01*
X42690000Y-49360000D02*
X41475000Y-49360000D01*
X42690000Y-49360000D02*
X42690000Y-49640000D01*
X42690000Y-49640000D02*
X41090000Y-49640000D01*
X42690000Y-50560000D02*
X42690000Y-49640000D01*
X44550000Y-39000000D02*
X48910000Y-39000000D01*
X44550000Y-48000000D02*
X44550000Y-39000000D01*
X46650000Y-48800000D02*
X48910000Y-48800000D01*
X46650000Y-49300000D02*
X48910000Y-49300000D01*
X48910000Y-36440000D02*
X41090000Y-36440000D01*
X48910000Y-48000000D02*
X44550000Y-48000000D01*
X48910000Y-50560000D02*
X48910000Y-36440000D01*
X45050000Y-37200000D02*
X46650000Y-37200000D01*
X46650000Y-38200000D01*
X45050000Y-38200000D01*
X45050000Y-37200000D01*
X45050000Y-48800000D02*
X46650000Y-48800000D01*
X46650000Y-49800000D01*
X45050000Y-49800000D01*
X45050000Y-48800000D01*
%TO.C,R3*%
X25903641Y-33370000D02*
X25596359Y-33370000D01*
X25903641Y-34130000D02*
X25596359Y-34130000D01*
%TO.C,R6*%
X24616359Y-45400000D02*
X24923641Y-45400000D01*
X24616359Y-46160000D02*
X24923641Y-46160000D01*
%TO.C,C7*%
X22142164Y-42390000D02*
X22357836Y-42390000D01*
X22142164Y-43110000D02*
X22357836Y-43110000D01*
%TO.C,J4*%
X33640000Y-26080000D02*
X33640000Y-38840000D01*
X33640000Y-26080000D02*
X36300000Y-26080000D01*
X33640000Y-38840000D02*
X36300000Y-38840000D01*
X34970000Y-23480000D02*
X36300000Y-23480000D01*
X36300000Y-23480000D02*
X36300000Y-24810000D01*
X36300000Y-26080000D02*
X36300000Y-38840000D01*
%TO.C,C4*%
X28125000Y-43315000D02*
X28750000Y-43315000D01*
X28437500Y-43002500D02*
X28437500Y-43627500D01*
X28990000Y-43304437D02*
X28990000Y-43940000D01*
X28990000Y-43304437D02*
X30054437Y-42240000D01*
X28990000Y-46695563D02*
X28990000Y-46060000D01*
X28990000Y-46695563D02*
X30054437Y-47760000D01*
X30054437Y-42240000D02*
X34510000Y-42240000D01*
X30054437Y-47760000D02*
X34510000Y-47760000D01*
X34510000Y-42240000D02*
X34510000Y-43940000D01*
X34510000Y-47760000D02*
X34510000Y-46060000D01*
%TO.C,C1*%
X28672164Y-24060000D02*
X28887836Y-24060000D01*
X28672164Y-24780000D02*
X28887836Y-24780000D01*
%TD*%
M02*
