%TF.GenerationSoftware,KiCad,Pcbnew,10.0.6*%
%TF.CreationDate,2026-10-06T17:14:13-04:00*%
%TF.ProjectId,motor_controller_encoder_counter,6d6f746f-725f-4636-9f6e-74726f6c6c65,rev?*%
%TF.SameCoordinates,Original*%
%TF.FileFunction,Copper,L4,Bot*%
%TF.FilePolarity,Positive*%
%FSLAX46Y46*%
G04 Gerber Fmt 4.6, Leading zero omitted, Abs format (unit mm)*
G04 Created by KiCad (PCBNEW 10.0.6) date 2026-10-06 17:14:13*
%MOMM*%
%LPD*%
G01*
G04 APERTURE LIST*
G04 Aperture macros list*
%AMRoundRect*
0 Rectangle with rounded corners*
0 $1 Rounding radius*
0 $2 $3 $4 $5 $6 $7 $8 $9 X,Y pos of 4 corners*
0 Add a 4 corners polygon primitive as box body*
4,1,4,$2,$3,$4,$5,$6,$7,$8,$9,$2,$3,0*
0 Add four circle primitives for the rounded corners*
1,1,$1+$1,$2,$3*
1,1,$1+$1,$4,$5*
1,1,$1+$1,$6,$7*
1,1,$1+$1,$8,$9*
0 Add four rect primitives between the rounded corners*
20,1,$1+$1,$2,$3,$4,$5,0*
20,1,$1+$1,$4,$5,$6,$7,0*
20,1,$1+$1,$6,$7,$8,$9,0*
20,1,$1+$1,$8,$9,$2,$3,0*%
G04 Aperture macros list end*
%TA.AperFunction,ComponentPad*%
%ADD10R,1.700000X1.700000*%
%TD*%
%TA.AperFunction,ComponentPad*%
%ADD11C,1.700000*%
%TD*%
%TA.AperFunction,ComponentPad*%
%ADD12C,1.900000*%
%TD*%
%TA.AperFunction,ComponentPad*%
%ADD13RoundRect,0.250000X0.625000X-0.350000X0.625000X0.350000X-0.625000X0.350000X-0.625000X-0.350000X0*%
%TD*%
%TA.AperFunction,ComponentPad*%
%ADD14O,1.750000X1.200000*%
%TD*%
%TA.AperFunction,SMDPad,CuDef*%
%ADD15RoundRect,0.140000X0.170000X-0.140000X0.170000X0.140000X-0.170000X0.140000X-0.170000X-0.140000X0*%
%TD*%
%TA.AperFunction,SMDPad,CuDef*%
%ADD16RoundRect,0.140000X-0.170000X0.140000X-0.170000X-0.140000X0.170000X-0.140000X0.170000X0.140000X0*%
%TD*%
%TA.AperFunction,SMDPad,CuDef*%
%ADD17RoundRect,0.100000X0.100000X-0.637500X0.100000X0.637500X-0.100000X0.637500X-0.100000X-0.637500X0*%
%TD*%
%TA.AperFunction,ViaPad*%
%ADD18C,0.600000*%
%TD*%
%TA.AperFunction,ViaPad*%
%ADD19C,0.900000*%
%TD*%
%TA.AperFunction,Conductor*%
%ADD20C,0.150000*%
%TD*%
G04 APERTURE END LIST*
D10*
%TO.P,J6,1,Pin_1_1*%
%TO.N,GND*%
X22270000Y-40050000D03*
D11*
%TO.P,J6,2,Pin_2_2*%
%TO.N,+3.3V*%
X22270000Y-37510000D03*
%TO.P,J6,3,Pin_3_3*%
%TO.N,/SDA*%
X22270000Y-34970000D03*
%TO.P,J6,4,Pin_4_4*%
%TO.N,/SCL*%
X22270000Y-32430000D03*
%TO.P,J6,5,Pin_5_5*%
%TO.N,unconnected-(J6-Pin_5-Pad5)*%
X22270000Y-29890000D03*
%TO.P,J6,6,Pin_6_6*%
%TO.N,unconnected-(J6-Pin_6-Pad6)*%
X22270000Y-27350000D03*
%TO.P,J6,7,Pin_7_7*%
%TO.N,unconnected-(J6-Pin_7-Pad7)*%
X22270000Y-24810000D03*
%TO.P,J6,8,Pin_8_8*%
%TO.N,unconnected-(J6-Pin_8-Pad8)*%
X22270000Y-22270000D03*
%TD*%
D12*
%TO.P,J3,1,1_1*%
%TO.N,+12V*%
X33000000Y-53500000D03*
%TO.P,J3,2,1_2_2*%
X28000000Y-53500000D03*
%TO.P,J3,3,2_3*%
%TO.N,GND*%
X33000000Y-57000000D03*
%TO.P,J3,4,2_2_4*%
X28000000Y-57000000D03*
%TD*%
D13*
%TO.P,J2,1,Pin_1_1*%
%TO.N,/M1_A*%
X42500000Y-33000000D03*
D14*
%TO.P,J2,2,Pin_2_2*%
%TO.N,/M1_B*%
X42500000Y-31000000D03*
%TO.P,J2,3,Pin_3_3*%
%TO.N,+3.3V*%
X42500000Y-29000000D03*
%TO.P,J2,4,Pin_4_4*%
%TO.N,/SingleMotorAndCounter/Encoder_A*%
X42500000Y-27000000D03*
%TO.P,J2,5,Pin_5_5*%
%TO.N,GND*%
X42500000Y-25000000D03*
%TO.P,J2,6,Pin_6_6*%
%TO.N,/SingleMotorAndCounter/Encoder_B*%
X42500000Y-23000000D03*
%TD*%
D10*
%TO.P,J1,1,Pin_1_1*%
%TO.N,+3.3V*%
X40380000Y-58000000D03*
D11*
%TO.P,J1,2,Pin_2_2*%
%TO.N,/SCL*%
X42920000Y-58000000D03*
%TO.P,J1,3,Pin_3_3*%
%TO.N,/SDA*%
X45460000Y-58000000D03*
%TO.P,J1,4,Pin_4_4*%
%TO.N,GND*%
X48000000Y-58000000D03*
%TD*%
D13*
%TO.P,J8,1,Pin_1_1*%
%TO.N,/M2_A*%
X42550000Y-48500000D03*
D14*
%TO.P,J8,2,Pin_2_2*%
%TO.N,/M2_B*%
X42550000Y-46500000D03*
%TO.P,J8,3,Pin_3_3*%
%TO.N,+3.3V*%
X42550000Y-44500000D03*
%TO.P,J8,4,Pin_4_4*%
%TO.N,/SingleMotorAndCounter1/Encoder_A*%
X42550000Y-42500000D03*
%TO.P,J8,5,Pin_5_5*%
%TO.N,GND*%
X42550000Y-40500000D03*
%TO.P,J8,6,Pin_6_6*%
%TO.N,/SingleMotorAndCounter1/Encoder_B*%
X42550000Y-38500000D03*
%TD*%
D10*
%TO.P,J4,1,Pin_1_1*%
%TO.N,/M1_A*%
X34970000Y-24810000D03*
D11*
%TO.P,J4,2,Pin_2_2*%
%TO.N,/M1_B*%
X34970000Y-27350000D03*
%TO.P,J4,3,Pin_3_3*%
%TO.N,+12V*%
X34970000Y-29890000D03*
%TO.P,J4,4,Pin_4_4*%
%TO.N,GND*%
X34970000Y-32430000D03*
%TO.P,J4,5,Pin_5_5*%
%TO.N,/M2_A*%
X34970000Y-34970000D03*
%TO.P,J4,6,Pin_6_6*%
%TO.N,/M2_B*%
X34970000Y-37510000D03*
%TD*%
D15*
%TO.P,C3,1*%
%TO.N,+3.3V*%
X45250000Y-42730000D03*
%TO.P,C3,2*%
%TO.N,GND*%
X45250000Y-41770000D03*
%TD*%
%TO.P,C2,1*%
%TO.N,GND*%
X46000000Y-54730000D03*
%TO.P,C2,2*%
%TO.N,+3.3V*%
X46000000Y-53770000D03*
%TD*%
D16*
%TO.P,C5,1*%
%TO.N,GND*%
X30150000Y-30990000D03*
%TO.P,C5,2*%
%TO.N,+3.3V*%
X30150000Y-31950000D03*
%TD*%
D17*
%TO.P,U1,1,A_1*%
%TO.N,/SingleMotorAndCounter/Encoder_A*%
X29200000Y-27862500D03*
%TO.P,U1,2,B_2*%
%TO.N,/SingleMotorAndCounter/Encoder_B*%
X28550000Y-27862500D03*
%TO.P,U1,3,Z_3*%
%TO.N,+3.3V*%
X27900000Y-27862500D03*
%TO.P,U1,4,CE_4*%
X27250000Y-27862500D03*
%TO.P,U1,5,SCL_5*%
%TO.N,/SCL*%
X26600000Y-27862500D03*
%TO.P,U1,6,SDA_6*%
%TO.N,/SDA*%
X25950000Y-27862500D03*
%TO.P,U1,7,VSS_7*%
%TO.N,GND*%
X25300000Y-27862500D03*
%TO.P,U1,8,A0_8*%
X25300000Y-22137500D03*
%TO.P,U1,9,A1_9*%
X25950000Y-22137500D03*
%TO.P,U1,10,A2_10*%
%TO.N,Net-(U1-A2)*%
X26600000Y-22137500D03*
%TO.P,U1,11,NC_11*%
%TO.N,unconnected-(U1-NC-Pad11)*%
X27250000Y-22137500D03*
%TO.P,U1,12,LFLAG/_12*%
%TO.N,Net-(U1-LFLAG{slash})*%
X27900000Y-22137500D03*
%TO.P,U1,13,DFLAG/_13*%
%TO.N,Net-(U1-DFLAG{slash})*%
X28550000Y-22137500D03*
%TO.P,U1,14,VDD_14*%
%TO.N,+3.3V*%
X29200000Y-22137500D03*
%TD*%
%TO.P,U2,1,A_1*%
%TO.N,/SingleMotorAndCounter1/Encoder_A*%
X29200000Y-37862500D03*
%TO.P,U2,2,B_2*%
%TO.N,/SingleMotorAndCounter1/Encoder_B*%
X28550000Y-37862500D03*
%TO.P,U2,3,Z_3*%
%TO.N,+3.3V*%
X27900000Y-37862500D03*
%TO.P,U2,4,CE_4*%
X27250000Y-37862500D03*
%TO.P,U2,5,SCL_5*%
%TO.N,/SCL*%
X26600000Y-37862500D03*
%TO.P,U2,6,SDA_6*%
%TO.N,/SDA*%
X25950000Y-37862500D03*
%TO.P,U2,7,VSS_7*%
%TO.N,GND*%
X25300000Y-37862500D03*
%TO.P,U2,8,A0_8*%
%TO.N,+3.3V*%
X25300000Y-32137500D03*
%TO.P,U2,9,A1_9*%
%TO.N,GND*%
X25950000Y-32137500D03*
%TO.P,U2,10,A2_10*%
%TO.N,Net-(U2-A2)*%
X26600000Y-32137500D03*
%TO.P,U2,11,NC_11*%
%TO.N,unconnected-(U2-NC-Pad11)*%
X27250000Y-32137500D03*
%TO.P,U2,12,LFLAG/_12*%
%TO.N,Net-(U2-LFLAG{slash})*%
X27900000Y-32137500D03*
%TO.P,U2,13,DFLAG/_13*%
%TO.N,Net-(U2-DFLAG{slash})*%
X28550000Y-32137500D03*
%TO.P,U2,14,VDD_14*%
%TO.N,+3.3V*%
X29200000Y-32137500D03*
%TD*%
D15*
%TO.P,C6,1*%
%TO.N,+3.3V*%
X45250000Y-27980000D03*
%TO.P,C6,2*%
%TO.N,GND*%
X45250000Y-27020000D03*
%TD*%
D18*
%TO.N,Net-(U1-DFLAG{slash})*%
X29750000Y-23250000D03*
%TO.N,GND*%
X23500000Y-21000000D03*
X45000000Y-25250000D03*
D19*
X33000000Y-43000000D03*
D18*
X30987062Y-31634808D03*
X25300000Y-39000000D03*
X25300000Y-22137500D03*
D19*
X35000000Y-43175000D03*
D18*
X47500000Y-56100000D03*
X45000000Y-40500000D03*
X25300000Y-26580000D03*
X26173304Y-31056852D03*
X22730000Y-41630000D03*
X21000000Y-26100000D03*
D19*
%TO.N,+3.3V*%
X44320000Y-54620000D03*
D18*
X23670000Y-46240000D03*
D19*
X44300000Y-51900000D03*
D18*
X24500000Y-33500000D03*
X21910000Y-43770000D03*
X27640000Y-26140000D03*
X35893637Y-46287029D03*
%TO.N,/SDA*%
X25092177Y-29039328D03*
X25950000Y-41500000D03*
X26600000Y-45300000D03*
X36250000Y-48750000D03*
%TO.N,/SCL*%
X25200000Y-42800000D03*
X20800000Y-35500000D03*
X25700000Y-46500000D03*
X26600000Y-29000000D03*
%TO.N,Net-(U2-DFLAG{slash})*%
X31750000Y-32500000D03*
%TO.N,Net-(U1-A2)*%
X26600000Y-22200000D03*
%TO.N,Net-(U2-LFLAG{slash})*%
X25749943Y-34386494D03*
%TO.N,Net-(U2-A2)*%
X26881329Y-33256186D03*
%TO.N,Net-(U1-LFLAG{slash})*%
X25505161Y-23314857D03*
%TD*%
%TO.N,Net-(U1-DFLAG{slash})*%
D20*
X28550000Y-22137500D02*
X28550000Y-23089411D01*
X29360000Y-23640000D02*
X29750000Y-23250000D01*
X28550000Y-23089411D02*
X29100589Y-23640000D01*
X29100589Y-23640000D02*
X29360000Y-23640000D01*
%TO.N,GND*%
X25950000Y-22137500D02*
X25300000Y-22137500D01*
X30342254Y-30990000D02*
X30987062Y-31634808D01*
X46000000Y-54730000D02*
X47370000Y-56100000D01*
X25950000Y-32137500D02*
X25950000Y-31280156D01*
X22270000Y-41170000D02*
X22270000Y-40050000D01*
X44750000Y-25000000D02*
X45000000Y-25250000D01*
X25950000Y-31280156D02*
X26173304Y-31056852D01*
X25300000Y-26580000D02*
X25300000Y-27862500D01*
X25300000Y-37862500D02*
X25300000Y-39000000D01*
X47370000Y-56100000D02*
X47500000Y-56100000D01*
X22730000Y-41630000D02*
X22270000Y-41170000D01*
X45250000Y-25500000D02*
X45000000Y-25250000D01*
X42550000Y-40500000D02*
X45000000Y-40500000D01*
X45250000Y-41770000D02*
X45250000Y-40750000D01*
X45250000Y-27020000D02*
X45250000Y-25500000D01*
X30150000Y-30990000D02*
X30342254Y-30990000D01*
X42500000Y-25000000D02*
X44750000Y-25000000D01*
X45250000Y-40750000D02*
X45000000Y-40500000D01*
%TO.N,+3.3V*%
X27800000Y-26400000D02*
X27800000Y-26300000D01*
X27900000Y-37862500D02*
X27900000Y-38900000D01*
X29200000Y-32137500D02*
X29962500Y-32137500D01*
X24500000Y-33500000D02*
X24500000Y-32937500D01*
X29200000Y-22137500D02*
X29200000Y-20900000D01*
X27250000Y-37862500D02*
X27250000Y-38950000D01*
X27250000Y-26800000D02*
X27280000Y-26770000D01*
X27250000Y-37862500D02*
X27900000Y-37862500D01*
X25300000Y-31050000D02*
X25290000Y-31040000D01*
X29200000Y-31010000D02*
X29170000Y-30980000D01*
X29962500Y-32137500D02*
X30150000Y-31950000D01*
X27800000Y-26300000D02*
X27640000Y-26140000D01*
X29200000Y-32137500D02*
X29200000Y-31010000D01*
X27900000Y-27862500D02*
X27900000Y-29000000D01*
X27900000Y-27862500D02*
X27900000Y-26500000D01*
X27250000Y-28950000D02*
X27500000Y-29200000D01*
X27250000Y-36950000D02*
X27400000Y-36800000D01*
X25300000Y-32137500D02*
X25300000Y-31050000D01*
X27900000Y-26500000D02*
X27800000Y-26400000D01*
X27900000Y-27862500D02*
X27250000Y-27862500D01*
X27250000Y-37862500D02*
X27250000Y-36950000D01*
X27250000Y-27862500D02*
X27250000Y-28950000D01*
X24500000Y-32937500D02*
X25300000Y-32137500D01*
X27250000Y-27862500D02*
X27250000Y-26800000D01*
X27900000Y-37862500D02*
X27900000Y-36700000D01*
X27250000Y-38950000D02*
X27300000Y-39000000D01*
%TO.N,/SDA*%
X36250000Y-48750000D02*
X45460000Y-57960000D01*
X45460000Y-57960000D02*
X45460000Y-58000000D01*
X25092177Y-29039328D02*
X25460672Y-29039328D01*
X25950000Y-28550000D02*
X25950000Y-27862500D01*
X25950000Y-41500000D02*
X25950000Y-37862500D01*
X25460672Y-29039328D02*
X25950000Y-28550000D01*
X27700000Y-46400000D02*
X26600000Y-45300000D01*
X33900000Y-46400000D02*
X27700000Y-46400000D01*
X36250000Y-48750000D02*
X33900000Y-46400000D01*
%TO.N,/SCL*%
X26600000Y-42200000D02*
X26600000Y-37862500D01*
X22270000Y-32430000D02*
X20800000Y-33900000D01*
X32520000Y-47600000D02*
X42920000Y-58000000D01*
X25200000Y-42800000D02*
X26000000Y-42800000D01*
X26800000Y-47600000D02*
X32520000Y-47600000D01*
X25700000Y-46500000D02*
X26800000Y-47600000D01*
X26000000Y-42800000D02*
X26600000Y-42200000D01*
X20800000Y-33900000D02*
X20800000Y-35500000D01*
X26600000Y-27862500D02*
X26600000Y-29000000D01*
%TO.N,Net-(U2-DFLAG{slash})*%
X29075736Y-33600000D02*
X30650000Y-33600000D01*
X30650000Y-33600000D02*
X31750000Y-32500000D01*
X28550000Y-33074264D02*
X29075736Y-33600000D01*
X28550000Y-32137500D02*
X28550000Y-33074264D01*
%TO.N,Net-(U1-A2)*%
X26600000Y-22137500D02*
X26600000Y-22200000D01*
%TO.N,Net-(U2-LFLAG{slash})*%
X25978327Y-34500000D02*
X26750000Y-34500000D01*
X27900000Y-33350000D02*
X27900000Y-32137500D01*
X26750000Y-34500000D02*
X27900000Y-33350000D01*
X25749943Y-34386494D02*
X25864821Y-34386494D01*
X25864821Y-34386494D02*
X25978327Y-34500000D01*
%TO.N,Net-(U2-A2)*%
X26885000Y-33252515D02*
X26885000Y-32885000D01*
X26885000Y-32885000D02*
X26600000Y-32600000D01*
X26881329Y-33256186D02*
X26885000Y-33252515D01*
X26600000Y-32600000D02*
X26600000Y-32137500D01*
%TO.N,/SingleMotorAndCounter/Encoder_A*%
X29200000Y-26800000D02*
X29200000Y-27862500D01*
X34000000Y-22000000D02*
X29200000Y-26800000D01*
X37500000Y-22000000D02*
X34000000Y-22000000D01*
X42500000Y-27000000D02*
X37500000Y-22000000D01*
%TO.N,/SingleMotorAndCounter/Encoder_B*%
X28550000Y-26700000D02*
X28550000Y-27862500D01*
X34250000Y-21000000D02*
X28550000Y-26700000D01*
X40500000Y-21000000D02*
X34250000Y-21000000D01*
X42500000Y-23000000D02*
X40500000Y-21000000D01*
%TO.N,Net-(U1-LFLAG{slash})*%
X27900000Y-22137500D02*
X27900000Y-22874999D01*
X27460142Y-23314857D02*
X25505161Y-23314857D01*
X27900000Y-22874999D02*
X27460142Y-23314857D01*
%TO.N,/SingleMotorAndCounter1/Encoder_A*%
X33837500Y-42500000D02*
X29200000Y-37862500D01*
X42550000Y-42500000D02*
X33837500Y-42500000D01*
%TO.N,/SingleMotorAndCounter1/Encoder_B*%
X42550000Y-38500000D02*
X41000000Y-38500000D01*
X38500000Y-41000000D02*
X33750000Y-41000000D01*
X41000000Y-38500000D02*
X38500000Y-41000000D01*
X28900000Y-36600000D02*
X28550000Y-36950000D01*
X33750000Y-41000000D02*
X29350000Y-36600000D01*
X29350000Y-36600000D02*
X28900000Y-36600000D01*
X28550000Y-36950000D02*
X28550000Y-37862500D01*
%TD*%
%TA.AperFunction,Conductor*%
%TO.N,+3.3V*%
G36*
X29667713Y-31704394D02*
G01*
X29698701Y-31712872D01*
X29717445Y-31720808D01*
X29722617Y-31722223D01*
X29724465Y-31722744D01*
X29842238Y-31756961D01*
X29868208Y-31764506D01*
X29869398Y-31764972D01*
X29878266Y-31767437D01*
X29879655Y-31767832D01*
X29879682Y-31767839D01*
X29879966Y-31767871D01*
X29883842Y-31768023D01*
X29915310Y-31770500D01*
X30008170Y-31770500D01*
X30043102Y-31775522D01*
X30051200Y-31777899D01*
X30065882Y-31782210D01*
X30114056Y-31809160D01*
X30115428Y-31810399D01*
X30129269Y-31825116D01*
X30254973Y-31982748D01*
X30263537Y-31997351D01*
X30264082Y-31997005D01*
X30270052Y-32006392D01*
X30272665Y-32009223D01*
X30284649Y-32024436D01*
X30358204Y-32134518D01*
X30363923Y-32143962D01*
X30384821Y-32182217D01*
X30400000Y-32241664D01*
X30400000Y-32728789D01*
X30420905Y-32727146D01*
X30420907Y-32727145D01*
X30420910Y-32727145D01*
X30576195Y-32682031D01*
X30715374Y-32599721D01*
X30715383Y-32599714D01*
X30737473Y-32577623D01*
X30765723Y-32556474D01*
X30777684Y-32549943D01*
X30845956Y-32535094D01*
X30911420Y-32559513D01*
X30950354Y-32608271D01*
X30953720Y-32615819D01*
X30962088Y-32642130D01*
X30980258Y-32733482D01*
X30980260Y-32733488D01*
X30980261Y-32733491D01*
X30980264Y-32733501D01*
X31013733Y-32814303D01*
X31030242Y-32854159D01*
X31038969Y-32888353D01*
X31040640Y-32903892D01*
X31028236Y-32972652D01*
X31022141Y-32984829D01*
X30998937Y-33017008D01*
X30630373Y-33385573D01*
X30602124Y-33406721D01*
X30579037Y-33419329D01*
X30519605Y-33434500D01*
X29809252Y-33434500D01*
X29774317Y-33429477D01*
X29763463Y-33426290D01*
X29704685Y-33388516D01*
X29675660Y-33324960D01*
X29685602Y-33255806D01*
X29687128Y-33252464D01*
X29724434Y-33205602D01*
X29727923Y-33202926D01*
X29824100Y-33077586D01*
X29849192Y-33017008D01*
X29884554Y-32931635D01*
X29884555Y-32931628D01*
X29899999Y-32814329D01*
X29900000Y-32814315D01*
X29900000Y-32337500D01*
X29392330Y-32337500D01*
X29357389Y-32332475D01*
X29342390Y-32328070D01*
X29283644Y-32290327D01*
X29282457Y-32288958D01*
X29254980Y-32234094D01*
X29253334Y-32226528D01*
X29250499Y-32200175D01*
X29250499Y-31841825D01*
X29255521Y-31806894D01*
X29259925Y-31791894D01*
X29297670Y-31733144D01*
X29299039Y-31731957D01*
X29353920Y-31704476D01*
X29358259Y-31703532D01*
X29361482Y-31702832D01*
X29387831Y-31700000D01*
X29634994Y-31700000D01*
X29667713Y-31704394D01*
G37*
%TD.AperFunction*%
%TA.AperFunction,Conductor*%
G36*
X47997782Y-16000579D02*
G01*
X48001100Y-16000697D01*
X48002207Y-16000737D01*
X48006624Y-16000973D01*
X48200146Y-16014814D01*
X48208916Y-16015756D01*
X48217713Y-16017021D01*
X48226370Y-16018584D01*
X48409465Y-16058413D01*
X48418038Y-16060600D01*
X48426506Y-16063087D01*
X48434896Y-16065878D01*
X48610475Y-16131366D01*
X48618640Y-16134749D01*
X48626666Y-16138414D01*
X48634570Y-16142369D01*
X48747495Y-16204032D01*
X48799013Y-16232163D01*
X48806630Y-16236682D01*
X48814078Y-16241469D01*
X48821344Y-16246515D01*
X48971312Y-16358779D01*
X48978204Y-16364333D01*
X48984893Y-16370129D01*
X48991372Y-16376161D01*
X49123837Y-16508626D01*
X49129869Y-16515105D01*
X49135665Y-16521794D01*
X49141219Y-16528686D01*
X49253483Y-16678654D01*
X49258529Y-16685920D01*
X49263316Y-16693368D01*
X49267835Y-16700985D01*
X49357620Y-16865413D01*
X49361577Y-16873317D01*
X49365256Y-16881372D01*
X49368640Y-16889542D01*
X49434111Y-17065080D01*
X49436906Y-17073478D01*
X49439398Y-17081965D01*
X49441587Y-17090542D01*
X49481407Y-17273595D01*
X49482978Y-17282297D01*
X49484238Y-17291056D01*
X49485185Y-17299865D01*
X49499026Y-17493371D01*
X49499263Y-17497791D01*
X49499421Y-17502214D01*
X49499500Y-17506641D01*
X49499500Y-57443943D01*
X49497981Y-57449112D01*
X49499059Y-57454393D01*
X49494472Y-57478896D01*
X49492513Y-57485564D01*
X49482877Y-57500551D01*
X49479815Y-57510982D01*
X49471591Y-57518107D01*
X49454730Y-57544336D01*
X49391169Y-57573352D01*
X49322012Y-57563398D01*
X49270200Y-57519142D01*
X49266928Y-57514208D01*
X49252338Y-57483993D01*
X49251557Y-57481588D01*
X49237700Y-57454393D01*
X49159653Y-57301216D01*
X49155051Y-57292184D01*
X49155049Y-57292181D01*
X49155048Y-57292179D01*
X49154389Y-57291272D01*
X49154387Y-57291268D01*
X49030112Y-57120216D01*
X48879788Y-56969892D01*
X48879786Y-56969890D01*
X48707820Y-56844951D01*
X48625820Y-56803170D01*
X48535911Y-56757359D01*
X48530571Y-56753479D01*
X48506253Y-56743406D01*
X48499734Y-56742374D01*
X48325076Y-56685624D01*
X48324648Y-56685448D01*
X48316241Y-56682752D01*
X48305542Y-56681058D01*
X48271820Y-56670631D01*
X48259278Y-56664685D01*
X48207136Y-56618178D01*
X48188414Y-56550876D01*
X48188474Y-56546658D01*
X48206988Y-56486768D01*
X48205539Y-56485942D01*
X48209388Y-56479187D01*
X48209391Y-56479183D01*
X48209394Y-56479179D01*
X48269737Y-56333497D01*
X48300500Y-56178842D01*
X48300500Y-56021158D01*
X48300500Y-56021155D01*
X48300500Y-56020976D01*
X48300074Y-56019018D01*
X48275131Y-55893621D01*
X48269737Y-55866503D01*
X48269735Y-55866497D01*
X48269731Y-55866487D01*
X48209400Y-55720833D01*
X48209395Y-55720824D01*
X48209390Y-55720814D01*
X48121789Y-55589711D01*
X48121786Y-55589707D01*
X48121781Y-55589701D01*
X48010297Y-55478217D01*
X48010291Y-55478212D01*
X48010290Y-55478211D01*
X47879191Y-55390613D01*
X47879188Y-55390611D01*
X47879185Y-55390609D01*
X47879172Y-55390602D01*
X47879165Y-55390598D01*
X47733502Y-55330264D01*
X47733471Y-55330257D01*
X47578847Y-55299500D01*
X47578845Y-55299500D01*
X47578842Y-55299500D01*
X47421158Y-55299500D01*
X47421155Y-55299500D01*
X47421153Y-55299500D01*
X47266527Y-55330257D01*
X47266496Y-55330264D01*
X47120837Y-55390597D01*
X47120826Y-55390602D01*
X47120808Y-55390612D01*
X47084676Y-55414754D01*
X47052843Y-55429983D01*
X47037929Y-55434653D01*
X46968070Y-55435901D01*
X46968069Y-55435901D01*
X46960983Y-55433957D01*
X46906108Y-55402056D01*
X46794042Y-55289990D01*
X46772890Y-55261734D01*
X46765398Y-55248013D01*
X46750547Y-55179744D01*
X46751248Y-55169941D01*
X46761169Y-55129450D01*
X46762489Y-55126402D01*
X46762494Y-55126395D01*
X46807643Y-54970993D01*
X46810500Y-54934690D01*
X46810500Y-54525310D01*
X46807643Y-54489007D01*
X46794839Y-54444937D01*
X46763137Y-54335821D01*
X46762579Y-54333756D01*
X46757856Y-54325414D01*
X46745570Y-54294820D01*
X46741248Y-54277786D01*
X46742463Y-54212362D01*
X46745728Y-54201242D01*
X46757975Y-54173052D01*
X46762032Y-54166194D01*
X46804504Y-54020000D01*
X46515008Y-54020000D01*
X46482284Y-54015604D01*
X46450588Y-54006932D01*
X46427888Y-53998252D01*
X46426423Y-53997520D01*
X46426398Y-53997508D01*
X46426395Y-53997506D01*
X46426393Y-53997505D01*
X46426389Y-53997503D01*
X46426386Y-53997502D01*
X46426384Y-53997501D01*
X46426382Y-53997500D01*
X46426384Y-53997500D01*
X46271007Y-53952359D01*
X46271003Y-53952358D01*
X46270997Y-53952357D01*
X46270991Y-53952356D01*
X46262925Y-53951721D01*
X46234704Y-53949500D01*
X46234697Y-53949500D01*
X46234690Y-53949500D01*
X45765310Y-53949500D01*
X45765302Y-53949500D01*
X45765294Y-53949500D01*
X45733040Y-53952038D01*
X45729008Y-53952356D01*
X45729002Y-53952357D01*
X45728995Y-53952358D01*
X45728991Y-53952359D01*
X45573613Y-53997501D01*
X45566281Y-54000702D01*
X45565875Y-53999772D01*
X45548555Y-54007166D01*
X45517715Y-54015604D01*
X45484991Y-54020000D01*
X45195496Y-54020000D01*
X45237968Y-54166193D01*
X45237968Y-54166194D01*
X45237970Y-54166199D01*
X45240836Y-54171045D01*
X45254292Y-54203665D01*
X45258749Y-54221231D01*
X45257534Y-54286666D01*
X45254272Y-54297774D01*
X45242031Y-54325951D01*
X45237508Y-54333599D01*
X45237501Y-54333617D01*
X45192358Y-54488995D01*
X45192357Y-54489001D01*
X45192356Y-54489002D01*
X45192356Y-54489004D01*
X45189500Y-54525294D01*
X45189500Y-54934704D01*
X45192356Y-54970994D01*
X45192356Y-54970996D01*
X45192357Y-54970997D01*
X45192358Y-54971003D01*
X45237502Y-55126382D01*
X45237506Y-55126396D01*
X45319877Y-55265679D01*
X45319891Y-55265697D01*
X45434308Y-55380114D01*
X45434312Y-55380116D01*
X45434313Y-55380117D01*
X45573605Y-55462494D01*
X45588194Y-55466732D01*
X45588198Y-55466735D01*
X45588199Y-55466734D01*
X45718208Y-55504506D01*
X45719404Y-55504974D01*
X45728260Y-55507435D01*
X45729670Y-55507836D01*
X45729684Y-55507840D01*
X45729966Y-55507871D01*
X45733842Y-55508023D01*
X45765310Y-55510500D01*
X45765318Y-55510500D01*
X46234682Y-55510500D01*
X46234690Y-55510500D01*
X46270993Y-55507643D01*
X46394686Y-55471706D01*
X46429626Y-55466784D01*
X46447750Y-55466836D01*
X46510818Y-55484284D01*
X46520779Y-55490213D01*
X46545027Y-55509079D01*
X46709500Y-55673552D01*
X46730652Y-55701808D01*
X46738144Y-55715529D01*
X46752995Y-55783798D01*
X46752024Y-55797377D01*
X46742902Y-55835983D01*
X46730267Y-55866486D01*
X46730265Y-55866491D01*
X46730256Y-55866524D01*
X46699500Y-56021148D01*
X46699500Y-56178848D01*
X46730257Y-56333471D01*
X46730264Y-56333502D01*
X46790598Y-56479165D01*
X46790603Y-56479174D01*
X46790613Y-56479191D01*
X46878211Y-56610290D01*
X46878212Y-56610291D01*
X46878217Y-56610297D01*
X46989706Y-56721786D01*
X46989710Y-56721789D01*
X47076213Y-56779588D01*
X47102464Y-56803167D01*
X47111369Y-56813821D01*
X47139255Y-56877882D01*
X47128080Y-56946852D01*
X47128078Y-56946856D01*
X47123325Y-56956790D01*
X47099151Y-56990953D01*
X46969886Y-57120218D01*
X46921047Y-57187441D01*
X46844949Y-57292182D01*
X46844947Y-57292186D01*
X46844634Y-57292696D01*
X46843499Y-57294177D01*
X46842085Y-57296125D01*
X46842036Y-57296089D01*
X46829060Y-57313041D01*
X46819353Y-57323319D01*
X46759011Y-57358542D01*
X46689205Y-57355550D01*
X46635488Y-57319378D01*
X46629285Y-57312219D01*
X46617274Y-57295811D01*
X46615053Y-57292187D01*
X46615051Y-57292184D01*
X46615050Y-57292182D01*
X46490109Y-57120213D01*
X46339786Y-56969890D01*
X46167820Y-56844951D01*
X46085820Y-56803170D01*
X45995911Y-56757359D01*
X45990571Y-56753479D01*
X45966254Y-56743406D01*
X45959734Y-56742374D01*
X45849772Y-56706645D01*
X45785074Y-56685623D01*
X45780552Y-56683770D01*
X45771362Y-56681600D01*
X45766599Y-56681226D01*
X45662164Y-56664685D01*
X45614957Y-56657208D01*
X45595489Y-56654124D01*
X45566290Y-56649500D01*
X45566287Y-56649500D01*
X45353713Y-56649500D01*
X45353709Y-56649500D01*
X45314776Y-56655666D01*
X45305042Y-56657208D01*
X45267654Y-56663129D01*
X45143763Y-56682752D01*
X45143762Y-56682752D01*
X44941588Y-56748442D01*
X44941585Y-56748443D01*
X44890997Y-56774218D01*
X44822328Y-56787113D01*
X44795401Y-56781338D01*
X44402553Y-56650049D01*
X44354176Y-56620124D01*
X41254052Y-53520000D01*
X45195496Y-53520000D01*
X45750000Y-53520000D01*
X46250000Y-53520000D01*
X46804503Y-53520000D01*
X46804504Y-53520000D01*
X46762031Y-53373804D01*
X46679721Y-53234625D01*
X46679714Y-53234616D01*
X46565383Y-53120285D01*
X46565374Y-53120278D01*
X46426195Y-53037968D01*
X46426193Y-53037967D01*
X46426184Y-53037963D01*
X46270928Y-52992857D01*
X46270920Y-52992855D01*
X46270912Y-52992854D01*
X46250000Y-52991209D01*
X46250000Y-53520000D01*
X45750000Y-53520000D01*
X45750000Y-52991210D01*
X45749999Y-52991209D01*
X45729084Y-52992854D01*
X45729078Y-52992855D01*
X45729070Y-52992857D01*
X45573814Y-53037963D01*
X45573805Y-53037967D01*
X45573801Y-53037969D01*
X45434627Y-53120276D01*
X45434615Y-53120285D01*
X45320285Y-53234615D01*
X45320276Y-53234627D01*
X45237969Y-53373802D01*
X45237968Y-53373804D01*
X45195496Y-53520000D01*
X41254052Y-53520000D01*
X37002422Y-49268370D01*
X36981270Y-49240114D01*
X36973778Y-49226393D01*
X36958927Y-49158124D01*
X36959898Y-49144544D01*
X36969021Y-49105935D01*
X37019737Y-48983497D01*
X37050500Y-48828842D01*
X37050500Y-48671158D01*
X37050500Y-48671155D01*
X37050500Y-48670973D01*
X37050065Y-48668972D01*
X37020398Y-48519830D01*
X37019983Y-48517403D01*
X37019737Y-48516504D01*
X36961229Y-48375251D01*
X36961225Y-48375241D01*
X36959397Y-48370827D01*
X36959390Y-48370814D01*
X36871789Y-48239711D01*
X36871786Y-48239707D01*
X36871781Y-48239701D01*
X36760297Y-48128217D01*
X36760291Y-48128212D01*
X36760290Y-48128211D01*
X36629191Y-48040613D01*
X36629190Y-48040612D01*
X36629185Y-48040609D01*
X36629172Y-48040602D01*
X36629165Y-48040598D01*
X36483502Y-47980264D01*
X36483471Y-47980257D01*
X36328847Y-47949500D01*
X36328845Y-47949500D01*
X36328842Y-47949500D01*
X36171158Y-47949500D01*
X36171155Y-47949500D01*
X36171153Y-47949500D01*
X36016527Y-47980257D01*
X36016501Y-47980263D01*
X36016499Y-47980263D01*
X36016498Y-47980264D01*
X35975601Y-47997204D01*
X35895839Y-48030242D01*
X35861643Y-48038969D01*
X35846102Y-48040640D01*
X35777343Y-48028236D01*
X35777341Y-48028234D01*
X35765165Y-48022139D01*
X35732989Y-47998937D01*
X33993749Y-46259697D01*
X33993748Y-46259696D01*
X33932920Y-46234500D01*
X27837744Y-46234500D01*
X27802808Y-46229477D01*
X27777566Y-46222065D01*
X27724821Y-46190769D01*
X27352422Y-45818370D01*
X27331270Y-45790114D01*
X27323778Y-45776393D01*
X27308927Y-45708124D01*
X27309898Y-45694544D01*
X27319021Y-45655935D01*
X27330511Y-45628196D01*
X27369737Y-45533497D01*
X27400500Y-45378842D01*
X27400500Y-45221158D01*
X27400500Y-45221155D01*
X27400500Y-45220973D01*
X27400065Y-45218972D01*
X27399594Y-45216602D01*
X27370395Y-45069815D01*
X27369983Y-45067403D01*
X27369737Y-45066504D01*
X27309988Y-44922255D01*
X27309971Y-44922215D01*
X27309397Y-44920827D01*
X27309390Y-44920814D01*
X27221789Y-44789711D01*
X27221786Y-44789707D01*
X27221781Y-44789701D01*
X27110297Y-44678217D01*
X27110291Y-44678212D01*
X27110290Y-44678211D01*
X26979191Y-44590613D01*
X26979190Y-44590612D01*
X26979185Y-44590609D01*
X26979172Y-44590602D01*
X26979165Y-44590598D01*
X26833502Y-44530264D01*
X26833471Y-44530257D01*
X26678847Y-44499500D01*
X26678845Y-44499500D01*
X26678842Y-44499500D01*
X26521158Y-44499500D01*
X26521155Y-44499500D01*
X26521153Y-44499500D01*
X26366527Y-44530257D01*
X26366496Y-44530264D01*
X26220833Y-44590598D01*
X26220824Y-44590603D01*
X26220807Y-44590613D01*
X26089708Y-44678211D01*
X26089707Y-44678212D01*
X26089701Y-44678217D01*
X25978217Y-44789701D01*
X25978212Y-44789707D01*
X25978211Y-44789708D01*
X25890613Y-44920807D01*
X25890603Y-44920824D01*
X25890598Y-44920833D01*
X25830264Y-45066496D01*
X25830257Y-45066527D01*
X25799500Y-45221150D01*
X25799500Y-45221153D01*
X25799500Y-45378846D01*
X25799500Y-45378848D01*
X25799499Y-45378848D01*
X25825426Y-45509185D01*
X25827081Y-45519964D01*
X25831374Y-45559420D01*
X25819057Y-45628196D01*
X25771532Y-45679382D01*
X25768497Y-45681188D01*
X25767050Y-45682049D01*
X25703622Y-45699500D01*
X25621153Y-45699500D01*
X25466527Y-45730257D01*
X25466496Y-45730264D01*
X25320833Y-45790598D01*
X25320824Y-45790603D01*
X25320807Y-45790613D01*
X25189708Y-45878211D01*
X25189707Y-45878212D01*
X25189701Y-45878217D01*
X25078217Y-45989701D01*
X25078212Y-45989707D01*
X25078211Y-45989708D01*
X24990613Y-46120807D01*
X24990603Y-46120824D01*
X24990598Y-46120833D01*
X24930264Y-46266496D01*
X24930257Y-46266527D01*
X24899500Y-46421150D01*
X24899500Y-46421153D01*
X24899500Y-46578846D01*
X24899500Y-46578848D01*
X24899499Y-46578848D01*
X24930257Y-46733471D01*
X24930264Y-46733502D01*
X24990598Y-46879165D01*
X24990603Y-46879174D01*
X24990613Y-46879191D01*
X25078211Y-47010290D01*
X25078212Y-47010291D01*
X25078217Y-47010297D01*
X25189701Y-47121781D01*
X25189707Y-47121786D01*
X25189711Y-47121789D01*
X25320814Y-47209390D01*
X25320827Y-47209397D01*
X25394264Y-47239815D01*
X25466503Y-47269737D01*
X25466505Y-47269737D01*
X25466510Y-47269739D01*
X25592630Y-47294825D01*
X25613513Y-47298979D01*
X25616247Y-47299703D01*
X25621155Y-47300500D01*
X25778844Y-47300500D01*
X25782964Y-47300500D01*
X25790814Y-47298118D01*
X25933497Y-47269737D01*
X26054162Y-47219754D01*
X26088349Y-47211029D01*
X26103899Y-47209357D01*
X26172655Y-47221762D01*
X26172657Y-47221763D01*
X26172657Y-47221764D01*
X26184833Y-47227859D01*
X26217009Y-47251061D01*
X26706252Y-47740304D01*
X26767080Y-47765500D01*
X26832920Y-47765500D01*
X32382256Y-47765500D01*
X32417188Y-47770521D01*
X32442432Y-47777934D01*
X32495178Y-47809230D01*
X41111659Y-56425711D01*
X41132808Y-56453961D01*
X41138229Y-56463888D01*
X41153083Y-56532161D01*
X41128669Y-56597626D01*
X41072737Y-56639499D01*
X41072733Y-56639501D01*
X41065545Y-56642182D01*
X41022211Y-56650000D01*
X40630000Y-56650000D01*
X40630000Y-57387749D01*
X40610315Y-57454788D01*
X40557511Y-57500543D01*
X40488353Y-57510487D01*
X40473908Y-57507524D01*
X40445828Y-57500000D01*
X40445826Y-57500000D01*
X40314174Y-57500000D01*
X40314171Y-57500000D01*
X40286092Y-57507524D01*
X40216242Y-57505861D01*
X40158380Y-57466698D01*
X40130877Y-57402469D01*
X40130000Y-57387749D01*
X40130000Y-56650000D01*
X39482155Y-56650000D01*
X39482146Y-56650000D01*
X39422628Y-56656400D01*
X39422621Y-56656402D01*
X39287910Y-56706646D01*
X39287907Y-56706648D01*
X39172813Y-56792807D01*
X39172807Y-56792813D01*
X39086648Y-56907907D01*
X39086646Y-56907910D01*
X39036402Y-57042621D01*
X39036400Y-57042628D01*
X39030000Y-57102146D01*
X39030000Y-57102155D01*
X39030000Y-57750000D01*
X39767750Y-57750000D01*
X39834789Y-57769685D01*
X39880544Y-57822489D01*
X39890488Y-57891647D01*
X39887524Y-57906095D01*
X39880000Y-57934171D01*
X39880000Y-58065828D01*
X39887524Y-58093905D01*
X39885863Y-58163755D01*
X39846701Y-58221618D01*
X39782473Y-58249123D01*
X39767750Y-58250000D01*
X39030000Y-58250000D01*
X39030000Y-58897852D01*
X39036400Y-58957370D01*
X39036402Y-58957377D01*
X39086646Y-59092088D01*
X39086648Y-59092091D01*
X39172807Y-59207185D01*
X39172809Y-59207187D01*
X39172812Y-59207190D01*
X39287906Y-59293350D01*
X39287913Y-59293354D01*
X39422620Y-59343596D01*
X39422627Y-59343598D01*
X39429468Y-59344333D01*
X39482138Y-59349998D01*
X39482155Y-59349999D01*
X39482172Y-59350000D01*
X40130000Y-59350000D01*
X40130000Y-58612250D01*
X40149685Y-58545211D01*
X40202489Y-58499456D01*
X40271647Y-58489512D01*
X40286093Y-58492475D01*
X40314174Y-58500000D01*
X40445825Y-58500000D01*
X40445826Y-58500000D01*
X40473905Y-58492476D01*
X40543755Y-58494137D01*
X40601618Y-58533299D01*
X40629123Y-58597527D01*
X40630000Y-58612250D01*
X40630000Y-59350000D01*
X41277828Y-59350000D01*
X41277836Y-59350000D01*
X41277847Y-59349999D01*
X41313560Y-59346158D01*
X41337372Y-59343598D01*
X41337379Y-59343596D01*
X41472086Y-59293354D01*
X41472093Y-59293350D01*
X41587187Y-59207190D01*
X41587190Y-59207187D01*
X41673350Y-59092093D01*
X41673354Y-59092086D01*
X41716192Y-58977231D01*
X41733103Y-58946260D01*
X41741422Y-58935147D01*
X41797352Y-58893276D01*
X41867042Y-58888289D01*
X41871525Y-58889264D01*
X41932850Y-58922746D01*
X42040216Y-59030112D01*
X42212183Y-59155052D01*
X42212471Y-59155197D01*
X42401588Y-59251557D01*
X42603757Y-59317246D01*
X42813713Y-59350500D01*
X42813714Y-59350500D01*
X43026286Y-59350500D01*
X43026287Y-59350500D01*
X43236243Y-59317246D01*
X43438412Y-59251557D01*
X43627816Y-59155051D01*
X43714471Y-59092093D01*
X43799786Y-59030109D01*
X43799788Y-59030106D01*
X43799792Y-59030104D01*
X43799795Y-59030100D01*
X43799848Y-59030062D01*
X43800605Y-59029290D01*
X43949290Y-58880605D01*
X43950065Y-58879845D01*
X43950124Y-58879765D01*
X44069315Y-58715712D01*
X44069321Y-58715704D01*
X44080782Y-58699928D01*
X44083062Y-58696789D01*
X44093229Y-58684531D01*
X44100647Y-58676678D01*
X44160985Y-58641457D01*
X44230791Y-58644447D01*
X44284503Y-58680612D01*
X44290707Y-58687771D01*
X44302729Y-58704193D01*
X44304949Y-58707817D01*
X44304951Y-58707820D01*
X44429890Y-58879786D01*
X44429892Y-58879788D01*
X44580216Y-59030112D01*
X44752183Y-59155052D01*
X44752471Y-59155197D01*
X44941588Y-59251557D01*
X45143757Y-59317246D01*
X45353713Y-59350500D01*
X45353714Y-59350500D01*
X45566286Y-59350500D01*
X45566287Y-59350500D01*
X45776243Y-59317246D01*
X45978412Y-59251557D01*
X46167816Y-59155051D01*
X46254471Y-59092093D01*
X46339786Y-59030109D01*
X46339788Y-59030106D01*
X46339792Y-59030104D01*
X46339795Y-59030100D01*
X46339848Y-59030062D01*
X46340605Y-59029290D01*
X46489290Y-58880605D01*
X46490065Y-58879845D01*
X46490124Y-58879765D01*
X46609315Y-58715712D01*
X46609321Y-58715704D01*
X46620782Y-58699928D01*
X46623062Y-58696789D01*
X46633229Y-58684531D01*
X46640647Y-58676678D01*
X46700985Y-58641457D01*
X46770791Y-58644447D01*
X46824503Y-58680612D01*
X46830707Y-58687771D01*
X46842729Y-58704193D01*
X46844949Y-58707817D01*
X46844951Y-58707820D01*
X46969890Y-58879786D01*
X46969892Y-58879788D01*
X47120216Y-59030112D01*
X47292183Y-59155052D01*
X47292471Y-59155197D01*
X47481588Y-59251557D01*
X47683757Y-59317246D01*
X47893713Y-59350500D01*
X47893714Y-59350500D01*
X48106286Y-59350500D01*
X48106287Y-59350500D01*
X48316243Y-59317246D01*
X48518412Y-59251557D01*
X48707816Y-59155051D01*
X48794471Y-59092093D01*
X48879786Y-59030109D01*
X48879788Y-59030106D01*
X48879792Y-59030104D01*
X48879795Y-59030100D01*
X48879848Y-59030062D01*
X48880605Y-59029290D01*
X49029290Y-58880605D01*
X49030065Y-58879845D01*
X49030124Y-58879765D01*
X49155048Y-58707820D01*
X49155047Y-58707820D01*
X49155051Y-58707816D01*
X49155053Y-58707810D01*
X49175445Y-58679744D01*
X49183730Y-58651529D01*
X49251557Y-58518412D01*
X49252053Y-58516884D01*
X49252924Y-58515111D01*
X49253425Y-58513904D01*
X49253502Y-58513936D01*
X49267637Y-58485182D01*
X49271561Y-58479443D01*
X49325654Y-58435222D01*
X49395069Y-58427264D01*
X49457767Y-58458099D01*
X49493374Y-58516205D01*
X49494962Y-58521912D01*
X49499500Y-58555153D01*
X49499500Y-62993357D01*
X49499421Y-62997784D01*
X49499263Y-63002207D01*
X49499026Y-63006627D01*
X49485185Y-63200133D01*
X49484238Y-63208942D01*
X49482978Y-63217701D01*
X49481407Y-63226403D01*
X49441587Y-63409456D01*
X49439398Y-63418033D01*
X49436906Y-63426520D01*
X49434111Y-63434918D01*
X49368640Y-63610456D01*
X49365250Y-63618641D01*
X49361580Y-63626676D01*
X49357620Y-63634585D01*
X49267835Y-63799013D01*
X49263316Y-63806630D01*
X49258529Y-63814078D01*
X49253483Y-63821344D01*
X49141219Y-63971312D01*
X49135665Y-63978204D01*
X49129869Y-63984893D01*
X49123837Y-63991372D01*
X48991372Y-64123837D01*
X48984893Y-64129869D01*
X48978204Y-64135665D01*
X48971312Y-64141219D01*
X48821344Y-64253483D01*
X48814078Y-64258529D01*
X48806630Y-64263316D01*
X48799013Y-64267835D01*
X48634585Y-64357620D01*
X48626676Y-64361580D01*
X48618641Y-64365250D01*
X48610456Y-64368640D01*
X48434918Y-64434111D01*
X48426520Y-64436906D01*
X48418033Y-64439398D01*
X48409456Y-64441587D01*
X48226403Y-64481407D01*
X48217699Y-64482978D01*
X48208939Y-64484238D01*
X48200132Y-64485185D01*
X48023779Y-64497799D01*
X48015674Y-64498378D01*
X48006618Y-64499026D01*
X48002234Y-64499261D01*
X47997929Y-64499415D01*
X47997810Y-64499420D01*
X47993356Y-64499500D01*
X22006643Y-64499500D01*
X22002218Y-64499421D01*
X21997792Y-64499262D01*
X21993374Y-64499026D01*
X21986118Y-64498507D01*
X21973622Y-64497613D01*
X21973621Y-64497612D01*
X21799866Y-64485185D01*
X21791059Y-64484238D01*
X21782299Y-64482978D01*
X21773595Y-64481407D01*
X21590542Y-64441587D01*
X21581965Y-64439398D01*
X21573478Y-64436906D01*
X21565080Y-64434111D01*
X21389542Y-64368640D01*
X21381372Y-64365256D01*
X21373317Y-64361577D01*
X21365413Y-64357620D01*
X21200985Y-64267835D01*
X21193368Y-64263316D01*
X21185920Y-64258529D01*
X21178654Y-64253483D01*
X21028686Y-64141219D01*
X21021794Y-64135665D01*
X21015105Y-64129869D01*
X21008626Y-64123837D01*
X20876161Y-63991372D01*
X20870129Y-63984893D01*
X20864333Y-63978204D01*
X20858779Y-63971312D01*
X20746515Y-63821344D01*
X20741469Y-63814078D01*
X20736682Y-63806630D01*
X20732171Y-63799028D01*
X20642366Y-63634564D01*
X20638417Y-63626672D01*
X20634747Y-63618635D01*
X20631366Y-63610474D01*
X20565878Y-63434896D01*
X20563090Y-63426517D01*
X20560595Y-63418017D01*
X20558412Y-63409460D01*
X20544871Y-63347213D01*
X20544868Y-63347199D01*
X20518585Y-63226376D01*
X20517016Y-63217677D01*
X20515759Y-63208930D01*
X20514814Y-63200138D01*
X20500974Y-63006628D01*
X20500737Y-63002206D01*
X20500579Y-62997780D01*
X20500500Y-62993356D01*
X20500500Y-62397642D01*
X21199500Y-62397642D01*
X21199500Y-62602356D01*
X21231521Y-62804530D01*
X21294780Y-62999221D01*
X21294786Y-62999234D01*
X21387708Y-63181601D01*
X21387709Y-63181602D01*
X21387715Y-63181613D01*
X21508028Y-63347213D01*
X21652786Y-63491971D01*
X21807748Y-63604555D01*
X21807749Y-63604557D01*
X21814626Y-63609552D01*
X21818390Y-63612287D01*
X21862168Y-63634593D01*
X21934607Y-63671503D01*
X21994327Y-63701932D01*
X21995930Y-63702870D01*
X21999629Y-63704662D01*
X22001637Y-63705660D01*
X22005403Y-63706722D01*
X22045488Y-63719746D01*
X22105135Y-63739126D01*
X22105136Y-63739127D01*
X22148612Y-63753253D01*
X22195465Y-63768477D01*
X22296557Y-63784488D01*
X22397648Y-63800500D01*
X22397649Y-63800500D01*
X22602351Y-63800500D01*
X22602352Y-63800500D01*
X22804534Y-63768477D01*
X22999219Y-63705220D01*
X23181610Y-63612287D01*
X23274590Y-63544732D01*
X23347213Y-63491971D01*
X23347213Y-63491969D01*
X23347272Y-63491927D01*
X23348031Y-63491153D01*
X23491153Y-63348031D01*
X23491928Y-63347271D01*
X23491981Y-63347199D01*
X23544730Y-63274593D01*
X23544732Y-63274591D01*
X23579742Y-63226403D01*
X23612287Y-63181610D01*
X23705220Y-62999219D01*
X23768477Y-62804534D01*
X23800500Y-62602352D01*
X23800500Y-62397648D01*
X23800499Y-62397642D01*
X46199500Y-62397642D01*
X46199500Y-62602356D01*
X46231521Y-62804530D01*
X46294780Y-62999221D01*
X46294786Y-62999234D01*
X46387708Y-63181601D01*
X46387709Y-63181602D01*
X46387715Y-63181613D01*
X46508028Y-63347213D01*
X46652786Y-63491971D01*
X46807748Y-63604555D01*
X46807749Y-63604557D01*
X46814626Y-63609552D01*
X46818390Y-63612287D01*
X46862168Y-63634593D01*
X46934607Y-63671503D01*
X46994327Y-63701932D01*
X46995930Y-63702870D01*
X46999629Y-63704662D01*
X47001637Y-63705660D01*
X47005403Y-63706722D01*
X47045488Y-63719746D01*
X47105135Y-63739126D01*
X47105136Y-63739127D01*
X47148612Y-63753253D01*
X47195465Y-63768477D01*
X47296557Y-63784488D01*
X47397648Y-63800500D01*
X47397649Y-63800500D01*
X47602351Y-63800500D01*
X47602352Y-63800500D01*
X47804534Y-63768477D01*
X47999219Y-63705220D01*
X48181610Y-63612287D01*
X48274590Y-63544732D01*
X48347213Y-63491971D01*
X48347213Y-63491969D01*
X48347272Y-63491927D01*
X48348031Y-63491153D01*
X48491153Y-63348031D01*
X48491928Y-63347271D01*
X48491981Y-63347199D01*
X48544730Y-63274593D01*
X48544732Y-63274591D01*
X48579742Y-63226403D01*
X48612287Y-63181610D01*
X48705220Y-62999219D01*
X48768477Y-62804534D01*
X48800500Y-62602352D01*
X48800500Y-62397648D01*
X48768477Y-62195466D01*
X48768476Y-62195462D01*
X48768476Y-62195461D01*
X48706722Y-62005403D01*
X48705659Y-62001637D01*
X48704662Y-61999629D01*
X48702870Y-61995930D01*
X48701932Y-61994327D01*
X48671503Y-61934607D01*
X48612287Y-61818390D01*
X48604556Y-61807749D01*
X48491971Y-61652786D01*
X48347213Y-61508028D01*
X48347212Y-61508027D01*
X48347211Y-61508026D01*
X48189507Y-61393450D01*
X48189168Y-61393161D01*
X48181603Y-61387707D01*
X48181188Y-61387498D01*
X48124654Y-61358691D01*
X48124653Y-61358691D01*
X47999223Y-61294781D01*
X47804534Y-61231522D01*
X47804532Y-61231521D01*
X47804530Y-61231521D01*
X47804529Y-61231520D01*
X47629995Y-61203878D01*
X47613409Y-61201251D01*
X47602354Y-61199500D01*
X47602352Y-61199500D01*
X47397648Y-61199500D01*
X47397647Y-61199500D01*
X47373327Y-61203351D01*
X47373326Y-61203350D01*
X47195468Y-61231521D01*
X47000777Y-61294780D01*
X47000764Y-61294786D01*
X46818397Y-61387708D01*
X46818385Y-61387715D01*
X46652787Y-61508027D01*
X46652784Y-61508029D01*
X46508029Y-61652784D01*
X46508027Y-61652787D01*
X46387715Y-61818385D01*
X46387708Y-61818397D01*
X46294786Y-62000764D01*
X46294780Y-62000777D01*
X46231521Y-62195468D01*
X46199500Y-62397642D01*
X23800499Y-62397642D01*
X23768477Y-62195466D01*
X23768476Y-62195462D01*
X23768476Y-62195461D01*
X23706722Y-62005403D01*
X23705659Y-62001637D01*
X23704662Y-61999629D01*
X23702870Y-61995930D01*
X23701932Y-61994327D01*
X23671503Y-61934607D01*
X23612287Y-61818390D01*
X23604556Y-61807749D01*
X23491971Y-61652786D01*
X23347213Y-61508028D01*
X23347212Y-61508027D01*
X23347211Y-61508026D01*
X23189507Y-61393450D01*
X23189168Y-61393161D01*
X23181603Y-61387707D01*
X23181188Y-61387498D01*
X23124654Y-61358691D01*
X23124653Y-61358691D01*
X22999223Y-61294781D01*
X22804534Y-61231522D01*
X22804532Y-61231521D01*
X22804530Y-61231521D01*
X22804529Y-61231520D01*
X22629995Y-61203878D01*
X22613409Y-61201251D01*
X22602354Y-61199500D01*
X22602352Y-61199500D01*
X22397648Y-61199500D01*
X22397647Y-61199500D01*
X22373327Y-61203351D01*
X22373326Y-61203350D01*
X22195468Y-61231521D01*
X22000777Y-61294780D01*
X22000764Y-61294786D01*
X21818397Y-61387708D01*
X21818385Y-61387715D01*
X21652787Y-61508027D01*
X21652784Y-61508029D01*
X21508029Y-61652784D01*
X21508027Y-61652787D01*
X21387715Y-61818385D01*
X21387708Y-61818397D01*
X21294786Y-62000764D01*
X21294780Y-62000777D01*
X21231521Y-62195468D01*
X21199500Y-62397642D01*
X20500500Y-62397642D01*
X20500500Y-56885831D01*
X26549500Y-56885831D01*
X26549500Y-57114167D01*
X26577696Y-57292185D01*
X26585215Y-57339660D01*
X26655770Y-57556803D01*
X26720457Y-57683757D01*
X26759421Y-57760228D01*
X26893621Y-57944937D01*
X27055063Y-58106379D01*
X27134034Y-58163755D01*
X27239773Y-58240580D01*
X27335880Y-58289548D01*
X27335884Y-58289550D01*
X27436749Y-58340944D01*
X27438349Y-58341881D01*
X27442058Y-58343678D01*
X27444054Y-58344670D01*
X27447822Y-58345733D01*
X27559592Y-58382049D01*
X27660339Y-58414784D01*
X27885838Y-58450500D01*
X27885843Y-58450500D01*
X28114161Y-58450500D01*
X28114162Y-58450500D01*
X28339660Y-58414784D01*
X28556799Y-58344231D01*
X28760228Y-58240579D01*
X28944937Y-58106379D01*
X29106379Y-57944937D01*
X29240579Y-57760228D01*
X29344231Y-57556799D01*
X29414784Y-57339660D01*
X29422303Y-57292185D01*
X29450500Y-57114162D01*
X29450500Y-56885837D01*
X29450499Y-56885831D01*
X31549500Y-56885831D01*
X31549500Y-57114167D01*
X31577696Y-57292185D01*
X31585215Y-57339660D01*
X31655770Y-57556803D01*
X31720457Y-57683757D01*
X31759421Y-57760228D01*
X31893621Y-57944937D01*
X32055063Y-58106379D01*
X32134034Y-58163755D01*
X32239773Y-58240580D01*
X32335880Y-58289548D01*
X32335884Y-58289550D01*
X32436749Y-58340944D01*
X32438349Y-58341881D01*
X32442058Y-58343678D01*
X32444054Y-58344670D01*
X32447822Y-58345733D01*
X32559592Y-58382049D01*
X32660339Y-58414784D01*
X32885838Y-58450500D01*
X32885843Y-58450500D01*
X33114161Y-58450500D01*
X33114162Y-58450500D01*
X33339660Y-58414784D01*
X33556799Y-58344231D01*
X33760228Y-58240579D01*
X33944937Y-58106379D01*
X34106379Y-57944937D01*
X34240579Y-57760228D01*
X34344231Y-57556799D01*
X34414784Y-57339660D01*
X34422303Y-57292185D01*
X34450500Y-57114162D01*
X34450500Y-56885837D01*
X34414784Y-56660339D01*
X34382049Y-56559592D01*
X34358387Y-56486768D01*
X34345732Y-56447820D01*
X34344671Y-56444058D01*
X34343679Y-56442062D01*
X34341880Y-56438348D01*
X34340946Y-56436753D01*
X34240578Y-56239771D01*
X34196310Y-56178842D01*
X34106379Y-56055063D01*
X33944937Y-55893621D01*
X33760228Y-55759421D01*
X33556803Y-55655770D01*
X33339660Y-55585215D01*
X33339654Y-55585214D01*
X33114167Y-55549500D01*
X33114162Y-55549500D01*
X33114157Y-55549500D01*
X32885843Y-55549500D01*
X32885838Y-55549500D01*
X32885833Y-55549500D01*
X32660344Y-55585214D01*
X32660342Y-55585214D01*
X32660339Y-55585215D01*
X32443196Y-55655770D01*
X32383553Y-55686160D01*
X32239778Y-55759417D01*
X32239775Y-55759418D01*
X32239771Y-55759421D01*
X32055061Y-55893622D01*
X32055058Y-55893624D01*
X31893624Y-56055058D01*
X31893624Y-56055059D01*
X31893622Y-56055061D01*
X31759421Y-56239771D01*
X31655770Y-56443196D01*
X31585215Y-56660339D01*
X31585215Y-56660341D01*
X31585214Y-56660344D01*
X31549500Y-56885831D01*
X29450499Y-56885831D01*
X29414784Y-56660339D01*
X29382049Y-56559592D01*
X29358387Y-56486768D01*
X29345732Y-56447820D01*
X29344671Y-56444058D01*
X29343679Y-56442062D01*
X29341880Y-56438348D01*
X29340946Y-56436753D01*
X29240578Y-56239771D01*
X29196310Y-56178842D01*
X29106379Y-56055063D01*
X28944937Y-55893621D01*
X28760228Y-55759421D01*
X28556803Y-55655770D01*
X28339660Y-55585215D01*
X28339654Y-55585214D01*
X28114167Y-55549500D01*
X28114162Y-55549500D01*
X28114157Y-55549500D01*
X27885843Y-55549500D01*
X27885838Y-55549500D01*
X27885833Y-55549500D01*
X27660344Y-55585214D01*
X27660342Y-55585214D01*
X27660339Y-55585215D01*
X27443196Y-55655770D01*
X27383553Y-55686160D01*
X27239778Y-55759417D01*
X27239775Y-55759418D01*
X27239771Y-55759421D01*
X27055061Y-55893622D01*
X27055058Y-55893624D01*
X26893624Y-56055058D01*
X26893624Y-56055059D01*
X26893622Y-56055061D01*
X26759421Y-56239771D01*
X26655770Y-56443196D01*
X26585215Y-56660339D01*
X26585215Y-56660341D01*
X26585214Y-56660344D01*
X26549500Y-56885831D01*
X20500500Y-56885831D01*
X20500500Y-53385831D01*
X26549500Y-53385831D01*
X26549500Y-53614167D01*
X26585214Y-53839654D01*
X26585215Y-53839660D01*
X26655770Y-54056803D01*
X26730601Y-54203665D01*
X26751616Y-54244909D01*
X26751618Y-54244912D01*
X26759421Y-54260229D01*
X26814381Y-54335874D01*
X26893621Y-54444937D01*
X27055063Y-54606379D01*
X27178202Y-54695845D01*
X27239773Y-54740580D01*
X27335880Y-54789548D01*
X27335884Y-54789550D01*
X27436749Y-54840944D01*
X27438349Y-54841881D01*
X27442058Y-54843678D01*
X27444054Y-54844670D01*
X27447822Y-54845733D01*
X27559592Y-54882049D01*
X27660339Y-54914784D01*
X27885838Y-54950500D01*
X27885843Y-54950500D01*
X28114161Y-54950500D01*
X28114162Y-54950500D01*
X28339660Y-54914784D01*
X28556799Y-54844231D01*
X28760228Y-54740579D01*
X28944937Y-54606379D01*
X29106379Y-54444937D01*
X29240579Y-54260228D01*
X29344231Y-54056799D01*
X29414784Y-53839660D01*
X29450500Y-53614162D01*
X29450500Y-53385837D01*
X29450499Y-53385831D01*
X31549500Y-53385831D01*
X31549500Y-53614167D01*
X31585214Y-53839654D01*
X31585215Y-53839660D01*
X31655770Y-54056803D01*
X31730601Y-54203665D01*
X31751616Y-54244909D01*
X31751618Y-54244912D01*
X31759421Y-54260229D01*
X31814381Y-54335874D01*
X31893621Y-54444937D01*
X32055063Y-54606379D01*
X32178202Y-54695845D01*
X32239773Y-54740580D01*
X32335880Y-54789548D01*
X32335884Y-54789550D01*
X32436749Y-54840944D01*
X32438349Y-54841881D01*
X32442058Y-54843678D01*
X32444054Y-54844670D01*
X32447822Y-54845733D01*
X32559592Y-54882049D01*
X32660339Y-54914784D01*
X32885838Y-54950500D01*
X32885843Y-54950500D01*
X33114161Y-54950500D01*
X33114162Y-54950500D01*
X33339660Y-54914784D01*
X33556799Y-54844231D01*
X33760228Y-54740579D01*
X33944937Y-54606379D01*
X34106379Y-54444937D01*
X34240579Y-54260228D01*
X34344231Y-54056799D01*
X34414784Y-53839660D01*
X34450500Y-53614162D01*
X34450500Y-53385837D01*
X34414784Y-53160339D01*
X34375023Y-53037968D01*
X34375022Y-53037965D01*
X34345733Y-52947823D01*
X34344670Y-52944055D01*
X34343677Y-52942058D01*
X34341878Y-52938345D01*
X34340946Y-52936753D01*
X34240578Y-52739771D01*
X34106379Y-52555063D01*
X33944937Y-52393621D01*
X33760228Y-52259421D01*
X33556803Y-52155770D01*
X33339660Y-52085215D01*
X33339654Y-52085214D01*
X33114167Y-52049500D01*
X33114162Y-52049500D01*
X33114157Y-52049500D01*
X32885843Y-52049500D01*
X32885838Y-52049500D01*
X32885833Y-52049500D01*
X32660344Y-52085214D01*
X32660342Y-52085214D01*
X32660339Y-52085215D01*
X32443196Y-52155770D01*
X32333263Y-52211783D01*
X32239778Y-52259417D01*
X32239775Y-52259418D01*
X32239771Y-52259421D01*
X32055061Y-52393622D01*
X32055059Y-52393624D01*
X32055058Y-52393624D01*
X31893624Y-52555058D01*
X31893624Y-52555059D01*
X31893622Y-52555061D01*
X31759421Y-52739771D01*
X31655770Y-52943196D01*
X31585215Y-53160339D01*
X31585215Y-53160341D01*
X31585214Y-53160344D01*
X31549500Y-53385831D01*
X29450499Y-53385831D01*
X29414784Y-53160339D01*
X29375023Y-53037968D01*
X29375022Y-53037965D01*
X29345733Y-52947823D01*
X29344670Y-52944055D01*
X29343677Y-52942058D01*
X29341878Y-52938345D01*
X29340946Y-52936753D01*
X29240578Y-52739771D01*
X29106379Y-52555063D01*
X28944937Y-52393621D01*
X28760228Y-52259421D01*
X28556803Y-52155770D01*
X28339660Y-52085215D01*
X28339654Y-52085214D01*
X28114167Y-52049500D01*
X28114162Y-52049500D01*
X28114157Y-52049500D01*
X27885843Y-52049500D01*
X27885838Y-52049500D01*
X27885833Y-52049500D01*
X27660344Y-52085214D01*
X27660342Y-52085214D01*
X27660339Y-52085215D01*
X27443196Y-52155770D01*
X27333263Y-52211783D01*
X27239778Y-52259417D01*
X27239775Y-52259418D01*
X27239771Y-52259421D01*
X27055061Y-52393622D01*
X27055059Y-52393624D01*
X27055058Y-52393624D01*
X26893624Y-52555058D01*
X26893624Y-52555059D01*
X26893622Y-52555061D01*
X26759421Y-52739771D01*
X26655770Y-52943196D01*
X26585215Y-53160339D01*
X26585215Y-53160341D01*
X26585214Y-53160344D01*
X26549500Y-53385831D01*
X20500500Y-53385831D01*
X20500500Y-42878848D01*
X24399499Y-42878848D01*
X24430257Y-43033471D01*
X24430264Y-43033502D01*
X24490598Y-43179165D01*
X24490603Y-43179174D01*
X24490613Y-43179191D01*
X24578211Y-43310290D01*
X24578212Y-43310291D01*
X24578217Y-43310297D01*
X24689701Y-43421781D01*
X24689707Y-43421786D01*
X24689711Y-43421789D01*
X24820814Y-43509390D01*
X24820827Y-43509397D01*
X24966498Y-43569735D01*
X24966503Y-43569737D01*
X25113513Y-43598979D01*
X25116247Y-43599703D01*
X25121155Y-43600500D01*
X25278844Y-43600500D01*
X25282964Y-43600500D01*
X25290814Y-43598118D01*
X25433497Y-43569737D01*
X25557834Y-43518235D01*
X25579172Y-43509397D01*
X25579172Y-43509396D01*
X25579179Y-43509394D01*
X25710289Y-43421789D01*
X25821789Y-43310289D01*
X25909394Y-43179179D01*
X25964175Y-43046923D01*
X25982174Y-43016586D01*
X25998687Y-42996095D01*
X26047783Y-42959343D01*
X26093748Y-42940304D01*
X26740304Y-42293748D01*
X26765500Y-42232920D01*
X26765500Y-42167080D01*
X26765500Y-39222474D01*
X26770522Y-39187543D01*
X26771628Y-39183775D01*
X26774925Y-39172544D01*
X26812696Y-39113768D01*
X26820667Y-39106861D01*
X26854405Y-39086020D01*
X26856761Y-39085044D01*
X26856762Y-39085044D01*
X26861729Y-39082986D01*
X26895921Y-39074257D01*
X26922085Y-39071444D01*
X26982790Y-39080174D01*
X26993354Y-39084550D01*
X26993359Y-39084551D01*
X26993365Y-39084554D01*
X26993377Y-39084558D01*
X26993381Y-39084558D01*
X26993383Y-39084559D01*
X27049995Y-39092011D01*
X27049995Y-39092010D01*
X27049998Y-39092011D01*
X27050000Y-39092010D01*
X27050000Y-39067328D01*
X27055022Y-39032395D01*
X27061540Y-39010198D01*
X27089258Y-38961183D01*
X27091260Y-38959006D01*
X27107013Y-38944601D01*
X27128282Y-38928282D01*
X27216772Y-38812958D01*
X27242015Y-38788307D01*
X27251152Y-38781635D01*
X27316898Y-38757996D01*
X27384990Y-38773655D01*
X27433803Y-38823633D01*
X27435524Y-38826876D01*
X27450000Y-38885016D01*
X27450000Y-39092010D01*
X27450001Y-39092011D01*
X27450002Y-39092010D01*
X27450003Y-39092011D01*
X27506615Y-39084559D01*
X27506615Y-39084558D01*
X27506622Y-39084558D01*
X27506631Y-39084555D01*
X27511071Y-39082715D01*
X27545269Y-39073986D01*
X27571426Y-39071174D01*
X27632131Y-39079901D01*
X27640239Y-39083259D01*
X27643368Y-39084555D01*
X27643377Y-39084558D01*
X27643380Y-39084558D01*
X27643382Y-39084559D01*
X27699995Y-39092011D01*
X27699995Y-39092010D01*
X27699998Y-39092011D01*
X27700000Y-39092010D01*
X27700000Y-38892131D01*
X27705021Y-38857204D01*
X27707316Y-38849387D01*
X27708207Y-38846349D01*
X27745977Y-38787570D01*
X27809531Y-38758541D01*
X27878686Y-38768479D01*
X27882033Y-38770007D01*
X27928897Y-38807315D01*
X28021718Y-38928282D01*
X28037342Y-38940271D01*
X28061998Y-38965520D01*
X28075637Y-38984198D01*
X28097646Y-39035996D01*
X28098152Y-39038894D01*
X28100000Y-39060222D01*
X28100000Y-39092009D01*
X28100001Y-39092010D01*
X28156627Y-39084556D01*
X28156628Y-39084555D01*
X28156631Y-39084555D01*
X28160411Y-39082989D01*
X28194606Y-39074259D01*
X28220768Y-39071445D01*
X28281478Y-39080173D01*
X28283219Y-39080894D01*
X28293238Y-39085044D01*
X28410639Y-39100500D01*
X28689360Y-39100499D01*
X28689361Y-39100499D01*
X28699739Y-39099132D01*
X28701595Y-39098888D01*
X28701596Y-39098887D01*
X28806762Y-39085044D01*
X28811065Y-39083261D01*
X28845266Y-39074528D01*
X28871430Y-39071715D01*
X28932135Y-39080444D01*
X28943238Y-39085044D01*
X29060639Y-39100500D01*
X29339360Y-39100499D01*
X29339363Y-39100499D01*
X29339365Y-39100499D01*
X29448712Y-39086105D01*
X29452755Y-39085839D01*
X29456883Y-39085158D01*
X29460785Y-39083377D01*
X29602841Y-39024536D01*
X29728282Y-38928282D01*
X29763105Y-38882898D01*
X29788350Y-38858247D01*
X29799764Y-38849913D01*
X29865512Y-38826277D01*
X29932961Y-38841583D01*
X29934537Y-38842456D01*
X29944748Y-38848111D01*
X29972352Y-38868904D01*
X32935392Y-41831944D01*
X32956542Y-41860196D01*
X32958340Y-41863489D01*
X32963070Y-41872150D01*
X32977922Y-41940423D01*
X32953506Y-42005887D01*
X32904740Y-42044828D01*
X32897194Y-42048193D01*
X32870884Y-42056560D01*
X32722773Y-42086021D01*
X32722746Y-42086027D01*
X32549776Y-42157672D01*
X32549766Y-42157677D01*
X32394089Y-42261698D01*
X32394088Y-42261699D01*
X32394082Y-42261704D01*
X32261704Y-42394082D01*
X32261699Y-42394088D01*
X32261698Y-42394089D01*
X32157677Y-42549766D01*
X32157672Y-42549776D01*
X32086027Y-42722746D01*
X32086021Y-42722773D01*
X32049500Y-42906376D01*
X32049500Y-42906379D01*
X32049500Y-43093620D01*
X32049500Y-43093622D01*
X32049499Y-43093622D01*
X32086021Y-43277225D01*
X32086027Y-43277252D01*
X32157672Y-43450222D01*
X32157677Y-43450232D01*
X32261698Y-43605909D01*
X32261699Y-43605910D01*
X32261704Y-43605916D01*
X32394082Y-43738294D01*
X32394088Y-43738299D01*
X32394089Y-43738300D01*
X32549761Y-43842318D01*
X32549766Y-43842320D01*
X32549768Y-43842321D01*
X32549769Y-43842322D01*
X32722749Y-43913973D01*
X32894389Y-43948114D01*
X32903408Y-43949908D01*
X32905643Y-43950409D01*
X32906381Y-43950500D01*
X33093617Y-43950500D01*
X33097737Y-43950500D01*
X33105586Y-43948118D01*
X33277251Y-43913973D01*
X33450231Y-43842322D01*
X33605908Y-43738302D01*
X33738302Y-43605908D01*
X33842322Y-43450231D01*
X33843433Y-43447546D01*
X33861446Y-43417182D01*
X33868547Y-43408370D01*
X33925940Y-43368525D01*
X33995765Y-43366034D01*
X34055851Y-43401687D01*
X34055860Y-43401696D01*
X34057730Y-43403705D01*
X34084265Y-43447981D01*
X34092798Y-43472874D01*
X34093740Y-43473767D01*
X34101093Y-43488624D01*
X34157672Y-43625222D01*
X34157677Y-43625232D01*
X34261698Y-43780909D01*
X34261699Y-43780910D01*
X34261704Y-43780916D01*
X34394082Y-43913294D01*
X34394088Y-43913299D01*
X34394089Y-43913300D01*
X34549761Y-44017318D01*
X34549766Y-44017320D01*
X34549768Y-44017321D01*
X34549769Y-44017322D01*
X34722749Y-44088973D01*
X34823519Y-44109017D01*
X34903421Y-44124911D01*
X34905641Y-44125408D01*
X34906381Y-44125500D01*
X35093617Y-44125500D01*
X35097737Y-44125500D01*
X35105586Y-44123118D01*
X35277251Y-44088973D01*
X35450231Y-44017322D01*
X35605908Y-43913302D01*
X35738302Y-43780908D01*
X35842322Y-43625231D01*
X35913973Y-43452251D01*
X35950500Y-43268616D01*
X35950500Y-43081384D01*
X35913973Y-42897749D01*
X35895612Y-42853422D01*
X35886883Y-42819221D01*
X35885400Y-42805424D01*
X35897807Y-42736665D01*
X35945417Y-42685531D01*
X35949939Y-42682847D01*
X36013195Y-42665500D01*
X41018566Y-42665500D01*
X41073716Y-42678439D01*
X41148816Y-42715732D01*
X41200105Y-42763179D01*
X41211597Y-42788474D01*
X41255128Y-42922449D01*
X41310164Y-43030462D01*
X41333768Y-43076788D01*
X41435586Y-43216928D01*
X41558072Y-43339414D01*
X41613540Y-43379714D01*
X41627026Y-43389512D01*
X41652335Y-43414109D01*
X41660810Y-43425100D01*
X41686158Y-43490210D01*
X41672289Y-43558674D01*
X41669029Y-43564854D01*
X41632238Y-43607317D01*
X41558423Y-43660946D01*
X41558399Y-43660964D01*
X41435960Y-43783404D01*
X41334197Y-43923471D01*
X41255592Y-44077739D01*
X41202084Y-44242417D01*
X41200883Y-44249998D01*
X41200884Y-44249999D01*
X41200885Y-44250000D01*
X42067159Y-44250000D01*
X42134198Y-44269685D01*
X42179953Y-44322489D01*
X42189897Y-44391647D01*
X42186934Y-44406090D01*
X42175000Y-44450630D01*
X42175000Y-44549370D01*
X42186050Y-44590609D01*
X42186934Y-44593907D01*
X42185271Y-44663756D01*
X42146108Y-44721619D01*
X42081880Y-44749123D01*
X42067159Y-44750000D01*
X41200885Y-44750000D01*
X41202084Y-44757582D01*
X41255592Y-44922259D01*
X41309648Y-45028349D01*
X41330784Y-45069830D01*
X41334197Y-45076527D01*
X41435961Y-45216596D01*
X41558399Y-45339034D01*
X41558407Y-45339041D01*
X41627021Y-45388890D01*
X41652339Y-45413495D01*
X41660814Y-45424487D01*
X41686159Y-45489597D01*
X41672282Y-45558070D01*
X41669021Y-45564250D01*
X41632239Y-45606698D01*
X41558072Y-45660584D01*
X41431094Y-45787562D01*
X41426961Y-45794942D01*
X41419100Y-45805763D01*
X41419098Y-45805766D01*
X41333768Y-45923210D01*
X41255129Y-46077547D01*
X41201598Y-46242297D01*
X41201597Y-46242299D01*
X41198686Y-46260680D01*
X41174500Y-46413383D01*
X41174500Y-46413389D01*
X41174500Y-46586611D01*
X41181969Y-46633772D01*
X41197763Y-46733493D01*
X41201598Y-46757701D01*
X41255127Y-46922445D01*
X41333768Y-47076788D01*
X41435586Y-47216928D01*
X41435588Y-47216930D01*
X41530519Y-47311861D01*
X41551670Y-47340114D01*
X41558322Y-47352296D01*
X41573174Y-47420569D01*
X41548758Y-47486034D01*
X41548754Y-47486038D01*
X41543053Y-47493653D01*
X41508888Y-47524877D01*
X41456342Y-47557288D01*
X41332290Y-47681340D01*
X41240187Y-47830662D01*
X41240152Y-47830770D01*
X41195300Y-47966123D01*
X41186852Y-47979069D01*
X41185365Y-47993630D01*
X41184542Y-47999881D01*
X41184359Y-48003476D01*
X41174500Y-48099973D01*
X41174500Y-48099980D01*
X41174500Y-48099983D01*
X41174500Y-48900001D01*
X41174500Y-48900009D01*
X41174503Y-48900045D01*
X41179605Y-48949992D01*
X41185000Y-49002796D01*
X41185001Y-49002799D01*
X41226880Y-49129179D01*
X41226879Y-49129179D01*
X41231971Y-49144544D01*
X41240186Y-49169334D01*
X41332288Y-49318656D01*
X41456344Y-49442712D01*
X41605666Y-49534814D01*
X41772203Y-49589999D01*
X41874991Y-49600500D01*
X43225008Y-49600499D01*
X43327797Y-49589999D01*
X43494334Y-49534814D01*
X43643656Y-49442712D01*
X43767712Y-49318656D01*
X43859814Y-49169334D01*
X43914999Y-49002797D01*
X43925500Y-48900009D01*
X43925499Y-48099992D01*
X43919265Y-48038969D01*
X43914999Y-47997203D01*
X43914998Y-47997200D01*
X43859848Y-47830770D01*
X43859814Y-47830666D01*
X43767712Y-47681344D01*
X43643656Y-47557288D01*
X43643652Y-47557285D01*
X43594628Y-47527046D01*
X43567535Y-47504435D01*
X43558252Y-47494114D01*
X43528056Y-47431110D01*
X43536715Y-47361782D01*
X43540505Y-47353058D01*
X43566556Y-47314785D01*
X43611603Y-47269739D01*
X43664414Y-47216928D01*
X43766232Y-47076788D01*
X43844873Y-46922445D01*
X43898402Y-46757701D01*
X43902237Y-46733493D01*
X43918030Y-46633772D01*
X43925500Y-46586611D01*
X43925500Y-46413389D01*
X43898402Y-46242299D01*
X43844873Y-46077555D01*
X43766232Y-45923212D01*
X43664414Y-45783072D01*
X43541928Y-45660586D01*
X43536375Y-45656551D01*
X43472973Y-45610486D01*
X43447661Y-45585886D01*
X43439187Y-45574896D01*
X43413840Y-45509786D01*
X43427713Y-45441318D01*
X43430974Y-45435137D01*
X43467760Y-45392680D01*
X43541598Y-45339036D01*
X43664032Y-45216602D01*
X43664034Y-45216598D01*
X43664037Y-45216596D01*
X43708664Y-45155170D01*
X43765804Y-45076524D01*
X43844408Y-44922255D01*
X43897914Y-44757584D01*
X43899115Y-44750000D01*
X43032841Y-44750000D01*
X42965802Y-44730315D01*
X42920047Y-44677511D01*
X42910103Y-44608353D01*
X42913066Y-44593907D01*
X42913950Y-44590609D01*
X42925000Y-44549370D01*
X42925000Y-44450630D01*
X42913066Y-44406092D01*
X42914729Y-44336244D01*
X42953892Y-44278381D01*
X43018120Y-44250877D01*
X43032841Y-44250000D01*
X43899115Y-44250000D01*
X43899115Y-44249998D01*
X43897914Y-44242416D01*
X43859895Y-44125408D01*
X43844408Y-44077744D01*
X43844406Y-44077741D01*
X43844406Y-44077739D01*
X43813619Y-44017318D01*
X43765804Y-43923475D01*
X43758407Y-43913294D01*
X43664037Y-43783402D01*
X43541603Y-43660968D01*
X43541597Y-43660964D01*
X43522987Y-43647442D01*
X43472974Y-43611106D01*
X43447666Y-43586511D01*
X43439191Y-43575521D01*
X43413840Y-43510412D01*
X43427709Y-43441943D01*
X43430970Y-43435760D01*
X43467760Y-43393300D01*
X43486450Y-43379721D01*
X43541928Y-43339414D01*
X43664414Y-43216928D01*
X43766232Y-43076788D01*
X43815548Y-42980000D01*
X44445496Y-42980000D01*
X44487968Y-43126195D01*
X44519302Y-43179179D01*
X44570278Y-43265374D01*
X44570285Y-43265383D01*
X44684616Y-43379714D01*
X44684625Y-43379721D01*
X44823804Y-43462031D01*
X44979086Y-43507144D01*
X44979089Y-43507145D01*
X45000000Y-43508789D01*
X45500000Y-43508789D01*
X45520905Y-43507146D01*
X45520907Y-43507145D01*
X45520910Y-43507145D01*
X45676195Y-43462031D01*
X45815374Y-43379721D01*
X45815383Y-43379714D01*
X45929714Y-43265383D01*
X45929721Y-43265374D01*
X46012031Y-43126195D01*
X46054504Y-42980000D01*
X46054503Y-42980000D01*
X45500000Y-42980000D01*
X45500000Y-43508789D01*
X45000000Y-43508789D01*
X45000000Y-42980000D01*
X44445496Y-42980000D01*
X43815548Y-42980000D01*
X43844873Y-42922445D01*
X43898402Y-42757701D01*
X43925500Y-42586611D01*
X43925500Y-42413389D01*
X43898402Y-42242299D01*
X43844873Y-42077555D01*
X43766232Y-41923212D01*
X43664414Y-41783072D01*
X43541928Y-41660586D01*
X43473397Y-41610795D01*
X43448091Y-41586202D01*
X43442420Y-41578848D01*
X43439615Y-41575210D01*
X43414265Y-41510103D01*
X43428138Y-41441626D01*
X43431404Y-41435437D01*
X43468185Y-41392990D01*
X43541928Y-41339414D01*
X43664414Y-41216928D01*
X43766232Y-41076788D01*
X43844873Y-40922445D01*
X43888403Y-40788473D01*
X43927841Y-40730798D01*
X43951181Y-40715732D01*
X44026283Y-40678438D01*
X44081433Y-40665500D01*
X44101414Y-40665500D01*
X44136350Y-40670523D01*
X44151348Y-40674927D01*
X44210122Y-40712698D01*
X44219039Y-40722988D01*
X44239890Y-40756742D01*
X44290596Y-40879158D01*
X44290604Y-40879176D01*
X44290613Y-40879191D01*
X44378211Y-41010290D01*
X44378212Y-41010291D01*
X44378217Y-41010297D01*
X44489693Y-41121773D01*
X44489706Y-41121785D01*
X44492141Y-41123814D01*
X44507906Y-41139557D01*
X44518747Y-41152529D01*
X44546631Y-41216592D01*
X44547082Y-41220183D01*
X44540642Y-41277851D01*
X44539080Y-41282165D01*
X44529220Y-41303069D01*
X44487488Y-41373634D01*
X44487234Y-41374538D01*
X44442358Y-41528995D01*
X44442357Y-41529001D01*
X44442356Y-41529002D01*
X44442356Y-41529004D01*
X44439500Y-41565294D01*
X44439500Y-41974704D01*
X44442356Y-42010994D01*
X44442356Y-42010996D01*
X44442357Y-42010997D01*
X44442358Y-42011003D01*
X44487502Y-42166385D01*
X44487506Y-42166396D01*
X44490834Y-42172022D01*
X44504295Y-42204653D01*
X44508751Y-42222218D01*
X44507536Y-42287640D01*
X44504276Y-42298744D01*
X44492034Y-42326927D01*
X44487970Y-42333798D01*
X44487968Y-42333803D01*
X44462685Y-42420833D01*
X44445496Y-42480000D01*
X44734994Y-42480000D01*
X44767713Y-42484394D01*
X44798701Y-42492872D01*
X44817445Y-42500808D01*
X44822617Y-42502223D01*
X44824465Y-42502744D01*
X44830608Y-42504529D01*
X44968208Y-42544506D01*
X44969398Y-42544972D01*
X44978266Y-42547437D01*
X44979655Y-42547832D01*
X44979682Y-42547839D01*
X44979966Y-42547871D01*
X44983842Y-42548023D01*
X45015310Y-42550500D01*
X45015318Y-42550500D01*
X45484682Y-42550500D01*
X45484690Y-42550500D01*
X45516157Y-42548023D01*
X45520041Y-42547871D01*
X45520311Y-42547841D01*
X45520316Y-42547840D01*
X45521715Y-42547442D01*
X45530601Y-42544972D01*
X45531792Y-42544506D01*
X45669392Y-42504529D01*
X45673433Y-42503608D01*
X45680370Y-42501339D01*
X45705699Y-42493980D01*
X45709520Y-42491128D01*
X45719978Y-42487761D01*
X45732294Y-42484392D01*
X45765006Y-42480000D01*
X46054503Y-42480000D01*
X46054504Y-42480000D01*
X46012031Y-42333803D01*
X46009165Y-42328958D01*
X45995705Y-42296333D01*
X45991249Y-42278769D01*
X45992461Y-42213344D01*
X45995727Y-42202222D01*
X46007972Y-42174039D01*
X46012494Y-42166395D01*
X46052044Y-42030264D01*
X46057642Y-42010997D01*
X46057643Y-42010991D01*
X46058641Y-41998311D01*
X46060500Y-41974690D01*
X46060500Y-41565310D01*
X46057643Y-41529007D01*
X46056370Y-41524626D01*
X46052343Y-41510766D01*
X46020308Y-41400500D01*
X46012494Y-41373605D01*
X45930117Y-41234313D01*
X45930116Y-41234311D01*
X45876271Y-41180466D01*
X45815692Y-41119887D01*
X45815683Y-41119880D01*
X45815680Y-41119878D01*
X45752334Y-41082415D01*
X45724825Y-41060313D01*
X45714161Y-41048893D01*
X45682794Y-40986460D01*
X45688199Y-40922047D01*
X45691885Y-40911867D01*
X45705364Y-40885209D01*
X45707531Y-40881966D01*
X45708934Y-40879985D01*
X45709388Y-40879187D01*
X45709391Y-40879183D01*
X45709394Y-40879179D01*
X45769737Y-40733497D01*
X45800500Y-40578842D01*
X45800500Y-40421158D01*
X45800500Y-40421155D01*
X45800500Y-40420974D01*
X45800069Y-40418993D01*
X45798955Y-40413389D01*
X45769737Y-40266503D01*
X45766195Y-40257952D01*
X45761630Y-40246932D01*
X45709402Y-40120840D01*
X45709397Y-40120827D01*
X45709390Y-40120814D01*
X45621789Y-39989711D01*
X45621786Y-39989707D01*
X45621781Y-39989701D01*
X45510297Y-39878217D01*
X45510291Y-39878212D01*
X45510290Y-39878211D01*
X45379191Y-39790613D01*
X45379190Y-39790612D01*
X45379185Y-39790609D01*
X45379172Y-39790602D01*
X45379165Y-39790598D01*
X45233502Y-39730264D01*
X45233471Y-39730257D01*
X45078847Y-39699500D01*
X45078845Y-39699500D01*
X45078842Y-39699500D01*
X44921158Y-39699500D01*
X44921155Y-39699500D01*
X44921153Y-39699500D01*
X44766527Y-39730257D01*
X44766496Y-39730264D01*
X44620833Y-39790598D01*
X44620824Y-39790603D01*
X44620807Y-39790613D01*
X44489708Y-39878211D01*
X44489707Y-39878212D01*
X44489701Y-39878217D01*
X44378217Y-39989701D01*
X44378212Y-39989707D01*
X44378211Y-39989708D01*
X44290613Y-40120807D01*
X44290604Y-40120822D01*
X44290596Y-40120840D01*
X44240626Y-40241480D01*
X44222620Y-40271830D01*
X44212812Y-40284002D01*
X44155423Y-40323852D01*
X44142506Y-40328152D01*
X44103340Y-40334500D01*
X44081435Y-40334500D01*
X44026284Y-40321560D01*
X43951182Y-40284265D01*
X43899893Y-40236817D01*
X43888402Y-40211523D01*
X43858937Y-40120840D01*
X43844873Y-40077555D01*
X43766232Y-39923212D01*
X43664414Y-39783072D01*
X43541928Y-39660586D01*
X43473397Y-39610795D01*
X43448091Y-39586202D01*
X43447731Y-39585735D01*
X43439615Y-39575210D01*
X43414265Y-39510103D01*
X43428138Y-39441626D01*
X43431404Y-39435437D01*
X43468185Y-39392990D01*
X43541365Y-39339823D01*
X43541924Y-39339417D01*
X43541924Y-39339416D01*
X43541928Y-39339414D01*
X43664414Y-39216928D01*
X43766232Y-39076788D01*
X43844873Y-38922445D01*
X43898402Y-38757701D01*
X43925500Y-38586611D01*
X43925500Y-38413389D01*
X43898402Y-38242299D01*
X43844873Y-38077555D01*
X43766232Y-37923212D01*
X43664414Y-37783072D01*
X43541928Y-37660586D01*
X43401788Y-37558768D01*
X43401780Y-37558764D01*
X43247449Y-37480128D01*
X43091532Y-37429467D01*
X43087010Y-37427614D01*
X43077820Y-37425444D01*
X43073057Y-37425070D01*
X42938463Y-37403753D01*
X42938173Y-37403707D01*
X42911611Y-37399500D01*
X42911610Y-37399500D01*
X42188390Y-37399500D01*
X42188389Y-37399500D01*
X42161537Y-37403753D01*
X42161536Y-37403753D01*
X42017302Y-37426596D01*
X42017301Y-37426596D01*
X41852547Y-37480129D01*
X41698218Y-37558764D01*
X41698214Y-37558766D01*
X41698211Y-37558767D01*
X41698211Y-37558768D01*
X41646647Y-37596232D01*
X41618236Y-37616874D01*
X41569943Y-37651961D01*
X41562562Y-37656094D01*
X41431093Y-37787563D01*
X41426962Y-37794940D01*
X41404224Y-37826237D01*
X41404223Y-37826239D01*
X41333768Y-37923210D01*
X41255101Y-38077604D01*
X41254629Y-38078547D01*
X41253546Y-38082418D01*
X41211598Y-38211522D01*
X41172161Y-38269197D01*
X41148820Y-38284263D01*
X41073718Y-38321559D01*
X41018565Y-38334500D01*
X40967079Y-38334500D01*
X40906248Y-38359697D01*
X38480374Y-40785573D01*
X38452123Y-40806722D01*
X38429035Y-40819330D01*
X38369605Y-40834500D01*
X33887744Y-40834500D01*
X33852808Y-40829477D01*
X33827566Y-40822065D01*
X33774821Y-40790769D01*
X29443749Y-36459697D01*
X29443748Y-36459696D01*
X29382920Y-36434500D01*
X28867078Y-36434500D01*
X28806252Y-36459695D01*
X28690371Y-36575576D01*
X28662115Y-36596727D01*
X28639028Y-36609333D01*
X28579603Y-36624500D01*
X28410634Y-36624500D01*
X28293238Y-36639953D01*
X28292102Y-36640301D01*
X28289189Y-36641632D01*
X28288284Y-36642007D01*
X28254066Y-36650742D01*
X28227910Y-36653553D01*
X28167212Y-36644826D01*
X28156632Y-36640444D01*
X28100000Y-36632987D01*
X28100000Y-36657669D01*
X28094976Y-36692607D01*
X28088459Y-36714800D01*
X28060733Y-36763823D01*
X28058740Y-36765989D01*
X28042977Y-36780403D01*
X28021721Y-36796713D01*
X28021720Y-36796714D01*
X27969503Y-36864764D01*
X27961190Y-36875600D01*
X27961181Y-36875612D01*
X27933229Y-36912039D01*
X27907976Y-36936698D01*
X27898841Y-36943368D01*
X27833090Y-36967003D01*
X27764999Y-36951338D01*
X27716187Y-36901350D01*
X27715629Y-36900296D01*
X27714455Y-36898083D01*
X27700000Y-36839981D01*
X27700000Y-36632987D01*
X27643370Y-36640443D01*
X27643369Y-36640443D01*
X27638915Y-36642288D01*
X27604720Y-36651014D01*
X27578567Y-36653825D01*
X27517863Y-36645096D01*
X27506630Y-36640443D01*
X27450000Y-36632987D01*
X27450000Y-36832867D01*
X27444976Y-36867805D01*
X27441789Y-36878658D01*
X27404014Y-36937435D01*
X27340457Y-36966458D01*
X27271301Y-36956514D01*
X27267961Y-36954988D01*
X27221100Y-36917682D01*
X27216221Y-36911324D01*
X27188818Y-36875611D01*
X27135712Y-36806402D01*
X27130976Y-36798784D01*
X27130020Y-36798051D01*
X27126577Y-36795311D01*
X27121595Y-36791199D01*
X27118864Y-36789490D01*
X27112657Y-36784727D01*
X27087999Y-36759475D01*
X27074359Y-36740794D01*
X27052345Y-36688952D01*
X27051840Y-36686053D01*
X27050000Y-36664773D01*
X27050000Y-36632987D01*
X26993370Y-36640443D01*
X26993369Y-36640443D01*
X26989572Y-36642016D01*
X26955374Y-36650743D01*
X26929220Y-36653554D01*
X26868508Y-36644821D01*
X26862392Y-36642288D01*
X26860821Y-36641637D01*
X26857898Y-36640302D01*
X26856761Y-36639954D01*
X26739363Y-36624500D01*
X26739361Y-36624500D01*
X26460636Y-36624500D01*
X26460634Y-36624500D01*
X26343257Y-36639950D01*
X26343246Y-36639953D01*
X26343228Y-36639959D01*
X26338911Y-36641747D01*
X26304721Y-36650471D01*
X26278567Y-36653282D01*
X26217871Y-36644556D01*
X26206763Y-36639956D01*
X26206760Y-36639954D01*
X26089363Y-36624500D01*
X26089361Y-36624500D01*
X25810636Y-36624500D01*
X25810634Y-36624500D01*
X25693257Y-36639950D01*
X25693246Y-36639953D01*
X25693228Y-36639959D01*
X25688911Y-36641747D01*
X25654721Y-36650471D01*
X25628567Y-36653282D01*
X25567871Y-36644556D01*
X25556763Y-36639956D01*
X25556760Y-36639954D01*
X25439363Y-36624500D01*
X25439361Y-36624500D01*
X25160636Y-36624500D01*
X25160634Y-36624500D01*
X25043257Y-36639950D01*
X25043246Y-36639953D01*
X25043228Y-36639959D01*
X24897161Y-36700462D01*
X24771718Y-36796718D01*
X24675462Y-36922161D01*
X24616639Y-37064172D01*
X24615304Y-37067096D01*
X24614954Y-37068237D01*
X24599503Y-37185608D01*
X24599500Y-37185637D01*
X24599500Y-38539354D01*
X24599766Y-38543413D01*
X24599037Y-38543460D01*
X24599024Y-38568134D01*
X24594907Y-38599395D01*
X24586531Y-38630656D01*
X24530264Y-38766498D01*
X24530263Y-38766502D01*
X24530257Y-38766527D01*
X24499500Y-38921150D01*
X24499500Y-38921153D01*
X24499500Y-39078846D01*
X24499500Y-39078848D01*
X24499499Y-39078848D01*
X24530257Y-39233471D01*
X24530264Y-39233502D01*
X24590598Y-39379165D01*
X24590603Y-39379174D01*
X24590613Y-39379191D01*
X24678211Y-39510290D01*
X24678212Y-39510291D01*
X24678217Y-39510297D01*
X24789701Y-39621781D01*
X24789707Y-39621786D01*
X24789711Y-39621789D01*
X24920814Y-39709390D01*
X24920827Y-39709397D01*
X25044425Y-39760592D01*
X25066503Y-39769737D01*
X25213513Y-39798979D01*
X25216247Y-39799703D01*
X25221155Y-39800500D01*
X25378844Y-39800500D01*
X25382964Y-39800500D01*
X25390814Y-39798118D01*
X25533497Y-39769737D01*
X25533502Y-39769734D01*
X25533505Y-39769734D01*
X25596575Y-39743609D01*
X25630769Y-39734880D01*
X25631909Y-39734757D01*
X25644569Y-39733396D01*
X25713327Y-39745799D01*
X25764465Y-39793406D01*
X25767141Y-39797916D01*
X25784500Y-39861190D01*
X25784500Y-40601413D01*
X25779475Y-40636357D01*
X25775070Y-40651355D01*
X25737303Y-40710119D01*
X25727010Y-40719039D01*
X25693254Y-40739892D01*
X25570820Y-40790604D01*
X25570819Y-40790605D01*
X25439708Y-40878211D01*
X25439707Y-40878212D01*
X25439701Y-40878217D01*
X25328217Y-40989701D01*
X25328212Y-40989707D01*
X25328211Y-40989708D01*
X25240613Y-41120807D01*
X25240603Y-41120824D01*
X25240598Y-41120833D01*
X25180264Y-41266496D01*
X25180257Y-41266527D01*
X25149500Y-41421150D01*
X25149500Y-41421153D01*
X25149500Y-41578846D01*
X25149500Y-41578848D01*
X25149499Y-41578848D01*
X25180257Y-41733471D01*
X25180264Y-41733502D01*
X25213003Y-41812542D01*
X25221731Y-41846733D01*
X25223215Y-41860530D01*
X25210813Y-41929290D01*
X25163205Y-41980430D01*
X25163201Y-41980432D01*
X25155418Y-41985050D01*
X25113615Y-42000536D01*
X25087011Y-42005213D01*
X25077177Y-42008247D01*
X24966527Y-42030257D01*
X24966496Y-42030264D01*
X24820833Y-42090598D01*
X24820824Y-42090603D01*
X24820807Y-42090613D01*
X24689708Y-42178211D01*
X24689707Y-42178212D01*
X24689701Y-42178217D01*
X24578217Y-42289701D01*
X24578212Y-42289707D01*
X24578211Y-42289708D01*
X24490613Y-42420807D01*
X24490603Y-42420824D01*
X24490598Y-42420833D01*
X24430264Y-42566496D01*
X24430257Y-42566527D01*
X24399500Y-42721150D01*
X24399500Y-42721153D01*
X24399500Y-42878846D01*
X24399500Y-42878848D01*
X24399499Y-42878848D01*
X20500500Y-42878848D01*
X20500500Y-36425531D01*
X20505522Y-36390598D01*
X20509433Y-36377279D01*
X20547206Y-36318502D01*
X20610758Y-36289477D01*
X20621664Y-36287909D01*
X20663496Y-36289029D01*
X20705435Y-36297372D01*
X20721157Y-36300500D01*
X20721158Y-36300500D01*
X20878844Y-36300500D01*
X20882964Y-36300500D01*
X20890814Y-36298118D01*
X21033497Y-36269737D01*
X21179179Y-36209394D01*
X21310289Y-36121789D01*
X21326907Y-36105169D01*
X21355163Y-36084017D01*
X21368882Y-36076527D01*
X21437138Y-36061677D01*
X21443721Y-36062148D01*
X21507765Y-36085513D01*
X21562184Y-36125051D01*
X21562189Y-36125053D01*
X21563407Y-36125800D01*
X21583753Y-36141372D01*
X21593866Y-36150923D01*
X21629092Y-36211261D01*
X21626105Y-36281067D01*
X21589938Y-36334785D01*
X21582614Y-36341132D01*
X21564059Y-36354432D01*
X21562440Y-36355379D01*
X21508282Y-36394726D01*
X21508281Y-36394727D01*
X22013850Y-36900296D01*
X22047335Y-36961619D01*
X22042351Y-37031311D01*
X22000479Y-37087244D01*
X21988173Y-37095362D01*
X21962996Y-37109898D01*
X21962990Y-37109903D01*
X21869903Y-37202990D01*
X21869898Y-37202996D01*
X21855362Y-37228173D01*
X21804793Y-37276387D01*
X21736185Y-37289607D01*
X21671322Y-37263637D01*
X21660296Y-37253850D01*
X21154728Y-36748282D01*
X21154727Y-36748282D01*
X21115380Y-36802438D01*
X21018903Y-36991784D01*
X20953242Y-37193865D01*
X20951798Y-37202990D01*
X20920000Y-37403753D01*
X20920000Y-37616246D01*
X20951715Y-37816485D01*
X20951716Y-37816493D01*
X20953242Y-37826133D01*
X20987886Y-37932754D01*
X21018904Y-38028217D01*
X21086828Y-38161524D01*
X21115374Y-38217548D01*
X21115375Y-38217550D01*
X21151376Y-38267103D01*
X21154728Y-38271716D01*
X21660297Y-37766147D01*
X21721619Y-37732663D01*
X21791311Y-37737647D01*
X21847244Y-37779519D01*
X21855363Y-37791828D01*
X21869896Y-37817000D01*
X21869899Y-37817004D01*
X21869901Y-37817007D01*
X21962993Y-37910099D01*
X21988169Y-37924634D01*
X22036384Y-37975202D01*
X22049606Y-38043809D01*
X22023638Y-38108673D01*
X22013849Y-38119702D01*
X21482977Y-38650573D01*
X21454726Y-38671722D01*
X21431638Y-38684330D01*
X21374922Y-38698807D01*
X21374948Y-38699372D01*
X21372225Y-38699495D01*
X21372208Y-38699500D01*
X21372134Y-38699500D01*
X21372123Y-38699501D01*
X21372120Y-38699501D01*
X21372099Y-38699503D01*
X21312517Y-38705907D01*
X21177666Y-38756204D01*
X21177665Y-38756205D01*
X21062456Y-38842450D01*
X21062450Y-38842456D01*
X20976205Y-38957665D01*
X20976203Y-38957668D01*
X20925907Y-39092516D01*
X20921061Y-39137608D01*
X20921061Y-39137609D01*
X20919500Y-39152131D01*
X20919500Y-40947872D01*
X20919659Y-40949806D01*
X20919885Y-40951454D01*
X20925907Y-41007482D01*
X20941353Y-41048893D01*
X20976202Y-41142328D01*
X20976206Y-41142335D01*
X21004751Y-41180466D01*
X21062450Y-41257542D01*
X21062456Y-41257548D01*
X21089577Y-41277851D01*
X21177664Y-41343793D01*
X21177671Y-41343797D01*
X21202874Y-41353197D01*
X21312517Y-41394091D01*
X21372127Y-41400500D01*
X21790546Y-41400499D01*
X21825475Y-41405520D01*
X21838793Y-41409431D01*
X21897571Y-41447203D01*
X21926597Y-41510758D01*
X21926599Y-41510766D01*
X21928545Y-41524305D01*
X21929010Y-41545062D01*
X21929500Y-41545062D01*
X21929500Y-41551153D01*
X21929500Y-41551155D01*
X21929500Y-41708846D01*
X21929500Y-41708848D01*
X21929499Y-41708848D01*
X21960257Y-41863471D01*
X21960264Y-41863502D01*
X22020598Y-42009165D01*
X22020603Y-42009174D01*
X22020613Y-42009191D01*
X22108211Y-42140290D01*
X22108212Y-42140291D01*
X22108217Y-42140297D01*
X22219701Y-42251781D01*
X22219707Y-42251786D01*
X22219711Y-42251789D01*
X22350814Y-42339390D01*
X22350827Y-42339397D01*
X22496498Y-42399735D01*
X22496503Y-42399737D01*
X22643513Y-42428979D01*
X22646247Y-42429703D01*
X22651155Y-42430500D01*
X22808844Y-42430500D01*
X22812964Y-42430500D01*
X22820814Y-42428118D01*
X22963497Y-42399737D01*
X23109179Y-42339394D01*
X23240289Y-42251789D01*
X23351789Y-42140289D01*
X23439394Y-42009179D01*
X23449389Y-41985050D01*
X23475005Y-41923205D01*
X23499737Y-41863497D01*
X23530500Y-41708842D01*
X23530500Y-41551158D01*
X23530500Y-41551155D01*
X23530500Y-41550971D01*
X23530064Y-41548966D01*
X23522334Y-41510103D01*
X23499739Y-41396511D01*
X23499736Y-41396501D01*
X23499729Y-41396484D01*
X23499727Y-41396478D01*
X23490256Y-41373612D01*
X23488623Y-41369670D01*
X23479892Y-41335467D01*
X23477839Y-41316370D01*
X23487431Y-41253631D01*
X23491326Y-41244683D01*
X23505747Y-41219873D01*
X23558490Y-41149417D01*
X23561390Y-41146072D01*
X23561395Y-41146065D01*
X23566450Y-41138785D01*
X23576243Y-41125703D01*
X23575547Y-41121846D01*
X23582652Y-41091773D01*
X23614091Y-41007483D01*
X23620500Y-40947873D01*
X23620499Y-39152128D01*
X23614091Y-39092517D01*
X23613902Y-39092011D01*
X23573043Y-38982460D01*
X23563798Y-38957673D01*
X23563797Y-38957671D01*
X23563795Y-38957668D01*
X23563793Y-38957664D01*
X23483131Y-38849914D01*
X23477548Y-38842456D01*
X23477542Y-38842450D01*
X23404365Y-38787670D01*
X23362335Y-38756206D01*
X23362332Y-38756204D01*
X23362330Y-38756203D01*
X23362328Y-38756202D01*
X23312844Y-38737746D01*
X23277497Y-38711284D01*
X23175583Y-38700328D01*
X23160365Y-38697725D01*
X23156575Y-38696831D01*
X23140203Y-38694477D01*
X23114961Y-38687065D01*
X23062216Y-38655769D01*
X22526149Y-38119702D01*
X22492664Y-38058379D01*
X22497648Y-37988687D01*
X22539520Y-37932754D01*
X22551822Y-37924639D01*
X22577007Y-37910099D01*
X22670099Y-37817007D01*
X22684634Y-37791830D01*
X22735199Y-37743616D01*
X22803805Y-37730391D01*
X22868671Y-37756358D01*
X22879702Y-37766149D01*
X23385269Y-38271717D01*
X23385269Y-38271716D01*
X23385270Y-38271717D01*
X23385270Y-38271716D01*
X23398738Y-38266137D01*
X23404955Y-38244967D01*
X23408954Y-38239118D01*
X23424429Y-38217820D01*
X23424622Y-38217554D01*
X23521095Y-38028217D01*
X23586757Y-37826130D01*
X23586757Y-37826127D01*
X23593577Y-37783072D01*
X23611990Y-37666815D01*
X23620000Y-37616246D01*
X23620000Y-37403753D01*
X23606260Y-37317007D01*
X23588284Y-37203511D01*
X23588283Y-37203505D01*
X23588283Y-37203506D01*
X23586756Y-37193865D01*
X23559473Y-37109898D01*
X23521095Y-36991782D01*
X23424624Y-36802449D01*
X23385270Y-36748282D01*
X23385269Y-36748282D01*
X23385268Y-36748282D01*
X22879702Y-37253849D01*
X22818379Y-37287334D01*
X22748687Y-37282350D01*
X22692754Y-37240478D01*
X22684634Y-37228169D01*
X22670099Y-37202993D01*
X22577007Y-37109901D01*
X22577004Y-37109899D01*
X22577000Y-37109896D01*
X22551828Y-37095363D01*
X22503613Y-37044796D01*
X22490391Y-36976189D01*
X22516359Y-36911324D01*
X22526135Y-36900310D01*
X23031716Y-36394728D01*
X23031713Y-36394726D01*
X22997501Y-36369870D01*
X22991998Y-36362734D01*
X22984388Y-36358857D01*
X22955539Y-36338521D01*
X22946129Y-36329634D01*
X22910905Y-36269292D01*
X22913897Y-36199487D01*
X22950070Y-36145767D01*
X22957084Y-36139690D01*
X22974077Y-36128286D01*
X22973657Y-36127600D01*
X22977813Y-36125053D01*
X23068616Y-36059082D01*
X23081531Y-36049698D01*
X23149786Y-36000109D01*
X23149788Y-36000106D01*
X23149792Y-36000104D01*
X23149795Y-36000100D01*
X23149849Y-36000061D01*
X23150605Y-35999290D01*
X23299290Y-35850605D01*
X23300065Y-35849845D01*
X23300124Y-35849765D01*
X23425048Y-35677820D01*
X23425047Y-35677820D01*
X23425051Y-35677816D01*
X23425053Y-35677810D01*
X23445445Y-35649744D01*
X23453730Y-35621529D01*
X23521557Y-35488412D01*
X23587246Y-35286243D01*
X23620500Y-35076287D01*
X23620500Y-34863713D01*
X23587246Y-34653757D01*
X23521557Y-34451588D01*
X23425197Y-34262471D01*
X23425052Y-34262183D01*
X23300112Y-34090216D01*
X23149782Y-33939886D01*
X22977824Y-33814953D01*
X22977258Y-33814606D01*
X22977089Y-33814419D01*
X22973901Y-33812103D01*
X22974388Y-33811431D01*
X22973653Y-33810618D01*
X22956960Y-33799062D01*
X22946683Y-33789357D01*
X22932543Y-33765136D01*
X22930406Y-33762772D01*
X22930107Y-33760963D01*
X22911457Y-33729017D01*
X22914445Y-33659212D01*
X22950612Y-33605495D01*
X22957783Y-33599281D01*
X22974194Y-33587269D01*
X22977794Y-33585062D01*
X22977816Y-33585051D01*
X23091030Y-33502797D01*
X23149786Y-33460109D01*
X23149787Y-33460106D01*
X23149790Y-33460105D01*
X23149792Y-33460104D01*
X23149793Y-33460102D01*
X23149847Y-33460063D01*
X23150605Y-33459290D01*
X23299290Y-33310605D01*
X23300065Y-33309845D01*
X23300124Y-33309765D01*
X23306856Y-33300500D01*
X23366053Y-33219021D01*
X23424013Y-33139245D01*
X23430782Y-33129927D01*
X23430787Y-33129921D01*
X23445445Y-33109744D01*
X23453730Y-33081529D01*
X23521557Y-32948412D01*
X23587246Y-32746243D01*
X23620500Y-32536287D01*
X23620500Y-32323713D01*
X23587246Y-32113757D01*
X23521557Y-31911588D01*
X23429168Y-31730264D01*
X23425848Y-31723748D01*
X23425847Y-31723747D01*
X23425051Y-31722184D01*
X23425049Y-31722181D01*
X23425048Y-31722179D01*
X23300109Y-31550213D01*
X23210558Y-31460662D01*
X24600000Y-31460662D01*
X24600000Y-31460669D01*
X24600000Y-31937500D01*
X25107670Y-31937500D01*
X25142606Y-31942523D01*
X25157604Y-31946927D01*
X25216355Y-31984672D01*
X25217542Y-31986041D01*
X25245019Y-32040905D01*
X25246664Y-32048464D01*
X25249500Y-32074832D01*
X25249500Y-32195672D01*
X25244478Y-32230605D01*
X25240075Y-32245601D01*
X25202329Y-32304355D01*
X25200960Y-32305542D01*
X25146096Y-32333019D01*
X25138537Y-32334664D01*
X25112169Y-32337500D01*
X24600001Y-32337500D01*
X24600001Y-32814326D01*
X24615441Y-32931625D01*
X24615444Y-32931633D01*
X24675896Y-33077579D01*
X24675897Y-33077581D01*
X24675899Y-33077585D01*
X24772075Y-33202924D01*
X24897414Y-33299100D01*
X25043366Y-33359555D01*
X25043372Y-33359557D01*
X25043379Y-33359557D01*
X25043383Y-33359559D01*
X25099995Y-33367011D01*
X25099995Y-33367010D01*
X25099998Y-33367011D01*
X25100000Y-33367010D01*
X25100000Y-33167131D01*
X25105021Y-33132204D01*
X25106681Y-33126548D01*
X25108207Y-33121349D01*
X25145977Y-33062570D01*
X25209531Y-33033541D01*
X25278686Y-33043479D01*
X25282033Y-33045007D01*
X25328897Y-33082315D01*
X25421444Y-33202926D01*
X25421718Y-33203282D01*
X25439149Y-33216657D01*
X25446842Y-33222560D01*
X25455776Y-33230110D01*
X25464320Y-33238052D01*
X25472503Y-33246413D01*
X25603322Y-33393334D01*
X25611974Y-33406404D01*
X25612206Y-33406231D01*
X25615361Y-33410439D01*
X25617463Y-33414697D01*
X25622800Y-33422759D01*
X25625082Y-33427582D01*
X25624063Y-33428063D01*
X25631374Y-33442870D01*
X25632585Y-33442418D01*
X25633377Y-33444537D01*
X25633579Y-33447334D01*
X25635525Y-33451276D01*
X25635808Y-33452283D01*
X25633973Y-33452798D01*
X25638409Y-33514225D01*
X25608947Y-33568286D01*
X25610401Y-33569513D01*
X25609726Y-33570313D01*
X25606331Y-33573086D01*
X25604989Y-33575549D01*
X25603393Y-33577148D01*
X25602477Y-33576234D01*
X25574399Y-33599171D01*
X25573610Y-33599602D01*
X25538358Y-33612397D01*
X25516450Y-33616755D01*
X25516440Y-33616758D01*
X25516431Y-33616761D01*
X25370776Y-33677092D01*
X25370767Y-33677097D01*
X25370750Y-33677107D01*
X25239651Y-33764705D01*
X25239650Y-33764706D01*
X25239644Y-33764711D01*
X25128160Y-33876195D01*
X25128155Y-33876201D01*
X25128154Y-33876202D01*
X25040556Y-34007301D01*
X25040546Y-34007318D01*
X25040541Y-34007327D01*
X24980207Y-34152990D01*
X24980200Y-34153021D01*
X24949443Y-34307644D01*
X24949443Y-34307647D01*
X24949443Y-34465340D01*
X24949443Y-34465342D01*
X24949442Y-34465342D01*
X24980200Y-34619965D01*
X24980207Y-34619996D01*
X25040541Y-34765659D01*
X25040545Y-34765666D01*
X25040549Y-34765674D01*
X25040556Y-34765685D01*
X25128154Y-34896784D01*
X25128155Y-34896785D01*
X25128160Y-34896791D01*
X25239644Y-35008275D01*
X25239650Y-35008280D01*
X25239654Y-35008283D01*
X25370757Y-35095884D01*
X25370770Y-35095891D01*
X25516441Y-35156229D01*
X25516446Y-35156231D01*
X25663456Y-35185473D01*
X25666190Y-35186197D01*
X25671098Y-35186994D01*
X25828787Y-35186994D01*
X25832907Y-35186994D01*
X25840757Y-35184612D01*
X25983440Y-35156231D01*
X26129122Y-35095888D01*
X26260232Y-35008283D01*
X26371732Y-34896783D01*
X26459337Y-34765673D01*
X26462298Y-34758521D01*
X26480305Y-34728170D01*
X26490117Y-34715994D01*
X26547505Y-34676147D01*
X26560432Y-34671845D01*
X26599590Y-34665500D01*
X26782919Y-34665500D01*
X26782920Y-34665500D01*
X26843748Y-34640304D01*
X28040304Y-33443748D01*
X28040305Y-33443745D01*
X28047090Y-33433590D01*
X28047872Y-33434112D01*
X28054052Y-33423684D01*
X28065854Y-33409039D01*
X28117689Y-33371191D01*
X28127415Y-33367431D01*
X28155950Y-33360151D01*
X28156141Y-33360125D01*
X28156762Y-33360044D01*
X28161068Y-33358259D01*
X28195268Y-33349528D01*
X28221431Y-33346715D01*
X28282134Y-33355444D01*
X28293238Y-33360044D01*
X28410639Y-33375500D01*
X28547992Y-33375499D01*
X28582923Y-33380520D01*
X28608164Y-33387932D01*
X28660912Y-33419228D01*
X28981988Y-33740304D01*
X29042816Y-33765500D01*
X29042817Y-33765500D01*
X30682919Y-33765500D01*
X30682920Y-33765500D01*
X30743748Y-33740304D01*
X31231634Y-33252415D01*
X31259882Y-33231270D01*
X31273608Y-33223775D01*
X31341873Y-33208927D01*
X31355455Y-33209898D01*
X31394059Y-33219019D01*
X31496110Y-33261290D01*
X31516503Y-33269737D01*
X31659163Y-33298114D01*
X31663512Y-33298979D01*
X31666247Y-33299703D01*
X31671155Y-33300500D01*
X31828844Y-33300500D01*
X31832964Y-33300500D01*
X31840814Y-33298118D01*
X31983497Y-33269737D01*
X32129179Y-33209394D01*
X32260289Y-33121789D01*
X32371789Y-33010289D01*
X32459394Y-32879179D01*
X32462936Y-32870629D01*
X32486243Y-32814360D01*
X32519737Y-32733497D01*
X32520674Y-32728789D01*
X32540621Y-32628506D01*
X32550500Y-32578842D01*
X32550500Y-32421158D01*
X32550500Y-32421155D01*
X32550500Y-32420971D01*
X32550064Y-32418966D01*
X32531117Y-32323713D01*
X32519738Y-32266506D01*
X32519736Y-32266501D01*
X32515634Y-32256596D01*
X32515634Y-32256595D01*
X32459400Y-32120833D01*
X32459395Y-32120824D01*
X32459390Y-32120814D01*
X32371789Y-31989711D01*
X32371786Y-31989707D01*
X32371781Y-31989701D01*
X32260297Y-31878217D01*
X32260291Y-31878212D01*
X32260290Y-31878211D01*
X32129191Y-31790613D01*
X32129190Y-31790612D01*
X32129185Y-31790609D01*
X32129172Y-31790602D01*
X32129165Y-31790598D01*
X31983523Y-31730272D01*
X31983509Y-31730267D01*
X31983501Y-31730264D01*
X31983491Y-31730261D01*
X31983486Y-31730260D01*
X31983483Y-31730259D01*
X31904857Y-31714619D01*
X31871573Y-31702877D01*
X31857719Y-31695630D01*
X31807441Y-31647115D01*
X31803806Y-31640731D01*
X31787562Y-31579375D01*
X31787562Y-31555781D01*
X31787127Y-31553780D01*
X31786418Y-31550216D01*
X31757457Y-31404623D01*
X31757046Y-31402214D01*
X31756798Y-31401309D01*
X31732799Y-31343369D01*
X31732745Y-31343238D01*
X31696459Y-31255635D01*
X31696452Y-31255622D01*
X31608851Y-31124519D01*
X31608848Y-31124515D01*
X31608843Y-31124509D01*
X31497359Y-31013025D01*
X31497353Y-31013020D01*
X31497352Y-31013019D01*
X31366253Y-30925421D01*
X31366252Y-30925420D01*
X31366247Y-30925417D01*
X31366234Y-30925410D01*
X31366227Y-30925406D01*
X31220564Y-30865072D01*
X31220558Y-30865070D01*
X31220551Y-30865069D01*
X31183951Y-30857788D01*
X31073705Y-30835858D01*
X31051460Y-30829217D01*
X31032440Y-30821535D01*
X30977652Y-30778178D01*
X30970113Y-30767521D01*
X30952268Y-30730504D01*
X30912751Y-30594487D01*
X30912421Y-30593319D01*
X30910793Y-30590729D01*
X30902998Y-30577549D01*
X30830117Y-30454313D01*
X30830116Y-30454312D01*
X30830114Y-30454308D01*
X30715697Y-30339891D01*
X30715679Y-30339877D01*
X30576396Y-30257506D01*
X30576393Y-30257505D01*
X30576390Y-30257504D01*
X30529181Y-30243788D01*
X30421003Y-30212358D01*
X30420997Y-30212357D01*
X30420996Y-30212356D01*
X30420994Y-30212356D01*
X30384704Y-30209500D01*
X30384697Y-30209500D01*
X30384690Y-30209500D01*
X29915310Y-30209500D01*
X29915302Y-30209500D01*
X29915294Y-30209500D01*
X29879004Y-30212356D01*
X29879002Y-30212356D01*
X29879001Y-30212357D01*
X29878995Y-30212358D01*
X29723616Y-30257502D01*
X29723602Y-30257506D01*
X29584319Y-30339877D01*
X29584301Y-30339891D01*
X29469891Y-30454301D01*
X29469877Y-30454319D01*
X29387506Y-30593602D01*
X29387502Y-30593616D01*
X29342358Y-30748995D01*
X29342357Y-30749001D01*
X29342356Y-30749002D01*
X29342356Y-30749004D01*
X29339500Y-30785294D01*
X29339500Y-31029022D01*
X29334476Y-31063960D01*
X29331289Y-31074813D01*
X29293514Y-31133590D01*
X29229957Y-31162613D01*
X29160799Y-31152668D01*
X29160790Y-31152664D01*
X29157456Y-31151141D01*
X29110605Y-31113841D01*
X29085714Y-31081404D01*
X29080977Y-31073786D01*
X29080029Y-31073059D01*
X29076582Y-31070316D01*
X29071591Y-31066196D01*
X29068864Y-31064490D01*
X29062657Y-31059727D01*
X29037999Y-31034475D01*
X29024359Y-31015794D01*
X29002345Y-30963952D01*
X29001840Y-30961053D01*
X29000000Y-30939773D01*
X29000000Y-30907987D01*
X28943370Y-30915443D01*
X28943369Y-30915443D01*
X28939572Y-30917016D01*
X28905374Y-30925743D01*
X28879220Y-30928554D01*
X28818508Y-30919821D01*
X28813283Y-30917657D01*
X28810821Y-30916637D01*
X28807898Y-30915302D01*
X28806761Y-30914954D01*
X28689363Y-30899500D01*
X28689361Y-30899500D01*
X28410636Y-30899500D01*
X28410634Y-30899500D01*
X28293257Y-30914950D01*
X28293246Y-30914953D01*
X28293228Y-30914959D01*
X28288911Y-30916747D01*
X28254721Y-30925471D01*
X28228567Y-30928282D01*
X28167871Y-30919556D01*
X28156763Y-30914956D01*
X28156760Y-30914954D01*
X28039363Y-30899500D01*
X28039361Y-30899500D01*
X27760636Y-30899500D01*
X27760634Y-30899500D01*
X27643257Y-30914950D01*
X27643246Y-30914953D01*
X27643228Y-30914959D01*
X27638911Y-30916747D01*
X27604721Y-30925471D01*
X27578567Y-30928282D01*
X27517871Y-30919556D01*
X27506763Y-30914956D01*
X27506760Y-30914954D01*
X27389363Y-30899500D01*
X27389361Y-30899500D01*
X27110636Y-30899500D01*
X27110632Y-30899500D01*
X27110622Y-30899501D01*
X27093624Y-30901739D01*
X27058328Y-30901318D01*
X27042885Y-30898909D01*
X26979681Y-30869127D01*
X26979680Y-30869127D01*
X26973049Y-30863241D01*
X26940805Y-30817957D01*
X26909467Y-30742299D01*
X26882706Y-30677692D01*
X26882703Y-30677685D01*
X26882701Y-30677679D01*
X26882694Y-30677666D01*
X26795093Y-30546563D01*
X26795090Y-30546559D01*
X26795085Y-30546553D01*
X26683601Y-30435069D01*
X26683595Y-30435064D01*
X26683594Y-30435063D01*
X26552495Y-30347465D01*
X26552494Y-30347464D01*
X26552489Y-30347461D01*
X26552476Y-30347454D01*
X26552474Y-30347453D01*
X26552469Y-30347450D01*
X26406806Y-30287116D01*
X26406775Y-30287109D01*
X26252151Y-30256352D01*
X26252149Y-30256352D01*
X26252146Y-30256352D01*
X26094462Y-30256352D01*
X26094459Y-30256352D01*
X26094457Y-30256352D01*
X25939831Y-30287109D01*
X25939800Y-30287116D01*
X25794137Y-30347450D01*
X25794133Y-30347453D01*
X25794111Y-30347465D01*
X25663012Y-30435063D01*
X25663011Y-30435064D01*
X25663005Y-30435069D01*
X25551521Y-30546553D01*
X25551516Y-30546559D01*
X25551515Y-30546560D01*
X25463917Y-30677659D01*
X25463907Y-30677676D01*
X25463902Y-30677685D01*
X25403568Y-30823348D01*
X25403561Y-30823379D01*
X25372804Y-30978002D01*
X25372804Y-31075541D01*
X25367781Y-31110478D01*
X25359300Y-31139360D01*
X25338699Y-31179909D01*
X25333228Y-31187039D01*
X25307977Y-31211696D01*
X25298844Y-31218365D01*
X25233095Y-31242002D01*
X25165003Y-31226340D01*
X25116188Y-31176351D01*
X25114461Y-31173097D01*
X25100000Y-31114982D01*
X25100000Y-30907986D01*
X25043370Y-30915443D01*
X24897410Y-30975900D01*
X24772075Y-31072074D01*
X24772074Y-31072075D01*
X24675899Y-31197411D01*
X24675898Y-31197414D01*
X24615445Y-31343361D01*
X24615445Y-31343363D01*
X24600000Y-31460662D01*
X23210558Y-31460662D01*
X23149786Y-31399890D01*
X23149782Y-31399886D01*
X22977824Y-31274953D01*
X22977258Y-31274606D01*
X22977089Y-31274419D01*
X22973901Y-31272103D01*
X22974388Y-31271431D01*
X22973653Y-31270618D01*
X22956960Y-31259062D01*
X22946683Y-31249357D01*
X22932543Y-31225136D01*
X22930406Y-31222772D01*
X22930107Y-31220963D01*
X22911457Y-31189017D01*
X22914445Y-31119212D01*
X22950612Y-31065495D01*
X22957783Y-31059281D01*
X22974194Y-31047269D01*
X22977792Y-31045063D01*
X22977816Y-31045051D01*
X23070098Y-30978005D01*
X23070103Y-30978002D01*
X23082776Y-30968793D01*
X23149786Y-30920109D01*
X23149788Y-30920106D01*
X23149792Y-30920104D01*
X23149795Y-30920100D01*
X23149849Y-30920061D01*
X23150605Y-30919290D01*
X23299290Y-30770605D01*
X23300065Y-30769845D01*
X23300124Y-30769765D01*
X23425048Y-30597820D01*
X23425047Y-30597820D01*
X23425051Y-30597816D01*
X23425053Y-30597810D01*
X23445445Y-30569744D01*
X23453730Y-30541529D01*
X23521557Y-30408412D01*
X23587246Y-30206243D01*
X23620500Y-29996287D01*
X23620500Y-29783713D01*
X23587246Y-29573757D01*
X23521557Y-29371588D01*
X23425051Y-29182184D01*
X23378545Y-29118174D01*
X23328556Y-29049369D01*
X23312503Y-29027273D01*
X23309648Y-29023344D01*
X23309648Y-29023343D01*
X23309643Y-29023337D01*
X23300105Y-29010209D01*
X23250374Y-28960478D01*
X24291677Y-28960478D01*
X24291677Y-29118174D01*
X24322434Y-29272799D01*
X24322441Y-29272830D01*
X24382775Y-29418493D01*
X24382780Y-29418502D01*
X24382790Y-29418519D01*
X24470388Y-29549618D01*
X24470389Y-29549619D01*
X24470394Y-29549625D01*
X24581878Y-29661109D01*
X24581884Y-29661114D01*
X24581888Y-29661117D01*
X24712991Y-29748718D01*
X24713004Y-29748725D01*
X24838002Y-29800500D01*
X24858680Y-29809065D01*
X24858687Y-29809066D01*
X24858687Y-29809067D01*
X25005696Y-29838309D01*
X25008420Y-29839031D01*
X25013332Y-29839828D01*
X25171021Y-29839828D01*
X25175141Y-29839828D01*
X25182991Y-29837446D01*
X25325674Y-29809065D01*
X25471356Y-29748722D01*
X25602466Y-29661117D01*
X25713966Y-29549617D01*
X25746220Y-29501342D01*
X25769803Y-29475088D01*
X25780455Y-29466186D01*
X25844516Y-29438303D01*
X25913465Y-29449469D01*
X25915198Y-29450298D01*
X25918194Y-29451731D01*
X25967798Y-29494706D01*
X25978211Y-29510289D01*
X25978216Y-29510296D01*
X26089701Y-29621781D01*
X26089707Y-29621786D01*
X26089711Y-29621789D01*
X26220814Y-29709390D01*
X26220827Y-29709397D01*
X26315775Y-29748725D01*
X26366503Y-29769737D01*
X26366505Y-29769737D01*
X26366510Y-29769739D01*
X26492630Y-29794825D01*
X26513513Y-29798979D01*
X26516247Y-29799703D01*
X26521155Y-29800500D01*
X26678844Y-29800500D01*
X26682964Y-29800500D01*
X26690814Y-29798118D01*
X26833497Y-29769737D01*
X26979179Y-29709394D01*
X27110289Y-29621789D01*
X27221789Y-29510289D01*
X27309394Y-29379179D01*
X27369737Y-29233497D01*
X27375665Y-29203687D01*
X27387403Y-29170413D01*
X27394652Y-29156553D01*
X27443160Y-29106283D01*
X27445555Y-29104918D01*
X27452599Y-29100907D01*
X27497788Y-29085719D01*
X27506627Y-29084556D01*
X27506631Y-29084555D01*
X27511077Y-29082713D01*
X27545269Y-29073986D01*
X27571426Y-29071174D01*
X27632131Y-29079901D01*
X27640246Y-29083262D01*
X27643368Y-29084555D01*
X27643377Y-29084558D01*
X27643380Y-29084558D01*
X27643382Y-29084559D01*
X27699995Y-29092011D01*
X27699995Y-29092010D01*
X27699998Y-29092011D01*
X27700000Y-29092010D01*
X27700000Y-28892131D01*
X27705021Y-28857204D01*
X27708207Y-28846351D01*
X27745977Y-28787570D01*
X27809531Y-28758541D01*
X27878686Y-28768479D01*
X27882033Y-28770007D01*
X27928897Y-28807315D01*
X28021718Y-28928282D01*
X28037342Y-28940271D01*
X28061998Y-28965520D01*
X28075637Y-28984198D01*
X28097646Y-29035996D01*
X28098152Y-29038894D01*
X28100000Y-29060222D01*
X28100000Y-29092009D01*
X28100001Y-29092010D01*
X28156627Y-29084556D01*
X28156628Y-29084555D01*
X28156631Y-29084555D01*
X28160411Y-29082989D01*
X28194606Y-29074259D01*
X28220768Y-29071445D01*
X28281481Y-29080174D01*
X28293238Y-29085044D01*
X28410639Y-29100500D01*
X28689360Y-29100499D01*
X28689361Y-29100499D01*
X28699739Y-29099132D01*
X28701595Y-29098888D01*
X28701596Y-29098887D01*
X28806762Y-29085044D01*
X28811065Y-29083261D01*
X28845266Y-29074528D01*
X28871430Y-29071715D01*
X28932135Y-29080444D01*
X28943238Y-29085044D01*
X29060639Y-29100500D01*
X29339360Y-29100499D01*
X29339363Y-29100499D01*
X29339365Y-29100499D01*
X29448712Y-29086105D01*
X29452755Y-29085839D01*
X29456883Y-29085158D01*
X29460785Y-29083377D01*
X29602841Y-29024536D01*
X29728282Y-28928282D01*
X29824536Y-28802841D01*
X29885044Y-28656762D01*
X29900500Y-28539361D01*
X29900499Y-27185640D01*
X29900499Y-27185639D01*
X29900499Y-27185636D01*
X29890129Y-27106863D01*
X29886105Y-27076288D01*
X29885839Y-27072237D01*
X29885268Y-27068778D01*
X29844225Y-26969692D01*
X29824536Y-26922159D01*
X29728282Y-26796718D01*
X29705202Y-26779008D01*
X29689973Y-26767322D01*
X29665316Y-26742071D01*
X29656986Y-26730663D01*
X29633349Y-26664913D01*
X29648653Y-26597467D01*
X29655181Y-26585678D01*
X29675971Y-26558078D01*
X32321915Y-23912135D01*
X33619500Y-23912135D01*
X33619500Y-23915040D01*
X33619500Y-25707876D01*
X33619659Y-25709806D01*
X33619885Y-25711454D01*
X33625907Y-25767482D01*
X33653690Y-25841971D01*
X33676202Y-25902328D01*
X33676206Y-25902335D01*
X33705619Y-25941625D01*
X33762450Y-26017542D01*
X33762452Y-26017544D01*
X33762455Y-26017547D01*
X33877664Y-26103793D01*
X33877671Y-26103797D01*
X33981472Y-26142512D01*
X33992376Y-26146579D01*
X34023351Y-26163491D01*
X34031838Y-26169845D01*
X34034461Y-26171808D01*
X34076334Y-26227740D01*
X34081321Y-26297432D01*
X34081318Y-26297445D01*
X34080342Y-26301930D01*
X34046860Y-26363244D01*
X33939886Y-26470218D01*
X33859044Y-26581490D01*
X33815070Y-26642016D01*
X33814949Y-26642182D01*
X33718445Y-26831580D01*
X33652752Y-27033759D01*
X33619500Y-27243707D01*
X33619500Y-27456290D01*
X33638585Y-27576788D01*
X33652753Y-27666239D01*
X33709019Y-27839410D01*
X33718442Y-27868409D01*
X33718443Y-27868412D01*
X33808570Y-28045298D01*
X33814951Y-28057820D01*
X33939890Y-28229786D01*
X34090213Y-28380109D01*
X34262182Y-28505050D01*
X34262190Y-28505054D01*
X34262693Y-28505363D01*
X34264174Y-28506496D01*
X34266122Y-28507912D01*
X34266086Y-28507960D01*
X34283034Y-28520934D01*
X34293315Y-28530643D01*
X34328541Y-28590983D01*
X34325552Y-28660789D01*
X34289383Y-28714507D01*
X34282227Y-28720708D01*
X34265814Y-28732723D01*
X34262190Y-28734943D01*
X34090210Y-28859892D01*
X33939892Y-29010210D01*
X33897402Y-29068693D01*
X33818343Y-29177511D01*
X33814949Y-29182182D01*
X33718445Y-29371580D01*
X33652752Y-29573759D01*
X33619500Y-29783707D01*
X33619500Y-29996290D01*
X33645522Y-30160587D01*
X33652753Y-30206241D01*
X33698635Y-30347453D01*
X33718441Y-30408406D01*
X33718443Y-30408412D01*
X33813252Y-30594487D01*
X33814951Y-30597820D01*
X33939890Y-30769786D01*
X34090213Y-30920109D01*
X34262182Y-31045050D01*
X34262190Y-31045054D01*
X34262693Y-31045363D01*
X34264174Y-31046496D01*
X34266122Y-31047912D01*
X34266086Y-31047960D01*
X34283034Y-31060934D01*
X34293315Y-31070643D01*
X34328541Y-31130983D01*
X34325552Y-31200789D01*
X34289383Y-31254507D01*
X34282227Y-31260708D01*
X34265814Y-31272723D01*
X34262190Y-31274943D01*
X34090210Y-31399892D01*
X33939892Y-31550210D01*
X33935714Y-31555961D01*
X33818763Y-31716933D01*
X33814949Y-31722182D01*
X33718445Y-31911580D01*
X33652752Y-32113759D01*
X33619500Y-32323707D01*
X33619500Y-32536291D01*
X33649989Y-32728790D01*
X33652752Y-32746237D01*
X33652753Y-32746239D01*
X33652754Y-32746243D01*
X33712991Y-32931634D01*
X33718444Y-32948414D01*
X33814951Y-33137820D01*
X33939890Y-33309786D01*
X34090213Y-33460109D01*
X34262182Y-33585050D01*
X34262190Y-33585054D01*
X34262693Y-33585363D01*
X34264174Y-33586496D01*
X34266122Y-33587912D01*
X34266086Y-33587960D01*
X34283034Y-33600934D01*
X34293315Y-33610643D01*
X34328541Y-33670983D01*
X34325552Y-33740789D01*
X34289383Y-33794507D01*
X34282227Y-33800708D01*
X34265814Y-33812723D01*
X34262190Y-33814943D01*
X34090210Y-33939892D01*
X33939892Y-34090210D01*
X33814949Y-34262182D01*
X33718445Y-34451580D01*
X33652752Y-34653759D01*
X33619500Y-34863707D01*
X33619500Y-35076291D01*
X33652752Y-35286239D01*
X33718445Y-35488418D01*
X33811532Y-35671111D01*
X33814951Y-35677820D01*
X33939890Y-35849786D01*
X34090213Y-36000109D01*
X34262182Y-36125050D01*
X34262188Y-36125053D01*
X34262693Y-36125363D01*
X34264174Y-36126496D01*
X34266122Y-36127912D01*
X34266086Y-36127960D01*
X34283034Y-36140934D01*
X34293315Y-36150643D01*
X34328541Y-36210983D01*
X34325552Y-36280789D01*
X34289383Y-36334507D01*
X34282227Y-36340708D01*
X34265814Y-36352723D01*
X34262190Y-36354943D01*
X34090210Y-36479892D01*
X33939892Y-36630210D01*
X33922933Y-36653553D01*
X33827631Y-36784727D01*
X33814949Y-36802182D01*
X33718445Y-36991580D01*
X33652752Y-37193759D01*
X33619500Y-37403707D01*
X33619500Y-37616291D01*
X33651291Y-37817009D01*
X33652735Y-37826127D01*
X33652754Y-37826243D01*
X33684261Y-37923212D01*
X33701154Y-37975202D01*
X33718445Y-38028418D01*
X33811532Y-38211111D01*
X33814951Y-38217820D01*
X33939890Y-38389786D01*
X33939892Y-38389788D01*
X34090216Y-38540112D01*
X34262183Y-38665052D01*
X34262471Y-38665197D01*
X34451588Y-38761557D01*
X34653757Y-38827246D01*
X34863713Y-38860500D01*
X34863714Y-38860500D01*
X35076286Y-38860500D01*
X35076287Y-38860500D01*
X35286243Y-38827246D01*
X35488412Y-38761557D01*
X35677816Y-38665051D01*
X35738694Y-38620821D01*
X35849786Y-38540109D01*
X35849786Y-38540108D01*
X35849845Y-38540065D01*
X35850605Y-38539290D01*
X35999290Y-38390605D01*
X36000065Y-38389845D01*
X36000124Y-38389765D01*
X36008764Y-38377873D01*
X36125048Y-38217820D01*
X36125047Y-38217820D01*
X36125051Y-38217816D01*
X36125053Y-38217810D01*
X36145445Y-38189744D01*
X36153730Y-38161529D01*
X36221557Y-38028412D01*
X36287246Y-37826243D01*
X36288710Y-37817003D01*
X36320500Y-37616286D01*
X36320500Y-37403713D01*
X36296764Y-37253850D01*
X36287246Y-37193757D01*
X36221557Y-36991588D01*
X36125181Y-36802439D01*
X36125052Y-36802183D01*
X36000112Y-36630216D01*
X35849782Y-36479886D01*
X35677835Y-36354961D01*
X35677827Y-36354956D01*
X35677820Y-36354951D01*
X35677812Y-36354946D01*
X35677329Y-36354651D01*
X35677176Y-36354482D01*
X35673878Y-36352086D01*
X35674380Y-36351393D01*
X35673723Y-36350667D01*
X35656959Y-36339062D01*
X35646676Y-36329351D01*
X35632594Y-36305226D01*
X35630443Y-36302849D01*
X35630139Y-36301020D01*
X35611455Y-36269011D01*
X35614447Y-36199205D01*
X35650612Y-36145495D01*
X35657783Y-36139281D01*
X35674194Y-36127269D01*
X35677792Y-36125063D01*
X35677816Y-36125051D01*
X35768617Y-36059081D01*
X35849786Y-36000109D01*
X35849788Y-36000106D01*
X35849792Y-36000104D01*
X35849795Y-36000100D01*
X35849849Y-36000061D01*
X35850605Y-35999290D01*
X35999290Y-35850605D01*
X36000065Y-35849845D01*
X36000124Y-35849765D01*
X36125048Y-35677820D01*
X36125047Y-35677820D01*
X36125051Y-35677816D01*
X36125053Y-35677810D01*
X36145445Y-35649744D01*
X36153730Y-35621529D01*
X36221557Y-35488412D01*
X36287246Y-35286243D01*
X36320500Y-35076287D01*
X36320500Y-34863713D01*
X36287246Y-34653757D01*
X36221557Y-34451588D01*
X36125197Y-34262471D01*
X36125052Y-34262183D01*
X36000112Y-34090216D01*
X35849782Y-33939886D01*
X35677824Y-33814953D01*
X35677258Y-33814606D01*
X35677089Y-33814419D01*
X35673901Y-33812103D01*
X35674388Y-33811431D01*
X35673653Y-33810618D01*
X35656960Y-33799062D01*
X35646683Y-33789357D01*
X35632543Y-33765136D01*
X35630406Y-33762772D01*
X35630107Y-33760963D01*
X35611457Y-33729017D01*
X35614445Y-33659212D01*
X35650612Y-33605495D01*
X35657783Y-33599281D01*
X35674194Y-33587269D01*
X35677794Y-33585062D01*
X35677816Y-33585051D01*
X35791030Y-33502797D01*
X35849786Y-33460109D01*
X35849787Y-33460106D01*
X35849790Y-33460105D01*
X35849792Y-33460104D01*
X35849793Y-33460102D01*
X35849847Y-33460063D01*
X35850605Y-33459290D01*
X35999290Y-33310605D01*
X36000065Y-33309845D01*
X36000124Y-33309765D01*
X36006856Y-33300500D01*
X36066053Y-33219021D01*
X36124013Y-33139245D01*
X36130782Y-33129927D01*
X36130787Y-33129921D01*
X36145445Y-33109744D01*
X36153730Y-33081529D01*
X36221557Y-32948412D01*
X36287246Y-32746243D01*
X36320500Y-32536287D01*
X36320500Y-32323713D01*
X36287246Y-32113757D01*
X36221557Y-31911588D01*
X36125197Y-31722471D01*
X36125052Y-31722183D01*
X36000112Y-31550216D01*
X35849782Y-31399886D01*
X35677824Y-31274953D01*
X35677258Y-31274606D01*
X35677089Y-31274419D01*
X35673901Y-31272103D01*
X35674388Y-31271431D01*
X35673653Y-31270618D01*
X35656960Y-31259062D01*
X35646683Y-31249357D01*
X35632543Y-31225136D01*
X35630406Y-31222772D01*
X35630107Y-31220963D01*
X35611457Y-31189017D01*
X35614445Y-31119212D01*
X35650612Y-31065495D01*
X35657783Y-31059281D01*
X35674194Y-31047269D01*
X35677792Y-31045063D01*
X35677816Y-31045051D01*
X35770098Y-30978005D01*
X35770103Y-30978002D01*
X35782776Y-30968793D01*
X35849786Y-30920109D01*
X35849788Y-30920106D01*
X35849792Y-30920104D01*
X35849795Y-30920100D01*
X35849849Y-30920061D01*
X35850605Y-30919290D01*
X35999290Y-30770605D01*
X36000065Y-30769845D01*
X36000124Y-30769765D01*
X36125048Y-30597820D01*
X36125047Y-30597820D01*
X36125051Y-30597816D01*
X36125053Y-30597810D01*
X36145445Y-30569744D01*
X36153730Y-30541529D01*
X36221557Y-30408412D01*
X36287246Y-30206243D01*
X36320500Y-29996287D01*
X36320500Y-29783713D01*
X36287246Y-29573757D01*
X36221557Y-29371588D01*
X36125197Y-29182471D01*
X36125052Y-29182183D01*
X36000112Y-29010216D01*
X35849782Y-28859886D01*
X35677824Y-28734953D01*
X35677258Y-28734606D01*
X35677089Y-28734419D01*
X35673901Y-28732103D01*
X35674388Y-28731431D01*
X35673653Y-28730618D01*
X35656960Y-28719062D01*
X35646683Y-28709357D01*
X35632543Y-28685136D01*
X35630406Y-28682772D01*
X35630107Y-28680963D01*
X35611457Y-28649017D01*
X35614445Y-28579212D01*
X35650612Y-28525495D01*
X35657783Y-28519281D01*
X35674194Y-28507269D01*
X35677794Y-28505062D01*
X35677816Y-28505051D01*
X35798267Y-28417539D01*
X35849786Y-28380109D01*
X35849785Y-28380109D01*
X35849844Y-28380067D01*
X35850609Y-28379287D01*
X35999290Y-28230605D01*
X36000065Y-28229845D01*
X36000124Y-28229765D01*
X36050108Y-28160967D01*
X36125048Y-28057820D01*
X36125047Y-28057820D01*
X36125051Y-28057816D01*
X36125053Y-28057810D01*
X36145445Y-28029744D01*
X36153730Y-28001529D01*
X36221557Y-27868412D01*
X36287246Y-27666243D01*
X36320500Y-27456287D01*
X36320500Y-27243713D01*
X36287246Y-27033757D01*
X36221557Y-26831588D01*
X36125197Y-26642471D01*
X36125052Y-26642183D01*
X36000112Y-26470216D01*
X35899176Y-26369280D01*
X35878027Y-26341030D01*
X35871372Y-26328842D01*
X35856521Y-26260572D01*
X35880935Y-26195111D01*
X35883698Y-26191420D01*
X35939621Y-26149562D01*
X36062331Y-26103796D01*
X36066979Y-26100317D01*
X36140888Y-26044988D01*
X36177546Y-26017546D01*
X36263796Y-25902331D01*
X36314091Y-25767483D01*
X36320500Y-25707873D01*
X36320499Y-23912128D01*
X36314091Y-23852517D01*
X36309205Y-23839418D01*
X36303883Y-23825149D01*
X36263798Y-23717673D01*
X36263797Y-23717671D01*
X36263795Y-23717668D01*
X36263793Y-23717664D01*
X36197547Y-23629172D01*
X36177548Y-23602456D01*
X36177542Y-23602450D01*
X36116700Y-23556904D01*
X36062335Y-23516206D01*
X36062332Y-23516204D01*
X36062330Y-23516203D01*
X36062328Y-23516202D01*
X36012844Y-23497746D01*
X35977497Y-23471284D01*
X35875583Y-23460328D01*
X35870742Y-23459500D01*
X35867881Y-23459500D01*
X35867873Y-23459500D01*
X35867864Y-23459500D01*
X34072129Y-23459500D01*
X34072123Y-23459500D01*
X34070192Y-23459659D01*
X34068545Y-23459885D01*
X34012516Y-23465908D01*
X33923224Y-23499212D01*
X33877666Y-23516204D01*
X33877665Y-23516205D01*
X33762456Y-23602450D01*
X33762450Y-23602456D01*
X33676205Y-23717665D01*
X33676203Y-23717668D01*
X33625907Y-23852516D01*
X33620963Y-23898516D01*
X33620838Y-23899682D01*
X33619501Y-23912123D01*
X33619500Y-23912135D01*
X32321915Y-23912135D01*
X34019628Y-22214423D01*
X34047878Y-22193275D01*
X34070970Y-22180667D01*
X34130395Y-22165500D01*
X37362256Y-22165500D01*
X37397188Y-22170521D01*
X37422432Y-22177934D01*
X37475178Y-22209230D01*
X41367211Y-26101263D01*
X41388389Y-26129566D01*
X41388791Y-26130303D01*
X41402335Y-26169845D01*
X41406005Y-26192492D01*
X41397298Y-26261817D01*
X41390489Y-26275187D01*
X41390025Y-26275976D01*
X41383456Y-26286003D01*
X41283768Y-26423210D01*
X41205101Y-26577604D01*
X41204630Y-26578546D01*
X41203547Y-26582415D01*
X41184853Y-26639952D01*
X41184852Y-26639954D01*
X41151596Y-26742304D01*
X41151596Y-26742305D01*
X41124500Y-26913383D01*
X41124500Y-27086614D01*
X41140184Y-27185637D01*
X41149382Y-27243713D01*
X41151598Y-27257701D01*
X41205127Y-27422445D01*
X41283768Y-27576788D01*
X41385586Y-27716928D01*
X41508072Y-27839414D01*
X41547987Y-27868414D01*
X41577026Y-27889512D01*
X41602335Y-27914109D01*
X41610810Y-27925100D01*
X41636158Y-27990210D01*
X41622289Y-28058674D01*
X41619029Y-28064854D01*
X41582238Y-28107317D01*
X41508423Y-28160946D01*
X41508399Y-28160964D01*
X41385960Y-28283404D01*
X41284197Y-28423471D01*
X41205592Y-28577739D01*
X41152084Y-28742417D01*
X41150883Y-28749998D01*
X41150884Y-28749999D01*
X41150885Y-28750000D01*
X42017159Y-28750000D01*
X42084198Y-28769685D01*
X42129953Y-28822489D01*
X42139897Y-28891647D01*
X42136934Y-28906090D01*
X42125000Y-28950630D01*
X42125000Y-29049370D01*
X42136425Y-29092009D01*
X42136934Y-29093907D01*
X42135271Y-29163756D01*
X42096108Y-29221619D01*
X42031880Y-29249123D01*
X42017159Y-29250000D01*
X41150885Y-29250000D01*
X41152084Y-29257582D01*
X41205592Y-29422259D01*
X41250448Y-29510292D01*
X41282786Y-29573759D01*
X41284197Y-29576527D01*
X41385961Y-29716596D01*
X41508399Y-29839034D01*
X41508407Y-29839041D01*
X41577021Y-29888890D01*
X41602339Y-29913495D01*
X41610814Y-29924487D01*
X41636159Y-29989597D01*
X41622282Y-30058070D01*
X41619021Y-30064250D01*
X41582239Y-30106698D01*
X41508072Y-30160584D01*
X41381093Y-30287563D01*
X41376961Y-30294942D01*
X41294517Y-30408416D01*
X41283768Y-30423211D01*
X41283766Y-30423213D01*
X41283764Y-30423218D01*
X41205129Y-30577549D01*
X41205128Y-30577551D01*
X41205128Y-30577552D01*
X41200847Y-30590729D01*
X41151598Y-30742299D01*
X41151596Y-30742305D01*
X41124500Y-30913383D01*
X41124500Y-31086615D01*
X41151265Y-31255607D01*
X41151596Y-31257697D01*
X41205128Y-31422449D01*
X41263932Y-31537857D01*
X41283768Y-31576788D01*
X41385586Y-31716928D01*
X41385588Y-31716930D01*
X41480519Y-31811861D01*
X41501670Y-31840114D01*
X41508322Y-31852296D01*
X41523174Y-31920569D01*
X41498758Y-31986034D01*
X41498754Y-31986038D01*
X41493053Y-31993653D01*
X41458888Y-32024877D01*
X41406342Y-32057288D01*
X41282290Y-32181340D01*
X41267816Y-32204806D01*
X41191787Y-32328070D01*
X41190185Y-32330667D01*
X41190178Y-32330685D01*
X41165705Y-32404544D01*
X41165704Y-32404547D01*
X41145298Y-32466124D01*
X41136852Y-32479067D01*
X41135365Y-32493630D01*
X41134542Y-32499881D01*
X41134359Y-32503476D01*
X41124500Y-32599973D01*
X41124500Y-32599983D01*
X41124500Y-33400001D01*
X41124500Y-33400009D01*
X41124503Y-33400045D01*
X41135000Y-33502796D01*
X41135003Y-33502804D01*
X41135070Y-33503007D01*
X41190182Y-33669322D01*
X41190185Y-33669332D01*
X41190188Y-33669338D01*
X41194974Y-33677097D01*
X41194975Y-33677100D01*
X41194976Y-33677100D01*
X41282288Y-33818656D01*
X41406344Y-33942712D01*
X41555666Y-34034814D01*
X41722203Y-34089999D01*
X41824991Y-34100500D01*
X43175008Y-34100499D01*
X43277797Y-34089999D01*
X43444334Y-34034814D01*
X43593656Y-33942712D01*
X43717712Y-33818656D01*
X43809814Y-33669334D01*
X43864999Y-33502797D01*
X43875500Y-33400009D01*
X43875499Y-32599992D01*
X43875471Y-32599721D01*
X43864999Y-32497203D01*
X43864998Y-32497200D01*
X43814299Y-32344202D01*
X43812078Y-32337500D01*
X43809814Y-32330666D01*
X43784088Y-32288958D01*
X43717712Y-32181344D01*
X43593656Y-32057288D01*
X43593652Y-32057285D01*
X43544628Y-32027046D01*
X43517535Y-32004435D01*
X43508252Y-31994114D01*
X43478056Y-31931110D01*
X43486715Y-31861782D01*
X43490505Y-31853058D01*
X43516556Y-31814785D01*
X43560842Y-31770500D01*
X43614414Y-31716928D01*
X43716232Y-31576788D01*
X43794873Y-31422445D01*
X43848402Y-31257701D01*
X43875500Y-31086611D01*
X43875500Y-30913389D01*
X43848402Y-30742299D01*
X43794873Y-30577555D01*
X43716232Y-30423212D01*
X43614414Y-30283072D01*
X43491928Y-30160586D01*
X43486375Y-30156551D01*
X43422973Y-30110486D01*
X43397661Y-30085886D01*
X43389187Y-30074896D01*
X43363840Y-30009786D01*
X43377713Y-29941318D01*
X43380974Y-29935137D01*
X43417760Y-29892680D01*
X43491598Y-29839036D01*
X43614032Y-29716602D01*
X43614034Y-29716598D01*
X43614037Y-29716596D01*
X43682917Y-29621789D01*
X43715804Y-29576524D01*
X43794408Y-29422255D01*
X43847914Y-29257584D01*
X43849115Y-29250000D01*
X42982841Y-29250000D01*
X42915802Y-29230315D01*
X42870047Y-29177511D01*
X42860103Y-29108353D01*
X42863066Y-29093907D01*
X42863575Y-29092009D01*
X42875000Y-29049370D01*
X42875000Y-28950630D01*
X42863066Y-28906092D01*
X42864729Y-28836244D01*
X42903892Y-28778381D01*
X42968120Y-28750877D01*
X42982841Y-28750000D01*
X43849115Y-28750000D01*
X43849115Y-28749998D01*
X43847914Y-28742416D01*
X43845489Y-28734953D01*
X43794408Y-28577744D01*
X43794406Y-28577741D01*
X43794406Y-28577739D01*
X43726086Y-28443655D01*
X43715804Y-28423475D01*
X43614033Y-28283399D01*
X43614031Y-28283396D01*
X43560635Y-28230000D01*
X44445496Y-28230000D01*
X44487968Y-28376195D01*
X44566813Y-28509516D01*
X44570278Y-28515374D01*
X44570285Y-28515383D01*
X44684616Y-28629714D01*
X44684625Y-28629721D01*
X44823804Y-28712031D01*
X44979086Y-28757144D01*
X44979089Y-28757145D01*
X45000000Y-28758789D01*
X45500000Y-28758789D01*
X45520905Y-28757146D01*
X45520907Y-28757145D01*
X45520910Y-28757145D01*
X45676195Y-28712031D01*
X45815374Y-28629721D01*
X45815383Y-28629714D01*
X45929714Y-28515383D01*
X45929721Y-28515374D01*
X46012031Y-28376195D01*
X46054504Y-28230000D01*
X46054503Y-28230000D01*
X45500000Y-28230000D01*
X45500000Y-28758789D01*
X45000000Y-28758789D01*
X45000000Y-28230000D01*
X44445496Y-28230000D01*
X43560635Y-28230000D01*
X43491602Y-28160967D01*
X43478119Y-28151171D01*
X43422974Y-28111106D01*
X43397666Y-28086511D01*
X43389191Y-28075521D01*
X43363840Y-28010412D01*
X43377713Y-27941937D01*
X43380974Y-27935756D01*
X43417759Y-27893300D01*
X43491928Y-27839414D01*
X43614414Y-27716928D01*
X43716232Y-27576788D01*
X43794873Y-27422445D01*
X43848402Y-27257701D01*
X43875500Y-27086611D01*
X43875500Y-26913389D01*
X43848402Y-26742299D01*
X43794873Y-26577555D01*
X43716232Y-26423212D01*
X43614414Y-26283072D01*
X43491928Y-26160586D01*
X43423397Y-26110795D01*
X43398091Y-26086202D01*
X43397731Y-26085735D01*
X43389615Y-26075210D01*
X43364265Y-26010103D01*
X43378138Y-25941626D01*
X43381407Y-25935433D01*
X43418187Y-25892990D01*
X43420651Y-25891200D01*
X43491928Y-25839414D01*
X43614414Y-25716928D01*
X43716232Y-25576788D01*
X43794873Y-25422445D01*
X43838403Y-25288471D01*
X43877841Y-25230797D01*
X43901183Y-25215731D01*
X43939093Y-25196906D01*
X43976283Y-25178439D01*
X44031432Y-25165500D01*
X44057670Y-25165500D01*
X44092606Y-25170523D01*
X44107604Y-25174927D01*
X44166355Y-25212672D01*
X44167542Y-25214041D01*
X44195018Y-25268902D01*
X44196663Y-25276460D01*
X44199500Y-25302831D01*
X44199500Y-25328846D01*
X44199500Y-25328848D01*
X44199499Y-25328848D01*
X44230257Y-25483471D01*
X44230264Y-25483502D01*
X44290598Y-25629165D01*
X44290603Y-25629174D01*
X44290613Y-25629191D01*
X44378211Y-25760290D01*
X44378212Y-25760291D01*
X44378217Y-25760297D01*
X44489701Y-25871781D01*
X44489707Y-25871786D01*
X44489711Y-25871789D01*
X44620814Y-25959390D01*
X44620827Y-25959397D01*
X44620829Y-25959397D01*
X44620833Y-25959400D01*
X44761207Y-26017544D01*
X44761208Y-26017544D01*
X44761213Y-26017546D01*
X44766503Y-26019737D01*
X44766506Y-26019737D01*
X44766507Y-26019738D01*
X44832055Y-26032776D01*
X44865341Y-26044519D01*
X44874943Y-26049542D01*
X44925222Y-26098059D01*
X44941288Y-26166056D01*
X44918042Y-26231945D01*
X44873817Y-26269872D01*
X44870424Y-26271603D01*
X44848669Y-26280223D01*
X44823608Y-26287503D01*
X44823607Y-26287504D01*
X44684319Y-26369877D01*
X44684307Y-26369887D01*
X44684301Y-26369891D01*
X44569891Y-26484301D01*
X44569877Y-26484319D01*
X44487506Y-26623602D01*
X44487502Y-26623616D01*
X44442358Y-26778995D01*
X44442357Y-26779001D01*
X44442356Y-26779002D01*
X44442356Y-26779004D01*
X44439500Y-26815294D01*
X44439500Y-27224704D01*
X44442356Y-27260994D01*
X44442356Y-27260996D01*
X44442357Y-27260997D01*
X44442358Y-27261003D01*
X44487502Y-27416385D01*
X44487506Y-27416396D01*
X44490834Y-27422022D01*
X44504295Y-27454653D01*
X44508751Y-27472218D01*
X44507536Y-27537640D01*
X44504276Y-27548744D01*
X44492034Y-27576927D01*
X44487970Y-27583798D01*
X44487968Y-27583803D01*
X44487968Y-27583804D01*
X44445496Y-27730000D01*
X44734994Y-27730000D01*
X44767713Y-27734394D01*
X44798701Y-27742872D01*
X44817445Y-27750808D01*
X44822617Y-27752223D01*
X44824465Y-27752744D01*
X44830608Y-27754529D01*
X44968208Y-27794506D01*
X44969398Y-27794972D01*
X44978266Y-27797437D01*
X44979655Y-27797832D01*
X44979682Y-27797839D01*
X44979966Y-27797871D01*
X44983842Y-27798023D01*
X45015310Y-27800500D01*
X45015318Y-27800500D01*
X45484682Y-27800500D01*
X45484690Y-27800500D01*
X45516157Y-27798023D01*
X45520041Y-27797871D01*
X45520311Y-27797841D01*
X45520316Y-27797840D01*
X45521715Y-27797442D01*
X45530601Y-27794972D01*
X45531792Y-27794506D01*
X45669392Y-27754529D01*
X45673433Y-27753608D01*
X45680370Y-27751339D01*
X45705699Y-27743980D01*
X45709520Y-27741128D01*
X45719978Y-27737761D01*
X45732294Y-27734392D01*
X45765006Y-27730000D01*
X46054503Y-27730000D01*
X46054504Y-27730000D01*
X46012031Y-27583803D01*
X46009165Y-27578958D01*
X45995705Y-27546333D01*
X45991249Y-27528769D01*
X45992461Y-27463344D01*
X45995727Y-27452222D01*
X46007972Y-27424039D01*
X46012494Y-27416395D01*
X46057643Y-27260993D01*
X46060500Y-27224690D01*
X46060500Y-26815310D01*
X46057643Y-26779007D01*
X46056151Y-26773873D01*
X46017244Y-26639955D01*
X46017244Y-26639954D01*
X46017244Y-26639952D01*
X46012495Y-26623608D01*
X46012494Y-26623606D01*
X46012494Y-26623605D01*
X45930117Y-26484313D01*
X45930116Y-26484312D01*
X45930114Y-26484308D01*
X45815697Y-26369891D01*
X45815692Y-26369887D01*
X45815679Y-26369877D01*
X45676396Y-26287506D01*
X45676393Y-26287505D01*
X45676362Y-26287495D01*
X45526258Y-26243885D01*
X45505105Y-26235571D01*
X45497901Y-26231945D01*
X45487325Y-26226621D01*
X45436296Y-26178902D01*
X45434859Y-26176467D01*
X45432709Y-26172824D01*
X45415500Y-26109803D01*
X45415500Y-26019233D01*
X45420522Y-25984300D01*
X45423143Y-25975374D01*
X45426434Y-25964165D01*
X45456940Y-25912217D01*
X45457223Y-25911928D01*
X45461653Y-25907418D01*
X45481225Y-25891207D01*
X45510289Y-25871789D01*
X45621789Y-25760289D01*
X45709394Y-25629179D01*
X45769737Y-25483497D01*
X45800500Y-25328842D01*
X45800500Y-25171158D01*
X45800500Y-25171155D01*
X45800500Y-25170971D01*
X45800064Y-25168966D01*
X45791565Y-25126239D01*
X45787976Y-25108194D01*
X45769737Y-25016503D01*
X45769735Y-25016498D01*
X45709397Y-24870827D01*
X45709390Y-24870814D01*
X45621789Y-24739711D01*
X45621786Y-24739707D01*
X45621781Y-24739701D01*
X45510297Y-24628217D01*
X45510291Y-24628212D01*
X45510290Y-24628211D01*
X45379191Y-24540613D01*
X45379190Y-24540612D01*
X45379185Y-24540609D01*
X45379172Y-24540602D01*
X45379165Y-24540598D01*
X45233502Y-24480264D01*
X45233471Y-24480257D01*
X45078847Y-24449500D01*
X45078845Y-24449500D01*
X45078842Y-24449500D01*
X44921158Y-24449500D01*
X44921155Y-24449500D01*
X44921153Y-24449500D01*
X44766527Y-24480257D01*
X44766496Y-24480264D01*
X44620833Y-24540598D01*
X44620824Y-24540603D01*
X44620807Y-24540613D01*
X44489708Y-24628211D01*
X44489707Y-24628212D01*
X44489701Y-24628217D01*
X44378216Y-24739702D01*
X44378205Y-24739716D01*
X44378195Y-24739730D01*
X44361599Y-24764569D01*
X44338013Y-24790826D01*
X44321916Y-24804278D01*
X44267694Y-24830522D01*
X44261114Y-24831893D01*
X44235821Y-24834500D01*
X44031435Y-24834500D01*
X43976286Y-24821561D01*
X43901181Y-24784265D01*
X43849894Y-24736820D01*
X43838402Y-24711524D01*
X43835864Y-24703713D01*
X43794873Y-24577555D01*
X43716232Y-24423212D01*
X43614414Y-24283072D01*
X43491928Y-24160586D01*
X43423397Y-24110795D01*
X43398091Y-24086202D01*
X43396850Y-24084593D01*
X43389615Y-24075210D01*
X43364265Y-24010103D01*
X43378138Y-23941626D01*
X43381404Y-23935437D01*
X43418185Y-23892990D01*
X43467550Y-23857125D01*
X43491926Y-23839416D01*
X43491928Y-23839414D01*
X43551456Y-23779886D01*
X43614414Y-23716928D01*
X43716232Y-23576788D01*
X43794873Y-23422445D01*
X43848402Y-23257701D01*
X43875500Y-23086611D01*
X43875500Y-22913389D01*
X43848402Y-22742299D01*
X43794873Y-22577555D01*
X43716232Y-22423212D01*
X43614414Y-22283072D01*
X43491928Y-22160586D01*
X43351788Y-22058768D01*
X43351556Y-22058650D01*
X43197449Y-21980128D01*
X43041532Y-21929467D01*
X43037010Y-21927614D01*
X43027820Y-21925444D01*
X43023057Y-21925070D01*
X42890042Y-21904003D01*
X42890039Y-21904001D01*
X42890039Y-21904002D01*
X42872983Y-21901301D01*
X42861613Y-21899500D01*
X42861611Y-21899500D01*
X42138389Y-21899500D01*
X42138387Y-21899500D01*
X42127016Y-21901301D01*
X42109958Y-21904003D01*
X42109957Y-21904003D01*
X41967302Y-21926596D01*
X41967297Y-21926597D01*
X41871943Y-21957580D01*
X41802102Y-21959575D01*
X41791864Y-21956405D01*
X41660214Y-21909317D01*
X41614294Y-21880242D01*
X40593749Y-20859697D01*
X40593748Y-20859696D01*
X40532920Y-20834500D01*
X34217079Y-20834500D01*
X34156248Y-20859697D01*
X34156248Y-20859698D01*
X29865581Y-25150367D01*
X28456252Y-26559696D01*
X28456251Y-26559697D01*
X28430906Y-26585040D01*
X28402653Y-26606190D01*
X28376232Y-26620616D01*
X28332997Y-26634721D01*
X28293234Y-26639956D01*
X28288260Y-26642017D01*
X28254066Y-26650743D01*
X28227913Y-26653554D01*
X28167211Y-26644826D01*
X28156631Y-26640444D01*
X28100000Y-26632987D01*
X28100000Y-26657669D01*
X28094976Y-26692607D01*
X28088459Y-26714800D01*
X28060733Y-26763823D01*
X28058740Y-26765989D01*
X28042977Y-26780403D01*
X28021723Y-26796711D01*
X28021719Y-26796715D01*
X28021719Y-26796716D01*
X27969507Y-26864760D01*
X27969506Y-26864760D01*
X27933229Y-26912039D01*
X27907973Y-26936700D01*
X27898839Y-26943369D01*
X27833088Y-26967003D01*
X27764997Y-26951337D01*
X27716186Y-26901347D01*
X27715864Y-26900741D01*
X27714455Y-26898083D01*
X27700000Y-26839981D01*
X27700000Y-26632987D01*
X27643370Y-26640443D01*
X27643369Y-26640443D01*
X27638915Y-26642288D01*
X27604720Y-26651014D01*
X27578567Y-26653825D01*
X27517863Y-26645096D01*
X27506630Y-26640443D01*
X27450000Y-26632987D01*
X27450000Y-26832867D01*
X27444976Y-26867805D01*
X27441789Y-26878658D01*
X27404014Y-26937435D01*
X27340457Y-26966458D01*
X27271301Y-26956514D01*
X27267961Y-26954988D01*
X27221100Y-26917682D01*
X27190130Y-26877321D01*
X27135712Y-26806402D01*
X27130976Y-26798784D01*
X27130020Y-26798051D01*
X27126577Y-26795311D01*
X27121595Y-26791199D01*
X27118864Y-26789490D01*
X27112657Y-26784727D01*
X27087999Y-26759475D01*
X27074359Y-26740794D01*
X27052345Y-26688952D01*
X27051840Y-26686053D01*
X27050000Y-26664773D01*
X27050000Y-26632987D01*
X26993370Y-26640443D01*
X26993369Y-26640443D01*
X26989572Y-26642016D01*
X26955374Y-26650743D01*
X26929220Y-26653554D01*
X26868508Y-26644821D01*
X26861738Y-26642017D01*
X26860821Y-26641637D01*
X26857898Y-26640302D01*
X26856761Y-26639954D01*
X26739363Y-26624500D01*
X26739361Y-26624500D01*
X26460636Y-26624500D01*
X26460634Y-26624500D01*
X26343257Y-26639950D01*
X26343246Y-26639953D01*
X26343228Y-26639959D01*
X26338911Y-26641747D01*
X26304719Y-26650471D01*
X26278934Y-26653242D01*
X26215509Y-26643347D01*
X26201111Y-26636976D01*
X26199107Y-26636032D01*
X26198574Y-26635853D01*
X26177704Y-26626618D01*
X26124365Y-26581491D01*
X26121003Y-26576393D01*
X26101819Y-26526023D01*
X26101798Y-26525879D01*
X26100500Y-26507985D01*
X26100500Y-26500973D01*
X26100065Y-26498972D01*
X26097149Y-26484315D01*
X26074388Y-26369887D01*
X26069737Y-26346503D01*
X26069734Y-26346496D01*
X26056552Y-26314672D01*
X26045300Y-26287506D01*
X26009397Y-26200827D01*
X26009390Y-26200814D01*
X25921789Y-26069711D01*
X25921786Y-26069707D01*
X25921781Y-26069701D01*
X25810297Y-25958217D01*
X25810291Y-25958212D01*
X25810290Y-25958211D01*
X25679191Y-25870613D01*
X25679190Y-25870612D01*
X25679185Y-25870609D01*
X25679172Y-25870602D01*
X25679165Y-25870598D01*
X25533502Y-25810264D01*
X25533471Y-25810257D01*
X25378847Y-25779500D01*
X25378845Y-25779500D01*
X25378842Y-25779500D01*
X25221158Y-25779500D01*
X25221155Y-25779500D01*
X25221153Y-25779500D01*
X25066527Y-25810257D01*
X25066496Y-25810264D01*
X24920833Y-25870598D01*
X24920824Y-25870603D01*
X24920807Y-25870613D01*
X24789708Y-25958211D01*
X24789707Y-25958212D01*
X24789701Y-25958217D01*
X24678217Y-26069701D01*
X24678212Y-26069707D01*
X24678211Y-26069708D01*
X24590613Y-26200807D01*
X24590603Y-26200824D01*
X24590598Y-26200833D01*
X24530264Y-26346496D01*
X24530257Y-26346527D01*
X24499500Y-26501150D01*
X24499500Y-26501153D01*
X24499500Y-26658846D01*
X24499500Y-26658848D01*
X24499499Y-26658848D01*
X24530257Y-26813471D01*
X24530264Y-26813502D01*
X24590596Y-26959160D01*
X24590601Y-26959171D01*
X24591554Y-26960803D01*
X24591443Y-26960867D01*
X24592467Y-26962932D01*
X24592126Y-26963101D01*
X24602837Y-26986322D01*
X24610505Y-27010812D01*
X24615249Y-27062952D01*
X24609866Y-27106863D01*
X24609726Y-27107959D01*
X24599500Y-27185637D01*
X24599500Y-28330734D01*
X24594476Y-28365673D01*
X24587064Y-28390913D01*
X24555769Y-28443655D01*
X24470394Y-28529029D01*
X24470389Y-28529035D01*
X24470388Y-28529036D01*
X24382790Y-28660135D01*
X24382780Y-28660152D01*
X24382775Y-28660161D01*
X24322441Y-28805824D01*
X24322434Y-28805855D01*
X24291677Y-28960478D01*
X23250374Y-28960478D01*
X23149786Y-28859890D01*
X23149782Y-28859887D01*
X23149781Y-28859886D01*
X22977824Y-28734953D01*
X22977258Y-28734606D01*
X22977089Y-28734419D01*
X22973901Y-28732103D01*
X22974388Y-28731431D01*
X22973653Y-28730618D01*
X22956960Y-28719062D01*
X22946683Y-28709357D01*
X22932543Y-28685136D01*
X22930406Y-28682772D01*
X22930107Y-28680963D01*
X22911457Y-28649017D01*
X22914445Y-28579212D01*
X22950612Y-28525495D01*
X22957783Y-28519281D01*
X22974194Y-28507269D01*
X22977794Y-28505062D01*
X22977816Y-28505051D01*
X23098267Y-28417539D01*
X23149786Y-28380109D01*
X23149785Y-28380109D01*
X23149844Y-28380067D01*
X23150609Y-28379287D01*
X23299290Y-28230605D01*
X23300065Y-28229845D01*
X23300124Y-28229765D01*
X23350108Y-28160967D01*
X23425048Y-28057820D01*
X23425047Y-28057820D01*
X23425051Y-28057816D01*
X23425053Y-28057810D01*
X23445445Y-28029744D01*
X23453730Y-28001529D01*
X23521557Y-27868412D01*
X23587246Y-27666243D01*
X23620500Y-27456287D01*
X23620500Y-27243713D01*
X23587246Y-27033757D01*
X23521557Y-26831588D01*
X23425197Y-26642471D01*
X23425052Y-26642183D01*
X23300112Y-26470216D01*
X23149782Y-26319886D01*
X22977824Y-26194953D01*
X22977258Y-26194606D01*
X22977089Y-26194419D01*
X22973901Y-26192103D01*
X22974388Y-26191431D01*
X22973653Y-26190618D01*
X22956960Y-26179062D01*
X22946683Y-26169357D01*
X22932543Y-26145136D01*
X22930406Y-26142772D01*
X22930107Y-26140963D01*
X22911457Y-26109017D01*
X22914445Y-26039212D01*
X22950612Y-25985495D01*
X22957783Y-25979281D01*
X22974194Y-25967269D01*
X22977797Y-25965060D01*
X22977816Y-25965051D01*
X23064138Y-25902335D01*
X23149786Y-25840109D01*
X23149788Y-25840106D01*
X23149792Y-25840104D01*
X23149796Y-25840099D01*
X23149849Y-25840061D01*
X23150605Y-25839290D01*
X23299290Y-25690605D01*
X23300065Y-25689845D01*
X23300124Y-25689765D01*
X23344133Y-25629191D01*
X23425048Y-25517820D01*
X23425047Y-25517820D01*
X23425051Y-25517816D01*
X23425053Y-25517810D01*
X23445445Y-25489744D01*
X23453730Y-25461529D01*
X23521557Y-25328412D01*
X23587246Y-25126243D01*
X23587249Y-25126229D01*
X23620500Y-24916286D01*
X23620500Y-24703713D01*
X23620499Y-24703707D01*
X23587246Y-24493757D01*
X23521557Y-24291588D01*
X23425197Y-24102471D01*
X23425052Y-24102183D01*
X23300112Y-23930216D01*
X23149782Y-23779886D01*
X22977824Y-23654953D01*
X22977258Y-23654606D01*
X22977089Y-23654419D01*
X22973901Y-23652103D01*
X22974388Y-23651431D01*
X22973653Y-23650618D01*
X22956960Y-23639062D01*
X22946683Y-23629357D01*
X22932543Y-23605136D01*
X22930406Y-23602772D01*
X22930107Y-23600963D01*
X22911457Y-23569017D01*
X22914445Y-23499212D01*
X22950612Y-23445495D01*
X22957783Y-23439281D01*
X22974201Y-23427266D01*
X22977810Y-23425054D01*
X22977816Y-23425051D01*
X23046019Y-23375499D01*
X23149786Y-23300109D01*
X23149788Y-23300106D01*
X23149792Y-23300104D01*
X23149795Y-23300100D01*
X23149848Y-23300062D01*
X23150605Y-23299290D01*
X23299290Y-23150605D01*
X23300065Y-23149845D01*
X23300110Y-23149785D01*
X23425048Y-22977820D01*
X23425047Y-22977820D01*
X23425051Y-22977816D01*
X23425053Y-22977810D01*
X23445445Y-22949744D01*
X23453730Y-22921529D01*
X23521557Y-22788412D01*
X23587246Y-22586243D01*
X23620500Y-22376287D01*
X23620500Y-22216348D01*
X24499499Y-22216348D01*
X24530257Y-22370971D01*
X24530263Y-22370998D01*
X24585387Y-22504080D01*
X24592442Y-22527336D01*
X24595081Y-22540602D01*
X24597117Y-22550833D01*
X24599500Y-22575027D01*
X24599500Y-22814362D01*
X24599499Y-22814362D01*
X24614950Y-22931741D01*
X24614952Y-22931751D01*
X24614953Y-22931753D01*
X24614957Y-22931765D01*
X24634034Y-22977820D01*
X24675462Y-23077838D01*
X24675462Y-23077839D01*
X24678578Y-23081899D01*
X24695865Y-23112683D01*
X24704887Y-23136024D01*
X24710845Y-23204917D01*
X24704661Y-23236010D01*
X24704661Y-23236014D01*
X24704661Y-23393703D01*
X24704661Y-23393705D01*
X24704660Y-23393705D01*
X24735418Y-23548328D01*
X24735425Y-23548359D01*
X24795759Y-23694022D01*
X24795764Y-23694031D01*
X24795774Y-23694048D01*
X24883372Y-23825147D01*
X24883373Y-23825148D01*
X24883378Y-23825154D01*
X24994862Y-23936638D01*
X24994868Y-23936643D01*
X24994872Y-23936646D01*
X25125975Y-24024247D01*
X25125988Y-24024254D01*
X25271659Y-24084592D01*
X25271664Y-24084594D01*
X25418674Y-24113836D01*
X25421408Y-24114560D01*
X25426316Y-24115357D01*
X25584005Y-24115357D01*
X25588125Y-24115357D01*
X25595975Y-24112975D01*
X25738658Y-24084594D01*
X25884340Y-24024251D01*
X26015450Y-23936646D01*
X26126950Y-23825146D01*
X26214555Y-23694036D01*
X26264535Y-23573369D01*
X26282539Y-23543026D01*
X26292348Y-23530852D01*
X26349733Y-23491005D01*
X26362673Y-23486698D01*
X26401821Y-23480357D01*
X27493061Y-23480357D01*
X27493062Y-23480357D01*
X27553890Y-23455161D01*
X27592491Y-23416558D01*
X27620742Y-23395410D01*
X27641042Y-23384325D01*
X27695311Y-23369264D01*
X27698265Y-23369141D01*
X27719580Y-23370094D01*
X27760639Y-23375500D01*
X28039360Y-23375499D01*
X28039361Y-23375499D01*
X28049739Y-23374132D01*
X28051595Y-23373888D01*
X28051596Y-23373887D01*
X28156762Y-23360044D01*
X28161065Y-23358261D01*
X28195266Y-23349528D01*
X28221430Y-23346715D01*
X28282135Y-23355444D01*
X28293238Y-23360044D01*
X28410639Y-23375500D01*
X28532844Y-23375499D01*
X28567775Y-23380520D01*
X28593016Y-23387932D01*
X28645764Y-23419228D01*
X29006838Y-23780303D01*
X29008385Y-23780944D01*
X29032957Y-23795464D01*
X29050760Y-23798496D01*
X29067666Y-23805499D01*
X29067667Y-23805499D01*
X29067669Y-23805500D01*
X29104229Y-23805500D01*
X29139161Y-23810521D01*
X29164405Y-23817934D01*
X29217150Y-23849229D01*
X29239707Y-23871786D01*
X29239711Y-23871789D01*
X29370814Y-23959390D01*
X29370827Y-23959397D01*
X29468853Y-24000000D01*
X29516503Y-24019737D01*
X29516505Y-24019737D01*
X29516510Y-24019739D01*
X29642630Y-24044825D01*
X29663513Y-24048979D01*
X29666247Y-24049703D01*
X29671155Y-24050500D01*
X29828844Y-24050500D01*
X29832964Y-24050500D01*
X29840814Y-24048118D01*
X29983497Y-24019737D01*
X30129179Y-23959394D01*
X30260289Y-23871789D01*
X30371789Y-23760289D01*
X30459394Y-23629179D01*
X30519737Y-23483497D01*
X30550500Y-23328842D01*
X30550500Y-23171158D01*
X30550500Y-23171155D01*
X30550500Y-23170976D01*
X30550076Y-23169026D01*
X30546249Y-23149786D01*
X30519737Y-23016503D01*
X30503714Y-22977820D01*
X30503712Y-22977816D01*
X30459402Y-22870840D01*
X30459397Y-22870827D01*
X30459390Y-22870814D01*
X30371789Y-22739711D01*
X30371786Y-22739707D01*
X30371781Y-22739701D01*
X30260297Y-22628217D01*
X30260290Y-22628211D01*
X30260288Y-22628210D01*
X30129191Y-22540613D01*
X30129190Y-22540612D01*
X30129185Y-22540609D01*
X30129172Y-22540602D01*
X30097149Y-22527338D01*
X30000784Y-22487423D01*
X29980220Y-22476543D01*
X29959972Y-22463260D01*
X29914715Y-22410029D01*
X29914713Y-22410026D01*
X29910724Y-22401069D01*
X29899999Y-22350622D01*
X29899999Y-22337500D01*
X29392329Y-22337500D01*
X29357388Y-22332475D01*
X29342389Y-22328070D01*
X29283643Y-22290327D01*
X29282456Y-22288958D01*
X29254976Y-22234083D01*
X29253331Y-22226521D01*
X29250499Y-22200168D01*
X29250499Y-22079329D01*
X29255522Y-22044393D01*
X29259926Y-22029395D01*
X29297671Y-21970644D01*
X29299040Y-21969457D01*
X29353919Y-21941977D01*
X29361478Y-21940333D01*
X29387831Y-21937500D01*
X29899999Y-21937500D01*
X29899999Y-21460672D01*
X29890723Y-21390210D01*
X29884557Y-21343371D01*
X29884555Y-21343366D01*
X29824100Y-21197414D01*
X29727924Y-21072075D01*
X29602586Y-20975899D01*
X29456631Y-20915444D01*
X29456630Y-20915443D01*
X29456628Y-20915443D01*
X29400000Y-20907987D01*
X29400000Y-21107867D01*
X29394976Y-21142805D01*
X29391789Y-21153658D01*
X29354014Y-21212435D01*
X29290457Y-21241458D01*
X29221301Y-21231514D01*
X29217961Y-21229988D01*
X29171101Y-21192683D01*
X29152417Y-21168334D01*
X29152416Y-21168333D01*
X29132828Y-21142805D01*
X29085709Y-21081398D01*
X29080974Y-21073783D01*
X29080020Y-21073051D01*
X29076577Y-21070311D01*
X29071595Y-21066199D01*
X29068864Y-21064490D01*
X29062657Y-21059727D01*
X29037999Y-21034475D01*
X29024359Y-21015794D01*
X29002345Y-20963952D01*
X29001840Y-20961053D01*
X29000000Y-20939773D01*
X29000000Y-20907987D01*
X28943370Y-20915443D01*
X28943369Y-20915443D01*
X28939572Y-20917016D01*
X28905374Y-20925743D01*
X28879220Y-20928554D01*
X28818508Y-20919821D01*
X28813283Y-20917657D01*
X28810821Y-20916637D01*
X28807898Y-20915302D01*
X28806761Y-20914954D01*
X28689363Y-20899500D01*
X28689361Y-20899500D01*
X28410636Y-20899500D01*
X28410634Y-20899500D01*
X28293257Y-20914950D01*
X28293246Y-20914953D01*
X28293228Y-20914959D01*
X28288911Y-20916747D01*
X28254721Y-20925471D01*
X28228567Y-20928282D01*
X28167871Y-20919556D01*
X28156763Y-20914956D01*
X28156760Y-20914954D01*
X28039363Y-20899500D01*
X28039361Y-20899500D01*
X27760636Y-20899500D01*
X27760634Y-20899500D01*
X27643257Y-20914950D01*
X27643246Y-20914953D01*
X27643228Y-20914959D01*
X27638911Y-20916747D01*
X27604721Y-20925471D01*
X27578567Y-20928282D01*
X27517871Y-20919556D01*
X27506763Y-20914956D01*
X27506760Y-20914954D01*
X27389363Y-20899500D01*
X27389361Y-20899500D01*
X27110636Y-20899500D01*
X27110634Y-20899500D01*
X26993257Y-20914950D01*
X26993246Y-20914953D01*
X26993228Y-20914959D01*
X26988911Y-20916747D01*
X26954721Y-20925471D01*
X26928567Y-20928282D01*
X26867871Y-20919556D01*
X26856763Y-20914956D01*
X26856760Y-20914954D01*
X26739363Y-20899500D01*
X26739361Y-20899500D01*
X26460636Y-20899500D01*
X26460634Y-20899500D01*
X26343257Y-20914950D01*
X26343246Y-20914953D01*
X26343228Y-20914959D01*
X26338911Y-20916747D01*
X26304721Y-20925471D01*
X26278567Y-20928282D01*
X26217871Y-20919556D01*
X26206763Y-20914956D01*
X26206760Y-20914954D01*
X26089363Y-20899500D01*
X26089361Y-20899500D01*
X25810636Y-20899500D01*
X25810634Y-20899500D01*
X25693257Y-20914950D01*
X25693246Y-20914953D01*
X25693228Y-20914959D01*
X25688911Y-20916747D01*
X25654721Y-20925471D01*
X25628567Y-20928282D01*
X25567871Y-20919556D01*
X25556763Y-20914956D01*
X25556760Y-20914954D01*
X25439363Y-20899500D01*
X25439361Y-20899500D01*
X25160636Y-20899500D01*
X25160634Y-20899500D01*
X25043257Y-20914950D01*
X25043246Y-20914953D01*
X25043228Y-20914959D01*
X24897161Y-20975462D01*
X24771718Y-21071718D01*
X24675462Y-21197161D01*
X24616639Y-21339172D01*
X24615304Y-21342096D01*
X24614954Y-21343237D01*
X24599503Y-21460608D01*
X24599500Y-21460637D01*
X24599500Y-21699971D01*
X24597117Y-21724164D01*
X24592444Y-21747655D01*
X24585389Y-21770913D01*
X24571100Y-21805412D01*
X24568672Y-21811274D01*
X24530264Y-21904001D01*
X24530263Y-21904003D01*
X24530257Y-21904027D01*
X24499500Y-22058650D01*
X24499500Y-22058652D01*
X24499500Y-22058653D01*
X24499500Y-22216346D01*
X24499500Y-22216348D01*
X24499499Y-22216348D01*
X23620500Y-22216348D01*
X23620500Y-22163713D01*
X23587246Y-21953757D01*
X23584115Y-21944121D01*
X23582600Y-21935254D01*
X23583899Y-21924140D01*
X23581509Y-21901408D01*
X23581858Y-21898088D01*
X23581857Y-21898086D01*
X23582291Y-21893967D01*
X23583969Y-21894143D01*
X23589248Y-21878384D01*
X23590713Y-21865857D01*
X23595327Y-21860238D01*
X23603950Y-21834499D01*
X23649565Y-21794836D01*
X23652143Y-21793527D01*
X23652149Y-21793526D01*
X23661625Y-21788718D01*
X23693527Y-21777686D01*
X23733497Y-21769737D01*
X23846166Y-21723067D01*
X23872634Y-21712104D01*
X23875425Y-21711131D01*
X23876868Y-21710464D01*
X23881528Y-21708421D01*
X23890787Y-21704585D01*
X23899671Y-21695701D01*
X24010289Y-21621789D01*
X24121789Y-21510289D01*
X24209394Y-21379179D01*
X24269737Y-21233497D01*
X24300500Y-21078842D01*
X24300500Y-20921158D01*
X24300500Y-20921155D01*
X24300500Y-20920971D01*
X24300064Y-20918966D01*
X24296192Y-20899500D01*
X24269737Y-20766503D01*
X24269735Y-20766498D01*
X24209397Y-20620827D01*
X24209390Y-20620814D01*
X24121789Y-20489711D01*
X24121786Y-20489707D01*
X24121781Y-20489701D01*
X24010297Y-20378217D01*
X24010291Y-20378212D01*
X24010290Y-20378211D01*
X23879191Y-20290613D01*
X23879190Y-20290612D01*
X23879185Y-20290609D01*
X23879172Y-20290602D01*
X23879165Y-20290598D01*
X23733502Y-20230264D01*
X23733471Y-20230257D01*
X23578847Y-20199500D01*
X23578845Y-20199500D01*
X23578842Y-20199500D01*
X23421158Y-20199500D01*
X23421155Y-20199500D01*
X23421153Y-20199500D01*
X23266527Y-20230257D01*
X23266496Y-20230264D01*
X23120833Y-20290598D01*
X23120824Y-20290603D01*
X23120807Y-20290613D01*
X22989708Y-20378211D01*
X22989707Y-20378212D01*
X22989701Y-20378217D01*
X22878217Y-20489701D01*
X22878212Y-20489707D01*
X22878211Y-20489708D01*
X22790613Y-20620807D01*
X22790603Y-20620824D01*
X22790598Y-20620833D01*
X22730267Y-20766488D01*
X22730259Y-20766511D01*
X22730257Y-20766518D01*
X22716684Y-20834761D01*
X22704939Y-20868052D01*
X22697693Y-20881902D01*
X22649204Y-20932161D01*
X22648006Y-20932843D01*
X22646506Y-20933697D01*
X22589753Y-20949869D01*
X22587896Y-20949939D01*
X22584262Y-20950075D01*
X22560238Y-20948634D01*
X22435455Y-20928871D01*
X22435454Y-20928871D01*
X22423620Y-20926996D01*
X22376291Y-20919500D01*
X22376287Y-20919500D01*
X22163713Y-20919500D01*
X22163709Y-20919500D01*
X22126010Y-20925471D01*
X22115042Y-20927208D01*
X22083771Y-20932161D01*
X21953763Y-20952752D01*
X21751582Y-21018445D01*
X21562182Y-21114949D01*
X21390210Y-21239892D01*
X21239892Y-21390210D01*
X21114949Y-21562182D01*
X21018417Y-21751637D01*
X21017945Y-21752580D01*
X21016863Y-21756447D01*
X21007750Y-21784497D01*
X21007749Y-21784502D01*
X20952752Y-21953759D01*
X20936140Y-22058652D01*
X20936140Y-22058653D01*
X20919500Y-22163713D01*
X20919500Y-22376286D01*
X20952754Y-22586244D01*
X20966390Y-22628210D01*
X21018445Y-22788418D01*
X21111532Y-22971111D01*
X21114951Y-22977820D01*
X21239890Y-23149786D01*
X21390213Y-23300109D01*
X21562182Y-23425050D01*
X21562190Y-23425054D01*
X21562693Y-23425363D01*
X21564174Y-23426496D01*
X21566122Y-23427912D01*
X21566086Y-23427960D01*
X21583034Y-23440934D01*
X21593315Y-23450643D01*
X21628541Y-23510983D01*
X21625552Y-23580789D01*
X21589383Y-23634507D01*
X21582227Y-23640708D01*
X21565814Y-23652723D01*
X21562190Y-23654943D01*
X21390210Y-23779892D01*
X21239892Y-23930210D01*
X21189187Y-24000000D01*
X21127727Y-24084595D01*
X21114949Y-24102182D01*
X21018445Y-24291580D01*
X20952752Y-24493759D01*
X20919500Y-24703707D01*
X20919500Y-24916291D01*
X20952751Y-25126229D01*
X20952753Y-25126239D01*
X20952761Y-25126269D01*
X20955082Y-25133410D01*
X20961101Y-25168189D01*
X20961512Y-25182576D01*
X20943750Y-25250150D01*
X20893656Y-25296704D01*
X20882042Y-25302595D01*
X20850141Y-25313625D01*
X20809263Y-25321756D01*
X20778488Y-25327878D01*
X20778483Y-25327878D01*
X20766508Y-25330261D01*
X20766507Y-25330261D01*
X20766506Y-25330261D01*
X20766503Y-25330262D01*
X20688424Y-25362603D01*
X20654230Y-25371331D01*
X20640430Y-25372815D01*
X20571670Y-25360411D01*
X20520532Y-25312802D01*
X20520527Y-25312793D01*
X20517855Y-25308289D01*
X20500500Y-25245022D01*
X20500500Y-17897642D01*
X21199500Y-17897642D01*
X21199500Y-18102356D01*
X21231521Y-18304530D01*
X21294780Y-18499221D01*
X21294786Y-18499234D01*
X21387708Y-18681601D01*
X21387709Y-18681602D01*
X21387715Y-18681613D01*
X21508028Y-18847213D01*
X21652786Y-18991971D01*
X21807748Y-19104555D01*
X21807749Y-19104557D01*
X21814626Y-19109552D01*
X21818390Y-19112287D01*
X21934607Y-19171503D01*
X21994327Y-19201932D01*
X21995930Y-19202870D01*
X21999629Y-19204662D01*
X22001637Y-19205660D01*
X22005403Y-19206722D01*
X22045488Y-19219746D01*
X22105135Y-19239126D01*
X22105136Y-19239127D01*
X22148612Y-19253253D01*
X22195465Y-19268477D01*
X22296557Y-19284488D01*
X22397648Y-19300500D01*
X22397649Y-19300500D01*
X22602351Y-19300500D01*
X22602352Y-19300500D01*
X22804534Y-19268477D01*
X22999219Y-19205220D01*
X23181610Y-19112287D01*
X23274590Y-19044732D01*
X23347213Y-18991971D01*
X23347213Y-18991969D01*
X23347272Y-18991927D01*
X23348031Y-18991153D01*
X23491153Y-18848031D01*
X23491928Y-18847271D01*
X23491981Y-18847199D01*
X23544730Y-18774593D01*
X23544732Y-18774591D01*
X23568172Y-18742327D01*
X23612287Y-18681610D01*
X23705220Y-18499219D01*
X23768477Y-18304534D01*
X23800500Y-18102352D01*
X23800500Y-17897648D01*
X23800499Y-17897642D01*
X46199500Y-17897642D01*
X46199500Y-18102356D01*
X46231521Y-18304530D01*
X46294780Y-18499221D01*
X46294786Y-18499234D01*
X46387708Y-18681601D01*
X46387709Y-18681602D01*
X46387715Y-18681613D01*
X46508028Y-18847213D01*
X46652786Y-18991971D01*
X46807748Y-19104555D01*
X46807749Y-19104557D01*
X46814626Y-19109552D01*
X46818390Y-19112287D01*
X46934607Y-19171503D01*
X46994327Y-19201932D01*
X46995930Y-19202870D01*
X46999629Y-19204662D01*
X47001637Y-19205660D01*
X47005403Y-19206722D01*
X47045488Y-19219746D01*
X47105135Y-19239126D01*
X47105136Y-19239127D01*
X47148612Y-19253253D01*
X47195465Y-19268477D01*
X47296557Y-19284488D01*
X47397648Y-19300500D01*
X47397649Y-19300500D01*
X47602351Y-19300500D01*
X47602352Y-19300500D01*
X47804534Y-19268477D01*
X47999219Y-19205220D01*
X48181610Y-19112287D01*
X48274590Y-19044732D01*
X48347213Y-18991971D01*
X48347213Y-18991969D01*
X48347272Y-18991927D01*
X48348031Y-18991153D01*
X48491153Y-18848031D01*
X48491928Y-18847271D01*
X48491981Y-18847199D01*
X48544730Y-18774593D01*
X48544732Y-18774591D01*
X48568172Y-18742327D01*
X48612287Y-18681610D01*
X48705220Y-18499219D01*
X48768477Y-18304534D01*
X48800500Y-18102352D01*
X48800500Y-17897648D01*
X48768477Y-17695466D01*
X48706716Y-17505387D01*
X48705657Y-17501633D01*
X48704677Y-17499659D01*
X48702871Y-17495931D01*
X48701930Y-17494323D01*
X48671248Y-17434108D01*
X48671247Y-17434106D01*
X48612286Y-17318388D01*
X48598830Y-17299868D01*
X48595615Y-17295443D01*
X48491971Y-17152786D01*
X48347213Y-17008028D01*
X48347212Y-17008027D01*
X48347211Y-17008026D01*
X48189507Y-16893450D01*
X48189168Y-16893161D01*
X48181603Y-16887707D01*
X48181188Y-16887498D01*
X48124654Y-16858691D01*
X48124653Y-16858691D01*
X47999223Y-16794781D01*
X47804534Y-16731522D01*
X47804532Y-16731521D01*
X47804530Y-16731521D01*
X47804529Y-16731520D01*
X47629995Y-16703878D01*
X47613409Y-16701251D01*
X47602354Y-16699500D01*
X47602352Y-16699500D01*
X47397648Y-16699500D01*
X47397647Y-16699500D01*
X47373327Y-16703351D01*
X47373326Y-16703350D01*
X47195468Y-16731521D01*
X47000777Y-16794780D01*
X47000764Y-16794786D01*
X46818397Y-16887708D01*
X46818385Y-16887715D01*
X46652787Y-17008027D01*
X46652784Y-17008029D01*
X46508029Y-17152784D01*
X46508027Y-17152787D01*
X46387715Y-17318385D01*
X46387709Y-17318396D01*
X46294786Y-17500764D01*
X46294780Y-17500777D01*
X46231521Y-17695468D01*
X46199500Y-17897642D01*
X23800499Y-17897642D01*
X23768477Y-17695466D01*
X23706716Y-17505387D01*
X23705657Y-17501633D01*
X23704677Y-17499659D01*
X23702871Y-17495931D01*
X23701930Y-17494323D01*
X23671248Y-17434108D01*
X23671247Y-17434106D01*
X23612286Y-17318388D01*
X23598830Y-17299868D01*
X23595615Y-17295443D01*
X23491971Y-17152786D01*
X23347213Y-17008028D01*
X23347212Y-17008027D01*
X23347211Y-17008026D01*
X23189507Y-16893450D01*
X23189168Y-16893161D01*
X23181603Y-16887707D01*
X23181188Y-16887498D01*
X23124654Y-16858691D01*
X23124653Y-16858691D01*
X22999223Y-16794781D01*
X22804534Y-16731522D01*
X22804532Y-16731521D01*
X22804530Y-16731521D01*
X22804529Y-16731520D01*
X22629995Y-16703878D01*
X22613409Y-16701251D01*
X22602354Y-16699500D01*
X22602352Y-16699500D01*
X22397648Y-16699500D01*
X22397647Y-16699500D01*
X22373327Y-16703351D01*
X22373326Y-16703350D01*
X22195468Y-16731521D01*
X22000777Y-16794780D01*
X22000764Y-16794786D01*
X21818397Y-16887708D01*
X21818385Y-16887715D01*
X21652787Y-17008027D01*
X21652784Y-17008029D01*
X21508029Y-17152784D01*
X21508027Y-17152787D01*
X21387715Y-17318385D01*
X21387709Y-17318396D01*
X21294786Y-17500764D01*
X21294780Y-17500777D01*
X21231521Y-17695468D01*
X21199500Y-17897642D01*
X20500500Y-17897642D01*
X20500500Y-17506642D01*
X20500579Y-17502218D01*
X20500737Y-17497792D01*
X20500974Y-17493370D01*
X20505213Y-17434106D01*
X20513489Y-17318390D01*
X20514815Y-17299836D01*
X20515759Y-17291062D01*
X20517016Y-17282318D01*
X20518584Y-17273625D01*
X20558415Y-17090521D01*
X20560602Y-17081956D01*
X20563089Y-17073486D01*
X20565884Y-17065088D01*
X20587166Y-17008029D01*
X20631371Y-16889508D01*
X20634749Y-16881357D01*
X20638419Y-16873322D01*
X20642373Y-16865423D01*
X20732175Y-16700961D01*
X20736677Y-16693374D01*
X20741469Y-16685918D01*
X20746510Y-16678660D01*
X20858797Y-16528662D01*
X20864338Y-16521787D01*
X20870122Y-16515112D01*
X20876139Y-16508648D01*
X21008648Y-16376139D01*
X21015112Y-16370122D01*
X21021787Y-16364338D01*
X21028662Y-16358797D01*
X21178669Y-16246503D01*
X21185918Y-16241469D01*
X21193374Y-16236677D01*
X21200961Y-16232175D01*
X21365433Y-16142367D01*
X21373332Y-16138414D01*
X21381360Y-16134747D01*
X21389508Y-16131371D01*
X21565096Y-16065881D01*
X21573486Y-16063089D01*
X21581956Y-16060602D01*
X21590521Y-16058415D01*
X21773625Y-16018584D01*
X21782292Y-16017019D01*
X21791077Y-16015756D01*
X21799840Y-16014815D01*
X21993375Y-16000973D01*
X21997792Y-16000737D01*
X21998530Y-16000710D01*
X22002219Y-16000579D01*
X22006643Y-16000500D01*
X47993357Y-16000500D01*
X47997782Y-16000579D01*
G37*
%TD.AperFunction*%
%TD*%
%TA.AperFunction,Conductor*%
%TO.N,Net-(U1-DFLAG{slash})*%
G36*
X28557406Y-22171364D02*
G01*
X28557417Y-22171372D01*
X28557688Y-22171587D01*
X28561670Y-22177554D01*
X28740657Y-22807183D01*
X28741072Y-22811227D01*
X28740792Y-22815096D01*
X28739798Y-22819039D01*
X28629053Y-23065962D01*
X28626410Y-23069682D01*
X28624158Y-23071808D01*
X28616126Y-23075000D01*
X28484902Y-23075000D01*
X28480424Y-23074109D01*
X28477566Y-23072925D01*
X28471369Y-23066904D01*
X28465687Y-23054235D01*
X28360199Y-22819036D01*
X28359206Y-22815099D01*
X28358926Y-22811225D01*
X28359340Y-22807186D01*
X28538110Y-22178324D01*
X28540189Y-22174265D01*
X28540971Y-22173276D01*
X28548792Y-22168916D01*
X28557406Y-22171364D01*
G37*
%TD.AperFunction*%
%TD*%
%TA.AperFunction,Conductor*%
%TO.N,GND*%
G36*
X25507872Y-21942420D02*
G01*
X25694501Y-22059063D01*
X25699700Y-22066354D01*
X25700000Y-22068985D01*
X25700000Y-22206014D01*
X25696573Y-22214287D01*
X25694501Y-22215936D01*
X25507872Y-22332579D01*
X25499040Y-22334057D01*
X25493419Y-22330951D01*
X25374375Y-22212500D01*
X25307334Y-22145793D01*
X25303887Y-22137529D01*
X25307293Y-22129248D01*
X25307335Y-22129206D01*
X25367858Y-22068985D01*
X25493419Y-21944047D01*
X25501700Y-21940642D01*
X25507872Y-21942420D01*
G37*
%TD.AperFunction*%
%TD*%
%TA.AperFunction,Conductor*%
%TO.N,GND*%
G36*
X25756580Y-21944048D02*
G01*
X25942664Y-22129206D01*
X25946112Y-22137471D01*
X25942706Y-22145752D01*
X25942664Y-22145794D01*
X25756580Y-22330951D01*
X25748299Y-22334357D01*
X25742127Y-22332579D01*
X25555499Y-22215936D01*
X25550300Y-22208645D01*
X25550000Y-22206014D01*
X25550000Y-22068985D01*
X25553427Y-22060712D01*
X25555499Y-22059063D01*
X25742128Y-21942419D01*
X25750959Y-21940942D01*
X25756580Y-21944048D01*
G37*
%TD.AperFunction*%
%TD*%
%TA.AperFunction,Conductor*%
%TO.N,GND*%
G36*
X25425519Y-21864823D02*
G01*
X25890253Y-22059492D01*
X25896560Y-22065849D01*
X25897433Y-22070283D01*
X25897433Y-22204716D01*
X25894006Y-22212989D01*
X25890253Y-22215507D01*
X25425521Y-22410175D01*
X25416567Y-22410211D01*
X25410242Y-22403980D01*
X25298394Y-22142093D01*
X25298297Y-22133141D01*
X25298395Y-22132905D01*
X25325140Y-22070283D01*
X25410242Y-21871018D01*
X25416642Y-21864757D01*
X25425519Y-21864823D01*
G37*
%TD.AperFunction*%
%TD*%
%TA.AperFunction,Conductor*%
%TO.N,GND*%
G36*
X30452026Y-30803555D02*
G01*
X30452568Y-30804008D01*
X30453127Y-30804476D01*
X30455766Y-30807626D01*
X30705410Y-31242918D01*
X30706865Y-31247246D01*
X30707205Y-31249889D01*
X30705728Y-31257242D01*
X30705463Y-31257700D01*
X30703609Y-31260113D01*
X30611204Y-31352518D01*
X30607409Y-31355054D01*
X30604278Y-31356351D01*
X30597130Y-31356933D01*
X30453483Y-31323260D01*
X30238051Y-31272760D01*
X30233895Y-31270871D01*
X30231956Y-31269478D01*
X30227454Y-31262903D01*
X30227216Y-31261982D01*
X30226859Y-31258465D01*
X30244947Y-30902464D01*
X30246063Y-30898043D01*
X30247455Y-30895113D01*
X30253005Y-30889566D01*
X30437464Y-30802058D01*
X30441885Y-30800945D01*
X30443931Y-30800842D01*
X30452026Y-30803555D01*
G37*
%TD.AperFunction*%
%TD*%
%TA.AperFunction,Conductor*%
%TO.N,GND*%
G36*
X31088960Y-31352358D02*
G01*
X31092766Y-31354879D01*
X31094048Y-31356151D01*
X31097507Y-31364369D01*
X31097520Y-31366120D01*
X31096678Y-31370566D01*
X30992312Y-31630531D01*
X30989818Y-31634354D01*
X30986898Y-31637339D01*
X30982893Y-31640015D01*
X30722838Y-31744417D01*
X30718349Y-31745258D01*
X30716546Y-31745238D01*
X30708340Y-31741748D01*
X30707110Y-31740499D01*
X30704619Y-31736724D01*
X30665011Y-31640015D01*
X30515411Y-31274747D01*
X30514539Y-31270268D01*
X30514551Y-31267217D01*
X30517977Y-31258993D01*
X30610498Y-31166472D01*
X30614289Y-31163939D01*
X30617108Y-31162771D01*
X30626018Y-31162755D01*
X31088960Y-31352358D01*
G37*
%TD.AperFunction*%
%TD*%
%TA.AperFunction,Conductor*%
%TO.N,GND*%
G36*
X46308793Y-54647904D02*
G01*
X46313873Y-54653741D01*
X46499181Y-55118810D01*
X46499060Y-55127764D01*
X46496585Y-55131414D01*
X46401594Y-55226405D01*
X46393321Y-55229832D01*
X46388666Y-55228866D01*
X45894546Y-55014565D01*
X45888319Y-55008129D01*
X45888378Y-54999387D01*
X45997109Y-54734609D01*
X46003422Y-54728258D01*
X46004820Y-54727775D01*
X46299909Y-54646789D01*
X46308793Y-54647904D01*
G37*
%TD.AperFunction*%
%TD*%
%TA.AperFunction,Conductor*%
%TO.N,GND*%
G36*
X47082717Y-55702332D02*
G01*
X47364255Y-55813481D01*
X47380423Y-55819864D01*
X47386860Y-55826090D01*
X47387658Y-55828768D01*
X47446385Y-56170914D01*
X47444407Y-56179647D01*
X47442396Y-56181838D01*
X47298155Y-56303457D01*
X47289621Y-56306170D01*
X47281668Y-56302054D01*
X47280707Y-56300738D01*
X47203267Y-56177519D01*
X46982404Y-55826090D01*
X46974480Y-55813481D01*
X46972979Y-55804653D01*
X46976111Y-55798984D01*
X47070153Y-55704942D01*
X47078425Y-55701516D01*
X47082717Y-55702332D01*
G37*
%TD.AperFunction*%
%TD*%
%TA.AperFunction,Conductor*%
%TO.N,GND*%
G36*
X25959773Y-31177829D02*
G01*
X25963563Y-31180363D01*
X26040717Y-31257517D01*
X26043255Y-31261317D01*
X26043838Y-31262726D01*
X26043835Y-31271681D01*
X26038055Y-31277763D01*
X26037118Y-31278209D01*
X26033313Y-31279281D01*
X26025000Y-31280154D01*
X26024999Y-31280155D01*
X26024999Y-31280156D01*
X26138245Y-31455324D01*
X26139928Y-31459567D01*
X26140641Y-31463458D01*
X26140387Y-31468766D01*
X25961890Y-32096671D01*
X25959810Y-32100733D01*
X25959028Y-32101721D01*
X25951207Y-32106082D01*
X25942593Y-32103634D01*
X25942582Y-32103626D01*
X25942311Y-32103411D01*
X25938329Y-32097444D01*
X25759697Y-31469069D01*
X25759329Y-31464522D01*
X25759787Y-31460584D01*
X25761581Y-31455590D01*
X25875000Y-31280156D01*
X25895639Y-31230328D01*
X25896712Y-31228319D01*
X25897971Y-31226434D01*
X25899418Y-31224670D01*
X25943728Y-31180361D01*
X25947515Y-31177830D01*
X25949169Y-31177144D01*
X25958118Y-31177144D01*
X25959773Y-31177829D01*
G37*
%TD.AperFunction*%
%TD*%
%TA.AperFunction,Conductor*%
%TO.N,GND*%
G36*
X22278266Y-40057276D02*
G01*
X22774302Y-40553896D01*
X23106829Y-40886814D01*
X23110251Y-40895089D01*
X23106819Y-40903360D01*
X23102400Y-40906131D01*
X22344999Y-41170000D01*
X22724176Y-41518829D01*
X22727945Y-41526953D01*
X22724866Y-41535361D01*
X22724528Y-41535713D01*
X22635361Y-41624881D01*
X22627088Y-41628308D01*
X22618815Y-41624881D01*
X22218612Y-41224678D01*
X22216076Y-41220882D01*
X22195001Y-41170001D01*
X22195000Y-41170000D01*
X21656285Y-40982318D01*
X21437599Y-40906131D01*
X21430914Y-40900173D01*
X21430399Y-40891233D01*
X21433169Y-40886815D01*
X22261723Y-40057286D01*
X22269993Y-40053855D01*
X22278266Y-40057276D01*
G37*
%TD.AperFunction*%
%TD*%
%TA.AperFunction,Conductor*%
%TO.N,GND*%
G36*
X44752150Y-24925890D02*
G01*
X44803033Y-24946967D01*
X45026256Y-24952261D01*
X45034446Y-24955883D01*
X45037676Y-24964235D01*
X45037593Y-24965376D01*
X45003631Y-25243435D01*
X44999226Y-25251232D01*
X44993435Y-25253631D01*
X44715375Y-25287593D01*
X44706748Y-25285194D01*
X44702343Y-25277397D01*
X44702261Y-25276276D01*
X44696967Y-25053033D01*
X44696966Y-25053033D01*
X44519158Y-25073499D01*
X44510547Y-25071041D01*
X44506197Y-25063214D01*
X44506120Y-25061876D01*
X44506120Y-24936700D01*
X44509547Y-24928427D01*
X44517820Y-24925000D01*
X44747674Y-24925000D01*
X44752150Y-24925890D01*
G37*
%TD.AperFunction*%
%TD*%
%TA.AperFunction,Conductor*%
%TO.N,GND*%
G36*
X25369573Y-26925889D02*
G01*
X25372432Y-26927074D01*
X25378630Y-26933095D01*
X25489798Y-27180959D01*
X25490792Y-27184902D01*
X25491072Y-27188771D01*
X25490657Y-27192815D01*
X25311890Y-27821671D01*
X25309810Y-27825733D01*
X25309028Y-27826721D01*
X25301207Y-27831082D01*
X25292593Y-27828634D01*
X25292582Y-27828626D01*
X25292311Y-27828411D01*
X25288329Y-27822444D01*
X25109341Y-27192815D01*
X25108926Y-27188771D01*
X25109207Y-27184897D01*
X25110198Y-27180964D01*
X25220948Y-26934033D01*
X25223593Y-26930314D01*
X25225846Y-26928189D01*
X25233874Y-26925000D01*
X25365098Y-26925000D01*
X25369573Y-26925889D01*
G37*
%TD.AperFunction*%
%TD*%
%TA.AperFunction,Conductor*%
%TO.N,GND*%
G36*
X25304557Y-26578379D02*
G01*
X25566480Y-26690242D01*
X25572742Y-26696642D01*
X25572676Y-26705519D01*
X25378006Y-27170255D01*
X25371651Y-27176560D01*
X25367217Y-27177433D01*
X25232783Y-27177433D01*
X25224510Y-27174006D01*
X25221992Y-27170253D01*
X25027323Y-26705519D01*
X25027288Y-26696567D01*
X25033518Y-26690242D01*
X25295406Y-26578394D01*
X25304359Y-26578297D01*
X25304557Y-26578379D01*
G37*
%TD.AperFunction*%
%TD*%
%TA.AperFunction,Conductor*%
%TO.N,GND*%
G36*
X25307406Y-37896364D02*
G01*
X25307417Y-37896372D01*
X25307688Y-37896587D01*
X25311670Y-37902554D01*
X25490657Y-38532183D01*
X25491072Y-38536227D01*
X25490792Y-38540096D01*
X25489798Y-38544039D01*
X25379053Y-38790962D01*
X25376410Y-38794682D01*
X25374158Y-38796808D01*
X25366126Y-38800000D01*
X25234902Y-38800000D01*
X25230424Y-38799109D01*
X25227566Y-38797925D01*
X25221369Y-38791904D01*
X25215687Y-38779235D01*
X25110199Y-38544036D01*
X25109206Y-38540099D01*
X25108926Y-38536225D01*
X25109340Y-38532186D01*
X25288110Y-37903324D01*
X25290189Y-37899265D01*
X25290971Y-37898276D01*
X25298792Y-37893916D01*
X25307406Y-37896364D01*
G37*
%TD.AperFunction*%
%TD*%
%TA.AperFunction,Conductor*%
%TO.N,GND*%
G36*
X25369367Y-38403458D02*
G01*
X25372182Y-38404624D01*
X25378496Y-38410913D01*
X25571775Y-38872330D01*
X25572684Y-38876805D01*
X25572691Y-38878611D01*
X25569327Y-38886865D01*
X25568098Y-38888113D01*
X25564357Y-38890664D01*
X25306733Y-39000690D01*
X25302267Y-39001629D01*
X25298096Y-39001675D01*
X25293373Y-39000736D01*
X25189846Y-38956521D01*
X25035661Y-38890672D01*
X25031896Y-38888097D01*
X25030632Y-38886806D01*
X25027292Y-38878536D01*
X25027305Y-38876778D01*
X25028212Y-38872355D01*
X25221092Y-38411893D01*
X25223641Y-38408109D01*
X25225810Y-38405958D01*
X25234048Y-38402567D01*
X25364890Y-38402567D01*
X25369367Y-38403458D01*
G37*
%TD.AperFunction*%
%TD*%
%TA.AperFunction,Conductor*%
%TO.N,GND*%
G36*
X22367786Y-41157468D02*
G01*
X22834052Y-41348432D01*
X22840409Y-41354739D01*
X22840476Y-41363618D01*
X22734383Y-41627884D01*
X22728120Y-41634285D01*
X22727884Y-41634383D01*
X22463618Y-41740476D01*
X22454664Y-41740378D01*
X22448432Y-41734052D01*
X22257468Y-41267786D01*
X22257504Y-41258832D01*
X22260019Y-41255082D01*
X22355080Y-41160021D01*
X22363352Y-41156595D01*
X22367786Y-41157468D01*
G37*
%TD.AperFunction*%
%TD*%
%TA.AperFunction,Conductor*%
%TO.N,GND*%
G36*
X45293250Y-25214805D02*
G01*
X45297655Y-25222602D01*
X45297738Y-25223743D01*
X45303033Y-25446968D01*
X45303033Y-25446969D01*
X45324109Y-25497848D01*
X45325000Y-25502326D01*
X45325000Y-25732180D01*
X45321573Y-25740453D01*
X45313300Y-25743880D01*
X45188124Y-25743880D01*
X45179851Y-25740453D01*
X45176424Y-25732180D01*
X45176501Y-25730842D01*
X45181118Y-25690726D01*
X45196967Y-25553033D01*
X44973742Y-25547738D01*
X44965553Y-25544117D01*
X44962323Y-25535765D01*
X44962406Y-25534624D01*
X44973113Y-25446969D01*
X44996368Y-25256563D01*
X45000773Y-25248767D01*
X45006563Y-25246368D01*
X45284624Y-25212406D01*
X45293250Y-25214805D01*
G37*
%TD.AperFunction*%
%TD*%
%TA.AperFunction,Conductor*%
%TO.N,GND*%
G36*
X43062512Y-39949596D02*
G01*
X44013371Y-40421774D01*
X44019256Y-40428523D01*
X44019867Y-40432253D01*
X44019867Y-40567746D01*
X44016440Y-40576019D01*
X44013371Y-40578225D01*
X43062512Y-41050403D01*
X43053578Y-41051013D01*
X43048664Y-41047809D01*
X42556192Y-40507885D01*
X42553148Y-40499463D01*
X42556192Y-40492115D01*
X42614195Y-40428523D01*
X43048665Y-39952189D01*
X43056771Y-39948387D01*
X43062512Y-39949596D01*
G37*
%TD.AperFunction*%
%TD*%
%TA.AperFunction,Conductor*%
%TO.N,GND*%
G36*
X44889758Y-40233520D02*
G01*
X45001604Y-40495405D01*
X45001702Y-40504359D01*
X45001604Y-40504595D01*
X44889758Y-40766479D01*
X44883357Y-40772742D01*
X44874478Y-40772675D01*
X44859686Y-40766479D01*
X44775454Y-40731195D01*
X44409747Y-40578007D01*
X44403440Y-40571650D01*
X44402567Y-40567216D01*
X44402567Y-40432783D01*
X44405994Y-40424510D01*
X44409745Y-40421993D01*
X44874480Y-40227323D01*
X44883432Y-40227288D01*
X44889758Y-40233520D01*
G37*
%TD.AperFunction*%
%TD*%
%TA.AperFunction,Conductor*%
%TO.N,GND*%
G36*
X45326691Y-41213427D02*
G01*
X45328418Y-41215626D01*
X45524656Y-41538678D01*
X45526022Y-41547528D01*
X45521955Y-41553896D01*
X45257299Y-41765173D01*
X45248696Y-41767656D01*
X45242701Y-41765173D01*
X44978044Y-41553896D01*
X44973716Y-41546056D01*
X44975342Y-41538679D01*
X45171582Y-41215625D01*
X45178806Y-41210334D01*
X45181582Y-41210000D01*
X45318418Y-41210000D01*
X45326691Y-41213427D01*
G37*
%TD.AperFunction*%
%TD*%
%TA.AperFunction,Conductor*%
%TO.N,GND*%
G36*
X45326691Y-26463427D02*
G01*
X45328418Y-26465626D01*
X45524656Y-26788678D01*
X45526022Y-26797528D01*
X45521955Y-26803896D01*
X45257299Y-27015173D01*
X45248696Y-27017656D01*
X45242701Y-27015173D01*
X44978044Y-26803896D01*
X44973716Y-26796056D01*
X44975342Y-26788679D01*
X45171582Y-26465625D01*
X45178806Y-26460334D01*
X45181582Y-26460000D01*
X45318418Y-26460000D01*
X45326691Y-26463427D01*
G37*
%TD.AperFunction*%
%TD*%
%TA.AperFunction,Conductor*%
%TO.N,GND*%
G36*
X43011042Y-24449286D02*
G01*
X43013840Y-24450255D01*
X43961287Y-24920739D01*
X43964898Y-24923526D01*
X43966984Y-24925918D01*
X43969867Y-24933607D01*
X43969867Y-25065418D01*
X43968976Y-25069897D01*
X43967762Y-25072827D01*
X43962157Y-25078827D01*
X43014597Y-25549367D01*
X43010191Y-25550561D01*
X43007485Y-25550746D01*
X43000286Y-25548866D01*
X42999902Y-25548615D01*
X42997659Y-25546707D01*
X42507759Y-25009603D01*
X42505400Y-25005695D01*
X42504689Y-25003726D01*
X42504882Y-24995274D01*
X42505409Y-24994004D01*
X42507569Y-24990604D01*
X42564195Y-24928523D01*
X42997099Y-24453905D01*
X43000770Y-24451201D01*
X43003227Y-24450048D01*
X43010584Y-24449190D01*
X43011042Y-24449286D01*
G37*
%TD.AperFunction*%
%TD*%
%TA.AperFunction,Conductor*%
%TO.N,GND*%
G36*
X45293250Y-40464805D02*
G01*
X45297655Y-40472602D01*
X45297738Y-40473743D01*
X45303033Y-40696968D01*
X45303033Y-40696969D01*
X45324109Y-40747848D01*
X45325000Y-40752326D01*
X45325000Y-40982180D01*
X45321573Y-40990453D01*
X45313300Y-40993880D01*
X45188124Y-40993880D01*
X45179851Y-40990453D01*
X45176424Y-40982180D01*
X45176501Y-40980842D01*
X45181118Y-40940726D01*
X45196967Y-40803033D01*
X44973742Y-40797738D01*
X44965553Y-40794117D01*
X44962323Y-40785765D01*
X44962406Y-40784624D01*
X44973113Y-40696969D01*
X44996368Y-40506563D01*
X45000773Y-40498767D01*
X45006563Y-40496368D01*
X45284624Y-40462406D01*
X45293250Y-40464805D01*
G37*
%TD.AperFunction*%
%TD*%
%TA.AperFunction,Conductor*%
%TO.N,+3.3V*%
G36*
X27940000Y-26140000D02*
G01*
X27875000Y-26400000D01*
X27953032Y-26446966D01*
X27846966Y-26553032D01*
X27746967Y-26453033D01*
X27725000Y-26400000D01*
X27660000Y-26439333D01*
X27800000Y-26090070D01*
X27940000Y-26140000D01*
G37*
%TD.AperFunction*%
%TD*%
%TA.AperFunction,Conductor*%
%TO.N,+3.3V*%
G36*
X28092388Y-38538268D02*
G01*
X27975000Y-38800000D01*
X27825000Y-38800000D01*
X27707612Y-38538268D01*
X27900000Y-37861500D01*
X28092388Y-38538268D01*
G37*
%TD.AperFunction*%
%TD*%
%TA.AperFunction,Conductor*%
%TO.N,+3.3V*%
G36*
X29600000Y-32062500D02*
G01*
X29600000Y-32212500D01*
X29400000Y-32337500D01*
X29199000Y-32137500D01*
X29400000Y-31937500D01*
X29600000Y-32062500D01*
G37*
%TD.AperFunction*%
%TD*%
%TA.AperFunction,Conductor*%
%TO.N,+3.3V*%
G36*
X24567502Y-32955599D02*
G01*
X24575000Y-32937500D01*
X24777164Y-33385195D01*
X24500000Y-33503567D01*
X24222836Y-33385195D01*
X24425000Y-32937500D01*
X24446967Y-32884467D01*
X24471669Y-32859766D01*
X24567502Y-32955599D01*
G37*
%TD.AperFunction*%
%TD*%
%TA.AperFunction,Conductor*%
%TO.N,+3.3V*%
G36*
X29392388Y-21461732D02*
G01*
X29200000Y-22138500D01*
X29007612Y-21461732D01*
X29125000Y-21200000D01*
X29275000Y-21200000D01*
X29392388Y-21461732D01*
G37*
%TD.AperFunction*%
%TD*%
%TA.AperFunction,Conductor*%
%TO.N,+3.3V*%
G36*
X27442388Y-38538268D02*
G01*
X27325000Y-38800000D01*
X27175000Y-38800000D01*
X27057612Y-38538268D01*
X27250000Y-37861500D01*
X27442388Y-38538268D01*
G37*
%TD.AperFunction*%
%TD*%
%TA.AperFunction,Conductor*%
%TO.N,+3.3V*%
G36*
X27901000Y-37862500D02*
G01*
X27700000Y-38062500D01*
X27500000Y-37937500D01*
X27500000Y-37787500D01*
X27700000Y-37662500D01*
X27901000Y-37862500D01*
G37*
%TD.AperFunction*%
%TD*%
%TA.AperFunction,Conductor*%
%TO.N,+3.3V*%
G36*
X27650000Y-37787500D02*
G01*
X27650000Y-37937500D01*
X27450000Y-38062500D01*
X27249000Y-37862500D01*
X27450000Y-37662500D01*
X27650000Y-37787500D01*
G37*
%TD.AperFunction*%
%TD*%
%TA.AperFunction,Conductor*%
%TO.N,+3.3V*%
G36*
X29392388Y-31461732D02*
G01*
X29200000Y-32138500D01*
X29007612Y-31461732D01*
X29125000Y-31200000D01*
X29275000Y-31200000D01*
X29392388Y-31461732D01*
G37*
%TD.AperFunction*%
%TD*%
%TA.AperFunction,Conductor*%
%TO.N,+3.3V*%
G36*
X28092388Y-28538268D02*
G01*
X27975000Y-28800000D01*
X27825000Y-28800000D01*
X27707612Y-28538268D01*
X27900000Y-27861500D01*
X28092388Y-28538268D01*
G37*
%TD.AperFunction*%
%TD*%
%TA.AperFunction,Conductor*%
%TO.N,+3.3V*%
G36*
X28092388Y-27186732D02*
G01*
X27900000Y-27863500D01*
X27707612Y-27186732D01*
X27825000Y-26925000D01*
X27975000Y-26925000D01*
X28092388Y-27186732D01*
G37*
%TD.AperFunction*%
%TD*%
%TA.AperFunction,Conductor*%
%TO.N,+3.3V*%
G36*
X25492388Y-31461732D02*
G01*
X25300000Y-32138500D01*
X25107612Y-31461732D01*
X25225000Y-31200000D01*
X25375000Y-31200000D01*
X25492388Y-31461732D01*
G37*
%TD.AperFunction*%
%TD*%
%TA.AperFunction,Conductor*%
%TO.N,+3.3V*%
G36*
X27650000Y-27787500D02*
G01*
X27650000Y-27937500D01*
X27450000Y-28062500D01*
X27249000Y-27862500D01*
X27450000Y-27662500D01*
X27650000Y-27787500D01*
G37*
%TD.AperFunction*%
%TD*%
%TA.AperFunction,Conductor*%
%TO.N,+3.3V*%
G36*
X27901000Y-27862500D02*
G01*
X27700000Y-28062500D01*
X27500000Y-27937500D01*
X27500000Y-27787500D01*
X27700000Y-27662500D01*
X27901000Y-27862500D01*
G37*
%TD.AperFunction*%
%TD*%
%TA.AperFunction,Conductor*%
%TO.N,+3.3V*%
G36*
X27313388Y-36978033D02*
G01*
X27325000Y-36950000D01*
X27442388Y-37186732D01*
X27250000Y-37863500D01*
X27057612Y-37186732D01*
X27175000Y-36950000D01*
X27196967Y-36896967D01*
X27214645Y-36879290D01*
X27313388Y-36978033D01*
G37*
%TD.AperFunction*%
%TD*%
%TA.AperFunction,Conductor*%
%TO.N,+3.3V*%
G36*
X27442388Y-28538268D02*
G01*
X27325000Y-28800000D01*
X27175000Y-28800000D01*
X27057612Y-28538268D01*
X27250000Y-27861500D01*
X27442388Y-28538268D01*
G37*
%TD.AperFunction*%
%TD*%
%TA.AperFunction,Conductor*%
%TO.N,+3.3V*%
G36*
X25300707Y-32136793D02*
G01*
X25100000Y-32620342D01*
X25011612Y-32531954D01*
X24905546Y-32425888D01*
X25100000Y-32054658D01*
X25300707Y-32136793D01*
G37*
%TD.AperFunction*%
%TD*%
%TA.AperFunction,Conductor*%
%TO.N,+3.3V*%
G36*
X27442388Y-27186732D02*
G01*
X27250000Y-27863500D01*
X27057612Y-27186732D01*
X27175000Y-26925000D01*
X27325000Y-26925000D01*
X27442388Y-27186732D01*
G37*
%TD.AperFunction*%
%TD*%
%TA.AperFunction,Conductor*%
%TO.N,+3.3V*%
G36*
X28092388Y-37186732D02*
G01*
X27900000Y-37863500D01*
X27707612Y-37186732D01*
X27825000Y-36925000D01*
X27975000Y-36925000D01*
X28092388Y-37186732D01*
G37*
%TD.AperFunction*%
%TD*%
%TA.AperFunction,Conductor*%
%TO.N,/SDA*%
G36*
X44340704Y-56730072D02*
G01*
X45696183Y-57183072D01*
X45702942Y-57188944D01*
X45703740Y-57197322D01*
X45485310Y-57977495D01*
X45479779Y-57984538D01*
X45477552Y-57985502D01*
X44657947Y-58243174D01*
X44649027Y-58242387D01*
X44643277Y-58235522D01*
X44643232Y-58235378D01*
X44229758Y-56840519D01*
X44230693Y-56831614D01*
X44232700Y-56828925D01*
X44328729Y-56732896D01*
X44337001Y-56729470D01*
X44340704Y-56730072D01*
G37*
%TD.AperFunction*%
%TD*%
%TA.AperFunction,Conductor*%
%TO.N,/SDA*%
G36*
X36525335Y-48639621D02*
G01*
X36531567Y-48645947D01*
X36722531Y-49112213D01*
X36722495Y-49121167D01*
X36719977Y-49124920D01*
X36624920Y-49219977D01*
X36616647Y-49223404D01*
X36612213Y-49222531D01*
X36145947Y-49031567D01*
X36139590Y-49025260D01*
X36139523Y-49016383D01*
X36245616Y-48752114D01*
X36251879Y-48745714D01*
X36252084Y-48745628D01*
X36516383Y-48639523D01*
X36525335Y-48639621D01*
G37*
%TD.AperFunction*%
%TD*%
%TA.AperFunction,Conductor*%
%TO.N,/SDA*%
G36*
X25283604Y-28809062D02*
G01*
X25284079Y-28809455D01*
X25460672Y-28964328D01*
X25561386Y-28834869D01*
X25569169Y-28830445D01*
X25577803Y-28832820D01*
X25578892Y-28833782D01*
X25667315Y-28922205D01*
X25670742Y-28930478D01*
X25667315Y-28938751D01*
X25515350Y-29090715D01*
X25511554Y-29093251D01*
X25460674Y-29114326D01*
X25460668Y-29114330D01*
X25284109Y-29269174D01*
X25275630Y-29272053D01*
X25267599Y-29268092D01*
X25267180Y-29267587D01*
X25147283Y-29114328D01*
X25094248Y-29046535D01*
X25091850Y-29037910D01*
X25094248Y-29032120D01*
X25267181Y-28811067D01*
X25274977Y-28806663D01*
X25283604Y-28809062D01*
G37*
%TD.AperFunction*%
%TD*%
%TA.AperFunction,Conductor*%
%TO.N,/SDA*%
G36*
X25957406Y-37896364D02*
G01*
X25957417Y-37896372D01*
X25957688Y-37896587D01*
X25961670Y-37902554D01*
X26140657Y-38532183D01*
X26141072Y-38536227D01*
X26140792Y-38540096D01*
X26139798Y-38544039D01*
X26029053Y-38790962D01*
X26026410Y-38794682D01*
X26024158Y-38796808D01*
X26016126Y-38800000D01*
X25884902Y-38800000D01*
X25880424Y-38799109D01*
X25877566Y-38797925D01*
X25871369Y-38791904D01*
X25865687Y-38779235D01*
X25760199Y-38544036D01*
X25759206Y-38540099D01*
X25758926Y-38536225D01*
X25759340Y-38532186D01*
X25938110Y-37903324D01*
X25940189Y-37899265D01*
X25940971Y-37898276D01*
X25948792Y-37893916D01*
X25957406Y-37896364D01*
G37*
%TD.AperFunction*%
%TD*%
%TA.AperFunction,Conductor*%
%TO.N,/SDA*%
G36*
X26025490Y-40905994D02*
G01*
X26028008Y-40909747D01*
X26222675Y-41374478D01*
X26222711Y-41383432D01*
X26216479Y-41389758D01*
X25954595Y-41501604D01*
X25945641Y-41501702D01*
X25945405Y-41501604D01*
X25683520Y-41389758D01*
X25677257Y-41383357D01*
X25677323Y-41374480D01*
X25871992Y-40909746D01*
X25878349Y-40903440D01*
X25882783Y-40902567D01*
X26017217Y-40902567D01*
X26025490Y-40905994D01*
G37*
%TD.AperFunction*%
%TD*%
%TA.AperFunction,Conductor*%
%TO.N,/SDA*%
G36*
X26141010Y-28356691D02*
G01*
X26146616Y-28363674D01*
X26146986Y-28368457D01*
X26121361Y-28565701D01*
X26116897Y-28573464D01*
X26116619Y-28573672D01*
X25819691Y-28788605D01*
X25810980Y-28790680D01*
X25804558Y-28787400D01*
X25709978Y-28692820D01*
X25706551Y-28684547D01*
X25706779Y-28682251D01*
X25748605Y-28474099D01*
X25753594Y-28466665D01*
X25756792Y-28465177D01*
X26132110Y-28355718D01*
X26141010Y-28356691D01*
G37*
%TD.AperFunction*%
%TD*%
%TA.AperFunction,Conductor*%
%TO.N,/SDA*%
G36*
X26875335Y-45189621D02*
G01*
X26881567Y-45195947D01*
X27072531Y-45662213D01*
X27072495Y-45671167D01*
X27069977Y-45674920D01*
X26974920Y-45769977D01*
X26966647Y-45773404D01*
X26962213Y-45772531D01*
X26495947Y-45581567D01*
X26489590Y-45575260D01*
X26489523Y-45566383D01*
X26595616Y-45302114D01*
X26601879Y-45295714D01*
X26602084Y-45295628D01*
X26866383Y-45189523D01*
X26875335Y-45189621D01*
G37*
%TD.AperFunction*%
%TD*%
%TA.AperFunction,Conductor*%
%TO.N,/SDA*%
G36*
X35887786Y-48277468D02*
G01*
X36354052Y-48468432D01*
X36360409Y-48474739D01*
X36360476Y-48483618D01*
X36254383Y-48747884D01*
X36248120Y-48754285D01*
X36247884Y-48754383D01*
X35983618Y-48860476D01*
X35974664Y-48860378D01*
X35968432Y-48854052D01*
X35777468Y-48387786D01*
X35777504Y-48378832D01*
X35780019Y-48375082D01*
X35875080Y-48280021D01*
X35883352Y-48276595D01*
X35887786Y-48277468D01*
G37*
%TD.AperFunction*%
%TD*%
%TA.AperFunction,Conductor*%
%TO.N,/SCL*%
G36*
X26607406Y-37896364D02*
G01*
X26607417Y-37896372D01*
X26607688Y-37896587D01*
X26611670Y-37902554D01*
X26790657Y-38532183D01*
X26791072Y-38536227D01*
X26790792Y-38540096D01*
X26789798Y-38544039D01*
X26679053Y-38790962D01*
X26676410Y-38794682D01*
X26674158Y-38796808D01*
X26666126Y-38800000D01*
X26534902Y-38800000D01*
X26530424Y-38799109D01*
X26527566Y-38797925D01*
X26521369Y-38791904D01*
X26515687Y-38779235D01*
X26410199Y-38544036D01*
X26409206Y-38540099D01*
X26408926Y-38536225D01*
X26409340Y-38532186D01*
X26588110Y-37903324D01*
X26590189Y-37899265D01*
X26590971Y-37898276D01*
X26598792Y-37893916D01*
X26607406Y-37896364D01*
G37*
%TD.AperFunction*%
%TD*%
%TA.AperFunction,Conductor*%
%TO.N,/SCL*%
G36*
X22267530Y-32424592D02*
G01*
X22274482Y-32430236D01*
X22275407Y-32432469D01*
X22513457Y-33232362D01*
X22512532Y-33241269D01*
X22505759Y-33246858D01*
X21130616Y-33680087D01*
X21121695Y-33679305D01*
X21118827Y-33677201D01*
X21022798Y-33581172D01*
X21019371Y-33572899D01*
X21019910Y-33569390D01*
X21453141Y-32194239D01*
X21458895Y-32187379D01*
X21467636Y-32186542D01*
X22267530Y-32424592D01*
G37*
%TD.AperFunction*%
%TD*%
%TA.AperFunction,Conductor*%
%TO.N,/SCL*%
G36*
X41780610Y-56749911D02*
G01*
X42997948Y-57133424D01*
X43155759Y-57183141D01*
X43162620Y-57188895D01*
X43163457Y-57197637D01*
X42925407Y-57997530D01*
X42919763Y-58004482D01*
X42917530Y-58005407D01*
X42117637Y-58243457D01*
X42108730Y-58242532D01*
X42103141Y-58235759D01*
X42028089Y-57997530D01*
X41669912Y-56860613D01*
X41670694Y-56851695D01*
X41672795Y-56848830D01*
X41768828Y-56752797D01*
X41777100Y-56749371D01*
X41780610Y-56749911D01*
G37*
%TD.AperFunction*%
%TD*%
%TA.AperFunction,Conductor*%
%TO.N,/SCL*%
G36*
X25325519Y-42527323D02*
G01*
X25790253Y-42721992D01*
X25796560Y-42728349D01*
X25797433Y-42732783D01*
X25797433Y-42867216D01*
X25794006Y-42875489D01*
X25790253Y-42878007D01*
X25325521Y-43072675D01*
X25316567Y-43072711D01*
X25310242Y-43066480D01*
X25198394Y-42804593D01*
X25198297Y-42795641D01*
X25198395Y-42795405D01*
X25225140Y-42732783D01*
X25310242Y-42533518D01*
X25316642Y-42527257D01*
X25325519Y-42527323D01*
G37*
%TD.AperFunction*%
%TD*%
%TA.AperFunction,Conductor*%
%TO.N,/SCL*%
G36*
X25970514Y-46389568D02*
G01*
X25978720Y-46393058D01*
X25979950Y-46394307D01*
X25982441Y-46398082D01*
X26171648Y-46860058D01*
X26172521Y-46864538D01*
X26172509Y-46867587D01*
X26169082Y-46875814D01*
X26076565Y-46968331D01*
X26072768Y-46970868D01*
X26069952Y-46972034D01*
X26061042Y-46972051D01*
X25598101Y-46782449D01*
X25594294Y-46779927D01*
X25593012Y-46778655D01*
X25589553Y-46770438D01*
X25589540Y-46768685D01*
X25590381Y-46764244D01*
X25694749Y-46504271D01*
X25697240Y-46500454D01*
X25700168Y-46497462D01*
X25704161Y-46494793D01*
X25964227Y-46390388D01*
X25968710Y-46389548D01*
X25970514Y-46389568D01*
G37*
%TD.AperFunction*%
%TD*%
%TA.AperFunction,Conductor*%
%TO.N,/SCL*%
G36*
X20875490Y-34905994D02*
G01*
X20878008Y-34909747D01*
X21072675Y-35374478D01*
X21072711Y-35383432D01*
X21066479Y-35389758D01*
X20804595Y-35501604D01*
X20795641Y-35501702D01*
X20795405Y-35501604D01*
X20533520Y-35389758D01*
X20527257Y-35383357D01*
X20527323Y-35374480D01*
X20721992Y-34909746D01*
X20728349Y-34903440D01*
X20732783Y-34902567D01*
X20867217Y-34902567D01*
X20875490Y-34905994D01*
G37*
%TD.AperFunction*%
%TD*%
%TA.AperFunction,Conductor*%
%TO.N,/SCL*%
G36*
X26607406Y-27896364D02*
G01*
X26607417Y-27896372D01*
X26607688Y-27896587D01*
X26611670Y-27902554D01*
X26790657Y-28532183D01*
X26791072Y-28536227D01*
X26790792Y-28540096D01*
X26789798Y-28544039D01*
X26679053Y-28790962D01*
X26676410Y-28794682D01*
X26674158Y-28796808D01*
X26666126Y-28800000D01*
X26534902Y-28800000D01*
X26530424Y-28799109D01*
X26527566Y-28797925D01*
X26521369Y-28791904D01*
X26515687Y-28779235D01*
X26410199Y-28544036D01*
X26409206Y-28540099D01*
X26408926Y-28536225D01*
X26409340Y-28532186D01*
X26588110Y-27903324D01*
X26590189Y-27899265D01*
X26590971Y-27898276D01*
X26598792Y-27893916D01*
X26607406Y-27896364D01*
G37*
%TD.AperFunction*%
%TD*%
%TA.AperFunction,Conductor*%
%TO.N,/SCL*%
G36*
X26669367Y-28403458D02*
G01*
X26672182Y-28404624D01*
X26678496Y-28410913D01*
X26871775Y-28872330D01*
X26872684Y-28876805D01*
X26872691Y-28878611D01*
X26869327Y-28886865D01*
X26868098Y-28888113D01*
X26864357Y-28890664D01*
X26606733Y-29000690D01*
X26602267Y-29001629D01*
X26598096Y-29001675D01*
X26593373Y-29000736D01*
X26489846Y-28956521D01*
X26335661Y-28890672D01*
X26331896Y-28888097D01*
X26330632Y-28886806D01*
X26327292Y-28878536D01*
X26327305Y-28876778D01*
X26328212Y-28872355D01*
X26521092Y-28411893D01*
X26523641Y-28408109D01*
X26525810Y-28405958D01*
X26534048Y-28402567D01*
X26664890Y-28402567D01*
X26669367Y-28403458D01*
G37*
%TD.AperFunction*%
%TD*%
%TA.AperFunction,Conductor*%
%TO.N,Net-(U2-DFLAG{slash})*%
G36*
X31747884Y-32495616D02*
G01*
X31754285Y-32501879D01*
X31754383Y-32502115D01*
X31860476Y-32766381D01*
X31860378Y-32775335D01*
X31854052Y-32781567D01*
X31387786Y-32972531D01*
X31378832Y-32972495D01*
X31375079Y-32969977D01*
X31280022Y-32874920D01*
X31276595Y-32866647D01*
X31277468Y-32862213D01*
X31468432Y-32395946D01*
X31474739Y-32389590D01*
X31483616Y-32389523D01*
X31747884Y-32495616D01*
G37*
%TD.AperFunction*%
%TD*%
%TA.AperFunction,Conductor*%
%TO.N,Net-(U2-DFLAG{slash})*%
G36*
X28557411Y-32171367D02*
G01*
X28557417Y-32171372D01*
X28557688Y-32171587D01*
X28561670Y-32177554D01*
X28740655Y-32807172D01*
X28741070Y-32811223D01*
X28740787Y-32815099D01*
X28739788Y-32819046D01*
X28637066Y-33047434D01*
X28634416Y-33051154D01*
X28633442Y-33052071D01*
X28625069Y-33055247D01*
X28617028Y-33051703D01*
X28616191Y-33050841D01*
X28613776Y-33047167D01*
X28603337Y-33021967D01*
X28603336Y-33021967D01*
X28603334Y-33021967D01*
X28511298Y-33114005D01*
X28507506Y-33116540D01*
X28505861Y-33117222D01*
X28496906Y-33117224D01*
X28496413Y-33117020D01*
X28490089Y-33110692D01*
X28475000Y-33074265D01*
X28466528Y-33055428D01*
X28360208Y-32819042D01*
X28359210Y-32815097D01*
X28358928Y-32811223D01*
X28359343Y-32807176D01*
X28538110Y-32178323D01*
X28540189Y-32174263D01*
X28540975Y-32173271D01*
X28548798Y-32168916D01*
X28557411Y-32171367D01*
G37*
%TD.AperFunction*%
%TD*%
%TA.AperFunction,Conductor*%
%TO.N,Net-(U2-LFLAG{slash})*%
G36*
X26046225Y-34315566D02*
G01*
X26319998Y-34422098D01*
X26326465Y-34428292D01*
X26327455Y-34433002D01*
X26327455Y-34565342D01*
X26324028Y-34573615D01*
X26317973Y-34576830D01*
X25762208Y-34684126D01*
X25753435Y-34682329D01*
X25748502Y-34674856D01*
X25748382Y-34674100D01*
X25735726Y-34573615D01*
X25727413Y-34507609D01*
X25729779Y-34498975D01*
X25733049Y-34496089D01*
X26036029Y-34316411D01*
X26044891Y-34315139D01*
X26046225Y-34315566D01*
G37*
%TD.AperFunction*%
%TD*%
%TA.AperFunction,Conductor*%
%TO.N,Net-(U2-LFLAG{slash})*%
G36*
X27907406Y-32171364D02*
G01*
X27907417Y-32171372D01*
X27907688Y-32171587D01*
X27911670Y-32177554D01*
X28090657Y-32807183D01*
X28091072Y-32811227D01*
X28090792Y-32815096D01*
X28089798Y-32819039D01*
X27979053Y-33065962D01*
X27976410Y-33069682D01*
X27974158Y-33071808D01*
X27966126Y-33075000D01*
X27834902Y-33075000D01*
X27830424Y-33074109D01*
X27827566Y-33072925D01*
X27821369Y-33066904D01*
X27815687Y-33054235D01*
X27710199Y-32819036D01*
X27709206Y-32815099D01*
X27708926Y-32811225D01*
X27709340Y-32807186D01*
X27888110Y-32178324D01*
X27890189Y-32174265D01*
X27890971Y-32173276D01*
X27898792Y-32168916D01*
X27907406Y-32171364D01*
G37*
%TD.AperFunction*%
%TD*%
%TA.AperFunction,Conductor*%
%TO.N,Net-(U2-A2)*%
G36*
X26786326Y-32680260D02*
G01*
X26936387Y-32830321D01*
X26938923Y-32834117D01*
X26959997Y-32884996D01*
X27111552Y-33064347D01*
X27114274Y-33072878D01*
X27110167Y-33080836D01*
X27109894Y-33081059D01*
X26892167Y-33254057D01*
X26883557Y-33256521D01*
X26877747Y-33254165D01*
X26653237Y-33081196D01*
X26648775Y-33073433D01*
X26651110Y-33064787D01*
X26651588Y-33064206D01*
X26810000Y-32885000D01*
X26744336Y-32834117D01*
X26682481Y-32786185D01*
X26678041Y-32778409D01*
X26680400Y-32769770D01*
X26681367Y-32768672D01*
X26769780Y-32680260D01*
X26778053Y-32676833D01*
X26786326Y-32680260D01*
G37*
%TD.AperFunction*%
%TD*%
%TA.AperFunction,Conductor*%
%TO.N,Net-(U2-A2)*%
G36*
X26477387Y-32423070D02*
G01*
X26794755Y-32515627D01*
X26801738Y-32521233D01*
X26802194Y-32522161D01*
X26937988Y-32831865D01*
X26938077Y-32832075D01*
X26959109Y-32882850D01*
X26960000Y-32887325D01*
X26960000Y-32947226D01*
X26956573Y-32955499D01*
X26948300Y-32958926D01*
X26839279Y-32958926D01*
X26831006Y-32955499D01*
X26827579Y-32947226D01*
X26831006Y-32938953D01*
X26831216Y-32938748D01*
X26831967Y-32938033D01*
X26597835Y-32876492D01*
X26590704Y-32871074D01*
X26589960Y-32869555D01*
X26574746Y-32831865D01*
X26409733Y-32423067D01*
X26409814Y-32414116D01*
X26416203Y-32407842D01*
X26423858Y-32407459D01*
X26477387Y-32423070D01*
G37*
%TD.AperFunction*%
%TD*%
%TA.AperFunction,Conductor*%
%TO.N,/SingleMotorAndCounter/Encoder_A*%
G36*
X29269573Y-26925889D02*
G01*
X29272432Y-26927074D01*
X29278630Y-26933095D01*
X29389798Y-27180959D01*
X29390792Y-27184902D01*
X29391072Y-27188771D01*
X29390657Y-27192815D01*
X29211890Y-27821671D01*
X29209810Y-27825733D01*
X29209028Y-27826721D01*
X29201207Y-27831082D01*
X29192593Y-27828634D01*
X29192582Y-27828626D01*
X29192311Y-27828411D01*
X29188329Y-27822444D01*
X29009341Y-27192815D01*
X29008926Y-27188771D01*
X29009207Y-27184897D01*
X29010198Y-27180964D01*
X29120948Y-26934033D01*
X29123593Y-26930314D01*
X29125846Y-26928189D01*
X29133874Y-26925000D01*
X29265098Y-26925000D01*
X29269573Y-26925889D01*
G37*
%TD.AperFunction*%
%TD*%
%TA.AperFunction,Conductor*%
%TO.N,/SingleMotorAndCounter/Encoder_A*%
G36*
X41599610Y-25989066D02*
G01*
X42736971Y-26395866D01*
X42743607Y-26401879D01*
X42744048Y-26410823D01*
X42743847Y-26411345D01*
X42503775Y-26993269D01*
X42497452Y-26999610D01*
X42492663Y-27000503D01*
X41639833Y-26978906D01*
X41631649Y-26975271D01*
X41628581Y-26969083D01*
X41487530Y-26098547D01*
X41489589Y-26089835D01*
X41490800Y-26088411D01*
X41587401Y-25991810D01*
X41595673Y-25988384D01*
X41599610Y-25989066D01*
G37*
%TD.AperFunction*%
%TD*%
%TA.AperFunction,Conductor*%
%TO.N,/SingleMotorAndCounter/Encoder_B*%
G36*
X28619573Y-26925889D02*
G01*
X28622432Y-26927074D01*
X28628630Y-26933095D01*
X28739798Y-27180959D01*
X28740792Y-27184902D01*
X28741072Y-27188771D01*
X28740657Y-27192815D01*
X28561890Y-27821671D01*
X28559810Y-27825733D01*
X28559028Y-27826721D01*
X28551207Y-27831082D01*
X28542593Y-27828634D01*
X28542582Y-27828626D01*
X28542311Y-27828411D01*
X28538329Y-27822444D01*
X28359341Y-27192815D01*
X28358926Y-27188771D01*
X28359207Y-27184897D01*
X28360198Y-27180964D01*
X28470948Y-26934033D01*
X28473593Y-26930314D01*
X28475846Y-26928189D01*
X28483874Y-26925000D01*
X28615098Y-26925000D01*
X28619573Y-26925889D01*
G37*
%TD.AperFunction*%
%TD*%
%TA.AperFunction,Conductor*%
%TO.N,/SingleMotorAndCounter/Encoder_B*%
G36*
X41599610Y-21989066D02*
G01*
X42736971Y-22395866D01*
X42743607Y-22401879D01*
X42744048Y-22410823D01*
X42743847Y-22411345D01*
X42503775Y-22993269D01*
X42497452Y-22999610D01*
X42492663Y-23000503D01*
X41639833Y-22978906D01*
X41631649Y-22975271D01*
X41628581Y-22969083D01*
X41487530Y-22098547D01*
X41489589Y-22089835D01*
X41490800Y-22088411D01*
X41587401Y-21991810D01*
X41595673Y-21988384D01*
X41599610Y-21989066D01*
G37*
%TD.AperFunction*%
%TD*%
%TA.AperFunction,Conductor*%
%TO.N,Net-(U1-LFLAG{slash})*%
G36*
X25628380Y-23042162D02*
G01*
X25632805Y-23043070D01*
X26093266Y-23235949D01*
X26097052Y-23238500D01*
X26099200Y-23240665D01*
X26102594Y-23248905D01*
X26102594Y-23379745D01*
X26101703Y-23384224D01*
X26100536Y-23387040D01*
X26094247Y-23393352D01*
X25632829Y-23586632D01*
X25628354Y-23587541D01*
X25626548Y-23587548D01*
X25618294Y-23584184D01*
X25617047Y-23582956D01*
X25614497Y-23579217D01*
X25504467Y-23321586D01*
X25503529Y-23317123D01*
X25503484Y-23312948D01*
X25504422Y-23308233D01*
X25530301Y-23247640D01*
X25614490Y-23050510D01*
X25617063Y-23046750D01*
X25618356Y-23045485D01*
X25626621Y-23042149D01*
X25628380Y-23042162D01*
G37*
%TD.AperFunction*%
%TD*%
%TA.AperFunction,Conductor*%
%TO.N,Net-(U1-LFLAG{slash})*%
G36*
X28090352Y-22681832D02*
G01*
X28095925Y-22688841D01*
X28096216Y-22694004D01*
X28071410Y-22841552D01*
X28067519Y-22848467D01*
X27819841Y-23062346D01*
X27811340Y-23065160D01*
X27803921Y-23061764D01*
X27708897Y-22966740D01*
X27705471Y-22958649D01*
X27702984Y-22798266D01*
X27706283Y-22789944D01*
X27711458Y-22786842D01*
X28081456Y-22680817D01*
X28090352Y-22681832D01*
G37*
%TD.AperFunction*%
%TD*%
%TA.AperFunction,Conductor*%
%TO.N,/SingleMotorAndCounter1/Encoder_A*%
G36*
X29399099Y-37783728D02*
G01*
X29404940Y-37789089D01*
X29590462Y-38143268D01*
X29591265Y-38152187D01*
X29588371Y-38156970D01*
X29488388Y-38256954D01*
X29412371Y-38332970D01*
X29404098Y-38336397D01*
X29395825Y-38332970D01*
X29393292Y-38329182D01*
X29363312Y-38256954D01*
X29203799Y-37872651D01*
X29203793Y-37863698D01*
X29210119Y-37857362D01*
X29390147Y-37783690D01*
X29399099Y-37783728D01*
G37*
%TD.AperFunction*%
%TD*%
%TA.AperFunction,Conductor*%
%TO.N,/SingleMotorAndCounter1/Encoder_A*%
G36*
X42051335Y-41952190D02*
G01*
X42543807Y-42492115D01*
X42546851Y-42500537D01*
X42543807Y-42507885D01*
X42051335Y-43047809D01*
X42043228Y-43051612D01*
X42037487Y-43050403D01*
X41086629Y-42578225D01*
X41080744Y-42571476D01*
X41080133Y-42567746D01*
X41080133Y-42432253D01*
X41083560Y-42423980D01*
X41086629Y-42421774D01*
X42037488Y-41949595D01*
X42046421Y-41948986D01*
X42051335Y-41952190D01*
G37*
%TD.AperFunction*%
%TD*%
%TA.AperFunction,Conductor*%
%TO.N,/SingleMotorAndCounter1/Encoder_B*%
G36*
X42051335Y-37952190D02*
G01*
X42543807Y-38492115D01*
X42546851Y-38500537D01*
X42543807Y-38507885D01*
X42051335Y-39047809D01*
X42043228Y-39051612D01*
X42037487Y-39050403D01*
X41086629Y-38578225D01*
X41080744Y-38571476D01*
X41080133Y-38567746D01*
X41080133Y-38432253D01*
X41083560Y-38423980D01*
X41086629Y-38421774D01*
X42037488Y-37949595D01*
X42046421Y-37948986D01*
X42051335Y-37952190D01*
G37*
%TD.AperFunction*%
%TD*%
%TA.AperFunction,Conductor*%
%TO.N,/SingleMotorAndCounter1/Encoder_B*%
G36*
X28520763Y-36886669D02*
G01*
X28524561Y-36889206D01*
X28613387Y-36978033D01*
X28613387Y-36978032D01*
X28613388Y-36978033D01*
X28614256Y-36975934D01*
X28616790Y-36972141D01*
X28617806Y-36971125D01*
X28626078Y-36967699D01*
X28634063Y-36970848D01*
X28634886Y-36971617D01*
X28637380Y-36974967D01*
X28739410Y-37180727D01*
X28740579Y-37184853D01*
X28740952Y-37188906D01*
X28740555Y-37193177D01*
X28561890Y-37821671D01*
X28559810Y-37825733D01*
X28559028Y-37826721D01*
X28551207Y-37831082D01*
X28542593Y-37828634D01*
X28542582Y-37828626D01*
X28542311Y-37828411D01*
X28538329Y-37822444D01*
X28508507Y-37717540D01*
X28359443Y-37193175D01*
X28359046Y-37188906D01*
X28359419Y-37184853D01*
X28360587Y-37180730D01*
X28475000Y-36950000D01*
X28495639Y-36900170D01*
X28496707Y-36898170D01*
X28497970Y-36896279D01*
X28499422Y-36894511D01*
X28504731Y-36889203D01*
X28508522Y-36886670D01*
X28510169Y-36885988D01*
X28519118Y-36885988D01*
X28520763Y-36886669D01*
G37*
%TD.AperFunction*%
%TD*%
M02*
